<?xml version="1.0" encoding="utf-8" standalone="no"?>
<!DOCTYPE svg PUBLIC "-//W3C//DTD SVG 1.1//EN"
  "http://www.w3.org/Graphics/SVG/1.1/DTD/svg11.dtd">
<svg xmlns:xlink="http://www.w3.org/1999/xlink" width="1144.8pt" height="424.637812pt" viewBox="0 0 1144.8 424.637812" xmlns="http://www.w3.org/2000/svg" version="1.1">
 <metadata>
  <rdf:RDF xmlns:dc="http://purl.org/dc/elements/1.1/" xmlns:cc="http://creativecommons.org/ns#" xmlns:rdf="http://www.w3.org/1999/02/22-rdf-syntax-ns#">
   <cc:Work>
    <dc:type rdf:resource="http://purl.org/dc/dcmitype/StillImage"/>
    <dc:date>2025-11-21T23:36:50.403280</dc:date>
    <dc:format>image/svg+xml</dc:format>
    <dc:creator>
     <cc:Agent>
      <dc:title>Matplotlib v3.10.7, https://matplotlib.org/</dc:title>
     </cc:Agent>
    </dc:creator>
   </cc:Work>
  </rdf:RDF>
 </metadata>
 <defs>
  <style type="text/css">*{stroke-linejoin: round; stroke-linecap: butt}</style>
 </defs>
 <g id="figure_1">
  <g id="patch_1">
   <path d="M 0 424.637812 
L 1144.8 424.637812 
L 1144.8 0 
L 0 0 
z
" style="fill: #ffffff"/>
  </g>
  <g id="axes_1">
   <g id="patch_2">
    <path d="M 44.88 235.229812 
L 135.312 235.229812 
Q 142.848 235.229812 142.848 227.637812 
L 142.848 151.717812 
Q 142.848 144.125812 135.312 144.125812 
L 44.88 144.125812 
Q 37.344 144.125812 37.344 151.717812 
L 37.344 227.637812 
Q 37.344 235.229812 44.88 235.229812 
z
" clip-path="url(#pc0852c534f)" style="fill: #e6f3ff; stroke: #000000; stroke-width: 2; stroke-linejoin: miter"/>
   </g>
   <g id="patch_3">
    <path d="M 172.992 235.229812 
L 263.424 235.229812 
Q 270.96 235.229812 270.96 227.637812 
L 270.96 151.717812 
Q 270.96 144.125812 263.424 144.125812 
L 172.992 144.125812 
Q 165.456 144.125812 165.456 151.717812 
L 165.456 227.637812 
Q 165.456 235.229812 172.992 235.229812 
z
" clip-path="url(#pc0852c534f)" style="fill: #fff2e6; stroke: #000000; stroke-width: 2; stroke-linejoin: miter"/>
   </g>
   <g id="patch_4">
    <path d="M 301.104 235.229812 
L 391.536 235.229812 
Q 399.072 235.229812 399.072 227.637812 
L 399.072 151.717812 
Q 399.072 144.125812 391.536 144.125812 
L 301.104 144.125812 
Q 293.568 144.125812 293.568 151.717812 
L 293.568 227.637812 
Q 293.568 235.229812 301.104 235.229812 
z
" clip-path="url(#pc0852c534f)" style="fill: #e6ffe6; stroke: #000000; stroke-width: 2; stroke-linejoin: miter"/>
   </g>
   <g id="patch_5">
    <path d="M 429.216 235.229812 
L 519.648 235.229812 
Q 527.184 235.229812 527.184 227.637812 
L 527.184 151.717812 
Q 527.184 144.125812 519.648 144.125812 
L 429.216 144.125812 
Q 421.68 144.125812 421.68 151.717812 
L 421.68 227.637812 
Q 421.68 235.229812 429.216 235.229812 
z
" clip-path="url(#pc0852c534f)" style="fill: #ffe6e6; stroke: #000000; stroke-width: 2; stroke-linejoin: miter"/>
   </g>
   <g id="patch_6">
    <path d="M 557.328 235.229812 
L 647.76 235.229812 
Q 655.296 235.229812 655.296 227.637812 
L 655.296 151.717812 
Q 655.296 144.125812 647.76 144.125812 
L 557.328 144.125812 
Q 549.792 144.125812 549.792 151.717812 
L 549.792 227.637812 
Q 549.792 235.229812 557.328 235.229812 
z
" clip-path="url(#pc0852c534f)" style="fill: #fff2e6; stroke: #000000; stroke-width: 2; stroke-linejoin: miter"/>
   </g>
   <g id="patch_7">
    <path d="M 685.44 235.229812 
L 775.872 235.229812 
Q 783.408 235.229812 783.408 227.637812 
L 783.408 151.717812 
Q 783.408 144.125812 775.872 144.125812 
L 685.44 144.125812 
Q 677.904 144.125812 677.904 151.717812 
L 677.904 227.637812 
Q 677.904 235.229812 685.44 235.229812 
z
" clip-path="url(#pc0852c534f)" style="fill: #e6ffe6; stroke: #000000; stroke-width: 2; stroke-linejoin: miter"/>
   </g>
   <g id="patch_8">
    <path d="M 813.552 235.229812 
L 903.984 235.229812 
Q 911.52 235.229812 911.52 227.637812 
L 911.52 151.717812 
Q 911.52 144.125812 903.984 144.125812 
L 813.552 144.125812 
Q 806.016 144.125812 806.016 151.717812 
L 806.016 227.637812 
Q 806.016 235.229812 813.552 235.229812 
z
" clip-path="url(#pc0852c534f)" style="fill: #ffcccc; stroke: #000000; stroke-width: 2; stroke-linejoin: miter"/>
   </g>
   <g id="patch_9">
    <path d="M 941.664 235.229812 
L 1032.096 235.229812 
Q 1039.632 235.229812 1039.632 227.637812 
L 1039.632 151.717812 
Q 1039.632 144.125812 1032.096 144.125812 
L 941.664 144.125812 
Q 934.128 144.125812 934.128 151.717812 
L 934.128 227.637812 
Q 934.128 235.229812 941.664 235.229812 
z
" clip-path="url(#pc0852c534f)" style="fill: #ffffe6; stroke: #000000; stroke-width: 2; stroke-linejoin: miter"/>
   </g>
   <g id="patch_10">
    <path d="M 1069.776 235.229812 
L 1160.208 235.229812 
Q 1167.744 235.229812 1167.744 227.637812 
L 1167.744 151.717812 
Q 1167.744 144.125812 1160.208 144.125812 
L 1069.776 144.125812 
Q 1062.24 144.125812 1062.24 151.717812 
L 1062.24 227.637812 
Q 1062.24 235.229812 1069.776 235.229812 
z
" clip-path="url(#pc0852c534f)" style="fill: #ccffcc; stroke: #000000; stroke-width: 2; stroke-linejoin: miter"/>
   </g>
   <g id="patch_11">
    <path d="M 172.992 121.349812 
L 263.424 121.349812 
Q 270.96 121.349812 270.96 113.757812 
L 270.96 53.021812 
Q 270.96 45.429812 263.424 45.429812 
L 172.992 45.429812 
Q 165.456 45.429812 165.456 53.021812 
L 165.456 113.757812 
Q 165.456 121.349812 172.992 121.349812 
z
" clip-path="url(#pc0852c534f)" style="fill: #f0f0f0; stroke: #000000; stroke-width: 2; stroke-linejoin: miter"/>
   </g>
   <g id="patch_12">
    <path d="M 941.664 349.109812 
L 1032.096 349.109812 
Q 1039.632 349.109812 1039.632 341.517812 
L 1039.632 280.781812 
Q 1039.632 273.189812 1032.096 273.189812 
L 941.664 273.189812 
Q 934.128 273.189812 934.128 280.781812 
L 934.128 341.517812 
Q 934.128 349.109812 941.664 349.109812 
z
" clip-path="url(#pc0852c534f)" style="fill: #e6e6ff; stroke: #000000; stroke-width: 2; stroke-linejoin: miter"/>
   </g>
   <g id="patch_13">
    <path d="M 172.992 189.677812 
L 165.456 193.473812 
L 165.456 189.715772 
L 135.312 189.715772 
L 135.312 189.639852 
L 165.456 189.639852 
L 165.456 185.881812 
z
" clip-path="url(#pc0852c534f)" style="stroke: #000000; stroke-linejoin: miter"/>
   </g>
   <g id="patch_14">
    <path d="M 301.104 189.677812 
L 293.568 193.473812 
L 293.568 189.715772 
L 270.96 189.715772 
L 270.96 189.639852 
L 293.568 189.639852 
L 293.568 185.881812 
z
" clip-path="url(#pc0852c534f)" style="stroke: #000000; stroke-linejoin: miter"/>
   </g>
   <g id="patch_15">
    <path d="M 429.216 189.677812 
L 421.68 193.473812 
L 421.68 189.715772 
L 399.072 189.715772 
L 399.072 189.639852 
L 421.68 189.639852 
L 421.68 185.881812 
z
" clip-path="url(#pc0852c534f)" style="stroke: #000000; stroke-linejoin: miter"/>
   </g>
   <g id="patch_16">
    <path d="M 557.328 189.677812 
L 549.792 193.473812 
L 549.792 189.715772 
L 527.184 189.715772 
L 527.184 189.639852 
L 549.792 189.639852 
L 549.792 185.881812 
z
" clip-path="url(#pc0852c534f)" style="stroke: #000000; stroke-linejoin: miter"/>
   </g>
   <g id="patch_17">
    <path d="M 685.44 189.677812 
L 677.904 193.473812 
L 677.904 189.715772 
L 655.296 189.715772 
L 655.296 189.639852 
L 677.904 189.639852 
L 677.904 185.881812 
z
" clip-path="url(#pc0852c534f)" style="stroke: #000000; stroke-linejoin: miter"/>
   </g>
   <g id="patch_18">
    <path d="M 813.552 189.677812 
L 806.016 193.473812 
L 806.016 189.715772 
L 783.408 189.715772 
L 783.408 189.639852 
L 806.016 189.639852 
L 806.016 185.881812 
z
" clip-path="url(#pc0852c534f)" style="stroke: #000000; stroke-linejoin: miter"/>
   </g>
   <g id="patch_19">
    <path d="M 941.664 189.677812 
L 934.128 193.473812 
L 934.128 189.715772 
L 903.984 189.715772 
L 903.984 189.639852 
L 934.128 189.639852 
L 934.128 185.881812 
z
" clip-path="url(#pc0852c534f)" style="stroke: #000000; stroke-linejoin: miter"/>
   </g>
   <g id="patch_20">
    <path d="M 1069.776 189.677812 
L 1062.24 193.473812 
L 1062.24 189.715772 
L 1032.096 189.715772 
L 1032.096 189.639852 
L 1062.24 189.639852 
L 1062.24 185.881812 
z
" clip-path="url(#pc0852c534f)" style="stroke: #000000; stroke-linejoin: miter"/>
   </g>
   <g id="patch_21">
    <path d="M 1212.96 189.677812 
L 1205.424 193.473812 
L 1205.424 189.715772 
L 1160.208 189.715772 
L 1160.208 189.639852 
L 1205.424 189.639852 
L 1205.424 185.881812 
z
" clip-path="url(#pc0852c534f)" style="stroke: #000000; stroke-linejoin: miter"/>
   </g>
   <g id="patch_22">
    <path d="M 270.96 151.717812 
L 267.192 144.125812 
L 270.92232 144.125812 
L 270.92232 83.389812 
L 270.99768 83.389812 
L 270.99768 144.125812 
L 274.728 144.125812 
z
" clip-path="url(#pc0852c534f)" style="stroke: #000000; stroke-linejoin: miter"/>
   </g>
   <g id="patch_23">
    <path d="M 429.216 151.717812 
L 421.68 155.513812 
L 421.68 151.755772 
L 270.96 151.755772 
L 270.96 151.679852 
L 421.68 151.679852 
L 421.68 147.921812 
z
" clip-path="url(#pc0852c534f)" style="stroke: #000000; stroke-linejoin: miter"/>
   </g>
   <g id="patch_24">
    <path d="M 986.88 303.557812 
L 983.112 295.965812 
L 986.84232 295.965812 
L 986.84232 265.597812 
L 986.91768 265.597812 
L 986.91768 295.965812 
L 990.648 295.965812 
z
" clip-path="url(#pc0852c534f)" style="stroke: #000000; stroke-linejoin: miter"/>
   </g>
   <g id="patch_25">
    <path d="M 941.664 303.557812 
L 949.2 299.761812 
L 949.2 303.519852 
L 986.88 303.519852 
L 986.88 303.595772 
L 949.2 303.595772 
L 949.2 307.353812 
z
" clip-path="url(#pc0852c534f)" style="stroke: #000000; stroke-linejoin: miter"/>
   </g>
   <g id="text_1">
    <!-- Antenna -->
    <g transform="translate(66.392875 186.838281) scale(0.1 -0.1)">
     <defs>
      <path id="DejaVuSans-Bold-41" d="M 3419 850 
L 1538 850 
L 1241 0 
L 31 0 
L 1759 4666 
L 3194 4666 
L 4922 0 
L 3713 0 
L 3419 850 
z
M 1838 1716 
L 3116 1716 
L 2478 3572 
L 1838 1716 
z
" transform="scale(0.015625)"/>
      <path id="DejaVuSans-Bold-6e" d="M 4056 2131 
L 4056 0 
L 2931 0 
L 2931 347 
L 2931 1631 
Q 2931 2084 2911 2256 
Q 2891 2428 2841 2509 
Q 2775 2619 2662 2680 
Q 2550 2741 2406 2741 
Q 2056 2741 1856 2470 
Q 1656 2200 1656 1722 
L 1656 0 
L 538 0 
L 538 3500 
L 1656 3500 
L 1656 2988 
Q 1909 3294 2193 3439 
Q 2478 3584 2822 3584 
Q 3428 3584 3742 3212 
Q 4056 2841 4056 2131 
z
" transform="scale(0.015625)"/>
      <path id="DejaVuSans-Bold-74" d="M 1759 4494 
L 1759 3500 
L 2913 3500 
L 2913 2700 
L 1759 2700 
L 1759 1216 
Q 1759 972 1856 886 
Q 1953 800 2241 800 
L 2816 800 
L 2816 0 
L 1856 0 
Q 1194 0 917 276 
Q 641 553 641 1216 
L 641 2700 
L 84 2700 
L 84 3500 
L 641 3500 
L 641 4494 
L 1759 4494 
z
" transform="scale(0.015625)"/>
      <path id="DejaVuSans-Bold-65" d="M 4031 1759 
L 4031 1441 
L 1416 1441 
Q 1456 1047 1700 850 
Q 1944 653 2381 653 
Q 2734 653 3104 758 
Q 3475 863 3866 1075 
L 3866 213 
Q 3469 63 3072 -14 
Q 2675 -91 2278 -91 
Q 1328 -91 801 392 
Q 275 875 275 1747 
Q 275 2603 792 3093 
Q 1309 3584 2216 3584 
Q 3041 3584 3536 3087 
Q 4031 2591 4031 1759 
z
M 2881 2131 
Q 2881 2450 2695 2645 
Q 2509 2841 2209 2841 
Q 1884 2841 1681 2658 
Q 1478 2475 1428 2131 
L 2881 2131 
z
" transform="scale(0.015625)"/>
      <path id="DejaVuSans-Bold-61" d="M 2106 1575 
Q 1756 1575 1579 1456 
Q 1403 1338 1403 1106 
Q 1403 894 1545 773 
Q 1688 653 1941 653 
Q 2256 653 2472 879 
Q 2688 1106 2688 1447 
L 2688 1575 
L 2106 1575 
z
M 3816 1997 
L 3816 0 
L 2688 0 
L 2688 519 
Q 2463 200 2181 54 
Q 1900 -91 1497 -91 
Q 953 -91 614 226 
Q 275 544 275 1050 
Q 275 1666 698 1953 
Q 1122 2241 2028 2241 
L 2688 2241 
L 2688 2328 
Q 2688 2594 2478 2717 
Q 2269 2841 1825 2841 
Q 1466 2841 1156 2769 
Q 847 2697 581 2553 
L 581 3406 
Q 941 3494 1303 3539 
Q 1666 3584 2028 3584 
Q 2975 3584 3395 3211 
Q 3816 2838 3816 1997 
z
" transform="scale(0.015625)"/>
     </defs>
     <use xlink:href="#DejaVuSans-Bold-41"/>
     <use xlink:href="#DejaVuSans-Bold-6e" transform="translate(77.392578 0)"/>
     <use xlink:href="#DejaVuSans-Bold-74" transform="translate(148.583984 0)"/>
     <use xlink:href="#DejaVuSans-Bold-65" transform="translate(196.386719 0)"/>
     <use xlink:href="#DejaVuSans-Bold-6e" transform="translate(264.208984 0)"/>
     <use xlink:href="#DejaVuSans-Bold-6e" transform="translate(335.400391 0)"/>
     <use xlink:href="#DejaVuSans-Bold-61" transform="translate(406.591797 0)"/>
    </g>
    <!-- ðŸ“¡ -->
    <g transform="translate(87.095219 198.036094) scale(0.1 -0.1)">
     <defs>
      <path id="DejaVuSans-Bold-1f4e1" d="M 319 -1131 
L 319 4513 
L 3519 4513 
L 3519 -1131 
L 319 -1131 
z
M 678 -775 
L 3163 -775 
L 3163 4153 
L 678 4153 
L 678 -775 
z
" transform="scale(0.015625)"/>
     </defs>
     <use xlink:href="#DejaVuSans-Bold-1f4e1"/>
    </g>
   </g>
   <g id="text_2">
    <!-- RF -->
    <g transform="translate(210.942375 186.838281) scale(0.1 -0.1)">
     <defs>
      <path id="DejaVuSans-Bold-52" d="M 2297 2597 
Q 2675 2597 2839 2737 
Q 3003 2878 3003 3200 
Q 3003 3519 2839 3656 
Q 2675 3794 2297 3794 
L 1791 3794 
L 1791 2597 
L 2297 2597 
z
M 1791 1766 
L 1791 0 
L 588 0 
L 588 4666 
L 2425 4666 
Q 3347 4666 3776 4356 
Q 4206 4047 4206 3378 
Q 4206 2916 3982 2619 
Q 3759 2322 3309 2181 
Q 3556 2125 3751 1926 
Q 3947 1728 4147 1325 
L 4800 0 
L 3519 0 
L 2950 1159 
Q 2778 1509 2601 1637 
Q 2425 1766 2131 1766 
L 1791 1766 
z
" transform="scale(0.015625)"/>
      <path id="DejaVuSans-Bold-46" d="M 588 4666 
L 3834 4666 
L 3834 3756 
L 1791 3756 
L 1791 2888 
L 3713 2888 
L 3713 1978 
L 1791 1978 
L 1791 0 
L 588 0 
L 588 4666 
z
" transform="scale(0.015625)"/>
     </defs>
     <use xlink:href="#DejaVuSans-Bold-52"/>
     <use xlink:href="#DejaVuSans-Bold-46" transform="translate(77.001953 0)"/>
    </g>
    <!-- Filter -->
    <g transform="translate(203.117375 198.036094) scale(0.1 -0.1)">
     <defs>
      <path id="DejaVuSans-Bold-69" d="M 538 3500 
L 1656 3500 
L 1656 0 
L 538 0 
L 538 3500 
z
M 538 4863 
L 1656 4863 
L 1656 3950 
L 538 3950 
L 538 4863 
z
" transform="scale(0.015625)"/>
      <path id="DejaVuSans-Bold-6c" d="M 538 4863 
L 1656 4863 
L 1656 0 
L 538 0 
L 538 4863 
z
" transform="scale(0.015625)"/>
      <path id="DejaVuSans-Bold-72" d="M 3138 2547 
Q 2991 2616 2845 2648 
Q 2700 2681 2553 2681 
Q 2122 2681 1889 2404 
Q 1656 2128 1656 1613 
L 1656 0 
L 538 0 
L 538 3500 
L 1656 3500 
L 1656 2925 
Q 1872 3269 2151 3426 
Q 2431 3584 2822 3584 
Q 2878 3584 2943 3579 
Q 3009 3575 3134 3559 
L 3138 2547 
z
" transform="scale(0.015625)"/>
     </defs>
     <use xlink:href="#DejaVuSans-Bold-46"/>
     <use xlink:href="#DejaVuSans-Bold-69" transform="translate(68.310547 0)"/>
     <use xlink:href="#DejaVuSans-Bold-6c" transform="translate(102.587891 0)"/>
     <use xlink:href="#DejaVuSans-Bold-74" transform="translate(136.865234 0)"/>
     <use xlink:href="#DejaVuSans-Bold-65" transform="translate(184.667969 0)"/>
     <use xlink:href="#DejaVuSans-Bold-72" transform="translate(252.490234 0)"/>
    </g>
   </g>
   <g id="text_3">
    <!-- RF -->
    <g transform="translate(339.054375 186.838281) scale(0.1 -0.1)">
     <use xlink:href="#DejaVuSans-Bold-52"/>
     <use xlink:href="#DejaVuSans-Bold-46" transform="translate(77.001953 0)"/>
    </g>
    <!-- Amp -->
    <g transform="translate(333.661406 198.036094) scale(0.1 -0.1)">
     <defs>
      <path id="DejaVuSans-Bold-6d" d="M 3781 2919 
Q 3994 3244 4286 3414 
Q 4578 3584 4928 3584 
Q 5531 3584 5847 3212 
Q 6163 2841 6163 2131 
L 6163 0 
L 5038 0 
L 5038 1825 
Q 5041 1866 5042 1909 
Q 5044 1953 5044 2034 
Q 5044 2406 4934 2573 
Q 4825 2741 4581 2741 
Q 4263 2741 4089 2478 
Q 3916 2216 3909 1719 
L 3909 0 
L 2784 0 
L 2784 1825 
Q 2784 2406 2684 2573 
Q 2584 2741 2328 2741 
Q 2006 2741 1831 2477 
Q 1656 2213 1656 1722 
L 1656 0 
L 531 0 
L 531 3500 
L 1656 3500 
L 1656 2988 
Q 1863 3284 2130 3434 
Q 2397 3584 2719 3584 
Q 3081 3584 3359 3409 
Q 3638 3234 3781 2919 
z
" transform="scale(0.015625)"/>
      <path id="DejaVuSans-Bold-70" d="M 1656 506 
L 1656 -1331 
L 538 -1331 
L 538 3500 
L 1656 3500 
L 1656 2988 
Q 1888 3294 2169 3439 
Q 2450 3584 2816 3584 
Q 3463 3584 3878 3070 
Q 4294 2556 4294 1747 
Q 4294 938 3878 423 
Q 3463 -91 2816 -91 
Q 2450 -91 2169 54 
Q 1888 200 1656 506 
z
M 2400 2772 
Q 2041 2772 1848 2508 
Q 1656 2244 1656 1747 
Q 1656 1250 1848 986 
Q 2041 722 2400 722 
Q 2759 722 2948 984 
Q 3138 1247 3138 1747 
Q 3138 2247 2948 2509 
Q 2759 2772 2400 2772 
z
" transform="scale(0.015625)"/>
     </defs>
     <use xlink:href="#DejaVuSans-Bold-41"/>
     <use xlink:href="#DejaVuSans-Bold-6d" transform="translate(77.392578 0)"/>
     <use xlink:href="#DejaVuSans-Bold-70" transform="translate(181.591797 0)"/>
    </g>
   </g>
   <g id="text_4">
    <!-- Mixer -->
    <g transform="translate(458.660125 186.838281) scale(0.1 -0.1)">
     <defs>
      <path id="DejaVuSans-Bold-4d" d="M 588 4666 
L 2119 4666 
L 3181 2169 
L 4250 4666 
L 5778 4666 
L 5778 0 
L 4641 0 
L 4641 3413 
L 3566 897 
L 2803 897 
L 1728 3413 
L 1728 0 
L 588 0 
L 588 4666 
z
" transform="scale(0.015625)"/>
      <path id="DejaVuSans-Bold-78" d="M 1422 1791 
L 159 3500 
L 1344 3500 
L 2059 2463 
L 2784 3500 
L 3969 3500 
L 2706 1797 
L 4031 0 
L 2847 0 
L 2059 1106 
L 1281 0 
L 97 0 
L 1422 1791 
z
" transform="scale(0.015625)"/>
     </defs>
     <use xlink:href="#DejaVuSans-Bold-4d"/>
     <use xlink:href="#DejaVuSans-Bold-69" transform="translate(99.511719 0)"/>
     <use xlink:href="#DejaVuSans-Bold-78" transform="translate(133.789062 0)"/>
     <use xlink:href="#DejaVuSans-Bold-65" transform="translate(198.291016 0)"/>
     <use xlink:href="#DejaVuSans-Bold-72" transform="translate(266.113281 0)"/>
    </g>
    <!-- ðŸ”„ -->
    <g transform="translate(471.431219 198.036094) scale(0.1 -0.1)">
     <defs>
      <path id="DejaVuSans-Bold-1f504" d="M 319 -1131 
L 319 4513 
L 3519 4513 
L 3519 -1131 
L 319 -1131 
z
M 678 -775 
L 3163 -775 
L 3163 4153 
L 678 4153 
L 678 -775 
z
" transform="scale(0.015625)"/>
     </defs>
     <use xlink:href="#DejaVuSans-Bold-1f504"/>
    </g>
   </g>
   <g id="text_5">
    <!-- IF -->
    <g transform="translate(597.268219 186.838281) scale(0.1 -0.1)">
     <defs>
      <path id="DejaVuSans-Bold-49" d="M 588 4666 
L 1791 4666 
L 1791 0 
L 588 0 
L 588 4666 
z
" transform="scale(0.015625)"/>
     </defs>
     <use xlink:href="#DejaVuSans-Bold-49"/>
     <use xlink:href="#DejaVuSans-Bold-46" transform="translate(37.207031 0)"/>
    </g>
    <!-- Filter -->
    <g transform="translate(587.453375 198.036094) scale(0.1 -0.1)">
     <use xlink:href="#DejaVuSans-Bold-46"/>
     <use xlink:href="#DejaVuSans-Bold-69" transform="translate(68.310547 0)"/>
     <use xlink:href="#DejaVuSans-Bold-6c" transform="translate(102.587891 0)"/>
     <use xlink:href="#DejaVuSans-Bold-74" transform="translate(136.865234 0)"/>
     <use xlink:href="#DejaVuSans-Bold-65" transform="translate(184.667969 0)"/>
     <use xlink:href="#DejaVuSans-Bold-72" transform="translate(252.490234 0)"/>
    </g>
   </g>
   <g id="text_6">
    <!-- IF -->
    <g transform="translate(725.380219 186.838281) scale(0.1 -0.1)">
     <use xlink:href="#DejaVuSans-Bold-49"/>
     <use xlink:href="#DejaVuSans-Bold-46" transform="translate(37.207031 0)"/>
    </g>
    <!-- Amp -->
    <g transform="translate(717.997406 198.036094) scale(0.1 -0.1)">
     <use xlink:href="#DejaVuSans-Bold-41"/>
     <use xlink:href="#DejaVuSans-Bold-6d" transform="translate(77.392578 0)"/>
     <use xlink:href="#DejaVuSans-Bold-70" transform="translate(181.591797 0)"/>
    </g>
   </g>
   <g id="text_7">
    <!-- Limiter -->
    <g transform="translate(838.696906 186.838281) scale(0.1 -0.1)">
     <defs>
      <path id="DejaVuSans-Bold-4c" d="M 588 4666 
L 1791 4666 
L 1791 909 
L 3903 909 
L 3903 0 
L 588 0 
L 588 4666 
z
" transform="scale(0.015625)"/>
     </defs>
     <use xlink:href="#DejaVuSans-Bold-4c"/>
     <use xlink:href="#DejaVuSans-Bold-69" transform="translate(63.720703 0)"/>
     <use xlink:href="#DejaVuSans-Bold-6d" transform="translate(97.998047 0)"/>
     <use xlink:href="#DejaVuSans-Bold-69" transform="translate(202.197266 0)"/>
     <use xlink:href="#DejaVuSans-Bold-74" transform="translate(236.474609 0)"/>
     <use xlink:href="#DejaVuSans-Bold-65" transform="translate(284.277344 0)"/>
     <use xlink:href="#DejaVuSans-Bold-72" transform="translate(352.099609 0)"/>
    </g>
    <!-- ðŸ“ -->
    <g transform="translate(855.767219 198.036094) scale(0.1 -0.1)">
     <defs>
      <path id="DejaVuSans-Bold-1f4cf" d="M 319 -1131 
L 319 4513 
L 3519 4513 
L 3519 -1131 
L 319 -1131 
z
M 678 -775 
L 3163 -775 
L 3163 4153 
L 678 4153 
L 678 -775 
z
" transform="scale(0.015625)"/>
     </defs>
     <use xlink:href="#DejaVuSans-Bold-1f4cf"/>
    </g>
   </g>
   <g id="text_8">
    <!-- AM -->
    <g transform="translate(978.034688 181.239375) scale(0.1 -0.1)">
     <use xlink:href="#DejaVuSans-Bold-41"/>
     <use xlink:href="#DejaVuSans-Bold-4d" transform="translate(77.392578 0)"/>
    </g>
    <!-- Detector -->
    <g transform="translate(962.301875 192.437187) scale(0.1 -0.1)">
     <defs>
      <path id="DejaVuSans-Bold-44" d="M 1791 3756 
L 1791 909 
L 2222 909 
Q 2959 909 3348 1275 
Q 3738 1641 3738 2338 
Q 3738 3031 3350 3393 
Q 2963 3756 2222 3756 
L 1791 3756 
z
M 588 4666 
L 1856 4666 
Q 2919 4666 3439 4514 
Q 3959 4363 4331 4000 
Q 4659 3684 4818 3271 
Q 4978 2859 4978 2338 
Q 4978 1809 4818 1395 
Q 4659 981 4331 666 
Q 3956 303 3431 151 
Q 2906 0 1856 0 
L 588 0 
L 588 4666 
z
" transform="scale(0.015625)"/>
      <path id="DejaVuSans-Bold-63" d="M 3366 3391 
L 3366 2478 
Q 3138 2634 2908 2709 
Q 2678 2784 2431 2784 
Q 1963 2784 1702 2511 
Q 1441 2238 1441 1747 
Q 1441 1256 1702 982 
Q 1963 709 2431 709 
Q 2694 709 2930 787 
Q 3166 866 3366 1019 
L 3366 103 
Q 3103 6 2833 -42 
Q 2563 -91 2291 -91 
Q 1344 -91 809 395 
Q 275 881 275 1747 
Q 275 2613 809 3098 
Q 1344 3584 2291 3584 
Q 2566 3584 2833 3536 
Q 3100 3488 3366 3391 
z
" transform="scale(0.015625)"/>
      <path id="DejaVuSans-Bold-6f" d="M 2203 2784 
Q 1831 2784 1636 2517 
Q 1441 2250 1441 1747 
Q 1441 1244 1636 976 
Q 1831 709 2203 709 
Q 2569 709 2762 976 
Q 2956 1244 2956 1747 
Q 2956 2250 2762 2517 
Q 2569 2784 2203 2784 
z
M 2203 3584 
Q 3106 3584 3614 3096 
Q 4122 2609 4122 1747 
Q 4122 884 3614 396 
Q 3106 -91 2203 -91 
Q 1297 -91 786 396 
Q 275 884 275 1747 
Q 275 2609 786 3096 
Q 1297 3584 2203 3584 
z
" transform="scale(0.015625)"/>
     </defs>
     <use xlink:href="#DejaVuSans-Bold-44"/>
     <use xlink:href="#DejaVuSans-Bold-65" transform="translate(83.007812 0)"/>
     <use xlink:href="#DejaVuSans-Bold-74" transform="translate(150.830078 0)"/>
     <use xlink:href="#DejaVuSans-Bold-65" transform="translate(198.632812 0)"/>
     <use xlink:href="#DejaVuSans-Bold-63" transform="translate(266.455078 0)"/>
     <use xlink:href="#DejaVuSans-Bold-74" transform="translate(325.732422 0)"/>
     <use xlink:href="#DejaVuSans-Bold-6f" transform="translate(373.535156 0)"/>
     <use xlink:href="#DejaVuSans-Bold-72" transform="translate(442.236328 0)"/>
    </g>
    <!-- ðŸŽ¯ -->
    <g transform="translate(983.879219 203.635) scale(0.1 -0.1)">
     <defs>
      <path id="DejaVuSans-Bold-1f3af" d="M 319 -1131 
L 319 4513 
L 3519 4513 
L 3519 -1131 
L 319 -1131 
z
M 678 -775 
L 3163 -775 
L 3163 4153 
L 678 4153 
L 678 -775 
z
" transform="scale(0.015625)"/>
     </defs>
     <use xlink:href="#DejaVuSans-Bold-1f3af"/>
    </g>
   </g>
   <g id="text_9">
    <!-- AGC -->
    <g transform="translate(1103.349031 186.838281) scale(0.1 -0.1)">
     <defs>
      <path id="DejaVuSans-Bold-47" d="M 4781 347 
Q 4331 128 3847 18 
Q 3363 -91 2847 -91 
Q 1681 -91 1000 561 
Q 319 1213 319 2328 
Q 319 3456 1012 4103 
Q 1706 4750 2913 4750 
Q 3378 4750 3804 4662 
Q 4231 4575 4609 4403 
L 4609 3438 
Q 4219 3659 3833 3768 
Q 3447 3878 3059 3878 
Q 2341 3878 1952 3476 
Q 1563 3075 1563 2328 
Q 1563 1588 1938 1184 
Q 2313 781 3003 781 
Q 3191 781 3352 804 
Q 3513 828 3641 878 
L 3641 1784 
L 2906 1784 
L 2906 2591 
L 4781 2591 
L 4781 347 
z
" transform="scale(0.015625)"/>
      <path id="DejaVuSans-Bold-43" d="M 4288 256 
Q 3956 84 3597 -3 
Q 3238 -91 2847 -91 
Q 1681 -91 1000 561 
Q 319 1213 319 2328 
Q 319 3447 1000 4098 
Q 1681 4750 2847 4750 
Q 3238 4750 3597 4662 
Q 3956 4575 4288 4403 
L 4288 3438 
Q 3953 3666 3628 3772 
Q 3303 3878 2944 3878 
Q 2300 3878 1931 3465 
Q 1563 3053 1563 2328 
Q 1563 1606 1931 1193 
Q 2300 781 2944 781 
Q 3303 781 3628 887 
Q 3953 994 4288 1222 
L 4288 256 
z
" transform="scale(0.015625)"/>
     </defs>
     <use xlink:href="#DejaVuSans-Bold-41"/>
     <use xlink:href="#DejaVuSans-Bold-47" transform="translate(77.392578 0)"/>
     <use xlink:href="#DejaVuSans-Bold-43" transform="translate(159.472656 0)"/>
    </g>
    <!-- ðŸ“Š -->
    <g transform="translate(1111.991219 198.036094) scale(0.1 -0.1)">
     <defs>
      <path id="DejaVuSans-Bold-1f4ca" d="M 319 -1131 
L 319 4513 
L 3519 4513 
L 3519 -1131 
L 319 -1131 
z
M 678 -775 
L 3163 -775 
L 3163 4153 
L 678 4153 
L 678 -775 
z
" transform="scale(0.015625)"/>
     </defs>
     <use xlink:href="#DejaVuSans-Bold-1f4ca"/>
    </g>
   </g>
   <g id="text_10">
    <!-- LO -->
    <g transform="translate(210.952531 80.550281) scale(0.1 -0.1)">
     <defs>
      <path id="DejaVuSans-Bold-4f" d="M 2719 3878 
Q 2169 3878 1866 3472 
Q 1563 3066 1563 2328 
Q 1563 1594 1866 1187 
Q 2169 781 2719 781 
Q 3272 781 3575 1187 
Q 3878 1594 3878 2328 
Q 3878 3066 3575 3472 
Q 3272 3878 2719 3878 
z
M 2719 4750 
Q 3844 4750 4481 4106 
Q 5119 3463 5119 2328 
Q 5119 1197 4481 553 
Q 3844 -91 2719 -91 
Q 1597 -91 958 553 
Q 319 1197 319 2328 
Q 319 3463 958 4106 
Q 1597 4750 2719 4750 
z
" transform="scale(0.015625)"/>
     </defs>
     <use xlink:href="#DejaVuSans-Bold-4c"/>
     <use xlink:href="#DejaVuSans-Bold-4f" transform="translate(60.095703 0)"/>
    </g>
    <!-- ðŸ”„ -->
    <g transform="translate(215.207219 91.748094) scale(0.1 -0.1)">
     <use xlink:href="#DejaVuSans-Bold-1f504"/>
    </g>
   </g>
   <g id="text_11">
    <!-- S-Meter -->
    <g transform="translate(964.590156 308.310281) scale(0.1 -0.1)">
     <defs>
      <path id="DejaVuSans-Bold-53" d="M 3834 4519 
L 3834 3531 
Q 3450 3703 3084 3790 
Q 2719 3878 2394 3878 
Q 1963 3878 1756 3759 
Q 1550 3641 1550 3391 
Q 1550 3203 1689 3098 
Q 1828 2994 2194 2919 
L 2706 2816 
Q 3484 2659 3812 2340 
Q 4141 2022 4141 1434 
Q 4141 663 3683 286 
Q 3225 -91 2284 -91 
Q 1841 -91 1394 -6 
Q 947 78 500 244 
L 500 1259 
Q 947 1022 1364 901 
Q 1781 781 2169 781 
Q 2563 781 2772 912 
Q 2981 1044 2981 1288 
Q 2981 1506 2839 1625 
Q 2697 1744 2272 1838 
L 1806 1941 
Q 1106 2091 782 2419 
Q 459 2747 459 3303 
Q 459 4000 909 4375 
Q 1359 4750 2203 4750 
Q 2588 4750 2994 4692 
Q 3400 4634 3834 4519 
z
" transform="scale(0.015625)"/>
      <path id="DejaVuSans-Bold-2d" d="M 347 2297 
L 2309 2297 
L 2309 1388 
L 347 1388 
L 347 2297 
z
" transform="scale(0.015625)"/>
     </defs>
     <use xlink:href="#DejaVuSans-Bold-53"/>
     <use xlink:href="#DejaVuSans-Bold-2d" transform="translate(72.021484 0)"/>
     <use xlink:href="#DejaVuSans-Bold-4d" transform="translate(113.525391 0)"/>
     <use xlink:href="#DejaVuSans-Bold-65" transform="translate(213.037109 0)"/>
     <use xlink:href="#DejaVuSans-Bold-74" transform="translate(280.859375 0)"/>
     <use xlink:href="#DejaVuSans-Bold-65" transform="translate(328.662109 0)"/>
     <use xlink:href="#DejaVuSans-Bold-72" transform="translate(396.484375 0)"/>
    </g>
    <!-- ðŸ“Š -->
    <g transform="translate(983.879219 319.508094) scale(0.1 -0.1)">
     <use xlink:href="#DejaVuSans-Bold-1f4ca"/>
    </g>
   </g>
   <g id="text_12">
    <!-- Schema a Blocchi Ricevitore AM (A3E) -->
    <g transform="translate(422.46875 17.837812) scale(0.14 -0.14)">
     <defs>
      <path id="DejaVuSans-Bold-68" d="M 4056 2131 
L 4056 0 
L 2931 0 
L 2931 347 
L 2931 1625 
Q 2931 2084 2911 2256 
Q 2891 2428 2841 2509 
Q 2775 2619 2662 2680 
Q 2550 2741 2406 2741 
Q 2056 2741 1856 2470 
Q 1656 2200 1656 1722 
L 1656 0 
L 538 0 
L 538 4863 
L 1656 4863 
L 1656 2988 
Q 1909 3294 2193 3439 
Q 2478 3584 2822 3584 
Q 3428 3584 3742 3212 
Q 4056 2841 4056 2131 
z
" transform="scale(0.015625)"/>
      <path id="DejaVuSans-Bold-20" transform="scale(0.015625)"/>
      <path id="DejaVuSans-Bold-42" d="M 2456 2859 
Q 2741 2859 2887 2984 
Q 3034 3109 3034 3353 
Q 3034 3594 2887 3720 
Q 2741 3847 2456 3847 
L 1791 3847 
L 1791 2859 
L 2456 2859 
z
M 2497 819 
Q 2859 819 3042 972 
Q 3225 1125 3225 1434 
Q 3225 1738 3044 1889 
Q 2863 2041 2497 2041 
L 1791 2041 
L 1791 819 
L 2497 819 
z
M 3616 2497 
Q 4003 2384 4215 2081 
Q 4428 1778 4428 1338 
Q 4428 663 3972 331 
Q 3516 0 2584 0 
L 588 0 
L 588 4666 
L 2394 4666 
Q 3366 4666 3802 4372 
Q 4238 4078 4238 3431 
Q 4238 3091 4078 2852 
Q 3919 2613 3616 2497 
z
" transform="scale(0.015625)"/>
      <path id="DejaVuSans-Bold-76" d="M 97 3500 
L 1216 3500 
L 2088 1081 
L 2956 3500 
L 4078 3500 
L 2700 0 
L 1472 0 
L 97 3500 
z
" transform="scale(0.015625)"/>
      <path id="DejaVuSans-Bold-28" d="M 2413 -844 
L 1484 -844 
Q 1006 -72 778 623 
Q 550 1319 550 2003 
Q 550 2688 779 3389 
Q 1009 4091 1484 4856 
L 2413 4856 
Q 2013 4116 1813 3408 
Q 1613 2700 1613 2009 
Q 1613 1319 1811 609 
Q 2009 -100 2413 -844 
z
" transform="scale(0.015625)"/>
      <path id="DejaVuSans-Bold-33" d="M 2981 2516 
Q 3453 2394 3698 2092 
Q 3944 1791 3944 1325 
Q 3944 631 3412 270 
Q 2881 -91 1863 -91 
Q 1503 -91 1142 -33 
Q 781 25 428 141 
L 428 1069 
Q 766 900 1098 814 
Q 1431 728 1753 728 
Q 2231 728 2486 893 
Q 2741 1059 2741 1369 
Q 2741 1688 2480 1852 
Q 2219 2016 1709 2016 
L 1228 2016 
L 1228 2791 
L 1734 2791 
Q 2188 2791 2409 2933 
Q 2631 3075 2631 3366 
Q 2631 3634 2415 3781 
Q 2200 3928 1806 3928 
Q 1516 3928 1219 3862 
Q 922 3797 628 3669 
L 628 4550 
Q 984 4650 1334 4700 
Q 1684 4750 2022 4750 
Q 2931 4750 3382 4451 
Q 3834 4153 3834 3553 
Q 3834 3144 3618 2883 
Q 3403 2622 2981 2516 
z
" transform="scale(0.015625)"/>
      <path id="DejaVuSans-Bold-45" d="M 588 4666 
L 3834 4666 
L 3834 3756 
L 1791 3756 
L 1791 2888 
L 3713 2888 
L 3713 1978 
L 1791 1978 
L 1791 909 
L 3903 909 
L 3903 0 
L 588 0 
L 588 4666 
z
" transform="scale(0.015625)"/>
      <path id="DejaVuSans-Bold-29" d="M 513 -844 
Q 913 -100 1113 609 
Q 1313 1319 1313 2009 
Q 1313 2700 1113 3408 
Q 913 4116 513 4856 
L 1441 4856 
Q 1916 4091 2145 3389 
Q 2375 2688 2375 2003 
Q 2375 1319 2147 623 
Q 1919 -72 1441 -844 
L 513 -844 
z
" transform="scale(0.015625)"/>
     </defs>
     <use xlink:href="#DejaVuSans-Bold-53"/>
     <use xlink:href="#DejaVuSans-Bold-63" transform="translate(72.021484 0)"/>
     <use xlink:href="#DejaVuSans-Bold-68" transform="translate(131.298828 0)"/>
     <use xlink:href="#DejaVuSans-Bold-65" transform="translate(202.490234 0)"/>
     <use xlink:href="#DejaVuSans-Bold-6d" transform="translate(270.3125 0)"/>
     <use xlink:href="#DejaVuSans-Bold-61" transform="translate(374.511719 0)"/>
     <use xlink:href="#DejaVuSans-Bold-20" transform="translate(441.992188 0)"/>
     <use xlink:href="#DejaVuSans-Bold-61" transform="translate(476.806641 0)"/>
     <use xlink:href="#DejaVuSans-Bold-20" transform="translate(544.287109 0)"/>
     <use xlink:href="#DejaVuSans-Bold-42" transform="translate(579.101562 0)"/>
     <use xlink:href="#DejaVuSans-Bold-6c" transform="translate(655.322266 0)"/>
     <use xlink:href="#DejaVuSans-Bold-6f" transform="translate(689.599609 0)"/>
     <use xlink:href="#DejaVuSans-Bold-63" transform="translate(758.300781 0)"/>
     <use xlink:href="#DejaVuSans-Bold-63" transform="translate(817.578125 0)"/>
     <use xlink:href="#DejaVuSans-Bold-68" transform="translate(876.855469 0)"/>
     <use xlink:href="#DejaVuSans-Bold-69" transform="translate(948.046875 0)"/>
     <use xlink:href="#DejaVuSans-Bold-20" transform="translate(982.324219 0)"/>
     <use xlink:href="#DejaVuSans-Bold-52" transform="translate(1017.138672 0)"/>
     <use xlink:href="#DejaVuSans-Bold-69" transform="translate(1094.140625 0)"/>
     <use xlink:href="#DejaVuSans-Bold-63" transform="translate(1128.417969 0)"/>
     <use xlink:href="#DejaVuSans-Bold-65" transform="translate(1187.695312 0)"/>
     <use xlink:href="#DejaVuSans-Bold-76" transform="translate(1255.517578 0)"/>
     <use xlink:href="#DejaVuSans-Bold-69" transform="translate(1320.703125 0)"/>
     <use xlink:href="#DejaVuSans-Bold-74" transform="translate(1354.980469 0)"/>
     <use xlink:href="#DejaVuSans-Bold-6f" transform="translate(1402.783203 0)"/>
     <use xlink:href="#DejaVuSans-Bold-72" transform="translate(1471.484375 0)"/>
     <use xlink:href="#DejaVuSans-Bold-65" transform="translate(1520.800781 0)"/>
     <use xlink:href="#DejaVuSans-Bold-20" transform="translate(1588.623047 0)"/>
     <use xlink:href="#DejaVuSans-Bold-41" transform="translate(1623.4375 0)"/>
     <use xlink:href="#DejaVuSans-Bold-4d" transform="translate(1700.830078 0)"/>
     <use xlink:href="#DejaVuSans-Bold-20" transform="translate(1800.341797 0)"/>
     <use xlink:href="#DejaVuSans-Bold-28" transform="translate(1835.15625 0)"/>
     <use xlink:href="#DejaVuSans-Bold-41" transform="translate(1880.859375 0)"/>
     <use xlink:href="#DejaVuSans-Bold-33" transform="translate(1958.251953 0)"/>
     <use xlink:href="#DejaVuSans-Bold-45" transform="translate(2027.832031 0)"/>
     <use xlink:href="#DejaVuSans-Bold-29" transform="translate(2096.142578 0)"/>
    </g>
   </g>
  </g>
 </g>
 <defs>
  <clipPath id="pc0852c534f">
   <rect x="7.2" y="37.837812" width="1130.4" height="379.6"/>
  </clipPath>
 </defs>
</svg>
