<?xml version="1.0" encoding="utf-8" standalone="no"?>
<!DOCTYPE svg PUBLIC "-//W3C//DTD SVG 1.1//EN"
  "http://www.w3.org/Graphics/SVG/1.1/DTD/svg11.dtd">
<svg xmlns:xlink="http://www.w3.org/1999/xlink" width="1072.8pt" height="424.637812pt" viewBox="0 0 1072.8 424.637812" xmlns="http://www.w3.org/2000/svg" version="1.1">
 <metadata>
  <rdf:RDF xmlns:dc="http://purl.org/dc/elements/1.1/" xmlns:cc="http://creativecommons.org/ns#" xmlns:rdf="http://www.w3.org/1999/02/22-rdf-syntax-ns#">
   <cc:Work>
    <dc:type rdf:resource="http://purl.org/dc/dcmitype/StillImage"/>
    <dc:date>2025-11-21T23:36:50.309812</dc:date>
    <dc:format>image/svg+xml</dc:format>
    <dc:creator>
     <cc:Agent>
      <dc:title>Matplotlib v3.10.7, https://matplotlib.org/</dc:title>
     </cc:Agent>
    </dc:creator>
   </cc:Work>
  </rdf:RDF>
 </metadata>
 <defs>
  <style type="text/css">*{stroke-linejoin: round; stroke-linecap: butt}</style>
 </defs>
 <g id="figure_1">
  <g id="patch_1">
   <path d="M 0 424.637812 
L 1072.8 424.637812 
L 1072.8 0 
L 0 0 
z
" style="fill: #ffffff"/>
  </g>
  <g id="axes_1">
   <g id="patch_2">
    <path d="M 42.48 235.229812 
L 148.32 235.229812 
Q 155.376 235.229812 155.376 227.637812 
L 155.376 151.717812 
Q 155.376 144.125812 148.32 144.125812 
L 42.48 144.125812 
Q 35.424 144.125812 35.424 151.717812 
L 35.424 227.637812 
Q 35.424 235.229812 42.48 235.229812 
z
" clip-path="url(#paf8976ebf0)" style="fill: #e6f3ff; stroke: #000000; stroke-width: 2; stroke-linejoin: miter"/>
   </g>
   <g id="patch_3">
    <path d="M 183.6 235.229812 
L 289.44 235.229812 
Q 296.496 235.229812 296.496 227.637812 
L 296.496 151.717812 
Q 296.496 144.125812 289.44 144.125812 
L 183.6 144.125812 
Q 176.544 144.125812 176.544 151.717812 
L 176.544 227.637812 
Q 176.544 235.229812 183.6 235.229812 
z
" clip-path="url(#paf8976ebf0)" style="fill: #fff2e6; stroke: #000000; stroke-width: 2; stroke-linejoin: miter"/>
   </g>
   <g id="patch_4">
    <path d="M 324.72 235.229812 
L 430.56 235.229812 
Q 437.616 235.229812 437.616 227.637812 
L 437.616 151.717812 
Q 437.616 144.125812 430.56 144.125812 
L 324.72 144.125812 
Q 317.664 144.125812 317.664 151.717812 
L 317.664 227.637812 
Q 317.664 235.229812 324.72 235.229812 
z
" clip-path="url(#paf8976ebf0)" style="fill: #e6ffe6; stroke: #000000; stroke-width: 2; stroke-linejoin: miter"/>
   </g>
   <g id="patch_5">
    <path d="M 465.84 235.229812 
L 571.68 235.229812 
Q 578.736 235.229812 578.736 227.637812 
L 578.736 151.717812 
Q 578.736 144.125812 571.68 144.125812 
L 465.84 144.125812 
Q 458.784 144.125812 458.784 151.717812 
L 458.784 227.637812 
Q 458.784 235.229812 465.84 235.229812 
z
" clip-path="url(#paf8976ebf0)" style="fill: #ffe6e6; stroke: #000000; stroke-width: 2; stroke-linejoin: miter"/>
   </g>
   <g id="patch_6">
    <path d="M 606.96 235.229812 
L 712.8 235.229812 
Q 719.856 235.229812 719.856 227.637812 
L 719.856 151.717812 
Q 719.856 144.125812 712.8 144.125812 
L 606.96 144.125812 
Q 599.904 144.125812 599.904 151.717812 
L 599.904 227.637812 
Q 599.904 235.229812 606.96 235.229812 
z
" clip-path="url(#paf8976ebf0)" style="fill: #fff2e6; stroke: #000000; stroke-width: 2; stroke-linejoin: miter"/>
   </g>
   <g id="patch_7">
    <path d="M 748.08 235.229812 
L 853.92 235.229812 
Q 860.976 235.229812 860.976 227.637812 
L 860.976 151.717812 
Q 860.976 144.125812 853.92 144.125812 
L 748.08 144.125812 
Q 741.024 144.125812 741.024 151.717812 
L 741.024 227.637812 
Q 741.024 235.229812 748.08 235.229812 
z
" clip-path="url(#paf8976ebf0)" style="fill: #e6ffe6; stroke: #000000; stroke-width: 2; stroke-linejoin: miter"/>
   </g>
   <g id="patch_8">
    <path d="M 889.2 235.229812 
L 995.04 235.229812 
Q 1002.096 235.229812 1002.096 227.637812 
L 1002.096 151.717812 
Q 1002.096 144.125812 995.04 144.125812 
L 889.2 144.125812 
Q 882.144 144.125812 882.144 151.717812 
L 882.144 227.637812 
Q 882.144 235.229812 889.2 235.229812 
z
" clip-path="url(#paf8976ebf0)" style="fill: #ffffe6; stroke: #000000; stroke-width: 2; stroke-linejoin: miter"/>
   </g>
   <g id="patch_9">
    <path d="M 183.6 121.349812 
L 289.44 121.349812 
Q 296.496 121.349812 296.496 113.757812 
L 296.496 53.021812 
Q 296.496 45.429812 289.44 45.429812 
L 183.6 45.429812 
Q 176.544 45.429812 176.544 53.021812 
L 176.544 113.757812 
Q 176.544 121.349812 183.6 121.349812 
z
" clip-path="url(#paf8976ebf0)" style="fill: #f0f0f0; stroke: #000000; stroke-width: 2; stroke-linejoin: miter"/>
   </g>
   <g id="patch_10">
    <path d="M 183.6 189.677812 
L 176.544 193.473812 
L 176.544 189.715772 
L 148.32 189.715772 
L 148.32 189.639852 
L 176.544 189.639852 
L 176.544 185.881812 
z
" clip-path="url(#paf8976ebf0)" style="stroke: #000000; stroke-linejoin: miter"/>
   </g>
   <g id="patch_11">
    <path d="M 324.72 189.677812 
L 317.664 193.473812 
L 317.664 189.715772 
L 289.44 189.715772 
L 289.44 189.639852 
L 317.664 189.639852 
L 317.664 185.881812 
z
" clip-path="url(#paf8976ebf0)" style="stroke: #000000; stroke-linejoin: miter"/>
   </g>
   <g id="patch_12">
    <path d="M 465.84 189.677812 
L 458.784 193.473812 
L 458.784 189.715772 
L 430.56 189.715772 
L 430.56 189.639852 
L 458.784 189.639852 
L 458.784 185.881812 
z
" clip-path="url(#paf8976ebf0)" style="stroke: #000000; stroke-linejoin: miter"/>
   </g>
   <g id="patch_13">
    <path d="M 606.96 189.677812 
L 599.904 193.473812 
L 599.904 189.715772 
L 571.68 189.715772 
L 571.68 189.639852 
L 599.904 189.639852 
L 599.904 185.881812 
z
" clip-path="url(#paf8976ebf0)" style="stroke: #000000; stroke-linejoin: miter"/>
   </g>
   <g id="patch_14">
    <path d="M 748.08 189.677812 
L 741.024 193.473812 
L 741.024 189.715772 
L 712.8 189.715772 
L 712.8 189.639852 
L 741.024 189.639852 
L 741.024 185.881812 
z
" clip-path="url(#paf8976ebf0)" style="stroke: #000000; stroke-linejoin: miter"/>
   </g>
   <g id="patch_15">
    <path d="M 889.2 189.677812 
L 882.144 193.473812 
L 882.144 189.715772 
L 853.92 189.715772 
L 853.92 189.639852 
L 882.144 189.639852 
L 882.144 185.881812 
z
" clip-path="url(#paf8976ebf0)" style="stroke: #000000; stroke-linejoin: miter"/>
   </g>
   <g id="patch_16">
    <path d="M 1065.6 189.677812 
L 1058.544 193.473812 
L 1058.544 189.715772 
L 995.04 189.715772 
L 995.04 189.639852 
L 1058.544 189.639852 
L 1058.544 185.881812 
z
" clip-path="url(#paf8976ebf0)" style="stroke: #000000; stroke-linejoin: miter"/>
   </g>
   <g id="patch_17">
    <path d="M 289.44 151.717812 
L 285.912 144.125812 
L 289.40472 144.125812 
L 289.40472 83.389812 
L 289.47528 83.389812 
L 289.47528 144.125812 
L 292.968 144.125812 
z
" clip-path="url(#paf8976ebf0)" style="stroke: #000000; stroke-linejoin: miter"/>
   </g>
   <g id="patch_18">
    <path d="M 465.84 151.717812 
L 458.784 155.513812 
L 458.784 151.755772 
L 289.44 151.755772 
L 289.44 151.679852 
L 458.784 151.679852 
L 458.784 147.921812 
z
" clip-path="url(#paf8976ebf0)" style="stroke: #000000; stroke-linejoin: miter"/>
   </g>
   <g id="text_1">
    <!-- Antenna -->
    <g transform="translate(71.696875 186.838281) scale(0.1 -0.1)">
     <defs>
      <path id="DejaVuSans-Bold-41" d="M 3419 850 
L 1538 850 
L 1241 0 
L 31 0 
L 1759 4666 
L 3194 4666 
L 4922 0 
L 3713 0 
L 3419 850 
z
M 1838 1716 
L 3116 1716 
L 2478 3572 
L 1838 1716 
z
" transform="scale(0.015625)"/>
      <path id="DejaVuSans-Bold-6e" d="M 4056 2131 
L 4056 0 
L 2931 0 
L 2931 347 
L 2931 1631 
Q 2931 2084 2911 2256 
Q 2891 2428 2841 2509 
Q 2775 2619 2662 2680 
Q 2550 2741 2406 2741 
Q 2056 2741 1856 2470 
Q 1656 2200 1656 1722 
L 1656 0 
L 538 0 
L 538 3500 
L 1656 3500 
L 1656 2988 
Q 1909 3294 2193 3439 
Q 2478 3584 2822 3584 
Q 3428 3584 3742 3212 
Q 4056 2841 4056 2131 
z
" transform="scale(0.015625)"/>
      <path id="DejaVuSans-Bold-74" d="M 1759 4494 
L 1759 3500 
L 2913 3500 
L 2913 2700 
L 1759 2700 
L 1759 1216 
Q 1759 972 1856 886 
Q 1953 800 2241 800 
L 2816 800 
L 2816 0 
L 1856 0 
Q 1194 0 917 276 
Q 641 553 641 1216 
L 641 2700 
L 84 2700 
L 84 3500 
L 641 3500 
L 641 4494 
L 1759 4494 
z
" transform="scale(0.015625)"/>
      <path id="DejaVuSans-Bold-65" d="M 4031 1759 
L 4031 1441 
L 1416 1441 
Q 1456 1047 1700 850 
Q 1944 653 2381 653 
Q 2734 653 3104 758 
Q 3475 863 3866 1075 
L 3866 213 
Q 3469 63 3072 -14 
Q 2675 -91 2278 -91 
Q 1328 -91 801 392 
Q 275 875 275 1747 
Q 275 2603 792 3093 
Q 1309 3584 2216 3584 
Q 3041 3584 3536 3087 
Q 4031 2591 4031 1759 
z
M 2881 2131 
Q 2881 2450 2695 2645 
Q 2509 2841 2209 2841 
Q 1884 2841 1681 2658 
Q 1478 2475 1428 2131 
L 2881 2131 
z
" transform="scale(0.015625)"/>
      <path id="DejaVuSans-Bold-61" d="M 2106 1575 
Q 1756 1575 1579 1456 
Q 1403 1338 1403 1106 
Q 1403 894 1545 773 
Q 1688 653 1941 653 
Q 2256 653 2472 879 
Q 2688 1106 2688 1447 
L 2688 1575 
L 2106 1575 
z
M 3816 1997 
L 3816 0 
L 2688 0 
L 2688 519 
Q 2463 200 2181 54 
Q 1900 -91 1497 -91 
Q 953 -91 614 226 
Q 275 544 275 1050 
Q 275 1666 698 1953 
Q 1122 2241 2028 2241 
L 2688 2241 
L 2688 2328 
Q 2688 2594 2478 2717 
Q 2269 2841 1825 2841 
Q 1466 2841 1156 2769 
Q 847 2697 581 2553 
L 581 3406 
Q 941 3494 1303 3539 
Q 1666 3584 2028 3584 
Q 2975 3584 3395 3211 
Q 3816 2838 3816 1997 
z
" transform="scale(0.015625)"/>
     </defs>
     <use xlink:href="#DejaVuSans-Bold-41"/>
     <use xlink:href="#DejaVuSans-Bold-6e" transform="translate(77.392578 0)"/>
     <use xlink:href="#DejaVuSans-Bold-74" transform="translate(148.583984 0)"/>
     <use xlink:href="#DejaVuSans-Bold-65" transform="translate(196.386719 0)"/>
     <use xlink:href="#DejaVuSans-Bold-6e" transform="translate(264.208984 0)"/>
     <use xlink:href="#DejaVuSans-Bold-6e" transform="translate(335.400391 0)"/>
     <use xlink:href="#DejaVuSans-Bold-61" transform="translate(406.591797 0)"/>
    </g>
    <!-- ðŸ“¡ -->
    <g transform="translate(92.399219 198.036094) scale(0.1 -0.1)">
     <defs>
      <path id="DejaVuSans-Bold-1f4e1" d="M 319 -1131 
L 319 4513 
L 3519 4513 
L 3519 -1131 
L 319 -1131 
z
M 678 -775 
L 3163 -775 
L 3163 4153 
L 678 4153 
L 678 -775 
z
" transform="scale(0.015625)"/>
     </defs>
     <use xlink:href="#DejaVuSans-Bold-1f4e1"/>
    </g>
   </g>
   <g id="text_2">
    <!-- RF -->
    <g transform="translate(229.254375 181.239375) scale(0.1 -0.1)">
     <defs>
      <path id="DejaVuSans-Bold-52" d="M 2297 2597 
Q 2675 2597 2839 2737 
Q 3003 2878 3003 3200 
Q 3003 3519 2839 3656 
Q 2675 3794 2297 3794 
L 1791 3794 
L 1791 2597 
L 2297 2597 
z
M 1791 1766 
L 1791 0 
L 588 0 
L 588 4666 
L 2425 4666 
Q 3347 4666 3776 4356 
Q 4206 4047 4206 3378 
Q 4206 2916 3982 2619 
Q 3759 2322 3309 2181 
Q 3556 2125 3751 1926 
Q 3947 1728 4147 1325 
L 4800 0 
L 3519 0 
L 2950 1159 
Q 2778 1509 2601 1637 
Q 2425 1766 2131 1766 
L 1791 1766 
z
" transform="scale(0.015625)"/>
      <path id="DejaVuSans-Bold-46" d="M 588 4666 
L 3834 4666 
L 3834 3756 
L 1791 3756 
L 1791 2888 
L 3713 2888 
L 3713 1978 
L 1791 1978 
L 1791 0 
L 588 0 
L 588 4666 
z
" transform="scale(0.015625)"/>
     </defs>
     <use xlink:href="#DejaVuSans-Bold-52"/>
     <use xlink:href="#DejaVuSans-Bold-46" transform="translate(77.001953 0)"/>
    </g>
    <!-- Filter -->
    <g transform="translate(221.429375 192.437187) scale(0.1 -0.1)">
     <defs>
      <path id="DejaVuSans-Bold-69" d="M 538 3500 
L 1656 3500 
L 1656 0 
L 538 0 
L 538 3500 
z
M 538 4863 
L 1656 4863 
L 1656 3950 
L 538 3950 
L 538 4863 
z
" transform="scale(0.015625)"/>
      <path id="DejaVuSans-Bold-6c" d="M 538 4863 
L 1656 4863 
L 1656 0 
L 538 0 
L 538 4863 
z
" transform="scale(0.015625)"/>
      <path id="DejaVuSans-Bold-72" d="M 3138 2547 
Q 2991 2616 2845 2648 
Q 2700 2681 2553 2681 
Q 2122 2681 1889 2404 
Q 1656 2128 1656 1613 
L 1656 0 
L 538 0 
L 538 3500 
L 1656 3500 
L 1656 2925 
Q 1872 3269 2151 3426 
Q 2431 3584 2822 3584 
Q 2878 3584 2943 3579 
Q 3009 3575 3134 3559 
L 3138 2547 
z
" transform="scale(0.015625)"/>
     </defs>
     <use xlink:href="#DejaVuSans-Bold-46"/>
     <use xlink:href="#DejaVuSans-Bold-69" transform="translate(68.310547 0)"/>
     <use xlink:href="#DejaVuSans-Bold-6c" transform="translate(102.587891 0)"/>
     <use xlink:href="#DejaVuSans-Bold-74" transform="translate(136.865234 0)"/>
     <use xlink:href="#DejaVuSans-Bold-65" transform="translate(184.667969 0)"/>
     <use xlink:href="#DejaVuSans-Bold-72" transform="translate(252.490234 0)"/>
    </g>
    <!-- ðŸŽ›ï¸ -->
    <g transform="translate(233.519219 203.635) scale(0.1 -0.1)">
     <defs>
      <path id="DejaVuSans-Bold-1f39b" d="M 319 -1131 
L 319 4513 
L 3519 4513 
L 3519 -1131 
L 319 -1131 
z
M 678 -775 
L 3163 -775 
L 3163 4153 
L 678 4153 
L 678 -775 
z
" transform="scale(0.015625)"/>
      <path id="DejaVuSans-Bold-fe0f" transform="scale(0.015625)"/>
     </defs>
     <use xlink:href="#DejaVuSans-Bold-1f39b"/>
     <use xlink:href="#DejaVuSans-Bold-fe0f" transform="translate(60.009766 0)"/>
    </g>
   </g>
   <g id="text_3">
    <!-- RF -->
    <g transform="translate(370.374375 181.239375) scale(0.1 -0.1)">
     <use xlink:href="#DejaVuSans-Bold-52"/>
     <use xlink:href="#DejaVuSans-Bold-46" transform="translate(77.001953 0)"/>
    </g>
    <!-- Amp -->
    <g transform="translate(364.981406 192.437187) scale(0.1 -0.1)">
     <defs>
      <path id="DejaVuSans-Bold-6d" d="M 3781 2919 
Q 3994 3244 4286 3414 
Q 4578 3584 4928 3584 
Q 5531 3584 5847 3212 
Q 6163 2841 6163 2131 
L 6163 0 
L 5038 0 
L 5038 1825 
Q 5041 1866 5042 1909 
Q 5044 1953 5044 2034 
Q 5044 2406 4934 2573 
Q 4825 2741 4581 2741 
Q 4263 2741 4089 2478 
Q 3916 2216 3909 1719 
L 3909 0 
L 2784 0 
L 2784 1825 
Q 2784 2406 2684 2573 
Q 2584 2741 2328 2741 
Q 2006 2741 1831 2477 
Q 1656 2213 1656 1722 
L 1656 0 
L 531 0 
L 531 3500 
L 1656 3500 
L 1656 2988 
Q 1863 3284 2130 3434 
Q 2397 3584 2719 3584 
Q 3081 3584 3359 3409 
Q 3638 3234 3781 2919 
z
" transform="scale(0.015625)"/>
      <path id="DejaVuSans-Bold-70" d="M 1656 506 
L 1656 -1331 
L 538 -1331 
L 538 3500 
L 1656 3500 
L 1656 2988 
Q 1888 3294 2169 3439 
Q 2450 3584 2816 3584 
Q 3463 3584 3878 3070 
Q 4294 2556 4294 1747 
Q 4294 938 3878 423 
Q 3463 -91 2816 -91 
Q 2450 -91 2169 54 
Q 1888 200 1656 506 
z
M 2400 2772 
Q 2041 2772 1848 2508 
Q 1656 2244 1656 1747 
Q 1656 1250 1848 986 
Q 2041 722 2400 722 
Q 2759 722 2948 984 
Q 3138 1247 3138 1747 
Q 3138 2247 2948 2509 
Q 2759 2772 2400 2772 
z
" transform="scale(0.015625)"/>
     </defs>
     <use xlink:href="#DejaVuSans-Bold-41"/>
     <use xlink:href="#DejaVuSans-Bold-6d" transform="translate(77.392578 0)"/>
     <use xlink:href="#DejaVuSans-Bold-70" transform="translate(181.591797 0)"/>
    </g>
    <!-- ðŸ“ˆ -->
    <g transform="translate(374.639219 203.635) scale(0.1 -0.1)">
     <defs>
      <path id="DejaVuSans-Bold-1f4c8" d="M 319 -1131 
L 319 4513 
L 3519 4513 
L 3519 -1131 
L 319 -1131 
z
M 678 -775 
L 3163 -775 
L 3163 4153 
L 678 4153 
L 678 -775 
z
" transform="scale(0.015625)"/>
     </defs>
     <use xlink:href="#DejaVuSans-Bold-1f4c8"/>
    </g>
   </g>
   <g id="text_4">
    <!-- Mixer -->
    <g transform="translate(502.988125 186.838281) scale(0.1 -0.1)">
     <defs>
      <path id="DejaVuSans-Bold-4d" d="M 588 4666 
L 2119 4666 
L 3181 2169 
L 4250 4666 
L 5778 4666 
L 5778 0 
L 4641 0 
L 4641 3413 
L 3566 897 
L 2803 897 
L 1728 3413 
L 1728 0 
L 588 0 
L 588 4666 
z
" transform="scale(0.015625)"/>
      <path id="DejaVuSans-Bold-78" d="M 1422 1791 
L 159 3500 
L 1344 3500 
L 2059 2463 
L 2784 3500 
L 3969 3500 
L 2706 1797 
L 4031 0 
L 2847 0 
L 2059 1106 
L 1281 0 
L 97 0 
L 1422 1791 
z
" transform="scale(0.015625)"/>
     </defs>
     <use xlink:href="#DejaVuSans-Bold-4d"/>
     <use xlink:href="#DejaVuSans-Bold-69" transform="translate(99.511719 0)"/>
     <use xlink:href="#DejaVuSans-Bold-78" transform="translate(133.789062 0)"/>
     <use xlink:href="#DejaVuSans-Bold-65" transform="translate(198.291016 0)"/>
     <use xlink:href="#DejaVuSans-Bold-72" transform="translate(266.113281 0)"/>
    </g>
    <!-- ðŸ”„ -->
    <g transform="translate(515.759219 198.036094) scale(0.1 -0.1)">
     <defs>
      <path id="DejaVuSans-Bold-1f504" d="M 319 -1131 
L 319 4513 
L 3519 4513 
L 3519 -1131 
L 319 -1131 
z
M 678 -775 
L 3163 -775 
L 3163 4153 
L 678 4153 
L 678 -775 
z
" transform="scale(0.015625)"/>
     </defs>
     <use xlink:href="#DejaVuSans-Bold-1f504"/>
    </g>
   </g>
   <g id="text_5">
    <!-- IF -->
    <g transform="translate(654.604219 181.239375) scale(0.1 -0.1)">
     <defs>
      <path id="DejaVuSans-Bold-49" d="M 588 4666 
L 1791 4666 
L 1791 0 
L 588 0 
L 588 4666 
z
" transform="scale(0.015625)"/>
     </defs>
     <use xlink:href="#DejaVuSans-Bold-49"/>
     <use xlink:href="#DejaVuSans-Bold-46" transform="translate(37.207031 0)"/>
    </g>
    <!-- Filter -->
    <g transform="translate(644.789375 192.437187) scale(0.1 -0.1)">
     <use xlink:href="#DejaVuSans-Bold-46"/>
     <use xlink:href="#DejaVuSans-Bold-69" transform="translate(68.310547 0)"/>
     <use xlink:href="#DejaVuSans-Bold-6c" transform="translate(102.587891 0)"/>
     <use xlink:href="#DejaVuSans-Bold-74" transform="translate(136.865234 0)"/>
     <use xlink:href="#DejaVuSans-Bold-65" transform="translate(184.667969 0)"/>
     <use xlink:href="#DejaVuSans-Bold-72" transform="translate(252.490234 0)"/>
    </g>
    <!-- ðŸŽ›ï¸ -->
    <g transform="translate(656.879219 203.635) scale(0.1 -0.1)">
     <use xlink:href="#DejaVuSans-Bold-1f39b"/>
     <use xlink:href="#DejaVuSans-Bold-fe0f" transform="translate(60.009766 0)"/>
    </g>
   </g>
   <g id="text_6">
    <!-- IF -->
    <g transform="translate(795.724219 181.239375) scale(0.1 -0.1)">
     <use xlink:href="#DejaVuSans-Bold-49"/>
     <use xlink:href="#DejaVuSans-Bold-46" transform="translate(37.207031 0)"/>
    </g>
    <!-- Amp -->
    <g transform="translate(788.341406 192.437187) scale(0.1 -0.1)">
     <use xlink:href="#DejaVuSans-Bold-41"/>
     <use xlink:href="#DejaVuSans-Bold-6d" transform="translate(77.392578 0)"/>
     <use xlink:href="#DejaVuSans-Bold-70" transform="translate(181.591797 0)"/>
    </g>
    <!-- ðŸ“ˆ -->
    <g transform="translate(797.999219 203.635) scale(0.1 -0.1)">
     <use xlink:href="#DejaVuSans-Bold-1f4c8"/>
    </g>
   </g>
   <g id="text_7">
    <!-- Detector -->
    <g transform="translate(917.541875 186.838281) scale(0.1 -0.1)">
     <defs>
      <path id="DejaVuSans-Bold-44" d="M 1791 3756 
L 1791 909 
L 2222 909 
Q 2959 909 3348 1275 
Q 3738 1641 3738 2338 
Q 3738 3031 3350 3393 
Q 2963 3756 2222 3756 
L 1791 3756 
z
M 588 4666 
L 1856 4666 
Q 2919 4666 3439 4514 
Q 3959 4363 4331 4000 
Q 4659 3684 4818 3271 
Q 4978 2859 4978 2338 
Q 4978 1809 4818 1395 
Q 4659 981 4331 666 
Q 3956 303 3431 151 
Q 2906 0 1856 0 
L 588 0 
L 588 4666 
z
" transform="scale(0.015625)"/>
      <path id="DejaVuSans-Bold-63" d="M 3366 3391 
L 3366 2478 
Q 3138 2634 2908 2709 
Q 2678 2784 2431 2784 
Q 1963 2784 1702 2511 
Q 1441 2238 1441 1747 
Q 1441 1256 1702 982 
Q 1963 709 2431 709 
Q 2694 709 2930 787 
Q 3166 866 3366 1019 
L 3366 103 
Q 3103 6 2833 -42 
Q 2563 -91 2291 -91 
Q 1344 -91 809 395 
Q 275 881 275 1747 
Q 275 2613 809 3098 
Q 1344 3584 2291 3584 
Q 2566 3584 2833 3536 
Q 3100 3488 3366 3391 
z
" transform="scale(0.015625)"/>
      <path id="DejaVuSans-Bold-6f" d="M 2203 2784 
Q 1831 2784 1636 2517 
Q 1441 2250 1441 1747 
Q 1441 1244 1636 976 
Q 1831 709 2203 709 
Q 2569 709 2762 976 
Q 2956 1244 2956 1747 
Q 2956 2250 2762 2517 
Q 2569 2784 2203 2784 
z
M 2203 3584 
Q 3106 3584 3614 3096 
Q 4122 2609 4122 1747 
Q 4122 884 3614 396 
Q 3106 -91 2203 -91 
Q 1297 -91 786 396 
Q 275 884 275 1747 
Q 275 2609 786 3096 
Q 1297 3584 2203 3584 
z
" transform="scale(0.015625)"/>
     </defs>
     <use xlink:href="#DejaVuSans-Bold-44"/>
     <use xlink:href="#DejaVuSans-Bold-65" transform="translate(83.007812 0)"/>
     <use xlink:href="#DejaVuSans-Bold-74" transform="translate(150.830078 0)"/>
     <use xlink:href="#DejaVuSans-Bold-65" transform="translate(198.632812 0)"/>
     <use xlink:href="#DejaVuSans-Bold-63" transform="translate(266.455078 0)"/>
     <use xlink:href="#DejaVuSans-Bold-74" transform="translate(325.732422 0)"/>
     <use xlink:href="#DejaVuSans-Bold-6f" transform="translate(373.535156 0)"/>
     <use xlink:href="#DejaVuSans-Bold-72" transform="translate(442.236328 0)"/>
    </g>
    <!-- ðŸŽ¯ -->
    <g transform="translate(939.119219 198.036094) scale(0.1 -0.1)">
     <defs>
      <path id="DejaVuSans-Bold-1f3af" d="M 319 -1131 
L 319 4513 
L 3519 4513 
L 3519 -1131 
L 319 -1131 
z
M 678 -775 
L 3163 -775 
L 3163 4153 
L 678 4153 
L 678 -775 
z
" transform="scale(0.015625)"/>
     </defs>
     <use xlink:href="#DejaVuSans-Bold-1f3af"/>
    </g>
   </g>
   <g id="text_8">
    <!-- LO -->
    <g transform="translate(229.264531 80.550281) scale(0.1 -0.1)">
     <defs>
      <path id="DejaVuSans-Bold-4c" d="M 588 4666 
L 1791 4666 
L 1791 909 
L 3903 909 
L 3903 0 
L 588 0 
L 588 4666 
z
" transform="scale(0.015625)"/>
      <path id="DejaVuSans-Bold-4f" d="M 2719 3878 
Q 2169 3878 1866 3472 
Q 1563 3066 1563 2328 
Q 1563 1594 1866 1187 
Q 2169 781 2719 781 
Q 3272 781 3575 1187 
Q 3878 1594 3878 2328 
Q 3878 3066 3575 3472 
Q 3272 3878 2719 3878 
z
M 2719 4750 
Q 3844 4750 4481 4106 
Q 5119 3463 5119 2328 
Q 5119 1197 4481 553 
Q 3844 -91 2719 -91 
Q 1597 -91 958 553 
Q 319 1197 319 2328 
Q 319 3463 958 4106 
Q 1597 4750 2719 4750 
z
" transform="scale(0.015625)"/>
     </defs>
     <use xlink:href="#DejaVuSans-Bold-4c"/>
     <use xlink:href="#DejaVuSans-Bold-4f" transform="translate(60.095703 0)"/>
    </g>
    <!-- ðŸ”„ -->
    <g transform="translate(233.519219 91.748094) scale(0.1 -0.1)">
     <use xlink:href="#DejaVuSans-Bold-1f504"/>
    </g>
   </g>
   <g id="text_9">
    <!-- Ricevitore Supereterodina Semplice -->
    <g transform="translate(394.275938 17.837812) scale(0.14 -0.14)">
     <defs>
      <path id="DejaVuSans-Bold-76" d="M 97 3500 
L 1216 3500 
L 2088 1081 
L 2956 3500 
L 4078 3500 
L 2700 0 
L 1472 0 
L 97 3500 
z
" transform="scale(0.015625)"/>
      <path id="DejaVuSans-Bold-20" transform="scale(0.015625)"/>
      <path id="DejaVuSans-Bold-53" d="M 3834 4519 
L 3834 3531 
Q 3450 3703 3084 3790 
Q 2719 3878 2394 3878 
Q 1963 3878 1756 3759 
Q 1550 3641 1550 3391 
Q 1550 3203 1689 3098 
Q 1828 2994 2194 2919 
L 2706 2816 
Q 3484 2659 3812 2340 
Q 4141 2022 4141 1434 
Q 4141 663 3683 286 
Q 3225 -91 2284 -91 
Q 1841 -91 1394 -6 
Q 947 78 500 244 
L 500 1259 
Q 947 1022 1364 901 
Q 1781 781 2169 781 
Q 2563 781 2772 912 
Q 2981 1044 2981 1288 
Q 2981 1506 2839 1625 
Q 2697 1744 2272 1838 
L 1806 1941 
Q 1106 2091 782 2419 
Q 459 2747 459 3303 
Q 459 4000 909 4375 
Q 1359 4750 2203 4750 
Q 2588 4750 2994 4692 
Q 3400 4634 3834 4519 
z
" transform="scale(0.015625)"/>
      <path id="DejaVuSans-Bold-75" d="M 500 1363 
L 500 3500 
L 1625 3500 
L 1625 3150 
Q 1625 2866 1622 2436 
Q 1619 2006 1619 1863 
Q 1619 1441 1641 1255 
Q 1663 1069 1716 984 
Q 1784 875 1895 815 
Q 2006 756 2150 756 
Q 2500 756 2700 1025 
Q 2900 1294 2900 1772 
L 2900 3500 
L 4019 3500 
L 4019 0 
L 2900 0 
L 2900 506 
Q 2647 200 2364 54 
Q 2081 -91 1741 -91 
Q 1134 -91 817 281 
Q 500 653 500 1363 
z
" transform="scale(0.015625)"/>
      <path id="DejaVuSans-Bold-64" d="M 2919 2988 
L 2919 4863 
L 4044 4863 
L 4044 0 
L 2919 0 
L 2919 506 
Q 2688 197 2409 53 
Q 2131 -91 1766 -91 
Q 1119 -91 703 423 
Q 288 938 288 1747 
Q 288 2556 703 3070 
Q 1119 3584 1766 3584 
Q 2128 3584 2408 3439 
Q 2688 3294 2919 2988 
z
M 2181 722 
Q 2541 722 2730 984 
Q 2919 1247 2919 1747 
Q 2919 2247 2730 2509 
Q 2541 2772 2181 2772 
Q 1825 2772 1636 2509 
Q 1447 2247 1447 1747 
Q 1447 1247 1636 984 
Q 1825 722 2181 722 
z
" transform="scale(0.015625)"/>
     </defs>
     <use xlink:href="#DejaVuSans-Bold-52"/>
     <use xlink:href="#DejaVuSans-Bold-69" transform="translate(77.001953 0)"/>
     <use xlink:href="#DejaVuSans-Bold-63" transform="translate(111.279297 0)"/>
     <use xlink:href="#DejaVuSans-Bold-65" transform="translate(170.556641 0)"/>
     <use xlink:href="#DejaVuSans-Bold-76" transform="translate(238.378906 0)"/>
     <use xlink:href="#DejaVuSans-Bold-69" transform="translate(303.564453 0)"/>
     <use xlink:href="#DejaVuSans-Bold-74" transform="translate(337.841797 0)"/>
     <use xlink:href="#DejaVuSans-Bold-6f" transform="translate(385.644531 0)"/>
     <use xlink:href="#DejaVuSans-Bold-72" transform="translate(454.345703 0)"/>
     <use xlink:href="#DejaVuSans-Bold-65" transform="translate(503.662109 0)"/>
     <use xlink:href="#DejaVuSans-Bold-20" transform="translate(571.484375 0)"/>
     <use xlink:href="#DejaVuSans-Bold-53" transform="translate(606.298828 0)"/>
     <use xlink:href="#DejaVuSans-Bold-75" transform="translate(678.320312 0)"/>
     <use xlink:href="#DejaVuSans-Bold-70" transform="translate(749.511719 0)"/>
     <use xlink:href="#DejaVuSans-Bold-65" transform="translate(821.09375 0)"/>
     <use xlink:href="#DejaVuSans-Bold-72" transform="translate(888.916016 0)"/>
     <use xlink:href="#DejaVuSans-Bold-65" transform="translate(938.232422 0)"/>
     <use xlink:href="#DejaVuSans-Bold-74" transform="translate(1006.054688 0)"/>
     <use xlink:href="#DejaVuSans-Bold-65" transform="translate(1053.857422 0)"/>
     <use xlink:href="#DejaVuSans-Bold-72" transform="translate(1121.679688 0)"/>
     <use xlink:href="#DejaVuSans-Bold-6f" transform="translate(1170.996094 0)"/>
     <use xlink:href="#DejaVuSans-Bold-64" transform="translate(1239.697266 0)"/>
     <use xlink:href="#DejaVuSans-Bold-69" transform="translate(1311.279297 0)"/>
     <use xlink:href="#DejaVuSans-Bold-6e" transform="translate(1345.556641 0)"/>
     <use xlink:href="#DejaVuSans-Bold-61" transform="translate(1416.748047 0)"/>
     <use xlink:href="#DejaVuSans-Bold-20" transform="translate(1484.228516 0)"/>
     <use xlink:href="#DejaVuSans-Bold-53" transform="translate(1519.042969 0)"/>
     <use xlink:href="#DejaVuSans-Bold-65" transform="translate(1591.064453 0)"/>
     <use xlink:href="#DejaVuSans-Bold-6d" transform="translate(1658.886719 0)"/>
     <use xlink:href="#DejaVuSans-Bold-70" transform="translate(1763.085938 0)"/>
     <use xlink:href="#DejaVuSans-Bold-6c" transform="translate(1834.667969 0)"/>
     <use xlink:href="#DejaVuSans-Bold-69" transform="translate(1868.945312 0)"/>
     <use xlink:href="#DejaVuSans-Bold-63" transform="translate(1903.222656 0)"/>
     <use xlink:href="#DejaVuSans-Bold-65" transform="translate(1962.5 0)"/>
    </g>
   </g>
  </g>
 </g>
 <defs>
  <clipPath id="paf8976ebf0">
   <rect x="7.2" y="37.837812" width="1058.4" height="379.6"/>
  </clipPath>
 </defs>
</svg>
