<?xml version="1.0" encoding="utf-8" standalone="no"?>
<!DOCTYPE svg PUBLIC "-//W3C//DTD SVG 1.1//EN"
  "http://www.w3.org/Graphics/SVG/1.1/DTD/svg11.dtd">
<svg xmlns:xlink="http://www.w3.org/1999/xlink" width="274.042109pt" height="163.44pt" viewBox="0 0 274.042109 163.44" xmlns="http://www.w3.org/2000/svg" version="1.1">
 <metadata>
  <rdf:RDF xmlns:dc="http://purl.org/dc/elements/1.1/" xmlns:cc="http://creativecommons.org/ns#" xmlns:rdf="http://www.w3.org/1999/02/22-rdf-syntax-ns#">
   <cc:Work>
    <dc:type rdf:resource="http://purl.org/dc/dcmitype/StillImage"/>
    <dc:date>2025-12-07T23:59:05.454689</dc:date>
    <dc:format>image/svg+xml</dc:format>
    <dc:creator>
     <cc:Agent>
      <dc:title>Matplotlib v3.10.7, https://matplotlib.org/</dc:title>
     </cc:Agent>
    </dc:creator>
   </cc:Work>
  </rdf:RDF>
 </metadata>
 <defs>
  <style type="text/css">*{stroke-linejoin: round; stroke-linecap: butt}</style>
 </defs>
 <g id="figure_1">
  <g id="patch_1">
   <path d="M 0 163.44 
L 274.042109 163.44 
L 274.042109 0 
L 0 0 
L 0 163.44 
z
" style="fill: none"/>
  </g>
  <g id="axes_1">
   <g id="patch_2">
    <path d="M 98.524535 24.202996 
C 98.524535 23.013763 98.05161 21.872022 97.210695 21.031107 
C 96.369781 20.190192 95.228039 19.717268 94.038807 19.717268 
C 92.849574 19.717268 91.707832 20.190192 90.866918 21.031107 
C 90.026003 21.872022 89.553078 23.013763 89.553078 24.202996 
" clip-path="url(#pf9583bf7c9)" style="fill: none; stroke: #000000; stroke-width: 2; stroke-linejoin: miter"/>
   </g>
   <g id="patch_3">
    <path d="M 107.495991 24.202996 
C 107.495991 23.013763 107.023066 21.872022 106.182152 21.031107 
C 105.341237 20.190192 104.199496 19.717268 103.010263 19.717268 
C 101.82103 19.717268 100.679289 20.190192 99.838374 21.031107 
C 98.99746 21.872022 98.524535 23.013763 98.524535 24.202996 
" clip-path="url(#pf9583bf7c9)" style="fill: none; stroke: #000000; stroke-width: 2; stroke-linejoin: miter"/>
   </g>
   <g id="patch_4">
    <path d="M 116.467448 24.202996 
C 116.467448 23.013763 115.994523 21.872022 115.153608 21.031107 
C 114.312694 20.190192 113.170952 19.717268 111.981719 19.717268 
C 110.792487 19.717268 109.650745 20.190192 108.809831 21.031107 
C 107.968916 21.872022 107.495991 23.013763 107.495991 24.202996 
" clip-path="url(#pf9583bf7c9)" style="fill: none; stroke: #000000; stroke-width: 2; stroke-linejoin: miter"/>
   </g>
   <g id="patch_5">
    <path d="M 125.438904 24.202996 
C 125.438904 23.013763 124.965979 21.872022 124.125065 21.031107 
C 123.28415 20.190192 122.142409 19.717268 120.953176 19.717268 
C 119.763943 19.717268 118.622202 20.190192 117.781287 21.031107 
C 116.940372 21.872022 116.467448 23.013763 116.467448 24.202996 
" clip-path="url(#pf9583bf7c9)" style="fill: none; stroke: #000000; stroke-width: 2; stroke-linejoin: miter"/>
   </g>
   <g id="patch_6">
    <path d="M 98.524535 95.974647 
C 98.524535 94.785415 98.05161 93.643673 97.210695 92.802759 
C 96.369781 91.961844 95.228039 91.488919 94.038807 91.488919 
C 92.849574 91.488919 91.707832 91.961844 90.866918 92.802759 
C 90.026003 93.643673 89.553078 94.785415 89.553078 95.974647 
" clip-path="url(#pf9583bf7c9)" style="fill: none; stroke: #000000; stroke-width: 2; stroke-linejoin: miter"/>
   </g>
   <g id="patch_7">
    <path d="M 107.495991 95.974647 
C 107.495991 94.785415 107.023066 93.643673 106.182152 92.802759 
C 105.341237 91.961844 104.199496 91.488919 103.010263 91.488919 
C 101.82103 91.488919 100.679289 91.961844 99.838374 92.802759 
C 98.99746 93.643673 98.524535 94.785415 98.524535 95.974647 
" clip-path="url(#pf9583bf7c9)" style="fill: none; stroke: #000000; stroke-width: 2; stroke-linejoin: miter"/>
   </g>
   <g id="patch_8">
    <path d="M 116.467448 95.974647 
C 116.467448 94.785415 115.994523 93.643673 115.153608 92.802759 
C 114.312694 91.961844 113.170952 91.488919 111.981719 91.488919 
C 110.792487 91.488919 109.650745 91.961844 108.809831 92.802759 
C 107.968916 93.643673 107.495991 94.785415 107.495991 95.974647 
" clip-path="url(#pf9583bf7c9)" style="fill: none; stroke: #000000; stroke-width: 2; stroke-linejoin: miter"/>
   </g>
   <g id="patch_9">
    <path d="M 125.438904 95.974647 
C 125.438904 94.785415 124.965979 93.643673 124.125065 92.802759 
C 123.28415 91.961844 122.142409 91.488919 120.953176 91.488919 
C 119.763943 91.488919 118.622202 91.961844 117.781287 92.802759 
C 116.940372 93.643673 116.467448 94.785415 116.467448 95.974647 
" clip-path="url(#pf9583bf7c9)" style="fill: none; stroke: #000000; stroke-width: 2; stroke-linejoin: miter"/>
   </g>
   <g id="line2d_1">
    <path d="M 44.695796 24.202996 
L 53.667253 24.202996 
L 62.638709 24.202996 
" clip-path="url(#pf9583bf7c9)" style="fill: none; stroke: #000000; stroke-width: 2; stroke-linecap: round"/>
   </g>
   <g id="line2d_2">
    <path d="M 62.638709 24.202996 
L 62.638709 65.830554 
M 71.610165 65.830554 
L 53.667253 65.830554 
M 71.610165 72.290002 
L 53.667253 72.290002 
M 62.638709 72.290002 
L 62.638709 113.91756 
" clip-path="url(#pf9583bf7c9)" style="fill: none; stroke: #000000; stroke-width: 2; stroke-linecap: round"/>
   </g>
   <g id="line2d_3">
    <path d="M 62.638709 24.202996 
L 89.553078 24.202996 
M 125.438904 24.202996 
L 152.353273 24.202996 
" clip-path="url(#pf9583bf7c9)" style="fill: none; stroke: #000000; stroke-width: 2; stroke-linecap: round"/>
   </g>
   <g id="line2d_4">
    <path d="M 152.353273 24.202996 
L 152.353273 29.58587 
L 152.353273 34.968744 
" clip-path="url(#pf9583bf7c9)" style="fill: none; stroke: #000000; stroke-width: 2; stroke-linecap: round"/>
   </g>
   <g id="line2d_5">
    <path d="M 152.353273 34.968744 
L 152.353273 44.299058 
M 161.32473 44.299058 
L 143.381817 44.299058 
M 161.32473 50.758507 
L 143.381817 50.758507 
M 152.353273 50.758507 
L 152.353273 60.088822 
" clip-path="url(#pf9583bf7c9)" style="fill: none; stroke: #000000; stroke-width: 2; stroke-linecap: round"/>
   </g>
   <g id="line2d_6">
    <path d="M 152.353273 60.088822 
L 152.353273 74.443152 
L 143.381817 74.443152 
L 161.32473 74.443152 
M 146.073254 78.749451 
L 158.633293 78.749451 
M 150.558982 83.05575 
L 154.147565 83.05575 
" clip-path="url(#pf9583bf7c9)" style="fill: none; stroke: #000000; stroke-width: 2; stroke-linecap: round"/>
   </g>
   <g id="line2d_7">
    <path d="M 152.353273 24.202996 
L 161.32473 24.202996 
L 170.296186 24.202996 
" clip-path="url(#pf9583bf7c9)" style="fill: none; stroke: #000000; stroke-width: 2; stroke-linecap: round"/>
   </g>
   <g id="line2d_8">
    <path d="M 170.296186 24.202996 
L 170.296186 65.830554 
M 179.267643 65.830554 
L 161.32473 65.830554 
M 179.267643 72.290002 
L 161.32473 72.290002 
M 170.296186 72.290002 
L 170.296186 113.91756 
" clip-path="url(#pf9583bf7c9)" style="fill: none; stroke: #000000; stroke-width: 2; stroke-linecap: round"/>
   </g>
   <g id="line2d_9">
    <path d="M 170.296186 24.202996 
L 179.267643 24.202996 
L 188.239099 24.202996 
" clip-path="url(#pf9583bf7c9)" style="fill: none; stroke: #000000; stroke-width: 2; stroke-linecap: round"/>
   </g>
   <g id="line2d_10">
    <path d="M 44.695796 95.974647 
L 53.667253 95.974647 
L 62.638709 95.974647 
" clip-path="url(#pf9583bf7c9)" style="fill: none; stroke: #000000; stroke-width: 2; stroke-linecap: round"/>
   </g>
   <g id="line2d_11">
    <path d="M 62.638709 95.974647 
L 89.553078 95.974647 
M 125.438904 95.974647 
L 152.353273 95.974647 
" clip-path="url(#pf9583bf7c9)" style="fill: none; stroke: #000000; stroke-width: 2; stroke-linecap: round"/>
   </g>
   <g id="line2d_12">
    <path d="M 170.296186 95.974647 
L 170.296186 101.357521 
L 170.296186 106.740395 
" clip-path="url(#pf9583bf7c9)" style="fill: none; stroke: #000000; stroke-width: 2; stroke-linecap: round"/>
   </g>
   <g id="line2d_13">
    <path d="M 170.296186 106.740395 
L 170.296186 116.07071 
M 179.267643 116.07071 
L 161.32473 116.07071 
M 179.267643 122.530159 
L 161.32473 122.530159 
M 170.296186 122.530159 
L 170.296186 131.860473 
" clip-path="url(#pf9583bf7c9)" style="fill: none; stroke: #000000; stroke-width: 2; stroke-linecap: round"/>
   </g>
   <g id="line2d_14">
    <path d="M 170.296186 131.860473 
L 170.296186 146.214804 
L 161.32473 146.214804 
L 179.267643 146.214804 
M 164.016167 150.521103 
L 176.576206 150.521103 
M 168.501895 154.827402 
L 172.090478 154.827402 
" clip-path="url(#pf9583bf7c9)" style="fill: none; stroke: #000000; stroke-width: 2; stroke-linecap: round"/>
   </g>
   <g id="line2d_15">
    <path d="M 188.239099 95.974647 
L 215.153469 95.974647 
L 242.067838 95.974647 
" clip-path="url(#pf9583bf7c9)" style="fill: none; stroke: #000000; stroke-width: 2; stroke-linecap: round"/>
   </g>
   <g id="line2d_16">
    <path d="M 44.695796 149.803386 
L 94.038807 149.803386 
L 143.381817 149.803386 
" clip-path="url(#pf9583bf7c9)" style="fill: none; stroke: #000000; stroke-width: 2; stroke-linecap: round"/>
   </g>
   <g id="line2d_17">
    <path d="M 143.381817 149.803386 
L 197.210556 149.803386 
L 251.039294 149.803386 
" clip-path="url(#pf9583bf7c9)" style="fill: none; stroke: #000000; stroke-width: 2; stroke-linecap: round"/>
   </g>
   <g id="text_1">
    <!-- Cx -->
    <g transform="translate(57.478084 11.208163) scale(0.08 -0.08)">
     <defs>
      <path id="DejaVuSans-43" d="M 4122 4306 
L 4122 3641 
Q 3803 3938 3442 4084 
Q 3081 4231 2675 4231 
Q 1875 4231 1450 3742 
Q 1025 3253 1025 2328 
Q 1025 1406 1450 917 
Q 1875 428 2675 428 
Q 3081 428 3442 575 
Q 3803 722 4122 1019 
L 4122 359 
Q 3791 134 3420 21 
Q 3050 -91 2638 -91 
Q 1578 -91 968 557 
Q 359 1206 359 2328 
Q 359 3453 968 4101 
Q 1578 4750 2638 4750 
Q 3056 4750 3426 4639 
Q 3797 4528 4122 4306 
z
" transform="scale(0.015625)"/>
      <path id="DejaVuSans-78" d="M 3513 3500 
L 2247 1797 
L 3578 0 
L 2900 0 
L 1881 1375 
L 863 0 
L 184 0 
L 1544 1831 
L 300 3500 
L 978 3500 
L 1906 2253 
L 2834 3500 
L 3513 3500 
z
" transform="scale(0.015625)"/>
     </defs>
     <use xlink:href="#DejaVuSans-43"/>
     <use xlink:href="#DejaVuSans-78" transform="translate(69.824219 0)"/>
    </g>
    <!-- 100nF -->
    <g transform="translate(50.168084 18.950663) scale(0.08 -0.08)">
     <defs>
      <path id="DejaVuSans-31" d="M 794 531 
L 1825 531 
L 1825 4091 
L 703 3866 
L 703 4441 
L 1819 4666 
L 2450 4666 
L 2450 531 
L 3481 531 
L 3481 0 
L 794 0 
L 794 531 
z
" transform="scale(0.015625)"/>
      <path id="DejaVuSans-30" d="M 2034 4250 
Q 1547 4250 1301 3770 
Q 1056 3291 1056 2328 
Q 1056 1369 1301 889 
Q 1547 409 2034 409 
Q 2525 409 2770 889 
Q 3016 1369 3016 2328 
Q 3016 3291 2770 3770 
Q 2525 4250 2034 4250 
z
M 2034 4750 
Q 2819 4750 3233 4129 
Q 3647 3509 3647 2328 
Q 3647 1150 3233 529 
Q 2819 -91 2034 -91 
Q 1250 -91 836 529 
Q 422 1150 422 2328 
Q 422 3509 836 4129 
Q 1250 4750 2034 4750 
z
" transform="scale(0.015625)"/>
      <path id="DejaVuSans-6e" d="M 3513 2113 
L 3513 0 
L 2938 0 
L 2938 2094 
Q 2938 2591 2744 2837 
Q 2550 3084 2163 3084 
Q 1697 3084 1428 2787 
Q 1159 2491 1159 1978 
L 1159 0 
L 581 0 
L 581 3500 
L 1159 3500 
L 1159 2956 
Q 1366 3272 1645 3428 
Q 1925 3584 2291 3584 
Q 2894 3584 3203 3211 
Q 3513 2838 3513 2113 
z
" transform="scale(0.015625)"/>
      <path id="DejaVuSans-46" d="M 628 4666 
L 3309 4666 
L 3309 4134 
L 1259 4134 
L 1259 2759 
L 3109 2759 
L 3109 2228 
L 1259 2228 
L 1259 0 
L 628 0 
L 628 4666 
z
" transform="scale(0.015625)"/>
     </defs>
     <use xlink:href="#DejaVuSans-31"/>
     <use xlink:href="#DejaVuSans-30" transform="translate(63.623047 0)"/>
     <use xlink:href="#DejaVuSans-30" transform="translate(127.246094 0)"/>
     <use xlink:href="#DejaVuSans-6e" transform="translate(190.869141 0)"/>
     <use xlink:href="#DejaVuSans-46" transform="translate(254.248047 0)"/>
    </g>
   </g>
   <g id="text_2">
    <!-- L1 -->
    <g transform="translate(102.125522 14.256989) scale(0.09 -0.09)">
     <defs>
      <path id="DejaVuSans-4c" d="M 628 4666 
L 1259 4666 
L 1259 531 
L 3531 531 
L 3531 0 
L 628 0 
L 628 4666 
z
" transform="scale(0.015625)"/>
     </defs>
     <use xlink:href="#DejaVuSans-4c"/>
     <use xlink:href="#DejaVuSans-31" transform="translate(55.712891 0)"/>
    </g>
   </g>
   <g id="text_3">
    <!-- Cy -->
    <g transform="translate(147.192648 21.973911) scale(0.08 -0.08)">
     <defs>
      <path id="DejaVuSans-79" d="M 2059 -325 
Q 1816 -950 1584 -1140 
Q 1353 -1331 966 -1331 
L 506 -1331 
L 506 -850 
L 844 -850 
Q 1081 -850 1212 -737 
Q 1344 -625 1503 -206 
L 1606 56 
L 191 3500 
L 800 3500 
L 1894 763 
L 2988 3500 
L 3597 3500 
L 2059 -325 
z
" transform="scale(0.015625)"/>
     </defs>
     <use xlink:href="#DejaVuSans-43"/>
     <use xlink:href="#DejaVuSans-79" transform="translate(69.824219 0)"/>
    </g>
    <!-- 2.2nF -->
    <g transform="translate(141.156398 29.716411) scale(0.08 -0.08)">
     <defs>
      <path id="DejaVuSans-32" d="M 1228 531 
L 3431 531 
L 3431 0 
L 469 0 
L 469 531 
Q 828 903 1448 1529 
Q 2069 2156 2228 2338 
Q 2531 2678 2651 2914 
Q 2772 3150 2772 3378 
Q 2772 3750 2511 3984 
Q 2250 4219 1831 4219 
Q 1534 4219 1204 4116 
Q 875 4013 500 3803 
L 500 4441 
Q 881 4594 1212 4672 
Q 1544 4750 1819 4750 
Q 2544 4750 2975 4387 
Q 3406 4025 3406 3419 
Q 3406 3131 3298 2873 
Q 3191 2616 2906 2266 
Q 2828 2175 2409 1742 
Q 1991 1309 1228 531 
z
" transform="scale(0.015625)"/>
      <path id="DejaVuSans-2e" d="M 684 794 
L 1344 794 
L 1344 0 
L 684 0 
L 684 794 
z
" transform="scale(0.015625)"/>
     </defs>
     <use xlink:href="#DejaVuSans-32"/>
     <use xlink:href="#DejaVuSans-2e" transform="translate(63.623047 0)"/>
     <use xlink:href="#DejaVuSans-32" transform="translate(95.410156 0)"/>
     <use xlink:href="#DejaVuSans-6e" transform="translate(159.033203 0)"/>
     <use xlink:href="#DejaVuSans-46" transform="translate(222.412109 0)"/>
    </g>
   </g>
   <g id="text_4">
    <!-- Cx -->
    <g transform="translate(165.135561 11.208163) scale(0.08 -0.08)">
     <use xlink:href="#DejaVuSans-43"/>
     <use xlink:href="#DejaVuSans-78" transform="translate(69.824219 0)"/>
    </g>
    <!-- 100nF -->
    <g transform="translate(157.825561 18.950663) scale(0.08 -0.08)">
     <use xlink:href="#DejaVuSans-31"/>
     <use xlink:href="#DejaVuSans-30" transform="translate(63.623047 0)"/>
     <use xlink:href="#DejaVuSans-30" transform="translate(127.246094 0)"/>
     <use xlink:href="#DejaVuSans-6e" transform="translate(190.869141 0)"/>
     <use xlink:href="#DejaVuSans-46" transform="translate(254.248047 0)"/>
    </g>
   </g>
   <g id="text_5">
    <!-- L2 -->
    <g transform="translate(102.125522 106.401824) scale(0.09 -0.09)">
     <use xlink:href="#DejaVuSans-4c"/>
     <use xlink:href="#DejaVuSans-32" transform="translate(55.712891 0)"/>
    </g>
   </g>
   <g id="text_6">
    <!-- Cy -->
    <g transform="translate(165.135561 93.745563) scale(0.08 -0.08)">
     <use xlink:href="#DejaVuSans-43"/>
     <use xlink:href="#DejaVuSans-79" transform="translate(69.824219 0)"/>
    </g>
    <!-- 2.2nF -->
    <g transform="translate(159.099311 101.488063) scale(0.08 -0.08)">
     <use xlink:href="#DejaVuSans-32"/>
     <use xlink:href="#DejaVuSans-2e" transform="translate(63.623047 0)"/>
     <use xlink:href="#DejaVuSans-32" transform="translate(95.410156 0)"/>
     <use xlink:href="#DejaVuSans-6e" transform="translate(159.033203 0)"/>
     <use xlink:href="#DejaVuSans-46" transform="translate(222.412109 0)"/>
    </g>
   </g>
   <g id="patch_10">
    <path d="M 44.695796 26.894433 
C 45.409573 26.894433 46.094213 26.610846 46.598929 26.106129 
C 47.103646 25.601412 47.387233 24.916773 47.387233 24.202996 
C 47.387233 23.489218 47.103646 22.804579 46.598929 22.299863 
C 46.094213 21.795146 45.409573 21.511559 44.695796 21.511559 
C 43.982019 21.511559 43.29738 21.795146 42.792663 22.299863 
C 42.287946 22.804579 42.004359 23.489218 42.004359 24.202996 
C 42.004359 24.916773 42.287946 25.601412 42.792663 26.106129 
C 43.29738 26.610846 43.982019 26.894433 44.695796 26.894433 
z
" clip-path="url(#pf9583bf7c9)" style="stroke: #000000; stroke-width: 2; stroke-linejoin: miter"/>
   </g>
   <g id="text_7">
    <!-- L -->
    <g transform="translate(33.401089 22.331277) scale(0.09 -0.09)">
     <use xlink:href="#DejaVuSans-4c"/>
    </g>
    <!-- (Fase) -->
    <g transform="translate(11.296245 31.04159) scale(0.09 -0.09)">
     <defs>
      <path id="DejaVuSans-28" d="M 1984 4856 
Q 1566 4138 1362 3434 
Q 1159 2731 1159 2009 
Q 1159 1288 1364 580 
Q 1569 -128 1984 -844 
L 1484 -844 
Q 1016 -109 783 600 
Q 550 1309 550 2009 
Q 550 2706 781 3412 
Q 1013 4119 1484 4856 
L 1984 4856 
z
" transform="scale(0.015625)"/>
      <path id="DejaVuSans-61" d="M 2194 1759 
Q 1497 1759 1228 1600 
Q 959 1441 959 1056 
Q 959 750 1161 570 
Q 1363 391 1709 391 
Q 2188 391 2477 730 
Q 2766 1069 2766 1631 
L 2766 1759 
L 2194 1759 
z
M 3341 1997 
L 3341 0 
L 2766 0 
L 2766 531 
Q 2569 213 2275 61 
Q 1981 -91 1556 -91 
Q 1019 -91 701 211 
Q 384 513 384 1019 
Q 384 1609 779 1909 
Q 1175 2209 1959 2209 
L 2766 2209 
L 2766 2266 
Q 2766 2663 2505 2880 
Q 2244 3097 1772 3097 
Q 1472 3097 1187 3025 
Q 903 2953 641 2809 
L 641 3341 
Q 956 3463 1253 3523 
Q 1550 3584 1831 3584 
Q 2591 3584 2966 3190 
Q 3341 2797 3341 1997 
z
" transform="scale(0.015625)"/>
      <path id="DejaVuSans-73" d="M 2834 3397 
L 2834 2853 
Q 2591 2978 2328 3040 
Q 2066 3103 1784 3103 
Q 1356 3103 1142 2972 
Q 928 2841 928 2578 
Q 928 2378 1081 2264 
Q 1234 2150 1697 2047 
L 1894 2003 
Q 2506 1872 2764 1633 
Q 3022 1394 3022 966 
Q 3022 478 2636 193 
Q 2250 -91 1575 -91 
Q 1294 -91 989 -36 
Q 684 19 347 128 
L 347 722 
Q 666 556 975 473 
Q 1284 391 1588 391 
Q 1994 391 2212 530 
Q 2431 669 2431 922 
Q 2431 1156 2273 1281 
Q 2116 1406 1581 1522 
L 1381 1569 
Q 847 1681 609 1914 
Q 372 2147 372 2553 
Q 372 3047 722 3315 
Q 1072 3584 1716 3584 
Q 2034 3584 2315 3537 
Q 2597 3491 2834 3397 
z
" transform="scale(0.015625)"/>
      <path id="DejaVuSans-65" d="M 3597 1894 
L 3597 1613 
L 953 1613 
Q 991 1019 1311 708 
Q 1631 397 2203 397 
Q 2534 397 2845 478 
Q 3156 559 3463 722 
L 3463 178 
Q 3153 47 2828 -22 
Q 2503 -91 2169 -91 
Q 1331 -91 842 396 
Q 353 884 353 1716 
Q 353 2575 817 3079 
Q 1281 3584 2069 3584 
Q 2775 3584 3186 3129 
Q 3597 2675 3597 1894 
z
M 3022 2063 
Q 3016 2534 2758 2815 
Q 2500 3097 2075 3097 
Q 1594 3097 1305 2825 
Q 1016 2553 972 2059 
L 3022 2063 
z
" transform="scale(0.015625)"/>
      <path id="DejaVuSans-29" d="M 513 4856 
L 1013 4856 
Q 1481 4119 1714 3412 
Q 1947 2706 1947 2009 
Q 1947 1309 1714 600 
Q 1481 -109 1013 -844 
L 513 -844 
Q 928 -128 1133 580 
Q 1338 1288 1338 2009 
Q 1338 2731 1133 3434 
Q 928 4138 513 4856 
z
" transform="scale(0.015625)"/>
     </defs>
     <use xlink:href="#DejaVuSans-28"/>
     <use xlink:href="#DejaVuSans-46" transform="translate(39.013672 0)"/>
     <use xlink:href="#DejaVuSans-61" transform="translate(87.408203 0)"/>
     <use xlink:href="#DejaVuSans-73" transform="translate(148.6875 0)"/>
     <use xlink:href="#DejaVuSans-65" transform="translate(200.787109 0)"/>
     <use xlink:href="#DejaVuSans-29" transform="translate(262.310547 0)"/>
    </g>
   </g>
   <g id="patch_11">
    <path d="M 44.695796 98.666084 
C 45.409573 98.666084 46.094213 98.382498 46.598929 97.877781 
C 47.103646 97.373064 47.387233 96.688425 47.387233 95.974647 
C 47.387233 95.26087 47.103646 94.576231 46.598929 94.071514 
C 46.094213 93.566797 45.409573 93.283211 44.695796 93.283211 
C 43.982019 93.283211 43.29738 93.566797 42.792663 94.071514 
C 42.287946 94.576231 42.004359 95.26087 42.004359 95.974647 
C 42.004359 96.688425 42.287946 97.373064 42.792663 97.877781 
C 43.29738 98.382498 43.982019 98.666084 44.695796 98.666084 
z
" clip-path="url(#pf9583bf7c9)" style="stroke: #000000; stroke-width: 2; stroke-linejoin: miter"/>
   </g>
   <g id="text_8">
    <!-- N -->
    <g transform="translate(31.682652 94.102929) scale(0.09 -0.09)">
     <defs>
      <path id="DejaVuSans-4e" d="M 628 4666 
L 1478 4666 
L 3547 763 
L 3547 4666 
L 4159 4666 
L 4159 0 
L 3309 0 
L 1241 3903 
L 1241 0 
L 628 0 
L 628 4666 
z
" transform="scale(0.015625)"/>
     </defs>
     <use xlink:href="#DejaVuSans-4e"/>
    </g>
    <!-- (Neutro) -->
    <g transform="translate(0.885777 102.813241) scale(0.09 -0.09)">
     <defs>
      <path id="DejaVuSans-75" d="M 544 1381 
L 544 3500 
L 1119 3500 
L 1119 1403 
Q 1119 906 1312 657 
Q 1506 409 1894 409 
Q 2359 409 2629 706 
Q 2900 1003 2900 1516 
L 2900 3500 
L 3475 3500 
L 3475 0 
L 2900 0 
L 2900 538 
Q 2691 219 2414 64 
Q 2138 -91 1772 -91 
Q 1169 -91 856 284 
Q 544 659 544 1381 
z
M 1991 3584 
L 1991 3584 
z
" transform="scale(0.015625)"/>
      <path id="DejaVuSans-74" d="M 1172 4494 
L 1172 3500 
L 2356 3500 
L 2356 3053 
L 1172 3053 
L 1172 1153 
Q 1172 725 1289 603 
Q 1406 481 1766 481 
L 2356 481 
L 2356 0 
L 1766 0 
Q 1100 0 847 248 
Q 594 497 594 1153 
L 594 3053 
L 172 3053 
L 172 3500 
L 594 3500 
L 594 4494 
L 1172 4494 
z
" transform="scale(0.015625)"/>
      <path id="DejaVuSans-72" d="M 2631 2963 
Q 2534 3019 2420 3045 
Q 2306 3072 2169 3072 
Q 1681 3072 1420 2755 
Q 1159 2438 1159 1844 
L 1159 0 
L 581 0 
L 581 3500 
L 1159 3500 
L 1159 2956 
Q 1341 3275 1631 3429 
Q 1922 3584 2338 3584 
Q 2397 3584 2469 3576 
Q 2541 3569 2628 3553 
L 2631 2963 
z
" transform="scale(0.015625)"/>
      <path id="DejaVuSans-6f" d="M 1959 3097 
Q 1497 3097 1228 2736 
Q 959 2375 959 1747 
Q 959 1119 1226 758 
Q 1494 397 1959 397 
Q 2419 397 2687 759 
Q 2956 1122 2956 1747 
Q 2956 2369 2687 2733 
Q 2419 3097 1959 3097 
z
M 1959 3584 
Q 2709 3584 3137 3096 
Q 3566 2609 3566 1747 
Q 3566 888 3137 398 
Q 2709 -91 1959 -91 
Q 1206 -91 779 398 
Q 353 888 353 1747 
Q 353 2609 779 3096 
Q 1206 3584 1959 3584 
z
" transform="scale(0.015625)"/>
     </defs>
     <use xlink:href="#DejaVuSans-28"/>
     <use xlink:href="#DejaVuSans-4e" transform="translate(39.013672 0)"/>
     <use xlink:href="#DejaVuSans-65" transform="translate(113.818359 0)"/>
     <use xlink:href="#DejaVuSans-75" transform="translate(175.341797 0)"/>
     <use xlink:href="#DejaVuSans-74" transform="translate(238.720703 0)"/>
     <use xlink:href="#DejaVuSans-72" transform="translate(277.929688 0)"/>
     <use xlink:href="#DejaVuSans-6f" transform="translate(316.792969 0)"/>
     <use xlink:href="#DejaVuSans-29" transform="translate(377.974609 0)"/>
    </g>
   </g>
   <g id="patch_12">
    <path d="M 188.239099 26.894433 
C 188.952877 26.894433 189.637516 26.610846 190.142233 26.106129 
C 190.646949 25.601412 190.930536 24.916773 190.930536 24.202996 
C 190.930536 23.489218 190.646949 22.804579 190.142233 22.299863 
C 189.637516 21.795146 188.952877 21.511559 188.239099 21.511559 
C 187.525322 21.511559 186.840683 21.795146 186.335966 22.299863 
C 185.831249 22.804579 185.547662 23.489218 185.547662 24.202996 
C 185.547662 24.916773 185.831249 25.601412 186.335966 26.106129 
C 186.840683 26.610846 187.525322 26.894433 188.239099 26.894433 
z
" clip-path="url(#pf9583bf7c9)" style="stroke: #000000; stroke-width: 2; stroke-linejoin: miter"/>
   </g>
   <g id="text_9">
    <!-- L -->
    <g transform="translate(194.519119 26.686433) scale(0.09 -0.09)">
     <use xlink:href="#DejaVuSans-4c"/>
    </g>
   </g>
   <g id="patch_13">
    <path d="M 242.067838 98.666084 
C 242.781615 98.666084 243.466254 98.382498 243.970971 97.877781 
C 244.475688 97.373064 244.759275 96.688425 244.759275 95.974647 
C 244.759275 95.26087 244.475688 94.576231 243.970971 94.071514 
C 243.466254 93.566797 242.781615 93.283211 242.067838 93.283211 
C 241.354061 93.283211 240.669422 93.566797 240.164705 94.071514 
C 239.659988 94.576231 239.376401 95.26087 239.376401 95.974647 
C 239.376401 96.688425 239.659988 97.373064 240.164705 97.877781 
C 240.669422 98.382498 241.354061 98.666084 242.067838 98.666084 
z
" clip-path="url(#pf9583bf7c9)" style="stroke: #000000; stroke-width: 2; stroke-linejoin: miter"/>
   </g>
   <g id="text_10">
    <!-- N -->
    <g transform="translate(248.347858 98.458085) scale(0.09 -0.09)">
     <use xlink:href="#DejaVuSans-4e"/>
    </g>
   </g>
   <g id="patch_14">
    <path d="M 44.695796 152.494823 
C 45.409573 152.494823 46.094213 152.211236 46.598929 151.70652 
C 47.103646 151.201803 47.387233 150.517164 47.387233 149.803386 
C 47.387233 149.089609 47.103646 148.40497 46.598929 147.900253 
C 46.094213 147.395536 45.409573 147.111949 44.695796 147.111949 
C 43.982019 147.111949 43.29738 147.395536 42.792663 147.900253 
C 42.287946 148.40497 42.004359 149.089609 42.004359 149.803386 
C 42.004359 150.517164 42.287946 151.201803 42.792663 151.70652 
C 43.29738 152.211236 43.982019 152.494823 44.695796 152.494823 
z
" clip-path="url(#pf9583bf7c9)" style="stroke: #000000; stroke-width: 2; stroke-linejoin: miter"/>
   </g>
   <g id="text_11">
    <!-- PE -->
    <g transform="translate(27.302183 147.931667) scale(0.09 -0.09)">
     <defs>
      <path id="DejaVuSans-50" d="M 1259 4147 
L 1259 2394 
L 2053 2394 
Q 2494 2394 2734 2622 
Q 2975 2850 2975 3272 
Q 2975 3691 2734 3919 
Q 2494 4147 2053 4147 
L 1259 4147 
z
M 628 4666 
L 2053 4666 
Q 2838 4666 3239 4311 
Q 3641 3956 3641 3272 
Q 3641 2581 3239 2228 
Q 2838 1875 2053 1875 
L 1259 1875 
L 1259 0 
L 628 0 
L 628 4666 
z
" transform="scale(0.015625)"/>
      <path id="DejaVuSans-45" d="M 628 4666 
L 3578 4666 
L 3578 4134 
L 1259 4134 
L 1259 2753 
L 3481 2753 
L 3481 2222 
L 1259 2222 
L 1259 531 
L 3634 531 
L 3634 0 
L 628 0 
L 628 4666 
z
" transform="scale(0.015625)"/>
     </defs>
     <use xlink:href="#DejaVuSans-50"/>
     <use xlink:href="#DejaVuSans-45" transform="translate(60.302734 0)"/>
    </g>
    <!-- (Terra) -->
    <g transform="translate(9.13062 156.64198) scale(0.09 -0.09)">
     <defs>
      <path id="DejaVuSans-54" d="M -19 4666 
L 3928 4666 
L 3928 4134 
L 2272 4134 
L 2272 0 
L 1638 0 
L 1638 4134 
L -19 4134 
L -19 4666 
z
" transform="scale(0.015625)"/>
     </defs>
     <use xlink:href="#DejaVuSans-28"/>
     <use xlink:href="#DejaVuSans-54" transform="translate(39.013672 0)"/>
     <use xlink:href="#DejaVuSans-65" transform="translate(83.097656 0)"/>
     <use xlink:href="#DejaVuSans-72" transform="translate(144.621094 0)"/>
     <use xlink:href="#DejaVuSans-72" transform="translate(183.984375 0)"/>
     <use xlink:href="#DejaVuSans-61" transform="translate(225.097656 0)"/>
     <use xlink:href="#DejaVuSans-29" transform="translate(286.376953 0)"/>
    </g>
   </g>
   <g id="patch_15">
    <path d="M 251.039294 152.494823 
C 251.753072 152.494823 252.437711 152.211236 252.942428 151.70652 
C 253.447145 151.201803 253.730731 150.517164 253.730731 149.803386 
C 253.730731 149.089609 253.447145 148.40497 252.942428 147.900253 
C 252.437711 147.395536 251.753072 147.111949 251.039294 147.111949 
C 250.325517 147.111949 249.640878 147.395536 249.136161 147.900253 
C 248.631444 148.40497 248.347858 149.089609 248.347858 149.803386 
C 248.347858 150.517164 248.631444 151.201803 249.136161 151.70652 
C 249.640878 152.211236 250.325517 152.494823 251.039294 152.494823 
z
" clip-path="url(#pf9583bf7c9)" style="stroke: #000000; stroke-width: 2; stroke-linejoin: miter"/>
   </g>
   <g id="text_12">
    <!-- PE -->
    <g transform="translate(257.319314 152.286824) scale(0.09 -0.09)">
     <use xlink:href="#DejaVuSans-50"/>
     <use xlink:href="#DejaVuSans-45" transform="translate(60.302734 0)"/>
    </g>
   </g>
  </g>
 </g>
 <defs>
  <clipPath id="pf9583bf7c9">
   <rect x="0" y="0" width="274.042109" height="163.44"/>
  </clipPath>
 </defs>
</svg>
