<?xml version="1.0" encoding="utf-8" standalone="no"?>
<!DOCTYPE svg PUBLIC "-//W3C//DTD SVG 1.1//EN"
  "http://www.w3.org/Graphics/SVG/1.1/DTD/svg11.dtd">
<svg xmlns:xlink="http://www.w3.org/1999/xlink" width="156.624667pt" height="143.28pt" viewBox="0 0 156.624667 143.28" xmlns="http://www.w3.org/2000/svg" version="1.1">
 <metadata>
  <rdf:RDF xmlns:dc="http://purl.org/dc/elements/1.1/" xmlns:cc="http://creativecommons.org/ns#" xmlns:rdf="http://www.w3.org/1999/02/22-rdf-syntax-ns#">
   <cc:Work>
    <dc:type rdf:resource="http://purl.org/dc/dcmitype/StillImage"/>
    <dc:date>2025-12-07T23:58:51.593423</dc:date>
    <dc:format>image/svg+xml</dc:format>
    <dc:creator>
     <cc:Agent>
      <dc:title>Matplotlib v3.10.7, https://matplotlib.org/</dc:title>
     </cc:Agent>
    </dc:creator>
   </cc:Work>
  </rdf:RDF>
 </metadata>
 <defs>
  <style type="text/css">*{stroke-linejoin: round; stroke-linecap: butt}</style>
 </defs>
 <g id="figure_1">
  <g id="patch_1">
   <path d="M 0 143.28 
L 156.624667 143.28 
L 156.624667 0 
L 0 0 
L 0 143.28 
z
" style="fill: none"/>
  </g>
  <g id="axes_1">
   <g id="patch_2">
    <path d="M 35.519427 102.792153 
C 40.270534 102.792153 44.827688 100.904518 48.187228 97.544978 
C 51.546768 94.185438 53.434403 89.628284 53.434403 84.877177 
C 53.434403 80.12607 51.546768 75.568916 48.187228 72.209376 
C 44.827688 68.849836 40.270534 66.962201 35.519427 66.962201 
C 30.768319 66.962201 26.211165 68.849836 22.851625 72.209376 
C 19.492085 75.568916 17.60445 80.12607 17.60445 84.877177 
C 17.60445 89.628284 19.492085 94.185438 22.851625 97.544978 
C 26.211165 100.904518 30.768319 102.792153 35.519427 102.792153 
L 35.519427 102.792153 
z
" clip-path="url(#p7dcc73ffb8)" style="fill: none; stroke: #000000; stroke-width: 2; stroke-linejoin: miter"/>
   </g>
   <g id="line2d_1">
    <path d="M 35.519427 138.622106 
L 35.519427 102.792153 
L 35.519427 102.792153 
M 35.519427 66.962201 
L 35.519427 66.962201 
L 35.519427 31.132248 
" clip-path="url(#p7dcc73ffb8)" style="fill: none; stroke: #000000; stroke-width: 2; stroke-linecap: round"/>
   </g>
   <g id="line2d_2">
    <path d="M 39.102422 93.834665 
L 31.936431 93.834665 
" clip-path="url(#p7dcc73ffb8)" style="fill: none; stroke: #000000; stroke-width: 2; stroke-linecap: round"/>
   </g>
   <g id="line2d_3">
    <path d="M 35.519427 79.502684 
L 35.519427 72.336694 
" clip-path="url(#p7dcc73ffb8)" style="fill: none; stroke: #000000; stroke-width: 2; stroke-linecap: round"/>
   </g>
   <g id="line2d_4">
    <path d="M 39.102422 75.919689 
L 31.936431 75.919689 
" clip-path="url(#p7dcc73ffb8)" style="fill: none; stroke: #000000; stroke-width: 2; stroke-linecap: round"/>
   </g>
   <g id="line2d_5">
    <path d="M 35.519427 31.132248 
L 71.349379 31.132248 
L 74.335209 22.17476 
L 80.306867 40.089736 
L 86.278526 22.17476 
L 92.250185 40.089736 
L 98.221844 22.17476 
L 104.193503 40.089736 
L 107.179332 31.132248 
L 143.009285 31.132248 
" clip-path="url(#p7dcc73ffb8)" style="fill: none; stroke: #000000; stroke-width: 2; stroke-linecap: round"/>
   </g>
   <g id="line2d_6">
    <path d="M 143.009285 31.132248 
L 143.009285 81.652481 
M 151.966773 81.652481 
L 134.051797 81.652481 
M 151.966773 88.101873 
L 134.051797 88.101873 
M 143.009285 88.101873 
L 143.009285 138.622106 
" clip-path="url(#p7dcc73ffb8)" style="fill: none; stroke: #000000; stroke-width: 2; stroke-linecap: round"/>
   </g>
   <g id="line2d_7">
    <path d="M 143.009285 138.622106 
L 89.264356 138.622106 
L 35.519427 138.622106 
" clip-path="url(#p7dcc73ffb8)" style="fill: none; stroke: #000000; stroke-width: 2; stroke-linecap: round"/>
   </g>
   <g id="line2d_8">
    <path d="M 35.519427 138.622106 
L 35.519427 84.877177 
L 35.519427 31.132248 
" clip-path="url(#p7dcc73ffb8)" style="fill: none; stroke: #000000; stroke-width: 2; stroke-linecap: round"/>
   </g>
   <g id="text_1">
    <!-- V -->
    <g transform="translate(4.44458 88.740302) scale(0.14 -0.14)">
     <defs>
      <path id="DejaVuSans-56" d="M 1831 0 
L 50 4666 
L 709 4666 
L 2188 738 
L 3669 4666 
L 4325 4666 
L 2547 0 
L 1831 0 
z
" transform="scale(0.015625)"/>
     </defs>
     <use xlink:href="#DejaVuSans-56"/>
    </g>
   </g>
   <g id="text_2">
    <!-- R -->
    <g transform="translate(84.400449 15.680202) scale(0.14 -0.14)">
     <defs>
      <path id="DejaVuSans-52" d="M 2841 2188 
Q 3044 2119 3236 1894 
Q 3428 1669 3622 1275 
L 4263 0 
L 3584 0 
L 2988 1197 
Q 2756 1666 2539 1819 
Q 2322 1972 1947 1972 
L 1259 1972 
L 1259 0 
L 628 0 
L 628 4666 
L 2053 4666 
Q 2853 4666 3247 4331 
Q 3641 3997 3641 3322 
Q 3641 2881 3436 2590 
Q 3231 2300 2841 2188 
z
M 1259 4147 
L 1259 2491 
L 2053 2491 
Q 2509 2491 2742 2702 
Q 2975 2913 2975 3322 
Q 2975 3731 2742 3939 
Q 2509 4147 2053 4147 
L 1259 4147 
z
" transform="scale(0.015625)"/>
     </defs>
     <use xlink:href="#DejaVuSans-52"/>
    </g>
   </g>
   <g id="text_3">
    <!-- C -->
    <g transform="translate(120.692864 88.740302) scale(0.14 -0.14)">
     <defs>
      <path id="DejaVuSans-43" d="M 4122 4306 
L 4122 3641 
Q 3803 3938 3442 4084 
Q 3081 4231 2675 4231 
Q 1875 4231 1450 3742 
Q 1025 3253 1025 2328 
Q 1025 1406 1450 917 
Q 1875 428 2675 428 
Q 3081 428 3442 575 
Q 3803 722 4122 1019 
L 4122 359 
Q 3791 134 3420 21 
Q 3050 -91 2638 -91 
Q 1578 -91 968 557 
Q 359 1206 359 2328 
Q 359 3453 968 4101 
Q 1578 4750 2638 4750 
Q 3056 4750 3426 4639 
Q 3797 4528 4122 4306 
z
" transform="scale(0.015625)"/>
     </defs>
     <use xlink:href="#DejaVuSans-43"/>
    </g>
   </g>
  </g>
 </g>
 <defs>
  <clipPath id="p7dcc73ffb8">
   <rect x="0" y="0" width="156.624667" height="143.28"/>
  </clipPath>
 </defs>
</svg>
