<?xml version="1.0" encoding="utf-8" standalone="no"?>
<!DOCTYPE svg PUBLIC "-//W3C//DTD SVG 1.1//EN"
  "http://www.w3.org/Graphics/SVG/1.1/DTD/svg11.dtd">
<svg xmlns:xlink="http://www.w3.org/1999/xlink" width="134.578013pt" height="70.56pt" viewBox="0 0 134.578013 70.56" xmlns="http://www.w3.org/2000/svg" version="1.1">
 <metadata>
  <rdf:RDF xmlns:dc="http://purl.org/dc/elements/1.1/" xmlns:cc="http://creativecommons.org/ns#" xmlns:rdf="http://www.w3.org/1999/02/22-rdf-syntax-ns#">
   <cc:Work>
    <dc:type rdf:resource="http://purl.org/dc/dcmitype/StillImage"/>
    <dc:date>2025-12-07T23:58:51.500747</dc:date>
    <dc:format>image/svg+xml</dc:format>
    <dc:creator>
     <cc:Agent>
      <dc:title>Matplotlib v3.10.7, https://matplotlib.org/</dc:title>
     </cc:Agent>
    </dc:creator>
   </cc:Work>
  </rdf:RDF>
 </metadata>
 <defs>
  <style type="text/css">*{stroke-linejoin: round; stroke-linecap: butt}</style>
 </defs>
 <g id="figure_1">
  <g id="patch_1">
   <path d="M 0 70.56 
L 134.578013 70.56 
L 134.578013 0 
L 0 0 
L 0 70.56 
z
" style="fill: none"/>
  </g>
  <g id="axes_1">
   <g id="patch_2">
    <path d="M 43.12939 30.512701 
L 55.656599 39.460707 
L 43.12939 48.408714 
L 43.12939 30.512701 
z
" clip-path="url(#p258e5ff09c)" style="fill: none; stroke: #000000; stroke-width: 2; stroke-linecap: round"/>
   </g>
   <g id="line2d_1">
    <path d="M 4.652963 39.460707 
L 43.12939 39.460707 
M 55.656599 30.512701 
L 55.656599 48.408714 
M 55.656599 39.460707 
L 94.133025 39.460707 
" clip-path="url(#p258e5ff09c)" style="fill: none; stroke: #000000; stroke-width: 2; stroke-linecap: round"/>
   </g>
   <g id="line2d_2">
    <path d="M 52.077396 26.038698 
L 57.473839 16.594923 
" clip-path="url(#p258e5ff09c)" style="fill: none; stroke: #000000; stroke-width: 2; stroke-linecap: round"/>
   </g>
   <g id="patch_3">
    <path d="M 54.987744 15.174298 
L 61.025402 10.379687 
L 59.959933 18.015549 
z
" clip-path="url(#p258e5ff09c)"/>
   </g>
   <g id="line2d_3">
    <path d="M 44.024191 26.038698 
L 49.420633 16.594923 
" clip-path="url(#p258e5ff09c)" style="fill: none; stroke: #000000; stroke-width: 2; stroke-linecap: round"/>
   </g>
   <g id="patch_4">
    <path d="M 46.934539 15.174298 
L 52.972197 10.379687 
L 51.906728 18.015549 
z
" clip-path="url(#p258e5ff09c)"/>
   </g>
   <g id="line2d_4">
    <path d="M 94.133025 39.460707 
L 112.029038 39.460707 
L 129.92505 39.460707 
" clip-path="url(#p258e5ff09c)" style="fill: none; stroke: #000000; stroke-width: 2; stroke-linecap: round"/>
   </g>
   <g id="text_1">
    <!-- LED -->
    <g transform="translate(35.679557 62.625729) scale(0.14 -0.14)">
     <defs>
      <path id="DejaVuSans-4c" d="M 628 4666 
L 1259 4666 
L 1259 531 
L 3531 531 
L 3531 0 
L 628 0 
L 628 4666 
z
" transform="scale(0.015625)"/>
      <path id="DejaVuSans-45" d="M 628 4666 
L 3578 4666 
L 3578 4134 
L 1259 4134 
L 1259 2753 
L 3481 2753 
L 3481 2222 
L 1259 2222 
L 1259 531 
L 3634 531 
L 3634 0 
L 628 0 
L 628 4666 
z
" transform="scale(0.015625)"/>
      <path id="DejaVuSans-44" d="M 1259 4147 
L 1259 519 
L 2022 519 
Q 2988 519 3436 956 
Q 3884 1394 3884 2338 
Q 3884 3275 3436 3711 
Q 2988 4147 2022 4147 
L 1259 4147 
z
M 628 4666 
L 1925 4666 
Q 3281 4666 3915 4102 
Q 4550 3538 4550 2338 
Q 4550 1131 3912 565 
Q 3275 0 1925 0 
L 628 0 
L 628 4666 
z
" transform="scale(0.015625)"/>
     </defs>
     <use xlink:href="#DejaVuSans-4c"/>
     <use xlink:href="#DejaVuSans-45" transform="translate(55.712891 0)"/>
     <use xlink:href="#DejaVuSans-44" transform="translate(118.896484 0)"/>
    </g>
   </g>
  </g>
 </g>
 <defs>
  <clipPath id="p258e5ff09c">
   <rect x="0" y="0" width="134.578013" height="70.56"/>
  </clipPath>
 </defs>
</svg>
