<?xml version="1.0" encoding="utf-8" standalone="no"?>
<!DOCTYPE svg PUBLIC "-//W3C//DTD SVG 1.1//EN"
  "http://www.w3.org/Graphics/SVG/1.1/DTD/svg11.dtd">
<svg xmlns:xlink="http://www.w3.org/1999/xlink" width="45.188344pt" height="84.24pt" viewBox="0 0 45.188344 84.24" xmlns="http://www.w3.org/2000/svg" version="1.1">
 <metadata>
  <rdf:RDF xmlns:dc="http://purl.org/dc/elements/1.1/" xmlns:cc="http://creativecommons.org/ns#" xmlns:rdf="http://www.w3.org/1999/02/22-rdf-syntax-ns#">
   <cc:Work>
    <dc:type rdf:resource="http://purl.org/dc/dcmitype/StillImage"/>
    <dc:date>2025-12-07T23:58:51.556541</dc:date>
    <dc:format>image/svg+xml</dc:format>
    <dc:creator>
     <cc:Agent>
      <dc:title>Matplotlib v3.10.7, https://matplotlib.org/</dc:title>
     </cc:Agent>
    </dc:creator>
   </cc:Work>
  </rdf:RDF>
 </metadata>
 <defs>
  <style type="text/css">*{stroke-linejoin: round; stroke-linecap: butt}</style>
 </defs>
 <g id="figure_1">
  <g id="patch_1">
   <path d="M 0 84.24 
L 45.188344 84.24 
L 45.188344 0 
L 0 0 
L 0 84.24 
z
" style="fill: none"/>
  </g>
  <g id="axes_1">
   <g id="patch_2">
    <path d="M 4.662289 36.541192 
C 6.563892 36.541192 8.389556 35.784978 9.734192 34.440341 
C 11.078828 33.095705 11.835043 31.270042 11.835043 29.368439 
C 11.835043 27.466836 11.078828 25.641173 9.734192 24.296537 
C 8.389556 22.9519 6.563892 22.195686 4.662289 22.195686 
" clip-path="url(#p334a936993)" style="fill: none; stroke: #000000; stroke-width: 2; stroke-linejoin: miter"/>
   </g>
   <g id="patch_3">
    <path d="M 4.662289 50.886698 
C 6.563892 50.886698 8.389556 50.130484 9.734192 48.785847 
C 11.078828 47.441211 11.835043 45.615548 11.835043 43.713945 
C 11.835043 41.812342 11.078828 39.986679 9.734192 38.642043 
C 8.389556 37.297407 6.563892 36.541192 4.662289 36.541192 
" clip-path="url(#p334a936993)" style="fill: none; stroke: #000000; stroke-width: 2; stroke-linejoin: miter"/>
   </g>
   <g id="patch_4">
    <path d="M 4.662289 65.232204 
C 6.563892 65.232204 8.389556 64.47599 9.734192 63.131354 
C 11.078828 61.786717 11.835043 59.961054 11.835043 58.059451 
C 11.835043 56.157848 11.078828 54.332185 9.734192 52.987549 
C 8.389556 51.642913 6.563892 50.886698 4.662289 50.886698 
" clip-path="url(#p334a936993)" style="fill: none; stroke: #000000; stroke-width: 2; stroke-linejoin: miter"/>
   </g>
   <g id="patch_5">
    <path d="M 4.662289 79.577711 
C 6.563892 79.577711 8.389556 78.821496 9.734192 77.47686 
C 11.078828 76.132224 11.835043 74.30656 11.835043 72.404957 
C 11.835043 70.503355 11.078828 68.677691 9.734192 67.333055 
C 8.389556 65.988419 6.563892 65.232204 4.662289 65.232204 
" clip-path="url(#p334a936993)" style="fill: none; stroke: #000000; stroke-width: 2; stroke-linejoin: miter"/>
   </g>
   <g id="patch_6">
    <path d="M 40.526055 22.195686 
C 38.624452 22.195686 36.798789 22.9519 35.454153 24.296537 
C 34.109516 25.641173 33.353302 27.466836 33.353302 29.368439 
C 33.353302 31.270042 34.109516 33.095705 35.454153 34.440341 
C 36.798789 35.784978 38.624452 36.541192 40.526055 36.541192 
" clip-path="url(#p334a936993)" style="fill: none; stroke: #000000; stroke-width: 2; stroke-linejoin: miter"/>
   </g>
   <g id="patch_7">
    <path d="M 40.526055 36.541192 
C 38.624452 36.541192 36.798789 37.297407 35.454153 38.642043 
C 34.109516 39.986679 33.353302 41.812342 33.353302 43.713945 
C 33.353302 45.615548 34.109516 47.441211 35.454153 48.785847 
C 36.798789 50.130484 38.624452 50.886698 40.526055 50.886698 
" clip-path="url(#p334a936993)" style="fill: none; stroke: #000000; stroke-width: 2; stroke-linejoin: miter"/>
   </g>
   <g id="patch_8">
    <path d="M 40.526055 50.886698 
C 38.624452 50.886698 36.798789 51.642913 35.454153 52.987549 
C 34.109516 54.332185 33.353302 56.157848 33.353302 58.059451 
C 33.353302 59.961054 34.109516 61.786717 35.454153 63.131354 
C 36.798789 64.47599 38.624452 65.232204 40.526055 65.232204 
" clip-path="url(#p334a936993)" style="fill: none; stroke: #000000; stroke-width: 2; stroke-linejoin: miter"/>
   </g>
   <g id="patch_9">
    <path d="M 40.526055 65.232204 
C 38.624452 65.232204 36.798789 65.988419 35.454153 67.333055 
C 34.109516 68.677691 33.353302 70.503355 33.353302 72.404957 
C 33.353302 74.30656 34.109516 76.132224 35.454153 77.47686 
C 36.798789 78.821496 38.624452 79.577711 40.526055 79.577711 
" clip-path="url(#p334a936993)" style="fill: none; stroke: #000000; stroke-width: 2; stroke-linejoin: miter"/>
   </g>
   <g id="line2d_1">
    <path d="M 19.007796 22.195686 
L 19.007796 79.577711 
" clip-path="url(#p334a936993)" style="fill: none; stroke: #000000; stroke-width: 2; stroke-linecap: round"/>
   </g>
   <g id="line2d_2">
    <path d="M 26.180549 22.195686 
L 26.180549 79.577711 
" clip-path="url(#p334a936993)" style="fill: none; stroke: #000000; stroke-width: 2; stroke-linecap: round"/>
   </g>
   <g id="line2d_3">
    <path d="M 4.662289 79.577711 
L 22.594172 79.577711 
L 40.526055 79.577711 
" clip-path="url(#p334a936993)" style="fill: none; stroke: #000000; stroke-width: 2; stroke-linecap: round"/>
   </g>
   <g id="text_1">
    <!-- T -->
    <g transform="translate(18.318703 15.697747) scale(0.14 -0.14)">
     <defs>
      <path id="DejaVuSans-54" d="M -19 4666 
L 3928 4666 
L 3928 4134 
L 2272 4134 
L 2272 0 
L 1638 0 
L 1638 4134 
L -19 4134 
L -19 4666 
z
" transform="scale(0.015625)"/>
     </defs>
     <use xlink:href="#DejaVuSans-54"/>
    </g>
   </g>
  </g>
 </g>
 <defs>
  <clipPath id="p334a936993">
   <rect x="0" y="0" width="45.188344" height="84.24"/>
  </clipPath>
 </defs>
</svg>
