<?xml version="1.0" encoding="utf-8" standalone="no"?>
<!DOCTYPE svg PUBLIC "-//W3C//DTD SVG 1.1//EN"
  "http://www.w3.org/Graphics/SVG/1.1/DTD/svg11.dtd">
<svg xmlns:xlink="http://www.w3.org/1999/xlink" width="133.208791pt" height="30.96pt" viewBox="0 0 133.208791 30.96" xmlns="http://www.w3.org/2000/svg" version="1.1">
 <metadata>
  <rdf:RDF xmlns:dc="http://purl.org/dc/elements/1.1/" xmlns:cc="http://creativecommons.org/ns#" xmlns:rdf="http://www.w3.org/1999/02/22-rdf-syntax-ns#">
   <cc:Work>
    <dc:type rdf:resource="http://purl.org/dc/dcmitype/StillImage"/>
    <dc:date>2025-12-07T23:58:51.470779</dc:date>
    <dc:format>image/svg+xml</dc:format>
    <dc:creator>
     <cc:Agent>
      <dc:title>Matplotlib v3.10.7, https://matplotlib.org/</dc:title>
     </cc:Agent>
    </dc:creator>
   </cc:Work>
  </rdf:RDF>
 </metadata>
 <defs>
  <style type="text/css">*{stroke-linejoin: round; stroke-linecap: butt}</style>
 </defs>
 <g id="figure_1">
  <g id="patch_1">
   <path d="M 0 30.96 
L 133.208791 30.96 
L 133.208791 0 
L 0 0 
L 0 30.96 
z
" style="fill: none"/>
  </g>
  <g id="axes_1">
   <g id="patch_2">
    <path d="M 40.033493 26.354377 
C 40.033493 25.18032 39.566604 24.053149 38.73642 23.222966 
C 37.906237 22.392783 36.779066 21.925893 35.605009 21.925893 
C 34.430953 21.925893 33.303782 22.392783 32.473598 23.222966 
C 31.643415 24.053149 31.176526 25.18032 31.176526 26.354377 
" clip-path="url(#p1357ef04f3)" style="fill: none; stroke: #000000; stroke-width: 2; stroke-linejoin: miter"/>
   </g>
   <g id="patch_3">
    <path d="M 48.890461 26.354377 
C 48.890461 25.18032 48.423571 24.053149 47.593388 23.222966 
C 46.763204 22.392783 45.636033 21.925893 44.461977 21.925893 
C 43.28792 21.925893 42.160749 22.392783 41.330566 23.222966 
C 40.500383 24.053149 40.033493 25.18032 40.033493 26.354377 
" clip-path="url(#p1357ef04f3)" style="fill: none; stroke: #000000; stroke-width: 2; stroke-linejoin: miter"/>
   </g>
   <g id="patch_4">
    <path d="M 57.747428 26.354377 
C 57.747428 25.18032 57.280539 24.053149 56.450355 23.222966 
C 55.620172 22.392783 54.493001 21.925893 53.318944 21.925893 
C 52.144888 21.925893 51.017717 22.392783 50.187533 23.222966 
C 49.35735 24.053149 48.890461 25.18032 48.890461 26.354377 
" clip-path="url(#p1357ef04f3)" style="fill: none; stroke: #000000; stroke-width: 2; stroke-linejoin: miter"/>
   </g>
   <g id="patch_5">
    <path d="M 66.604396 26.354377 
C 66.604396 25.18032 66.137506 24.053149 65.307323 23.222966 
C 64.477139 22.392783 63.349968 21.925893 62.175912 21.925893 
C 61.001855 21.925893 59.874684 22.392783 59.044501 23.222966 
C 58.214318 24.053149 57.747428 25.18032 57.747428 26.354377 
" clip-path="url(#p1357ef04f3)" style="fill: none; stroke: #000000; stroke-width: 2; stroke-linejoin: miter"/>
   </g>
   <g id="line2d_1">
    <path d="M 4.605623 26.354377 
L 31.176526 26.354377 
M 66.604396 26.354377 
L 93.175298 26.354377 
" clip-path="url(#p1357ef04f3)" style="fill: none; stroke: #000000; stroke-width: 2; stroke-linecap: round"/>
   </g>
   <g id="line2d_2">
    <path d="M 93.175298 26.354377 
L 110.889233 26.354377 
L 128.603168 26.354377 
" clip-path="url(#p1357ef04f3)" style="fill: none; stroke: #000000; stroke-width: 2; stroke-linecap: round"/>
   </g>
   <g id="text_1">
    <!-- L -->
    <g transform="translate(44.990148 15.471566) scale(0.14 -0.14)">
     <defs>
      <path id="DejaVuSans-4c" d="M 628 4666 
L 1259 4666 
L 1259 531 
L 3531 531 
L 3531 0 
L 628 0 
L 628 4666 
z
" transform="scale(0.015625)"/>
     </defs>
     <use xlink:href="#DejaVuSans-4c"/>
    </g>
   </g>
  </g>
 </g>
 <defs>
  <clipPath id="p1357ef04f3">
   <rect x="0" y="0" width="133.208791" height="30.96"/>
  </clipPath>
 </defs>
</svg>
