<?xml version="1.0" encoding="utf-8" standalone="no"?>
<!DOCTYPE svg PUBLIC "-//W3C//DTD SVG 1.1//EN"
  "http://www.w3.org/Graphics/SVG/1.1/DTD/svg11.dtd">
<svg xmlns:xlink="http://www.w3.org/1999/xlink" width="273.47649pt" height="269.800362pt" viewBox="0 0 273.47649 269.800362" xmlns="http://www.w3.org/2000/svg" version="1.1">
 <metadata>
  <rdf:RDF xmlns:dc="http://purl.org/dc/elements/1.1/" xmlns:cc="http://creativecommons.org/ns#" xmlns:rdf="http://www.w3.org/1999/02/22-rdf-syntax-ns#">
   <cc:Work>
    <dc:type rdf:resource="http://purl.org/dc/dcmitype/StillImage"/>
    <dc:date>2025-11-21T22:35:11.808134</dc:date>
    <dc:format>image/svg+xml</dc:format>
    <dc:creator>
     <cc:Agent>
      <dc:title>Matplotlib v3.10.7, https://matplotlib.org/</dc:title>
     </cc:Agent>
    </dc:creator>
   </cc:Work>
  </rdf:RDF>
 </metadata>
 <defs>
  <style type="text/css">*{stroke-linejoin: round; stroke-linecap: butt}</style>
 </defs>
 <g id="figure_1">
  <g id="patch_1">
   <path d="M 0 269.800362 
L 273.47649 269.800362 
L 273.47649 -0 
L 0 -0 
L 0 269.800362 
z
" style="fill: none"/>
  </g>
  <g id="axes_1">
   <g id="patch_2">
    <path d="M 49.551509 26.710715 
C 49.551509 25.520784 49.078306 24.378372 48.236898 23.536964 
C 47.39549 22.695556 46.253078 22.222353 45.063147 22.222353 
C 43.873217 22.222353 42.730805 22.695556 41.889397 23.536964 
C 41.047989 24.378372 40.574786 25.520784 40.574786 26.710715 
" clip-path="url(#pb92c5a5107)" style="fill: none; stroke: #000000; stroke-width: 2; stroke-linejoin: miter"/>
   </g>
   <g id="patch_3">
    <path d="M 58.528231 26.710715 
C 58.528231 25.520784 58.055029 24.378372 57.213621 23.536964 
C 56.372213 22.695556 55.229801 22.222353 54.03987 22.222353 
C 52.849939 22.222353 51.707528 22.695556 50.866119 23.536964 
C 50.024711 24.378372 49.551509 25.520784 49.551509 26.710715 
" clip-path="url(#pb92c5a5107)" style="fill: none; stroke: #000000; stroke-width: 2; stroke-linejoin: miter"/>
   </g>
   <g id="patch_4">
    <path d="M 67.504954 26.710715 
C 67.504954 25.520784 67.031752 24.378372 66.190343 23.536964 
C 65.348935 22.695556 64.206524 22.222353 63.016593 22.222353 
C 61.826662 22.222353 60.68425 22.695556 59.842842 23.536964 
C 59.001434 24.378372 58.528231 25.520784 58.528231 26.710715 
" clip-path="url(#pb92c5a5107)" style="fill: none; stroke: #000000; stroke-width: 2; stroke-linejoin: miter"/>
   </g>
   <g id="patch_5">
    <path d="M 76.481677 26.710715 
C 76.481677 25.520784 76.008474 24.378372 75.167066 23.536964 
C 74.325658 22.695556 73.183246 22.222353 71.993315 22.222353 
C 70.803384 22.222353 69.660973 22.695556 68.819564 23.536964 
C 67.978156 24.378372 67.504954 25.520784 67.504954 26.710715 
" clip-path="url(#pb92c5a5107)" style="fill: none; stroke: #000000; stroke-width: 2; stroke-linejoin: miter"/>
   </g>
   <g id="line2d_1">
    <path d="M 4.667896 26.710715 
L 40.574786 26.710715 
M 76.481677 26.710715 
L 112.388567 26.710715 
" clip-path="url(#pb92c5a5107)" style="fill: none; stroke: #000000; stroke-width: 2; stroke-linecap: round"/>
   </g>
   <g id="line2d_2">
    <path d="M 112.388567 26.710715 
L 112.388567 77.33943 
M 121.365289 77.33943 
L 103.411844 77.33943 
M 121.365289 83.80267 
L 103.411844 83.80267 
M 112.388567 83.80267 
L 112.388567 134.431386 
" clip-path="url(#pb92c5a5107)" style="fill: none; stroke: #000000; stroke-width: 2; stroke-linecap: round"/>
   </g>
   <g id="line2d_3">
    <path d="M 112.388567 134.431386 
L 112.388567 148.794142 
L 103.411844 148.794142 
L 121.365289 148.794142 
M 106.104861 153.102969 
L 118.672273 153.102969 
M 110.593222 157.411796 
L 114.183911 157.411796 
" clip-path="url(#pb92c5a5107)" style="fill: none; stroke: #000000; stroke-width: 2; stroke-linecap: round"/>
   </g>
   <g id="line2d_4">
    <path d="M 112.388567 134.431386 
L 166.248902 134.431386 
L 220.109238 134.431386 
" clip-path="url(#pb92c5a5107)" style="fill: none; stroke: #000000; stroke-width: 2; stroke-linecap: round"/>
   </g>
   <g id="line2d_5">
    <path d="M 220.109238 134.431386 
L 220.109238 170.338276 
L 229.085961 173.330517 
L 211.132515 179.314999 
L 229.085961 185.29948 
L 211.132515 191.283962 
L 229.085961 197.268444 
L 211.132515 203.252926 
L 220.109238 206.245166 
L 220.109238 242.152057 
" clip-path="url(#pb92c5a5107)" style="fill: none; stroke: #000000; stroke-width: 2; stroke-linecap: round"/>
   </g>
   <g id="line2d_6">
    <path d="M 220.109238 242.152057 
L 220.109238 256.514813 
L 211.132515 256.514813 
L 229.085961 256.514813 
M 213.825532 260.82364 
L 226.392944 260.82364 
M 218.313893 265.132467 
L 221.904583 265.132467 
" clip-path="url(#pb92c5a5107)" style="fill: none; stroke: #000000; stroke-width: 2; stroke-linecap: round"/>
   </g>
   <g id="text_1">
    <!-- L -->
    <g transform="translate(54.627919 15.720124) scale(0.14 -0.14)">
     <defs>
      <path id="DejaVuSans-4c" d="M 628 4666 
L 1259 4666 
L 1259 531 
L 3531 531 
L 3531 0 
L 628 0 
L 628 4666 
z
" transform="scale(0.015625)"/>
     </defs>
     <use xlink:href="#DejaVuSans-4c"/>
    </g>
   </g>
   <g id="text_2">
    <!-- C -->
    <g transform="translate(90.045218 84.434175) scale(0.14 -0.14)">
     <defs>
      <path id="DejaVuSans-43" d="M 4122 4306 
L 4122 3641 
Q 3803 3938 3442 4084 
Q 3081 4231 2675 4231 
Q 1875 4231 1450 3742 
Q 1025 3253 1025 2328 
Q 1025 1406 1450 917 
Q 1875 428 2675 428 
Q 3081 428 3442 575 
Q 3803 722 4122 1019 
L 4122 359 
Q 3791 134 3420 21 
Q 3050 -91 2638 -91 
Q 1578 -91 968 557 
Q 359 1206 359 2328 
Q 359 3453 968 4101 
Q 1578 4750 2638 4750 
Q 3056 4750 3426 4639 
Q 3797 4528 4122 4306 
z
" transform="scale(0.015625)"/>
     </defs>
     <use xlink:href="#DejaVuSans-43"/>
    </g>
   </g>
   <g id="text_3">
    <!-- f₀ = 1/(2π√LC) -->
    <g transform="translate(173.923365 134.703822) scale(0.14 -0.14)">
     <defs>
      <path id="DejaVuSans-66" d="M 2375 4863 
L 2375 4384 
L 1825 4384 
Q 1516 4384 1395 4259 
Q 1275 4134 1275 3809 
L 1275 3500 
L 2222 3500 
L 2222 3053 
L 1275 3053 
L 1275 0 
L 697 0 
L 697 3053 
L 147 3053 
L 147 3500 
L 697 3500 
L 697 3744 
Q 697 4328 969 4595 
Q 1241 4863 1831 4863 
L 2375 4863 
z
" transform="scale(0.015625)"/>
      <path id="DejaVuSans-2080" d="M 1781 2091 
Q 1625 2360 1309 2360 
Q 994 2360 838 2091 
Q 678 1822 678 1285 
Q 678 744 838 476 
Q 994 207 1309 207 
Q 1625 207 1781 476 
Q 1941 744 1941 1285 
Q 1941 1822 1781 2091 
z
M 1309 2638 
Q 1813 2638 2078 2291 
Q 2344 1944 2344 1285 
Q 2344 622 2078 275 
Q 1813 -71 1309 -71 
Q 803 -71 537 275 
Q 272 622 272 1285 
Q 272 1944 537 2291 
Q 803 2638 1309 2638 
z
" transform="scale(0.015625)"/>
      <path id="DejaVuSans-20" transform="scale(0.015625)"/>
      <path id="DejaVuSans-3d" d="M 678 2906 
L 4684 2906 
L 4684 2381 
L 678 2381 
L 678 2906 
z
M 678 1631 
L 4684 1631 
L 4684 1100 
L 678 1100 
L 678 1631 
z
" transform="scale(0.015625)"/>
      <path id="DejaVuSans-31" d="M 794 531 
L 1825 531 
L 1825 4091 
L 703 3866 
L 703 4441 
L 1819 4666 
L 2450 4666 
L 2450 531 
L 3481 531 
L 3481 0 
L 794 0 
L 794 531 
z
" transform="scale(0.015625)"/>
      <path id="DejaVuSans-2f" d="M 1625 4666 
L 2156 4666 
L 531 -594 
L 0 -594 
L 1625 4666 
z
" transform="scale(0.015625)"/>
      <path id="DejaVuSans-28" d="M 1984 4856 
Q 1566 4138 1362 3434 
Q 1159 2731 1159 2009 
Q 1159 1288 1364 580 
Q 1569 -128 1984 -844 
L 1484 -844 
Q 1016 -109 783 600 
Q 550 1309 550 2009 
Q 550 2706 781 3412 
Q 1013 4119 1484 4856 
L 1984 4856 
z
" transform="scale(0.015625)"/>
      <path id="DejaVuSans-32" d="M 1228 531 
L 3431 531 
L 3431 0 
L 469 0 
L 469 531 
Q 828 903 1448 1529 
Q 2069 2156 2228 2338 
Q 2531 2678 2651 2914 
Q 2772 3150 2772 3378 
Q 2772 3750 2511 3984 
Q 2250 4219 1831 4219 
Q 1534 4219 1204 4116 
Q 875 4013 500 3803 
L 500 4441 
Q 881 4594 1212 4672 
Q 1544 4750 1819 4750 
Q 2544 4750 2975 4387 
Q 3406 4025 3406 3419 
Q 3406 3131 3298 2873 
Q 3191 2616 2906 2266 
Q 2828 2175 2409 1742 
Q 1991 1309 1228 531 
z
" transform="scale(0.015625)"/>
      <path id="DejaVuSans-3c0" d="M 231 3500 
L 3584 3500 
L 3584 2925 
L 3144 2925 
L 3144 775 
Q 3144 550 3220 451 
Q 3297 353 3469 353 
Q 3516 353 3584 361 
Q 3653 369 3675 372 
L 3675 -44 
Q 3566 -84 3450 -103 
Q 3334 -122 3219 -122 
Q 2844 -122 2700 83 
Q 2556 288 2556 838 
L 2556 2925 
L 1266 2925 
L 1266 0 
L 678 0 
L 678 2925 
L 231 2925 
L 231 3500 
z
" transform="scale(0.015625)"/>
      <path id="DejaVuSans-221a" d="M 3488 5191 
L 4078 5191 
L 4078 4891 
L 3719 4891 
L 1863 -128 
L 1656 -128 
L 659 2631 
L 269 2491 
L 191 2741 
L 1075 3047 
L 1875 831 
L 3488 5191 
z
" transform="scale(0.015625)"/>
      <path id="DejaVuSans-29" d="M 513 4856 
L 1013 4856 
Q 1481 4119 1714 3412 
Q 1947 2706 1947 2009 
Q 1947 1309 1714 600 
Q 1481 -109 1013 -844 
L 513 -844 
Q 928 -128 1133 580 
Q 1338 1288 1338 2009 
Q 1338 2731 1133 3434 
Q 928 4138 513 4856 
z
" transform="scale(0.015625)"/>
     </defs>
     <use xlink:href="#DejaVuSans-66"/>
     <use xlink:href="#DejaVuSans-2080" transform="translate(35.205078 0)"/>
     <use xlink:href="#DejaVuSans-20" transform="translate(75.292969 0)"/>
     <use xlink:href="#DejaVuSans-3d" transform="translate(107.080078 0)"/>
     <use xlink:href="#DejaVuSans-20" transform="translate(190.869141 0)"/>
     <use xlink:href="#DejaVuSans-31" transform="translate(222.65625 0)"/>
     <use xlink:href="#DejaVuSans-2f" transform="translate(286.279297 0)"/>
     <use xlink:href="#DejaVuSans-28" transform="translate(319.970703 0)"/>
     <use xlink:href="#DejaVuSans-32" transform="translate(358.984375 0)"/>
     <use xlink:href="#DejaVuSans-3c0" transform="translate(422.607422 0)"/>
     <use xlink:href="#DejaVuSans-221a" transform="translate(482.8125 0)"/>
     <use xlink:href="#DejaVuSans-4c" transform="translate(546.533203 0)"/>
     <use xlink:href="#DejaVuSans-43" transform="translate(602.246094 0)"/>
     <use xlink:href="#DejaVuSans-29" transform="translate(672.070312 0)"/>
    </g>
   </g>
   <g id="text_4">
    <!-- R -->
    <g transform="translate(197.814014 192.154846) scale(0.14 -0.14)">
     <defs>
      <path id="DejaVuSans-52" d="M 2841 2188 
Q 3044 2119 3236 1894 
Q 3428 1669 3622 1275 
L 4263 0 
L 3584 0 
L 2988 1197 
Q 2756 1666 2539 1819 
Q 2322 1972 1947 1972 
L 1259 1972 
L 1259 0 
L 628 0 
L 628 4666 
L 2053 4666 
Q 2853 4666 3247 4331 
Q 3641 3997 3641 3322 
Q 3641 2881 3436 2590 
Q 3231 2300 2841 2188 
z
M 1259 4147 
L 1259 2491 
L 2053 2491 
Q 2509 2491 2742 2702 
Q 2975 2913 2975 3322 
Q 2975 3731 2742 3939 
Q 2509 4147 2053 4147 
L 1259 4147 
z
" transform="scale(0.015625)"/>
     </defs>
     <use xlink:href="#DejaVuSans-52"/>
    </g>
   </g>
  </g>
 </g>
 <defs>
  <clipPath id="pb92c5a5107">
   <rect x="0" y="0" width="270.72" height="269.800362"/>
  </clipPath>
 </defs>
</svg>
