<?xml version="1.0" encoding="utf-8" standalone="no"?>
<!DOCTYPE svg PUBLIC "-//W3C//DTD SVG 1.1//EN"
  "http://www.w3.org/Graphics/SVG/1.1/DTD/svg11.dtd">
<svg xmlns:xlink="http://www.w3.org/1999/xlink" width="233.40572pt" height="166.32pt" viewBox="0 0 233.40572 166.32" xmlns="http://www.w3.org/2000/svg" version="1.1">
 <metadata>
  <rdf:RDF xmlns:dc="http://purl.org/dc/elements/1.1/" xmlns:cc="http://creativecommons.org/ns#" xmlns:rdf="http://www.w3.org/1999/02/22-rdf-syntax-ns#">
   <cc:Work>
    <dc:type rdf:resource="http://purl.org/dc/dcmitype/StillImage"/>
    <dc:date>2025-11-21T22:23:20.135841</dc:date>
    <dc:format>image/svg+xml</dc:format>
    <dc:creator>
     <cc:Agent>
      <dc:title>Matplotlib v3.10.7, https://matplotlib.org/</dc:title>
     </cc:Agent>
    </dc:creator>
   </cc:Work>
  </rdf:RDF>
 </metadata>
 <defs>
  <style type="text/css">*{stroke-linejoin: round; stroke-linecap: butt}</style>
 </defs>
 <g id="figure_1">
  <g id="patch_1">
   <path d="M 0 166.32 
L 233.40572 166.32 
L 233.40572 0 
L 0 0 
L 0 166.32 
z
" style="fill: none"/>
  </g>
  <g id="axes_1">
   <g id="patch_2">
    <path d="M 157.03795 31.152632 
C 157.03795 29.964474 156.565452 28.823763 155.725297 27.983608 
C 154.885142 27.143453 153.744432 26.670956 152.556273 26.670956 
C 151.368114 26.670956 150.227404 27.143453 149.387249 27.983608 
C 148.547094 28.823763 148.074596 29.964474 148.074596 31.152632 
" clip-path="url(#p9a25c9e698)" style="fill: none; stroke: #000000; stroke-width: 2; stroke-linejoin: miter"/>
   </g>
   <g id="patch_3">
    <path d="M 166.001303 31.152632 
C 166.001303 29.964474 165.528805 28.823763 164.68865 27.983608 
C 163.848495 27.143453 162.707785 26.670956 161.519626 26.670956 
C 160.331468 26.670956 159.190757 27.143453 158.350602 27.983608 
C 157.510447 28.823763 157.03795 29.964474 157.03795 31.152632 
" clip-path="url(#p9a25c9e698)" style="fill: none; stroke: #000000; stroke-width: 2; stroke-linejoin: miter"/>
   </g>
   <g id="patch_4">
    <path d="M 174.964656 31.152632 
C 174.964656 29.964474 174.492159 28.823763 173.652004 27.983608 
C 172.811849 27.143453 171.671138 26.670956 170.48298 26.670956 
C 169.294821 26.670956 168.154111 27.143453 167.313956 27.983608 
C 166.473801 28.823763 166.001303 29.964474 166.001303 31.152632 
" clip-path="url(#p9a25c9e698)" style="fill: none; stroke: #000000; stroke-width: 2; stroke-linejoin: miter"/>
   </g>
   <g id="patch_5">
    <path d="M 183.92801 31.152632 
C 183.92801 29.964474 183.455512 28.823763 182.615357 27.983608 
C 181.775202 27.143453 180.634492 26.670956 179.446333 26.670956 
C 178.258174 26.670956 177.117464 27.143453 176.277309 27.983608 
C 175.437154 28.823763 174.964656 29.964474 174.964656 31.152632 
" clip-path="url(#p9a25c9e698)" style="fill: none; stroke: #000000; stroke-width: 2; stroke-linejoin: miter"/>
   </g>
   <g id="line2d_1">
    <path d="M 4.660944 31.152632 
L 55.214256 31.152632 
M 55.214256 22.189279 
L 55.214256 40.115986 
M 61.667871 22.189279 
L 61.667871 40.115986 
M 61.667871 31.152632 
L 112.221183 31.152632 
" clip-path="url(#p9a25c9e698)" style="fill: none; stroke: #000000; stroke-width: 2; stroke-linecap: round"/>
   </g>
   <g id="line2d_2">
    <path d="M 112.221183 31.152632 
L 148.074596 31.152632 
M 183.92801 31.152632 
L 219.781423 31.152632 
" clip-path="url(#p9a25c9e698)" style="fill: none; stroke: #000000; stroke-width: 2; stroke-linecap: round"/>
   </g>
   <g id="line2d_3">
    <path d="M 219.781423 31.152632 
L 219.781423 81.705945 
M 228.744776 81.705945 
L 210.818069 81.705945 
M 228.744776 88.159559 
L 210.818069 88.159559 
M 219.781423 88.159559 
L 219.781423 138.712872 
" clip-path="url(#p9a25c9e698)" style="fill: none; stroke: #000000; stroke-width: 2; stroke-linecap: round"/>
   </g>
   <g id="line2d_4">
    <path d="M 219.781423 138.712872 
L 219.781423 153.054237 
L 210.818069 153.054237 
L 228.744776 153.054237 
M 213.507075 157.356647 
L 226.05577 157.356647 
M 217.988752 161.659056 
L 221.574093 161.659056 
" clip-path="url(#p9a25c9e698)" style="fill: none; stroke: #000000; stroke-width: 2; stroke-linecap: round"/>
   </g>
   <g id="line2d_5">
    <path d="M 112.221183 31.152632 
L 148.074596 31.152632 
L 151.062381 22.189279 
L 157.03795 40.115986 
L 163.013519 22.189279 
L 168.989087 40.115986 
L 174.964656 22.189279 
L 180.940225 40.115986 
L 183.92801 31.152632 
L 219.781423 31.152632 
" clip-path="url(#p9a25c9e698)" style="fill: none; stroke: #000000; stroke-width: 2; stroke-linecap: round"/>
   </g>
   <g id="line2d_6">
    <path d="M 219.781423 31.152632 
L 219.781423 84.932752 
L 219.781423 138.712872 
" clip-path="url(#p9a25c9e698)" style="fill: none; stroke: #000000; stroke-width: 2; stroke-linecap: round"/>
   </g>
   <g id="line2d_7">
    <path d="M 219.781423 138.712872 
L 166.001303 138.712872 
L 112.221183 138.712872 
" clip-path="url(#p9a25c9e698)" style="fill: none; stroke: #000000; stroke-width: 2; stroke-linecap: round"/>
   </g>
   <g id="text_1">
    <!-- C_p -->
    <g transform="translate(45.609188 15.303) scale(0.14 -0.14)">
     <defs>
      <path id="DejaVuSans-43" d="M 4122 4306 
L 4122 3641 
Q 3803 3938 3442 4084 
Q 3081 4231 2675 4231 
Q 1875 4231 1450 3742 
Q 1025 3253 1025 2328 
Q 1025 1406 1450 917 
Q 1875 428 2675 428 
Q 3081 428 3442 575 
Q 3803 722 4122 1019 
L 4122 359 
Q 3791 134 3420 21 
Q 3050 -91 2638 -91 
Q 1578 -91 968 557 
Q 359 1206 359 2328 
Q 359 3453 968 4101 
Q 1578 4750 2638 4750 
Q 3056 4750 3426 4639 
Q 3797 4528 4122 4306 
z
" transform="scale(0.015625)"/>
      <path id="DejaVuSans-5f" d="M 3263 -1063 
L 3263 -1509 
L -63 -1509 
L -63 -1063 
L 3263 -1063 
z
" transform="scale(0.015625)"/>
      <path id="DejaVuSans-70" d="M 1159 525 
L 1159 -1331 
L 581 -1331 
L 581 3500 
L 1159 3500 
L 1159 2969 
Q 1341 3281 1617 3432 
Q 1894 3584 2278 3584 
Q 2916 3584 3314 3078 
Q 3713 2572 3713 1747 
Q 3713 922 3314 415 
Q 2916 -91 2278 -91 
Q 1894 -91 1617 61 
Q 1341 213 1159 525 
z
M 3116 1747 
Q 3116 2381 2855 2742 
Q 2594 3103 2138 3103 
Q 1681 3103 1420 2742 
Q 1159 2381 1159 1747 
Q 1159 1113 1420 752 
Q 1681 391 2138 391 
Q 2594 391 2855 752 
Q 3116 1113 3116 1747 
z
" transform="scale(0.015625)"/>
     </defs>
     <use xlink:href="#DejaVuSans-43"/>
     <use xlink:href="#DejaVuSans-5f" transform="translate(69.824219 0)"/>
     <use xlink:href="#DejaVuSans-70" transform="translate(119.824219 0)"/>
    </g>
   </g>
   <g id="text_2">
    <!-- L_m -->
    <g transform="translate(151.782553 19.784699) scale(0.14 -0.14)">
     <defs>
      <path id="DejaVuSans-4c" d="M 628 4666 
L 1259 4666 
L 1259 531 
L 3531 531 
L 3531 0 
L 628 0 
L 628 4666 
z
" transform="scale(0.015625)"/>
      <path id="DejaVuSans-6d" d="M 3328 2828 
Q 3544 3216 3844 3400 
Q 4144 3584 4550 3584 
Q 5097 3584 5394 3201 
Q 5691 2819 5691 2113 
L 5691 0 
L 5113 0 
L 5113 2094 
Q 5113 2597 4934 2840 
Q 4756 3084 4391 3084 
Q 3944 3084 3684 2787 
Q 3425 2491 3425 1978 
L 3425 0 
L 2847 0 
L 2847 2094 
Q 2847 2600 2669 2842 
Q 2491 3084 2119 3084 
Q 1678 3084 1418 2786 
Q 1159 2488 1159 1978 
L 1159 0 
L 581 0 
L 581 3500 
L 1159 3500 
L 1159 2956 
Q 1356 3278 1631 3431 
Q 1906 3584 2284 3584 
Q 2666 3584 2933 3390 
Q 3200 3197 3328 2828 
z
" transform="scale(0.015625)"/>
     </defs>
     <use xlink:href="#DejaVuSans-4c"/>
     <use xlink:href="#DejaVuSans-5f" transform="translate(55.712891 0)"/>
     <use xlink:href="#DejaVuSans-6d" transform="translate(105.712891 0)"/>
    </g>
   </g>
   <g id="text_3">
    <!-- C_m -->
    <g transform="translate(176.819916 88.477596) scale(0.14 -0.14)">
     <use xlink:href="#DejaVuSans-43"/>
     <use xlink:href="#DejaVuSans-5f" transform="translate(69.824219 0)"/>
     <use xlink:href="#DejaVuSans-6d" transform="translate(119.824219 0)"/>
    </g>
   </g>
   <g id="text_4">
    <!-- R_m -->
    <g transform="translate(150.818959 15.303) scale(0.14 -0.14)">
     <defs>
      <path id="DejaVuSans-52" d="M 2841 2188 
Q 3044 2119 3236 1894 
Q 3428 1669 3622 1275 
L 4263 0 
L 3584 0 
L 2988 1197 
Q 2756 1666 2539 1819 
Q 2322 1972 1947 1972 
L 1259 1972 
L 1259 0 
L 628 0 
L 628 4666 
L 2053 4666 
Q 2853 4666 3247 4331 
Q 3641 3997 3641 3322 
Q 3641 2881 3436 2590 
Q 3231 2300 2841 2188 
z
M 1259 4147 
L 1259 2491 
L 2053 2491 
Q 2509 2491 2742 2702 
Q 2975 2913 2975 3322 
Q 2975 3731 2742 3939 
Q 2509 4147 2053 4147 
L 1259 4147 
z
" transform="scale(0.015625)"/>
     </defs>
     <use xlink:href="#DejaVuSans-52"/>
     <use xlink:href="#DejaVuSans-5f" transform="translate(69.482422 0)"/>
     <use xlink:href="#DejaVuSans-6d" transform="translate(119.482422 0)"/>
    </g>
   </g>
  </g>
 </g>
 <defs>
  <clipPath id="p9a25c9e698">
   <rect x="0" y="-0" width="233.40572" height="166.32"/>
  </clipPath>
 </defs>
</svg>
