<?xml version="1.0" encoding="utf-8" standalone="no"?>
<!DOCTYPE svg PUBLIC "-//W3C//DTD SVG 1.1//EN"
  "http://www.w3.org/Graphics/SVG/1.1/DTD/svg11.dtd">
<svg xmlns:xlink="http://www.w3.org/1999/xlink" width="189.36pt" height="140.067141pt" viewBox="0 0 189.36 140.067141" xmlns="http://www.w3.org/2000/svg" version="1.1">
 <metadata>
  <rdf:RDF xmlns:dc="http://purl.org/dc/elements/1.1/" xmlns:cc="http://creativecommons.org/ns#" xmlns:rdf="http://www.w3.org/1999/02/22-rdf-syntax-ns#">
   <cc:Work>
    <dc:type rdf:resource="http://purl.org/dc/dcmitype/StillImage"/>
    <dc:date>2025-11-21T22:18:48.300515</dc:date>
    <dc:format>image/svg+xml</dc:format>
    <dc:creator>
     <cc:Agent>
      <dc:title>Matplotlib v3.10.7, https://matplotlib.org/</dc:title>
     </cc:Agent>
    </dc:creator>
   </cc:Work>
  </rdf:RDF>
 </metadata>
 <defs>
  <style type="text/css">*{stroke-linejoin: round; stroke-linecap: butt}</style>
 </defs>
 <g id="figure_1">
  <g id="patch_1">
   <path d="M 0 140.067141 
L 189.36 140.067141 
L 189.36 0 
L 0 0 
L 0 140.067141 
z
" style="fill: none"/>
  </g>
  <g id="axes_1">
   <g id="patch_2">
    <path d="M 54.626185 76.498208 
C 59.388523 76.498208 63.95645 74.606111 67.323932 71.238629 
C 70.691414 67.871147 72.583511 63.30322 72.583511 58.540882 
C 72.583511 53.778543 70.691414 49.210617 67.323932 45.843135 
C 63.95645 42.475653 59.388523 40.583556 54.626185 40.583556 
C 49.863846 40.583556 45.29592 42.475653 41.928438 45.843135 
C 38.560956 49.210617 36.668859 53.778543 36.668859 58.540882 
C 36.668859 63.30322 38.560956 67.871147 41.928438 71.238629 
C 45.29592 74.606111 49.863846 76.498208 54.626185 76.498208 
L 54.626185 76.498208 
z
" clip-path="url(#p07f595f7f2)" style="fill: none; stroke: #000000; stroke-width: 2; stroke-linejoin: miter"/>
   </g>
   <g id="patch_3">
    <path d="M 54.626185 49.562219 
C 55.816373 49.562219 56.959032 49.088914 57.800622 48.247324 
C 58.642212 47.405734 59.115516 46.263076 59.115516 45.072888 
C 59.115516 43.8827 58.642212 42.740041 57.800622 41.898451 
C 56.959032 41.056861 55.816373 40.583556 54.626185 40.583556 
" clip-path="url(#p07f595f7f2)" style="fill: none; stroke: #000000; stroke-width: 2; stroke-linejoin: miter"/>
   </g>
   <g id="patch_4">
    <path d="M 54.626185 58.540882 
C 55.816373 58.540882 56.959032 58.067577 57.800622 57.225987 
C 58.642212 56.384397 59.115516 55.241739 59.115516 54.05155 
C 59.115516 52.861362 58.642212 51.718704 57.800622 50.877114 
C 56.959032 50.035524 55.816373 49.562219 54.626185 49.562219 
" clip-path="url(#p07f595f7f2)" style="fill: none; stroke: #000000; stroke-width: 2; stroke-linejoin: miter"/>
   </g>
   <g id="patch_5">
    <path d="M 54.626185 67.519545 
C 55.816373 67.519545 56.959032 67.04624 57.800622 66.20465 
C 58.642212 65.36306 59.115516 64.220401 59.115516 63.030213 
C 59.115516 61.840025 58.642212 60.697367 57.800622 59.855777 
C 56.959032 59.014187 55.816373 58.540882 54.626185 58.540882 
" clip-path="url(#p07f595f7f2)" style="fill: none; stroke: #000000; stroke-width: 2; stroke-linejoin: miter"/>
   </g>
   <g id="patch_6">
    <path d="M 54.626185 76.498208 
C 55.816373 76.498208 56.959032 76.024903 57.800622 75.183313 
C 58.642212 74.341723 59.115516 73.199064 59.115516 72.008876 
C 59.115516 70.818688 58.642212 69.67603 57.800622 68.83444 
C 56.959032 67.992849 55.816373 67.519545 54.626185 67.519545 
" clip-path="url(#p07f595f7f2)" style="fill: none; stroke: #000000; stroke-width: 2; stroke-linejoin: miter"/>
   </g>
   <g id="line2d_1">
    <path d="M 54.626185 112.412859 
L 54.626185 76.498208 
L 54.626185 76.498208 
M 54.626185 40.583556 
L 54.626185 40.583556 
L 54.626185 4.668905 
" clip-path="url(#p07f595f7f2)" style="fill: none; stroke: #000000; stroke-width: 2; stroke-linecap: round"/>
   </g>
   <g id="line2d_2">
    <path d="M 63.604848 58.540882 
L 62.856626 56.681803 
L 62.108404 54.949417 
L 61.360182 53.461783 
L 60.61196 52.320282 
L 59.863738 51.602704 
L 59.115516 51.357952 
L 58.367294 51.602704 
L 57.619073 52.320282 
L 56.870851 53.461783 
L 56.122629 54.949417 
L 55.374407 56.681803 
L 54.626185 58.540882 
L 53.877963 60.399961 
L 53.129741 62.132347 
L 52.381519 63.619981 
L 51.633297 64.761482 
L 50.885075 65.47906 
L 50.136853 65.723812 
L 49.388632 65.47906 
L 48.64041 64.761482 
L 47.892188 63.619981 
L 47.143966 62.132347 
L 46.395744 60.399961 
L 45.647522 58.540882 
" clip-path="url(#p07f595f7f2)" style="fill: none; stroke: #000000; stroke-width: 2; stroke-linecap: round"/>
   </g>
   <g id="line2d_3">
    <path d="M 54.626185 4.668905 
L 54.626185 40.583556 
M 54.626185 76.498208 
L 54.626185 112.412859 
" clip-path="url(#p07f595f7f2)" style="fill: none; stroke: #000000; stroke-width: 2; stroke-linecap: round"/>
   </g>
   <g id="line2d_4">
    <path d="M 54.626185 112.412859 
L 54.626185 126.77872 
L 45.647522 126.77872 
L 63.604848 126.77872 
M 48.341121 131.088478 
L 60.911249 131.088478 
M 52.830452 135.398236 
L 56.421917 135.398236 
" clip-path="url(#p07f595f7f2)" style="fill: none; stroke: #000000; stroke-width: 2; stroke-linecap: round"/>
   </g>
   <g id="line2d_5">
    <path d="M 54.626185 4.668905 
L 54.626185 55.308563 
M 63.604848 55.308563 
L 45.647522 55.308563 
M 63.604848 61.773201 
L 45.647522 61.773201 
M 54.626185 61.773201 
L 54.626185 112.412859 
" clip-path="url(#p07f595f7f2)" style="fill: none; stroke: #000000; stroke-width: 2; stroke-linecap: round"/>
   </g>
   <g id="line2d_6">
    <path d="M 54.626185 112.412859 
L 54.626185 126.77872 
L 45.647522 126.77872 
L 63.604848 126.77872 
M 48.341121 131.088478 
L 60.911249 131.088478 
M 52.830452 135.398236 
L 56.421917 135.398236 
" clip-path="url(#p07f595f7f2)" style="fill: none; stroke: #000000; stroke-width: 2; stroke-linecap: round"/>
   </g>
   <g id="line2d_7">
    <path d="M 54.626185 112.412859 
L 108.498162 112.412859 
L 162.370139 112.412859 
" clip-path="url(#p07f595f7f2)" style="fill: none; stroke: #000000; stroke-width: 2; stroke-linecap: round"/>
   </g>
   <g id="text_1">
    <!-- V_in -->
    <g transform="translate(3.738644 62.209319) scale(0.14 -0.14)">
     <defs>
      <path id="DejaVuSans-56" d="M 1831 0 
L 50 4666 
L 709 4666 
L 2188 738 
L 3669 4666 
L 4325 4666 
L 2547 0 
L 1831 0 
z
" transform="scale(0.015625)"/>
      <path id="DejaVuSans-5f" d="M 3263 -1063 
L 3263 -1509 
L -63 -1509 
L -63 -1063 
L 3263 -1063 
z
" transform="scale(0.015625)"/>
      <path id="DejaVuSans-69" d="M 603 3500 
L 1178 3500 
L 1178 0 
L 603 0 
L 603 3500 
z
M 603 4863 
L 1178 4863 
L 1178 4134 
L 603 4134 
L 603 4863 
z
" transform="scale(0.015625)"/>
      <path id="DejaVuSans-6e" d="M 3513 2113 
L 3513 0 
L 2938 0 
L 2938 2094 
Q 2938 2591 2744 2837 
Q 2550 3084 2163 3084 
Q 1697 3084 1428 2787 
Q 1159 2491 1159 1978 
L 1159 0 
L 581 0 
L 581 3500 
L 1159 3500 
L 1159 2956 
Q 1366 3272 1645 3428 
Q 1925 3584 2291 3584 
Q 2894 3584 3203 3211 
Q 3513 2838 3513 2113 
z
" transform="scale(0.015625)"/>
     </defs>
     <use xlink:href="#DejaVuSans-56"/>
     <use xlink:href="#DejaVuSans-5f" transform="translate(68.408203 0)"/>
     <use xlink:href="#DejaVuSans-69" transform="translate(118.408203 0)"/>
     <use xlink:href="#DejaVuSans-6e" transform="translate(146.191406 0)"/>
    </g>
   </g>
   <g id="text_2">
    <!-- L -->
    <g transform="translate(43.234095 62.404007) scale(0.14 -0.14)">
     <defs>
      <path id="DejaVuSans-4c" d="M 628 4666 
L 1259 4666 
L 1259 531 
L 3531 531 
L 3531 0 
L 628 0 
L 628 4666 
z
" transform="scale(0.015625)"/>
     </defs>
     <use xlink:href="#DejaVuSans-4c"/>
    </g>
   </g>
   <g id="text_3">
    <!-- C -->
    <g transform="translate(32.280119 62.404007) scale(0.14 -0.14)">
     <defs>
      <path id="DejaVuSans-43" d="M 4122 4306 
L 4122 3641 
Q 3803 3938 3442 4084 
Q 3081 4231 2675 4231 
Q 1875 4231 1450 3742 
Q 1025 3253 1025 2328 
Q 1025 1406 1450 917 
Q 1875 428 2675 428 
Q 3081 428 3442 575 
Q 3803 722 4122 1019 
L 4122 359 
Q 3791 134 3420 21 
Q 3050 -91 2638 -91 
Q 1578 -91 968 557 
Q 359 1206 359 2328 
Q 359 3453 968 4101 
Q 1578 4750 2638 4750 
Q 3056 4750 3426 4639 
Q 3797 4528 4122 4306 
z
" transform="scale(0.015625)"/>
     </defs>
     <use xlink:href="#DejaVuSans-43"/>
    </g>
   </g>
   <g id="text_4">
    <!-- V_out -->
    <g transform="translate(146.209573 112.295144) scale(0.14 -0.14)">
     <defs>
      <path id="DejaVuSans-6f" d="M 1959 3097 
Q 1497 3097 1228 2736 
Q 959 2375 959 1747 
Q 959 1119 1226 758 
Q 1494 397 1959 397 
Q 2419 397 2687 759 
Q 2956 1122 2956 1747 
Q 2956 2369 2687 2733 
Q 2419 3097 1959 3097 
z
M 1959 3584 
Q 2709 3584 3137 3096 
Q 3566 2609 3566 1747 
Q 3566 888 3137 398 
Q 2709 -91 1959 -91 
Q 1206 -91 779 398 
Q 353 888 353 1747 
Q 353 2609 779 3096 
Q 1206 3584 1959 3584 
z
" transform="scale(0.015625)"/>
      <path id="DejaVuSans-75" d="M 544 1381 
L 544 3500 
L 1119 3500 
L 1119 1403 
Q 1119 906 1312 657 
Q 1506 409 1894 409 
Q 2359 409 2629 706 
Q 2900 1003 2900 1516 
L 2900 3500 
L 3475 3500 
L 3475 0 
L 2900 0 
L 2900 538 
Q 2691 219 2414 64 
Q 2138 -91 1772 -91 
Q 1169 -91 856 284 
Q 544 659 544 1381 
z
M 1991 3584 
L 1991 3584 
z
" transform="scale(0.015625)"/>
      <path id="DejaVuSans-74" d="M 1172 4494 
L 1172 3500 
L 2356 3500 
L 2356 3053 
L 1172 3053 
L 1172 1153 
Q 1172 725 1289 603 
Q 1406 481 1766 481 
L 2356 481 
L 2356 0 
L 1766 0 
Q 1100 0 847 248 
Q 594 497 594 1153 
L 594 3053 
L 172 3053 
L 172 3500 
L 594 3500 
L 594 4494 
L 1172 4494 
z
" transform="scale(0.015625)"/>
     </defs>
     <use xlink:href="#DejaVuSans-56"/>
     <use xlink:href="#DejaVuSans-5f" transform="translate(68.408203 0)"/>
     <use xlink:href="#DejaVuSans-6f" transform="translate(118.408203 0)"/>
     <use xlink:href="#DejaVuSans-75" transform="translate(179.589844 0)"/>
     <use xlink:href="#DejaVuSans-74" transform="translate(242.96875 0)"/>
    </g>
   </g>
  </g>
 </g>
 <defs>
  <clipPath id="p07f595f7f2">
   <rect x="0" y="-0" width="189.36" height="140.067141"/>
  </clipPath>
 </defs>
</svg>
