<?xml version="1.0" encoding="utf-8" standalone="no"?>
<!DOCTYPE svg PUBLIC "-//W3C//DTD SVG 1.1//EN"
  "http://www.w3.org/Graphics/SVG/1.1/DTD/svg11.dtd">
<svg xmlns:xlink="http://www.w3.org/1999/xlink" width="405.36pt" height="431.121402pt" viewBox="0 0 405.36 431.121402" xmlns="http://www.w3.org/2000/svg" version="1.1">
 <metadata>
  <rdf:RDF xmlns:dc="http://purl.org/dc/elements/1.1/" xmlns:cc="http://creativecommons.org/ns#" xmlns:rdf="http://www.w3.org/1999/02/22-rdf-syntax-ns#">
   <cc:Work>
    <dc:type rdf:resource="http://purl.org/dc/dcmitype/StillImage"/>
    <dc:date>2025-11-21T22:18:48.101062</dc:date>
    <dc:format>image/svg+xml</dc:format>
    <dc:creator>
     <cc:Agent>
      <dc:title>Matplotlib v3.10.7, https://matplotlib.org/</dc:title>
     </cc:Agent>
    </dc:creator>
   </cc:Work>
  </rdf:RDF>
 </metadata>
 <defs>
  <style type="text/css">*{stroke-linejoin: round; stroke-linecap: butt}</style>
 </defs>
 <g id="figure_1">
  <g id="patch_1">
   <path d="M 0 431.121402 
L 405.36 431.121402 
L 405.36 0 
L 0 0 
L 0 431.121402 
z
" style="fill: none"/>
  </g>
  <g id="axes_1">
   <g id="patch_2">
    <path d="M 54.695281 151.711581 
C 59.463644 151.711581 64.037348 149.817091 67.40909 146.44535 
C 70.780831 143.073608 72.675321 138.499904 72.675321 133.731541 
C 72.675321 128.963179 70.780831 124.389475 67.40909 121.017733 
C 64.037348 117.645992 59.463644 115.751501 54.695281 115.751501 
C 49.926919 115.751501 45.353215 117.645992 41.981473 121.017733 
C 38.609732 124.389475 36.715242 128.963179 36.715242 133.731541 
C 36.715242 138.499904 38.609732 143.073608 41.981473 146.44535 
C 45.353215 149.817091 49.926919 151.711581 54.695281 151.711581 
L 54.695281 151.711581 
z
" clip-path="url(#p545fe3d241)" style="fill: none; stroke: #000000; stroke-width: 2; stroke-linejoin: miter"/>
   </g>
   <g id="patch_3">
    <path d="M 270.45576 36.639326 
C 272.36247 36.639326 274.193036 35.88108 275.541284 34.532833 
C 276.889531 33.184586 277.647776 31.35402 277.647776 29.44731 
C 277.647776 27.5406 276.889531 25.710034 275.541284 24.361787 
C 274.193036 23.013539 272.36247 22.255294 270.45576 22.255294 
" clip-path="url(#p545fe3d241)" style="fill: none; stroke: #000000; stroke-width: 2; stroke-linejoin: miter"/>
   </g>
   <g id="patch_4">
    <path d="M 270.45576 51.023358 
C 272.36247 51.023358 274.193036 50.265112 275.541284 48.916865 
C 276.889531 47.568618 277.647776 45.738051 277.647776 43.831342 
C 277.647776 41.924632 276.889531 40.094066 275.541284 38.745818 
C 274.193036 37.397571 272.36247 36.639326 270.45576 36.639326 
" clip-path="url(#p545fe3d241)" style="fill: none; stroke: #000000; stroke-width: 2; stroke-linejoin: miter"/>
   </g>
   <g id="patch_5">
    <path d="M 270.45576 65.40739 
C 272.36247 65.40739 274.193036 64.649144 275.541284 63.300897 
C 276.889531 61.95265 277.647776 60.122083 277.647776 58.215374 
C 277.647776 56.308664 276.889531 54.478098 275.541284 53.12985 
C 274.193036 51.781603 272.36247 51.023358 270.45576 51.023358 
" clip-path="url(#p545fe3d241)" style="fill: none; stroke: #000000; stroke-width: 2; stroke-linejoin: miter"/>
   </g>
   <g id="patch_6">
    <path d="M 270.45576 79.791422 
C 272.36247 79.791422 274.193036 79.033176 275.541284 77.684929 
C 276.889531 76.336682 277.647776 74.506115 277.647776 72.599406 
C 277.647776 70.692696 276.889531 68.86213 275.541284 67.513882 
C 274.193036 66.165635 272.36247 65.40739 270.45576 65.40739 
" clip-path="url(#p545fe3d241)" style="fill: none; stroke: #000000; stroke-width: 2; stroke-linejoin: miter"/>
   </g>
   <g id="patch_7">
    <path d="M 306.41584 22.255294 
C 304.509131 22.255294 302.678564 23.013539 301.330317 24.361787 
C 299.98207 25.710034 299.223824 27.5406 299.223824 29.44731 
C 299.223824 31.35402 299.98207 33.184586 301.330317 34.532833 
C 302.678564 35.88108 304.509131 36.639326 306.41584 36.639326 
" clip-path="url(#p545fe3d241)" style="fill: none; stroke: #000000; stroke-width: 2; stroke-linejoin: miter"/>
   </g>
   <g id="patch_8">
    <path d="M 306.41584 36.639326 
C 304.509131 36.639326 302.678564 37.397571 301.330317 38.745818 
C 299.98207 40.094066 299.223824 41.924632 299.223824 43.831342 
C 299.223824 45.738051 299.98207 47.568618 301.330317 48.916865 
C 302.678564 50.265112 304.509131 51.023358 306.41584 51.023358 
" clip-path="url(#p545fe3d241)" style="fill: none; stroke: #000000; stroke-width: 2; stroke-linejoin: miter"/>
   </g>
   <g id="patch_9">
    <path d="M 306.41584 51.023358 
C 304.509131 51.023358 302.678564 51.781603 301.330317 53.12985 
C 299.98207 54.478098 299.223824 56.308664 299.223824 58.215374 
C 299.223824 60.122083 299.98207 61.95265 301.330317 63.300897 
C 302.678564 64.649144 304.509131 65.40739 306.41584 65.40739 
" clip-path="url(#p545fe3d241)" style="fill: none; stroke: #000000; stroke-width: 2; stroke-linejoin: miter"/>
   </g>
   <g id="patch_10">
    <path d="M 306.41584 65.40739 
C 304.509131 65.40739 302.678564 66.165635 301.330317 67.513882 
C 299.98207 68.86213 299.223824 70.692696 299.223824 72.599406 
C 299.223824 74.506115 299.98207 76.336682 301.330317 77.684929 
C 302.678564 79.033176 304.509131 79.791422 306.41584 79.791422 
" clip-path="url(#p545fe3d241)" style="fill: none; stroke: #000000; stroke-width: 2; stroke-linejoin: miter"/>
   </g>
   <g id="line2d_1">
    <path d="M 54.695281 187.671661 
L 54.695281 151.711581 
L 54.695281 151.711581 
M 54.695281 115.751501 
L 54.695281 115.751501 
L 54.695281 79.791422 
" clip-path="url(#p545fe3d241)" style="fill: none; stroke: #000000; stroke-width: 2; stroke-linecap: round"/>
   </g>
   <g id="line2d_2">
    <path d="M 58.291289 142.721561 
L 51.099273 142.721561 
" clip-path="url(#p545fe3d241)" style="fill: none; stroke: #000000; stroke-width: 2; stroke-linecap: round"/>
   </g>
   <g id="line2d_3">
    <path d="M 54.695281 128.337529 
L 54.695281 121.145513 
" clip-path="url(#p545fe3d241)" style="fill: none; stroke: #000000; stroke-width: 2; stroke-linecap: round"/>
   </g>
   <g id="line2d_4">
    <path d="M 58.291289 124.741521 
L 51.099273 124.741521 
" clip-path="url(#p545fe3d241)" style="fill: none; stroke: #000000; stroke-width: 2; stroke-linecap: round"/>
   </g>
   <g id="line2d_5">
    <path d="M 54.695281 79.791422 
L 90.655361 79.791422 
L 93.652035 70.801402 
L 99.645381 88.781442 
L 105.638728 70.801402 
L 111.632075 88.781442 
L 117.625421 70.801402 
L 123.618768 88.781442 
L 126.615441 79.791422 
L 162.575521 79.791422 
" clip-path="url(#p545fe3d241)" style="fill: none; stroke: #000000; stroke-width: 2; stroke-linecap: round"/>
   </g>
   <g id="line2d_6">
    <path d="M 162.575521 79.791422 
L 213.279234 79.791422 
M 213.279234 70.801402 
L 213.279234 88.781442 
M 219.752048 70.801402 
L 219.752048 88.781442 
M 219.752048 79.791422 
L 270.45576 79.791422 
" clip-path="url(#p545fe3d241)" style="fill: none; stroke: #000000; stroke-width: 2; stroke-linecap: round"/>
   </g>
   <g id="line2d_7">
    <path d="M 284.839792 22.255294 
L 284.839792 79.791422 
" clip-path="url(#p545fe3d241)" style="fill: none; stroke: #000000; stroke-width: 2; stroke-linecap: round"/>
   </g>
   <g id="line2d_8">
    <path d="M 292.031808 22.255294 
L 292.031808 79.791422 
" clip-path="url(#p545fe3d241)" style="fill: none; stroke: #000000; stroke-width: 2; stroke-linecap: round"/>
   </g>
   <g id="line2d_9">
    <path d="M 270.45576 79.791422 
L 270.45576 115.751501 
L 279.44578 118.748175 
L 261.465741 124.741521 
L 279.44578 130.734868 
L 261.465741 136.728215 
L 279.44578 142.721561 
L 261.465741 148.714908 
L 270.45576 151.711581 
L 270.45576 187.671661 
" clip-path="url(#p545fe3d241)" style="fill: none; stroke: #000000; stroke-width: 2; stroke-linecap: round"/>
   </g>
   <g id="line2d_10">
    <path d="M 270.45576 187.671661 
L 270.45576 238.375374 
M 279.44578 238.375374 
L 261.465741 238.375374 
M 279.44578 244.848188 
L 261.465741 244.848188 
M 270.45576 244.848188 
L 270.45576 295.551901 
" clip-path="url(#p545fe3d241)" style="fill: none; stroke: #000000; stroke-width: 2; stroke-linecap: round"/>
   </g>
   <g id="line2d_11">
    <path d="M 270.45576 295.551901 
L 270.45576 309.935933 
L 261.465741 309.935933 
L 279.44578 309.935933 
M 264.162747 314.251142 
L 276.748774 314.251142 
M 268.657756 318.566352 
L 272.253764 318.566352 
" clip-path="url(#p545fe3d241)" style="fill: none; stroke: #000000; stroke-width: 2; stroke-linecap: round"/>
   </g>
   <g id="line2d_12">
    <path d="M 270.45576 295.551901 
L 324.39588 295.551901 
L 378.336 295.551901 
" clip-path="url(#p545fe3d241)" style="fill: none; stroke: #000000; stroke-width: 2; stroke-linecap: round"/>
   </g>
   <g id="line2d_13">
    <path d="M 378.336 295.551901 
L 378.336 331.51198 
L 387.32602 334.508654 
L 369.34598 340.502 
L 387.32602 346.495347 
L 369.34598 352.488694 
L 387.32602 358.48204 
L 369.34598 364.475387 
L 378.336 367.47206 
L 378.336 403.43214 
" clip-path="url(#p545fe3d241)" style="fill: none; stroke: #000000; stroke-width: 2; stroke-linecap: round"/>
   </g>
   <g id="line2d_14">
    <path d="M 378.336 403.43214 
L 378.336 417.816172 
L 369.34598 417.816172 
L 387.32602 417.816172 
M 372.042986 422.131382 
L 384.629014 422.131382 
M 376.537996 426.446591 
L 380.134004 426.446591 
" clip-path="url(#p545fe3d241)" style="fill: none; stroke: #000000; stroke-width: 2; stroke-linecap: round"/>
   </g>
   <g id="text_1">
    <!-- V_in -->
    <g transform="translate(3.780484 137.399979) scale(0.14 -0.14)">
     <defs>
      <path id="DejaVuSans-56" d="M 1831 0 
L 50 4666 
L 709 4666 
L 2188 738 
L 3669 4666 
L 4325 4666 
L 2547 0 
L 1831 0 
z
" transform="scale(0.015625)"/>
      <path id="DejaVuSans-5f" d="M 3263 -1063 
L 3263 -1509 
L -63 -1509 
L -63 -1063 
L 3263 -1063 
z
" transform="scale(0.015625)"/>
      <path id="DejaVuSans-69" d="M 603 3500 
L 1178 3500 
L 1178 0 
L 603 0 
L 603 3500 
z
M 603 4863 
L 1178 4863 
L 1178 4134 
L 603 4134 
L 603 4863 
z
" transform="scale(0.015625)"/>
      <path id="DejaVuSans-6e" d="M 3513 2113 
L 3513 0 
L 2938 0 
L 2938 2094 
Q 2938 2591 2744 2837 
Q 2550 3084 2163 3084 
Q 1697 3084 1428 2787 
Q 1159 2491 1159 1978 
L 1159 0 
L 581 0 
L 581 3500 
L 1159 3500 
L 1159 2956 
Q 1366 3272 1645 3428 
Q 1925 3584 2291 3584 
Q 2894 3584 3203 3211 
Q 3513 2838 3513 2113 
z
" transform="scale(0.015625)"/>
     </defs>
     <use xlink:href="#DejaVuSans-56"/>
     <use xlink:href="#DejaVuSans-5f" transform="translate(68.408203 0)"/>
     <use xlink:href="#DejaVuSans-69" transform="translate(118.408203 0)"/>
     <use xlink:href="#DejaVuSans-6e" transform="translate(146.191406 0)"/>
    </g>
   </g>
   <g id="text_2">
    <!-- R1 -->
    <g transform="translate(99.317745 64.293831) scale(0.14 -0.14)">
     <defs>
      <path id="DejaVuSans-52" d="M 2841 2188 
Q 3044 2119 3236 1894 
Q 3428 1669 3622 1275 
L 4263 0 
L 3584 0 
L 2988 1197 
Q 2756 1666 2539 1819 
Q 2322 1972 1947 1972 
L 1259 1972 
L 1259 0 
L 628 0 
L 628 4666 
L 2053 4666 
Q 2853 4666 3247 4331 
Q 3641 3997 3641 3322 
Q 3641 2881 3436 2590 
Q 3231 2300 2841 2188 
z
M 1259 4147 
L 1259 2491 
L 2053 2491 
Q 2509 2491 2742 2702 
Q 2975 2913 2975 3322 
Q 2975 3731 2742 3939 
Q 2509 4147 2053 4147 
L 1259 4147 
z
" transform="scale(0.015625)"/>
      <path id="DejaVuSans-31" d="M 794 531 
L 1825 531 
L 1825 4091 
L 703 3866 
L 703 4441 
L 1819 4666 
L 2450 4666 
L 2450 531 
L 3481 531 
L 3481 0 
L 794 0 
L 794 531 
z
" transform="scale(0.015625)"/>
     </defs>
     <use xlink:href="#DejaVuSans-52"/>
     <use xlink:href="#DejaVuSans-31" transform="translate(69.482422 0)"/>
    </g>
   </g>
   <g id="text_3">
    <!-- C1 -->
    <g transform="translate(207.173922 64.293831) scale(0.14 -0.14)">
     <defs>
      <path id="DejaVuSans-43" d="M 4122 4306 
L 4122 3641 
Q 3803 3938 3442 4084 
Q 3081 4231 2675 4231 
Q 1875 4231 1450 3742 
Q 1025 3253 1025 2328 
Q 1025 1406 1450 917 
Q 1875 428 2675 428 
Q 3081 428 3442 575 
Q 3803 722 4122 1019 
L 4122 359 
Q 3791 134 3420 21 
Q 3050 -91 2638 -91 
Q 1578 -91 968 557 
Q 359 1206 359 2328 
Q 359 3453 968 4101 
Q 1578 4750 2638 4750 
Q 3056 4750 3426 4639 
Q 3797 4528 4122 4306 
z
" transform="scale(0.015625)"/>
     </defs>
     <use xlink:href="#DejaVuSans-43"/>
     <use xlink:href="#DejaVuSans-31" transform="translate(69.824219 0)"/>
    </g>
   </g>
   <g id="text_4">
    <!-- T1 -->
    <g transform="translate(279.706582 15.747723) scale(0.14 -0.14)">
     <defs>
      <path id="DejaVuSans-54" d="M -19 4666 
L 3928 4666 
L 3928 4134 
L 2272 4134 
L 2272 0 
L 1638 0 
L 1638 4134 
L -19 4134 
L -19 4666 
z
" transform="scale(0.015625)"/>
     </defs>
     <use xlink:href="#DejaVuSans-54"/>
     <use xlink:href="#DejaVuSans-31" transform="translate(61.083984 0)"/>
    </g>
   </g>
   <g id="text_5">
    <!-- R2 -->
    <g transform="translate(239.23442 137.594666) scale(0.14 -0.14)">
     <defs>
      <path id="DejaVuSans-32" d="M 1228 531 
L 3431 531 
L 3431 0 
L 469 0 
L 469 531 
Q 828 903 1448 1529 
Q 2069 2156 2228 2338 
Q 2531 2678 2651 2914 
Q 2772 3150 2772 3378 
Q 2772 3750 2511 3984 
Q 2250 4219 1831 4219 
Q 1534 4219 1204 4116 
Q 875 4013 500 3803 
L 500 4441 
Q 881 4594 1212 4672 
Q 1544 4750 1819 4750 
Q 2544 4750 2975 4387 
Q 3406 4025 3406 3419 
Q 3406 3131 3298 2873 
Q 3191 2616 2906 2266 
Q 2828 2175 2409 1742 
Q 1991 1309 1228 531 
z
" transform="scale(0.015625)"/>
     </defs>
     <use xlink:href="#DejaVuSans-52"/>
     <use xlink:href="#DejaVuSans-32" transform="translate(69.482422 0)"/>
    </g>
   </g>
   <g id="text_6">
    <!-- C2 -->
    <g transform="translate(239.186295 245.474906) scale(0.14 -0.14)">
     <use xlink:href="#DejaVuSans-43"/>
     <use xlink:href="#DejaVuSans-32" transform="translate(69.824219 0)"/>
    </g>
   </g>
   <g id="text_7">
    <!-- V_out -->
    <g transform="translate(362.179977 295.429643) scale(0.14 -0.14)">
     <defs>
      <path id="DejaVuSans-6f" d="M 1959 3097 
Q 1497 3097 1228 2736 
Q 959 2375 959 1747 
Q 959 1119 1226 758 
Q 1494 397 1959 397 
Q 2419 397 2687 759 
Q 2956 1122 2956 1747 
Q 2956 2369 2687 2733 
Q 2419 3097 1959 3097 
z
M 1959 3584 
Q 2709 3584 3137 3096 
Q 3566 2609 3566 1747 
Q 3566 888 3137 398 
Q 2709 -91 1959 -91 
Q 1206 -91 779 398 
Q 353 888 353 1747 
Q 353 2609 779 3096 
Q 1206 3584 1959 3584 
z
" transform="scale(0.015625)"/>
      <path id="DejaVuSans-75" d="M 544 1381 
L 544 3500 
L 1119 3500 
L 1119 1403 
Q 1119 906 1312 657 
Q 1506 409 1894 409 
Q 2359 409 2629 706 
Q 2900 1003 2900 1516 
L 2900 3500 
L 3475 3500 
L 3475 0 
L 2900 0 
L 2900 538 
Q 2691 219 2414 64 
Q 2138 -91 1772 -91 
Q 1169 -91 856 284 
Q 544 659 544 1381 
z
M 1991 3584 
L 1991 3584 
z
" transform="scale(0.015625)"/>
      <path id="DejaVuSans-74" d="M 1172 4494 
L 1172 3500 
L 2356 3500 
L 2356 3053 
L 1172 3053 
L 1172 1153 
Q 1172 725 1289 603 
Q 1406 481 1766 481 
L 2356 481 
L 2356 0 
L 1766 0 
Q 1100 0 847 248 
Q 594 497 594 1153 
L 594 3053 
L 172 3053 
L 172 3500 
L 594 3500 
L 594 4494 
L 1172 4494 
z
" transform="scale(0.015625)"/>
     </defs>
     <use xlink:href="#DejaVuSans-56"/>
     <use xlink:href="#DejaVuSans-5f" transform="translate(68.408203 0)"/>
     <use xlink:href="#DejaVuSans-6f" transform="translate(118.408203 0)"/>
     <use xlink:href="#DejaVuSans-75" transform="translate(179.589844 0)"/>
     <use xlink:href="#DejaVuSans-74" transform="translate(242.96875 0)"/>
    </g>
   </g>
   <g id="text_8">
    <!-- R_L -->
    <g transform="translate(341.221535 352.96577) scale(0.14 -0.14)">
     <defs>
      <path id="DejaVuSans-4c" d="M 628 4666 
L 1259 4666 
L 1259 531 
L 3531 531 
L 3531 0 
L 628 0 
L 628 4666 
z
" transform="scale(0.015625)"/>
     </defs>
     <use xlink:href="#DejaVuSans-52"/>
     <use xlink:href="#DejaVuSans-5f" transform="translate(69.482422 0)"/>
     <use xlink:href="#DejaVuSans-4c" transform="translate(119.482422 0)"/>
    </g>
   </g>
  </g>
 </g>
 <defs>
  <clipPath id="p545fe3d241">
   <rect x="0" y="0" width="405.36" height="431.121402"/>
  </clipPath>
 </defs>
</svg>
