<?xml version="1.0" encoding="utf-8" standalone="no"?>
<!DOCTYPE svg PUBLIC "-//W3C//DTD SVG 1.1//EN"
  "http://www.w3.org/Graphics/SVG/1.1/DTD/svg11.dtd">
<svg xmlns:xlink="http://www.w3.org/1999/xlink" width="297.36pt" height="415.770807pt" viewBox="0 0 297.36 415.770807" xmlns="http://www.w3.org/2000/svg" version="1.1">
 <metadata>
  <rdf:RDF xmlns:dc="http://purl.org/dc/elements/1.1/" xmlns:cc="http://creativecommons.org/ns#" xmlns:rdf="http://www.w3.org/1999/02/22-rdf-syntax-ns#">
   <cc:Work>
    <dc:type rdf:resource="http://purl.org/dc/dcmitype/StillImage"/>
    <dc:date>2025-11-21T22:25:18.004175</dc:date>
    <dc:format>image/svg+xml</dc:format>
    <dc:creator>
     <cc:Agent>
      <dc:title>Matplotlib v3.10.7, https://matplotlib.org/</dc:title>
     </cc:Agent>
    </dc:creator>
   </cc:Work>
  </rdf:RDF>
 </metadata>
 <defs>
  <style type="text/css">*{stroke-linejoin: round; stroke-linecap: butt}</style>
 </defs>
 <g id="figure_1">
  <g id="patch_1">
   <path d="M 0 415.770807 
L 297.36 415.770807 
L 297.36 -0 
L 0 -0 
L 0 415.770807 
z
" style="fill: none"/>
  </g>
  <g id="axes_1">
   <g id="patch_2">
    <path d="M 54.673262 76.564134 
C 59.439705 76.564134 64.011568 74.670406 67.381952 71.300023 
C 70.752336 67.929639 72.646063 63.357775 72.646063 58.591333 
C 72.646063 53.82489 70.752336 49.253027 67.381952 45.882643 
C 64.011568 42.512259 59.439705 40.618531 54.673262 40.618531 
C 49.906819 40.618531 45.334956 42.512259 41.964572 45.882643 
C 38.594188 49.253027 36.700461 53.82489 36.700461 58.591333 
C 36.700461 63.357775 38.594188 67.929639 41.964572 71.300023 
C 45.334956 74.670406 49.906819 76.564134 54.673262 76.564134 
L 54.673262 76.564134 
z
" clip-path="url(#p3b4aa750a2)" style="fill: none; stroke: #000000; stroke-width: 2; stroke-linejoin: miter"/>
   </g>
   <g id="patch_3">
    <path d="M 63.659663 112.21019 
L 54.673262 124.791151 
L 45.686861 112.21019 
L 63.659663 112.21019 
z
" clip-path="url(#p3b4aa750a2)" style="fill: none; stroke: #000000; stroke-width: 2; stroke-linecap: round"/>
   </g>
   <g id="patch_4">
    <path d="M 99.605266 172.419075 
C 99.605266 171.227861 99.131553 170.084218 98.289238 169.241903 
C 97.446922 168.399587 96.303279 167.925875 95.112065 167.925875 
C 93.920851 167.925875 92.777208 168.399587 91.934893 169.241903 
C 91.092577 170.084218 90.618865 171.227861 90.618865 172.419075 
" clip-path="url(#p3b4aa750a2)" style="fill: none; stroke: #000000; stroke-width: 2; stroke-linejoin: miter"/>
   </g>
   <g id="patch_5">
    <path d="M 108.591666 172.419075 
C 108.591666 171.227861 108.117954 170.084218 107.275638 169.241903 
C 106.433323 168.399587 105.28968 167.925875 104.098466 167.925875 
C 102.907252 167.925875 101.763609 168.399587 100.921294 169.241903 
C 100.078978 170.084218 99.605266 171.227861 99.605266 172.419075 
" clip-path="url(#p3b4aa750a2)" style="fill: none; stroke: #000000; stroke-width: 2; stroke-linejoin: miter"/>
   </g>
   <g id="patch_6">
    <path d="M 117.578067 172.419075 
C 117.578067 171.227861 117.104355 170.084218 116.262039 169.241903 
C 115.419724 168.399587 114.276081 167.925875 113.084867 167.925875 
C 111.893653 167.925875 110.75001 168.399587 109.907694 169.241903 
C 109.065379 170.084218 108.591666 171.227861 108.591666 172.419075 
" clip-path="url(#p3b4aa750a2)" style="fill: none; stroke: #000000; stroke-width: 2; stroke-linejoin: miter"/>
   </g>
   <g id="patch_7">
    <path d="M 126.564468 172.419075 
C 126.564468 171.227861 126.090755 170.084218 125.24844 169.241903 
C 124.406125 168.399587 123.262481 167.925875 122.071267 167.925875 
C 120.880054 167.925875 119.73641 168.399587 118.894095 169.241903 
C 118.05178 170.084218 117.578067 171.227861 117.578067 172.419075 
" clip-path="url(#p3b4aa750a2)" style="fill: none; stroke: #000000; stroke-width: 2; stroke-linejoin: miter"/>
   </g>
   <g id="line2d_1">
    <path d="M 54.673262 112.509737 
L 54.673262 76.564134 
L 54.673262 76.564134 
M 54.673262 40.618531 
L 54.673262 40.618531 
L 54.673262 4.672928 
" clip-path="url(#p3b4aa750a2)" style="fill: none; stroke: #000000; stroke-width: 2; stroke-linecap: round"/>
   </g>
   <g id="line2d_2">
    <path d="M 58.267822 67.577733 
L 51.078702 67.577733 
" clip-path="url(#p3b4aa750a2)" style="fill: none; stroke: #000000; stroke-width: 2; stroke-linecap: round"/>
   </g>
   <g id="line2d_3">
    <path d="M 54.673262 53.199492 
L 54.673262 46.010372 
" clip-path="url(#p3b4aa750a2)" style="fill: none; stroke: #000000; stroke-width: 2; stroke-linecap: round"/>
   </g>
   <g id="line2d_4">
    <path d="M 58.267822 49.604932 
L 51.078702 49.604932 
" clip-path="url(#p3b4aa750a2)" style="fill: none; stroke: #000000; stroke-width: 2; stroke-linecap: round"/>
   </g>
   <g id="line2d_5">
    <path d="M 45.686861 24.143463 
L 45.686861 27.13893 
" clip-path="url(#p3b4aa750a2)" style="fill: none; stroke: #000000; stroke-width: 2; stroke-linecap: round"/>
   </g>
   <g id="line2d_6">
    <path d="M 45.686861 33.129864 
L 45.686861 36.125331 
" clip-path="url(#p3b4aa750a2)" style="fill: none; stroke: #000000; stroke-width: 2; stroke-linecap: round"/>
   </g>
   <g id="line2d_7">
    <path d="M 45.686861 42.116265 
L 45.686861 45.111732 
" clip-path="url(#p3b4aa750a2)" style="fill: none; stroke: #000000; stroke-width: 2; stroke-linecap: round"/>
   </g>
   <g id="line2d_8">
    <path d="M 54.673262 25.641197 
L 54.673262 4.672928 
" clip-path="url(#p3b4aa750a2)" style="fill: none; stroke: #000000; stroke-width: 2; stroke-linecap: round"/>
   </g>
   <g id="line2d_9">
    <path d="M 45.686861 25.641197 
L 54.673262 25.641197 
" clip-path="url(#p3b4aa750a2)" style="fill: none; stroke: #000000; stroke-width: 2; stroke-linecap: round"/>
   </g>
   <g id="line2d_10">
    <path d="M 54.673262 64.582267 
L 54.673262 43.613998 
" clip-path="url(#p3b4aa750a2)" style="fill: none; stroke: #000000; stroke-width: 2; stroke-linecap: round"/>
   </g>
   <g id="line2d_11">
    <path d="M 45.686861 43.613998 
L 54.673262 43.613998 
" clip-path="url(#p3b4aa750a2)" style="fill: none; stroke: #000000; stroke-width: 2; stroke-linecap: round"/>
   </g>
   <g id="line2d_12">
    <path d="M 24.718593 46.609465 
L 39.695927 46.609465 
" clip-path="url(#p3b4aa750a2)" style="fill: none; stroke: #000000; stroke-width: 2; stroke-linecap: round"/>
   </g>
   <g id="line2d_13">
    <path d="M 39.695927 46.609465 
L 39.695927 22.64573 
" clip-path="url(#p3b4aa750a2)" style="fill: none; stroke: #000000; stroke-width: 2; stroke-linecap: round"/>
   </g>
   <g id="line2d_14">
    <path d="M 51.677795 34.627597 
L 54.673262 34.627597 
" clip-path="url(#p3b4aa750a2)" style="fill: none; stroke: #000000; stroke-width: 2; stroke-linecap: round"/>
   </g>
   <g id="patch_8">
    <path d="M 51.677795 37.623064 
L 45.686861 34.627597 
L 51.677795 31.632131 
z
" clip-path="url(#p3b4aa750a2)"/>
   </g>
   <g id="line2d_15">
    <path d="M 54.673262 34.627597 
L 54.673262 43.613998 
" clip-path="url(#p3b4aa750a2)" style="fill: none; stroke: #000000; stroke-width: 2; stroke-linecap: round"/>
   </g>
   <g id="line2d_16">
    <path d="M 54.673262 64.582267 
L 54.673262 112.21019 
M 63.659663 124.791151 
L 45.686861 124.791151 
M 54.673262 124.791151 
L 54.673262 172.419075 
" clip-path="url(#p3b4aa750a2)" style="fill: none; stroke: #000000; stroke-width: 2; stroke-linecap: round"/>
   </g>
   <g id="line2d_17">
    <path d="M 54.673262 172.419075 
L 54.673262 186.797316 
L 45.686861 186.797316 
L 63.659663 186.797316 
M 48.382782 191.110789 
L 60.963743 191.110789 
M 52.875982 195.424261 
L 56.470542 195.424261 
" clip-path="url(#p3b4aa750a2)" style="fill: none; stroke: #000000; stroke-width: 2; stroke-linecap: round"/>
   </g>
   <g id="line2d_18">
    <path d="M 54.673262 172.419075 
L 90.618865 172.419075 
M 126.564468 172.419075 
L 162.510071 172.419075 
" clip-path="url(#p3b4aa750a2)" style="fill: none; stroke: #000000; stroke-width: 2; stroke-linecap: round"/>
   </g>
   <g id="line2d_19">
    <path d="M 162.510071 172.419075 
L 162.510071 223.102375 
M 171.496471 223.102375 
L 153.52367 223.102375 
M 171.496471 229.572584 
L 153.52367 229.572584 
M 162.510071 229.572584 
L 162.510071 280.255884 
" clip-path="url(#p3b4aa750a2)" style="fill: none; stroke: #000000; stroke-width: 2; stroke-linecap: round"/>
   </g>
   <g id="line2d_20">
    <path d="M 162.510071 280.255884 
L 162.510071 294.634125 
L 153.52367 294.634125 
L 171.496471 294.634125 
M 156.21959 298.947597 
L 168.800551 298.947597 
M 160.712791 303.26107 
L 164.307351 303.26107 
" clip-path="url(#p3b4aa750a2)" style="fill: none; stroke: #000000; stroke-width: 2; stroke-linecap: round"/>
   </g>
   <g id="line2d_21">
    <path d="M 162.510071 280.255884 
L 216.428475 280.255884 
L 270.346879 280.255884 
" clip-path="url(#p3b4aa750a2)" style="fill: none; stroke: #000000; stroke-width: 2; stroke-linecap: round"/>
   </g>
   <g id="line2d_22">
    <path d="M 270.346879 280.255884 
L 270.346879 316.201487 
L 279.33328 319.196954 
L 261.360479 325.187888 
L 279.33328 331.178821 
L 261.360479 337.169755 
L 279.33328 343.160689 
L 261.360479 349.151623 
L 270.346879 352.14709 
L 270.346879 388.092693 
" clip-path="url(#p3b4aa750a2)" style="fill: none; stroke: #000000; stroke-width: 2; stroke-linecap: round"/>
   </g>
   <g id="line2d_23">
    <path d="M 270.346879 388.092693 
L 270.346879 402.470934 
L 261.360479 402.470934 
L 279.33328 402.470934 
M 264.056399 406.784406 
L 276.63736 406.784406 
M 268.549599 411.097879 
L 272.14416 411.097879 
" clip-path="url(#p3b4aa750a2)" style="fill: none; stroke: #000000; stroke-width: 2; stroke-linecap: round"/>
   </g>
   <g id="text_1">
    <!-- V_in -->
    <g transform="translate(3.76715 62.25977) scale(0.14 -0.14)">
     <defs>
      <path id="DejaVuSans-56" d="M 1831 0 
L 50 4666 
L 709 4666 
L 2188 738 
L 3669 4666 
L 4325 4666 
L 2547 0 
L 1831 0 
z
" transform="scale(0.015625)"/>
      <path id="DejaVuSans-5f" d="M 3263 -1063 
L 3263 -1509 
L -63 -1509 
L -63 -1063 
L 3263 -1063 
z
" transform="scale(0.015625)"/>
      <path id="DejaVuSans-69" d="M 603 3500 
L 1178 3500 
L 1178 0 
L 603 0 
L 603 3500 
z
M 603 4863 
L 1178 4863 
L 1178 4134 
L 603 4134 
L 603 4863 
z
" transform="scale(0.015625)"/>
      <path id="DejaVuSans-6e" d="M 3513 2113 
L 3513 0 
L 2938 0 
L 2938 2094 
Q 2938 2591 2744 2837 
Q 2550 3084 2163 3084 
Q 1697 3084 1428 2787 
Q 1159 2491 1159 1978 
L 1159 0 
L 581 0 
L 581 3500 
L 1159 3500 
L 1159 2956 
Q 1366 3272 1645 3428 
Q 1925 3584 2291 3584 
Q 2894 3584 3203 3211 
Q 3513 2838 3513 2113 
z
" transform="scale(0.015625)"/>
     </defs>
     <use xlink:href="#DejaVuSans-56"/>
     <use xlink:href="#DejaVuSans-5f" transform="translate(68.408203 0)"/>
     <use xlink:href="#DejaVuSans-69" transform="translate(118.408203 0)"/>
     <use xlink:href="#DejaVuSans-6e" transform="translate(146.191406 0)"/>
    </g>
   </g>
   <g id="text_2">
    <!-- Q1 -->
    <g transform="translate(58.267822 38.490722) scale(0.14 -0.14)">
     <defs>
      <path id="DejaVuSans-51" d="M 2522 4238 
Q 1834 4238 1429 3725 
Q 1025 3213 1025 2328 
Q 1025 1447 1429 934 
Q 1834 422 2522 422 
Q 3209 422 3611 934 
Q 4013 1447 4013 2328 
Q 4013 3213 3611 3725 
Q 3209 4238 2522 4238 
z
M 3406 84 
L 4238 -825 
L 3475 -825 
L 2784 -78 
Q 2681 -84 2626 -87 
Q 2572 -91 2522 -91 
Q 1538 -91 948 567 
Q 359 1225 359 2328 
Q 359 3434 948 4092 
Q 1538 4750 2522 4750 
Q 3503 4750 4090 4092 
Q 4678 3434 4678 2328 
Q 4678 1516 4351 937 
Q 4025 359 3406 84 
z
" transform="scale(0.015625)"/>
      <path id="DejaVuSans-31" d="M 794 531 
L 1825 531 
L 1825 4091 
L 703 3866 
L 703 4441 
L 1819 4666 
L 2450 4666 
L 2450 531 
L 3481 531 
L 3481 0 
L 794 0 
L 794 531 
z
" transform="scale(0.015625)"/>
     </defs>
     <use xlink:href="#DejaVuSans-51"/>
     <use xlink:href="#DejaVuSans-31" transform="translate(78.710938 0)"/>
    </g>
   </g>
   <g id="text_3">
    <!-- D1 -->
    <g transform="translate(22.404801 122.363796) scale(0.14 -0.14)">
     <defs>
      <path id="DejaVuSans-44" d="M 1259 4147 
L 1259 519 
L 2022 519 
Q 2988 519 3436 956 
Q 3884 1394 3884 2338 
Q 3884 3275 3436 3711 
Q 2988 4147 2022 4147 
L 1259 4147 
z
M 628 4666 
L 1925 4666 
Q 3281 4666 3915 4102 
Q 4550 3538 4550 2338 
Q 4550 1131 3912 565 
Q 3275 0 1925 0 
L 628 0 
L 628 4666 
z
" transform="scale(0.015625)"/>
     </defs>
     <use xlink:href="#DejaVuSans-44"/>
     <use xlink:href="#DejaVuSans-31" transform="translate(77.001953 0)"/>
    </g>
   </g>
   <g id="text_4">
    <!-- L1 -->
    <g transform="translate(100.237604 161.419774) scale(0.14 -0.14)">
     <defs>
      <path id="DejaVuSans-4c" d="M 628 4666 
L 1259 4666 
L 1259 531 
L 3531 531 
L 3531 0 
L 628 0 
L 628 4666 
z
" transform="scale(0.015625)"/>
     </defs>
     <use xlink:href="#DejaVuSans-4c"/>
     <use xlink:href="#DejaVuSans-31" transform="translate(55.712891 0)"/>
    </g>
   </g>
   <g id="text_5">
    <!-- C1 -->
    <g transform="translate(131.245672 230.200605) scale(0.14 -0.14)">
     <defs>
      <path id="DejaVuSans-43" d="M 4122 4306 
L 4122 3641 
Q 3803 3938 3442 4084 
Q 3081 4231 2675 4231 
Q 1875 4231 1450 3742 
Q 1025 3253 1025 2328 
Q 1025 1406 1450 917 
Q 1875 428 2675 428 
Q 3081 428 3442 575 
Q 3803 722 4122 1019 
L 4122 359 
Q 3791 134 3420 21 
Q 3050 -91 2638 -91 
Q 1578 -91 968 557 
Q 359 1206 359 2328 
Q 359 3453 968 4101 
Q 1578 4750 2638 4750 
Q 3056 4750 3426 4639 
Q 3797 4528 4122 4306 
z
" transform="scale(0.015625)"/>
     </defs>
     <use xlink:href="#DejaVuSans-43"/>
     <use xlink:href="#DejaVuSans-31" transform="translate(69.824219 0)"/>
    </g>
   </g>
   <g id="text_6">
    <!-- V_out -->
    <g transform="translate(254.189408 280.135074) scale(0.14 -0.14)">
     <defs>
      <path id="DejaVuSans-6f" d="M 1959 3097 
Q 1497 3097 1228 2736 
Q 959 2375 959 1747 
Q 959 1119 1226 758 
Q 1494 397 1959 397 
Q 2419 397 2687 759 
Q 2956 1122 2956 1747 
Q 2956 2369 2687 2733 
Q 2419 3097 1959 3097 
z
M 1959 3584 
Q 2709 3584 3137 3096 
Q 3566 2609 3566 1747 
Q 3566 888 3137 398 
Q 2709 -91 1959 -91 
Q 1206 -91 779 398 
Q 353 888 353 1747 
Q 353 2609 779 3096 
Q 1206 3584 1959 3584 
z
" transform="scale(0.015625)"/>
      <path id="DejaVuSans-75" d="M 544 1381 
L 544 3500 
L 1119 3500 
L 1119 1403 
Q 1119 906 1312 657 
Q 1506 409 1894 409 
Q 2359 409 2629 706 
Q 2900 1003 2900 1516 
L 2900 3500 
L 3475 3500 
L 3475 0 
L 2900 0 
L 2900 538 
Q 2691 219 2414 64 
Q 2138 -91 1772 -91 
Q 1169 -91 856 284 
Q 544 659 544 1381 
z
M 1991 3584 
L 1991 3584 
z
" transform="scale(0.015625)"/>
      <path id="DejaVuSans-74" d="M 1172 4494 
L 1172 3500 
L 2356 3500 
L 2356 3053 
L 1172 3053 
L 1172 1153 
Q 1172 725 1289 603 
Q 1406 481 1766 481 
L 2356 481 
L 2356 0 
L 1766 0 
Q 1100 0 847 248 
Q 594 497 594 1153 
L 594 3053 
L 172 3053 
L 172 3500 
L 594 3500 
L 594 4494 
L 1172 4494 
z
" transform="scale(0.015625)"/>
     </defs>
     <use xlink:href="#DejaVuSans-56"/>
     <use xlink:href="#DejaVuSans-5f" transform="translate(68.408203 0)"/>
     <use xlink:href="#DejaVuSans-6f" transform="translate(118.408203 0)"/>
     <use xlink:href="#DejaVuSans-75" transform="translate(179.589844 0)"/>
     <use xlink:href="#DejaVuSans-74" transform="translate(242.96875 0)"/>
    </g>
   </g>
   <g id="text_7">
    <!-- R_L -->
    <g transform="translate(233.237481 337.648038) scale(0.14 -0.14)">
     <defs>
      <path id="DejaVuSans-52" d="M 2841 2188 
Q 3044 2119 3236 1894 
Q 3428 1669 3622 1275 
L 4263 0 
L 3584 0 
L 2988 1197 
Q 2756 1666 2539 1819 
Q 2322 1972 1947 1972 
L 1259 1972 
L 1259 0 
L 628 0 
L 628 4666 
L 2053 4666 
Q 2853 4666 3247 4331 
Q 3641 3997 3641 3322 
Q 3641 2881 3436 2590 
Q 3231 2300 2841 2188 
z
M 1259 4147 
L 1259 2491 
L 2053 2491 
Q 2509 2491 2742 2702 
Q 2975 2913 2975 3322 
Q 2975 3731 2742 3939 
Q 2509 4147 2053 4147 
L 1259 4147 
z
" transform="scale(0.015625)"/>
     </defs>
     <use xlink:href="#DejaVuSans-52"/>
     <use xlink:href="#DejaVuSans-5f" transform="translate(69.482422 0)"/>
     <use xlink:href="#DejaVuSans-4c" transform="translate(119.482422 0)"/>
    </g>
   </g>
  </g>
 </g>
 <defs>
  <clipPath id="p3b4aa750a2">
   <rect x="0" y="-0" width="297.36" height="415.770807"/>
  </clipPath>
 </defs>
</svg>
