<?xml version="1.0" encoding="utf-8" standalone="no"?>
<!DOCTYPE svg PUBLIC "-//W3C//DTD SVG 1.1//EN"
  "http://www.w3.org/Graphics/SVG/1.1/DTD/svg11.dtd">
<svg xmlns:xlink="http://www.w3.org/1999/xlink" width="405.273947pt" height="378pt" viewBox="0 0 405.273947 378" xmlns="http://www.w3.org/2000/svg" version="1.1">
 <metadata>
  <rdf:RDF xmlns:dc="http://purl.org/dc/elements/1.1/" xmlns:cc="http://creativecommons.org/ns#" xmlns:rdf="http://www.w3.org/1999/02/22-rdf-syntax-ns#">
   <cc:Work>
    <dc:type rdf:resource="http://purl.org/dc/dcmitype/StillImage"/>
    <dc:date>2025-11-21T22:23:20.038142</dc:date>
    <dc:format>image/svg+xml</dc:format>
    <dc:creator>
     <cc:Agent>
      <dc:title>Matplotlib v3.10.7, https://matplotlib.org/</dc:title>
     </cc:Agent>
    </dc:creator>
   </cc:Work>
  </rdf:RDF>
 </metadata>
 <defs>
  <style type="text/css">*{stroke-linejoin: round; stroke-linecap: butt}</style>
 </defs>
 <g id="figure_1">
  <g id="patch_1">
   <path d="M 0 378 
L 405.273947 378 
L 405.273947 0 
L 0 0 
L 0 378 
z
" style="fill: none"/>
  </g>
  <g id="axes_1">
   <g id="patch_2">
    <path d="M 54.68367 98.649495 
C 59.45102 98.649495 64.023754 96.755407 67.39478 93.384381 
C 70.765805 90.013355 72.659893 85.440622 72.659893 80.673272 
C 72.659893 75.905922 70.765805 71.333188 67.39478 67.962163 
C 64.023754 64.591137 59.45102 62.697049 54.68367 62.697049 
C 49.91632 62.697049 45.343587 64.591137 41.972561 67.962163 
C 38.601536 71.333188 36.707447 75.905922 36.707447 80.673272 
C 36.707447 85.440622 38.601536 90.013355 41.972561 93.384381 
C 45.343587 96.755407 49.91632 98.649495 54.68367 98.649495 
L 54.68367 98.649495 
z
" clip-path="url(#p08ae7aafef)" style="fill: none; stroke: #000000; stroke-width: 2; stroke-linejoin: miter"/>
   </g>
   <g id="patch_3">
    <path d="M 99.624228 26.744603 
C 99.624228 25.553162 99.150425 24.409301 98.307949 23.566826 
C 97.465474 22.72435 96.321613 22.250547 95.130172 22.250547 
C 93.938731 22.250547 92.79487 22.72435 91.952395 23.566826 
C 91.109919 24.409301 90.636116 25.553162 90.636116 26.744603 
" clip-path="url(#p08ae7aafef)" style="fill: none; stroke: #000000; stroke-width: 2; stroke-linejoin: miter"/>
   </g>
   <g id="patch_4">
    <path d="M 108.612339 26.744603 
C 108.612339 25.553162 108.138537 24.409301 107.296061 23.566826 
C 106.453585 22.72435 105.309724 22.250547 104.118284 22.250547 
C 102.926843 22.250547 101.782982 22.72435 100.940506 23.566826 
C 100.098031 24.409301 99.624228 25.553162 99.624228 26.744603 
" clip-path="url(#p08ae7aafef)" style="fill: none; stroke: #000000; stroke-width: 2; stroke-linejoin: miter"/>
   </g>
   <g id="patch_5">
    <path d="M 117.600451 26.744603 
C 117.600451 25.553162 117.126648 24.409301 116.284172 23.566826 
C 115.441697 22.72435 114.297836 22.250547 113.106395 22.250547 
C 111.914954 22.250547 110.771093 22.72435 109.928618 23.566826 
C 109.086142 24.409301 108.612339 25.553162 108.612339 26.744603 
" clip-path="url(#p08ae7aafef)" style="fill: none; stroke: #000000; stroke-width: 2; stroke-linejoin: miter"/>
   </g>
   <g id="patch_6">
    <path d="M 126.588562 26.744603 
C 126.588562 25.553162 126.11476 24.409301 125.272284 23.566826 
C 124.429808 22.72435 123.285947 22.250547 122.094507 22.250547 
C 120.903066 22.250547 119.759205 22.72435 118.916729 23.566826 
C 118.074254 24.409301 117.600451 25.553162 117.600451 26.744603 
" clip-path="url(#p08ae7aafef)" style="fill: none; stroke: #000000; stroke-width: 2; stroke-linejoin: miter"/>
   </g>
   <g id="patch_7">
    <path d="M 207.481566 134.601941 
C 207.481566 133.4105 207.007763 132.266639 206.165287 131.424163 
C 205.322812 130.581688 204.178951 130.107885 202.98751 130.107885 
C 201.796069 130.107885 200.652208 130.581688 199.809733 131.424163 
C 198.967257 132.266639 198.493454 133.4105 198.493454 134.601941 
" clip-path="url(#p08ae7aafef)" style="fill: none; stroke: #000000; stroke-width: 2; stroke-linejoin: miter"/>
   </g>
   <g id="patch_8">
    <path d="M 216.469677 134.601941 
C 216.469677 133.4105 215.995874 132.266639 215.153399 131.424163 
C 214.310923 130.581688 213.167062 130.107885 211.975621 130.107885 
C 210.784181 130.107885 209.64032 130.581688 208.797844 131.424163 
C 207.955368 132.266639 207.481566 133.4105 207.481566 134.601941 
" clip-path="url(#p08ae7aafef)" style="fill: none; stroke: #000000; stroke-width: 2; stroke-linejoin: miter"/>
   </g>
   <g id="patch_9">
    <path d="M 225.457789 134.601941 
C 225.457789 133.4105 224.983986 132.266639 224.14151 131.424163 
C 223.299035 130.581688 222.155174 130.107885 220.963733 130.107885 
C 219.772292 130.107885 218.628431 130.581688 217.785956 131.424163 
C 216.94348 132.266639 216.469677 133.4105 216.469677 134.601941 
" clip-path="url(#p08ae7aafef)" style="fill: none; stroke: #000000; stroke-width: 2; stroke-linejoin: miter"/>
   </g>
   <g id="patch_10">
    <path d="M 234.4459 134.601941 
C 234.4459 133.4105 233.972097 132.266639 233.129622 131.424163 
C 232.287146 130.581688 231.143285 130.107885 229.951844 130.107885 
C 228.760404 130.107885 227.616543 130.581688 226.774067 131.424163 
C 225.931591 132.266639 225.457789 133.4105 225.457789 134.601941 
" clip-path="url(#p08ae7aafef)" style="fill: none; stroke: #000000; stroke-width: 2; stroke-linejoin: miter"/>
   </g>
   <g id="line2d_1">
    <path d="M 54.68367 134.601941 
L 54.68367 98.649495 
L 54.68367 98.649495 
M 54.68367 62.697049 
L 54.68367 62.697049 
L 54.68367 26.744603 
" clip-path="url(#p08ae7aafef)" style="fill: none; stroke: #000000; stroke-width: 2; stroke-linecap: round"/>
   </g>
   <g id="line2d_2">
    <path d="M 63.671782 80.673272 
L 62.922773 78.812236 
L 62.173763 77.078027 
L 61.424754 75.588828 
L 60.675745 74.446125 
L 59.926735 73.727793 
L 59.177726 73.482783 
L 58.428717 73.727793 
L 57.679707 74.446125 
L 56.930698 75.588828 
L 56.181689 77.078027 
L 55.43268 78.812236 
L 54.68367 80.673272 
L 53.934661 82.534307 
L 53.185652 84.268516 
L 52.436642 85.757715 
L 51.687633 86.900418 
L 50.938624 87.618751 
L 50.189615 87.863761 
L 49.440605 87.618751 
L 48.691596 86.900418 
L 47.942587 85.757715 
L 47.193577 84.268516 
L 46.444568 82.534307 
L 45.695559 80.673272 
" clip-path="url(#p08ae7aafef)" style="fill: none; stroke: #000000; stroke-width: 2; stroke-linecap: round"/>
   </g>
   <g id="line2d_3">
    <path d="M 54.68367 26.744603 
L 90.636116 26.744603 
M 126.588562 26.744603 
L 162.541008 26.744603 
" clip-path="url(#p08ae7aafef)" style="fill: none; stroke: #000000; stroke-width: 2; stroke-linecap: round"/>
   </g>
   <g id="line2d_4">
    <path d="M 162.541008 26.744603 
L 162.541008 77.437552 
M 171.52912 77.437552 
L 153.552897 77.437552 
M 171.52912 83.908992 
L 153.552897 83.908992 
M 162.541008 83.908992 
L 162.541008 134.601941 
" clip-path="url(#p08ae7aafef)" style="fill: none; stroke: #000000; stroke-width: 2; stroke-linecap: round"/>
   </g>
   <g id="line2d_5">
    <path d="M 162.541008 134.601941 
L 162.541008 148.982919 
L 153.552897 148.982919 
L 171.52912 148.982919 
M 156.24933 153.297213 
L 168.832686 153.297213 
M 160.743386 157.611506 
L 164.338631 157.611506 
" clip-path="url(#p08ae7aafef)" style="fill: none; stroke: #000000; stroke-width: 2; stroke-linecap: round"/>
   </g>
   <g id="line2d_6">
    <path d="M 162.541008 134.601941 
L 198.493454 134.601941 
M 234.4459 134.601941 
L 270.398346 134.601941 
" clip-path="url(#p08ae7aafef)" style="fill: none; stroke: #000000; stroke-width: 2; stroke-linecap: round"/>
   </g>
   <g id="line2d_7">
    <path d="M 270.398346 134.601941 
L 270.398346 185.29489 
M 279.386458 185.29489 
L 261.410235 185.29489 
M 279.386458 191.76633 
L 261.410235 191.76633 
M 270.398346 191.76633 
L 270.398346 242.459279 
" clip-path="url(#p08ae7aafef)" style="fill: none; stroke: #000000; stroke-width: 2; stroke-linecap: round"/>
   </g>
   <g id="line2d_8">
    <path d="M 270.398346 242.459279 
L 270.398346 256.840257 
L 261.410235 256.840257 
L 279.386458 256.840257 
M 264.106668 261.154551 
L 276.690024 261.154551 
M 268.600724 265.468844 
L 272.195968 265.468844 
" clip-path="url(#p08ae7aafef)" style="fill: none; stroke: #000000; stroke-width: 2; stroke-linecap: round"/>
   </g>
   <g id="line2d_9">
    <path d="M 270.398346 242.459279 
L 324.327015 242.459279 
L 378.255684 242.459279 
" clip-path="url(#p08ae7aafef)" style="fill: none; stroke: #000000; stroke-width: 2; stroke-linecap: round"/>
   </g>
   <g id="line2d_10">
    <path d="M 378.255684 242.459279 
L 378.255684 278.411725 
L 387.243796 281.407762 
L 369.267573 287.399836 
L 387.243796 293.39191 
L 369.267573 299.383985 
L 387.243796 305.376059 
L 369.267573 311.368133 
L 378.255684 314.364171 
L 378.255684 350.316617 
" clip-path="url(#p08ae7aafef)" style="fill: none; stroke: #000000; stroke-width: 2; stroke-linecap: round"/>
   </g>
   <g id="line2d_11">
    <path d="M 378.255684 350.316617 
L 378.255684 364.697595 
L 369.267573 364.697595 
L 387.243796 364.697595 
M 371.964006 369.011889 
L 384.547362 369.011889 
M 376.458062 373.326182 
L 380.053306 373.326182 
" clip-path="url(#p08ae7aafef)" style="fill: none; stroke: #000000; stroke-width: 2; stroke-linecap: round"/>
   </g>
   <g id="text_1">
    <!-- V_in -->
    <g transform="translate(3.773453 84.341709) scale(0.14 -0.14)">
     <defs>
      <path id="DejaVuSans-56" d="M 1831 0 
L 50 4666 
L 709 4666 
L 2188 738 
L 3669 4666 
L 4325 4666 
L 2547 0 
L 1831 0 
z
" transform="scale(0.015625)"/>
      <path id="DejaVuSans-5f" d="M 3263 -1063 
L 3263 -1509 
L -63 -1509 
L -63 -1063 
L 3263 -1063 
z
" transform="scale(0.015625)"/>
      <path id="DejaVuSans-69" d="M 603 3500 
L 1178 3500 
L 1178 0 
L 603 0 
L 603 3500 
z
M 603 4863 
L 1178 4863 
L 1178 4134 
L 603 4134 
L 603 4863 
z
" transform="scale(0.015625)"/>
      <path id="DejaVuSans-6e" d="M 3513 2113 
L 3513 0 
L 2938 0 
L 2938 2094 
Q 2938 2591 2744 2837 
Q 2550 3084 2163 3084 
Q 1697 3084 1428 2787 
Q 1159 2491 1159 1978 
L 1159 0 
L 581 0 
L 581 3500 
L 1159 3500 
L 1159 2956 
Q 1366 3272 1645 3428 
Q 1925 3584 2291 3584 
Q 2894 3584 3203 3211 
Q 3513 2838 3513 2113 
z
" transform="scale(0.015625)"/>
     </defs>
     <use xlink:href="#DejaVuSans-56"/>
     <use xlink:href="#DejaVuSans-5f" transform="translate(68.408203 0)"/>
     <use xlink:href="#DejaVuSans-69" transform="translate(118.408203 0)"/>
     <use xlink:href="#DejaVuSans-6e" transform="translate(146.191406 0)"/>
    </g>
   </g>
   <g id="text_2">
    <!-- L1 -->
    <g transform="translate(100.258277 15.743762) scale(0.14 -0.14)">
     <defs>
      <path id="DejaVuSans-4c" d="M 628 4666 
L 1259 4666 
L 1259 531 
L 3531 531 
L 3531 0 
L 628 0 
L 628 4666 
z
" transform="scale(0.015625)"/>
      <path id="DejaVuSans-31" d="M 794 531 
L 1825 531 
L 1825 4091 
L 703 3866 
L 703 4441 
L 1819 4666 
L 2450 4666 
L 2450 531 
L 3481 531 
L 3481 0 
L 794 0 
L 794 531 
z
" transform="scale(0.015625)"/>
     </defs>
     <use xlink:href="#DejaVuSans-4c"/>
     <use xlink:href="#DejaVuSans-31" transform="translate(55.712891 0)"/>
    </g>
   </g>
   <g id="text_3">
    <!-- C1 -->
    <g transform="translate(131.274215 84.536397) scale(0.14 -0.14)">
     <defs>
      <path id="DejaVuSans-43" d="M 4122 4306 
L 4122 3641 
Q 3803 3938 3442 4084 
Q 3081 4231 2675 4231 
Q 1875 4231 1450 3742 
Q 1025 3253 1025 2328 
Q 1025 1406 1450 917 
Q 1875 428 2675 428 
Q 3081 428 3442 575 
Q 3803 722 4122 1019 
L 4122 359 
Q 3791 134 3420 21 
Q 3050 -91 2638 -91 
Q 1578 -91 968 557 
Q 359 1206 359 2328 
Q 359 3453 968 4101 
Q 1578 4750 2638 4750 
Q 3056 4750 3426 4639 
Q 3797 4528 4122 4306 
z
" transform="scale(0.015625)"/>
     </defs>
     <use xlink:href="#DejaVuSans-43"/>
     <use xlink:href="#DejaVuSans-31" transform="translate(69.824219 0)"/>
    </g>
   </g>
   <g id="text_4">
    <!-- L2 -->
    <g transform="translate(208.115615 123.6011) scale(0.14 -0.14)">
     <defs>
      <path id="DejaVuSans-32" d="M 1228 531 
L 3431 531 
L 3431 0 
L 469 0 
L 469 531 
Q 828 903 1448 1529 
Q 2069 2156 2228 2338 
Q 2531 2678 2651 2914 
Q 2772 3150 2772 3378 
Q 2772 3750 2511 3984 
Q 2250 4219 1831 4219 
Q 1534 4219 1204 4116 
Q 875 4013 500 3803 
L 500 4441 
Q 881 4594 1212 4672 
Q 1544 4750 1819 4750 
Q 2544 4750 2975 4387 
Q 3406 4025 3406 3419 
Q 3406 3131 3298 2873 
Q 3191 2616 2906 2266 
Q 2828 2175 2409 1742 
Q 1991 1309 1228 531 
z
" transform="scale(0.015625)"/>
     </defs>
     <use xlink:href="#DejaVuSans-4c"/>
     <use xlink:href="#DejaVuSans-32" transform="translate(55.712891 0)"/>
    </g>
   </g>
   <g id="text_5">
    <!-- C2 -->
    <g transform="translate(239.131553 192.393735) scale(0.14 -0.14)">
     <use xlink:href="#DejaVuSans-43"/>
     <use xlink:href="#DejaVuSans-32" transform="translate(69.824219 0)"/>
    </g>
   </g>
   <g id="text_6">
    <!-- V_out -->
    <g transform="translate(362.098897 242.337784) scale(0.14 -0.14)">
     <defs>
      <path id="DejaVuSans-6f" d="M 1959 3097 
Q 1497 3097 1228 2736 
Q 959 2375 959 1747 
Q 959 1119 1226 758 
Q 1494 397 1959 397 
Q 2419 397 2687 759 
Q 2956 1122 2956 1747 
Q 2956 2369 2687 2733 
Q 2419 3097 1959 3097 
z
M 1959 3584 
Q 2709 3584 3137 3096 
Q 3566 2609 3566 1747 
Q 3566 888 3137 398 
Q 2709 -91 1959 -91 
Q 1206 -91 779 398 
Q 353 888 353 1747 
Q 353 2609 779 3096 
Q 1206 3584 1959 3584 
z
" transform="scale(0.015625)"/>
      <path id="DejaVuSans-75" d="M 544 1381 
L 544 3500 
L 1119 3500 
L 1119 1403 
Q 1119 906 1312 657 
Q 1506 409 1894 409 
Q 2359 409 2629 706 
Q 2900 1003 2900 1516 
L 2900 3500 
L 3475 3500 
L 3475 0 
L 2900 0 
L 2900 538 
Q 2691 219 2414 64 
Q 2138 -91 1772 -91 
Q 1169 -91 856 284 
Q 544 659 544 1381 
z
M 1991 3584 
L 1991 3584 
z
" transform="scale(0.015625)"/>
      <path id="DejaVuSans-74" d="M 1172 4494 
L 1172 3500 
L 2356 3500 
L 2356 3053 
L 1172 3053 
L 1172 1153 
Q 1172 725 1289 603 
Q 1406 481 1766 481 
L 2356 481 
L 2356 0 
L 1766 0 
Q 1100 0 847 248 
Q 594 497 594 1153 
L 594 3053 
L 172 3053 
L 172 3500 
L 594 3500 
L 594 4494 
L 1172 4494 
z
" transform="scale(0.015625)"/>
     </defs>
     <use xlink:href="#DejaVuSans-56"/>
     <use xlink:href="#DejaVuSans-5f" transform="translate(68.408203 0)"/>
     <use xlink:href="#DejaVuSans-6f" transform="translate(118.408203 0)"/>
     <use xlink:href="#DejaVuSans-75" transform="translate(179.589844 0)"/>
     <use xlink:href="#DejaVuSans-74" transform="translate(242.96875 0)"/>
    </g>
   </g>
   <g id="text_7">
    <!-- R_L -->
    <g transform="translate(341.143891 299.861698) scale(0.14 -0.14)">
     <defs>
      <path id="DejaVuSans-52" d="M 2841 2188 
Q 3044 2119 3236 1894 
Q 3428 1669 3622 1275 
L 4263 0 
L 3584 0 
L 2988 1197 
Q 2756 1666 2539 1819 
Q 2322 1972 1947 1972 
L 1259 1972 
L 1259 0 
L 628 0 
L 628 4666 
L 2053 4666 
Q 2853 4666 3247 4331 
Q 3641 3997 3641 3322 
Q 3641 2881 3436 2590 
Q 3231 2300 2841 2188 
z
M 1259 4147 
L 1259 2491 
L 2053 2491 
Q 2509 2491 2742 2702 
Q 2975 2913 2975 3322 
Q 2975 3731 2742 3939 
Q 2509 4147 2053 4147 
L 1259 4147 
z
" transform="scale(0.015625)"/>
     </defs>
     <use xlink:href="#DejaVuSans-52"/>
     <use xlink:href="#DejaVuSans-5f" transform="translate(69.482422 0)"/>
     <use xlink:href="#DejaVuSans-4c" transform="translate(119.482422 0)"/>
    </g>
   </g>
  </g>
 </g>
 <defs>
  <clipPath id="p08ae7aafef">
   <rect x="0" y="0" width="405.273947" height="378"/>
  </clipPath>
 </defs>
</svg>
