<?xml version="1.0" encoding="utf-8" standalone="no"?>
<!DOCTYPE svg PUBLIC "-//W3C//DTD SVG 1.1//EN"
  "http://www.w3.org/Graphics/SVG/1.1/DTD/svg11.dtd">
<svg xmlns:xlink="http://www.w3.org/1999/xlink" width="414.31275pt" height="279.48pt" viewBox="0 0 414.31275 279.48" xmlns="http://www.w3.org/2000/svg" version="1.1">
 <metadata>
  <rdf:RDF xmlns:dc="http://purl.org/dc/elements/1.1/" xmlns:cc="http://creativecommons.org/ns#" xmlns:rdf="http://www.w3.org/1999/02/22-rdf-syntax-ns#">
   <cc:Work>
    <dc:type rdf:resource="http://purl.org/dc/dcmitype/StillImage"/>
    <dc:date>2025-11-20T19:58:38.569443</dc:date>
    <dc:format>image/svg+xml</dc:format>
    <dc:creator>
     <cc:Agent>
      <dc:title>Matplotlib v3.10.7, https://matplotlib.org/</dc:title>
     </cc:Agent>
    </dc:creator>
   </cc:Work>
  </rdf:RDF>
 </metadata>
 <defs>
  <style type="text/css">*{stroke-linejoin: round; stroke-linecap: butt}</style>
 </defs>
 <g id="figure_1">
  <g id="patch_1">
   <path d="M -0 279.48 
L 414.31275 279.48 
L 414.31275 0 
L -0 0 
z
" style="fill: #ffffff"/>
  </g>
  <g id="axes_1">
   <g id="patch_2">
    <path d="M 133.72875 190.68 
C 138.502406 190.68 143.081188 188.783406 146.456672 185.407922 
C 149.832156 182.032438 151.72875 177.453656 151.72875 172.68 
C 151.72875 167.906344 149.832156 163.327562 146.456672 159.952078 
C 143.081188 156.576594 138.502406 154.68 133.72875 154.68 
C 128.955094 154.68 124.376312 156.576594 121.000828 159.952078 
C 117.625344 163.327562 115.72875 167.906344 115.72875 172.68 
C 115.72875 177.453656 117.625344 182.032438 121.000828 185.407922 
C 124.376312 188.783406 128.955094 190.68 133.72875 190.68 
L 133.72875 190.68 
z
" clip-path="url(#p03ba9bc618)" style="fill: none; stroke: #000000; stroke-width: 2; stroke-linejoin: miter"/>
   </g>
   <g id="line2d_1">
    <path d="M 169.72875 10.68 
L 277.72875 10.68 
L 385.72875 10.68 
" clip-path="url(#p03ba9bc618)" style="fill: none; stroke: #000000; stroke-width: 2; stroke-linecap: round"/>
   </g>
   <g id="line2d_2">
    <path d="M 241.72875 10.68 
L 241.72875 46.68 
L 250.72875 49.68 
L 232.72875 55.68 
L 250.72875 61.68 
L 232.72875 67.68 
L 250.72875 73.68 
L 232.72875 79.68 
L 241.72875 82.68 
L 241.72875 118.68 
" clip-path="url(#p03ba9bc618)" style="fill: none; stroke: #000000; stroke-width: 2; stroke-linecap: round"/>
   </g>
   <g id="line2d_3">
    <path d="M 241.72875 118.68 
L 241.72875 154.68 
L 250.72875 157.68 
L 232.72875 163.68 
L 250.72875 169.68 
L 232.72875 175.68 
L 250.72875 181.68 
L 232.72875 187.68 
L 241.72875 190.68 
L 241.72875 226.68 
" clip-path="url(#p03ba9bc618)" style="fill: none; stroke: #000000; stroke-width: 2; stroke-linecap: round"/>
   </g>
   <g id="line2d_4">
    <path d="M 241.72875 226.68 
L 241.72875 241.08 
L 232.72875 241.08 
L 250.72875 241.08 
M 235.42875 245.4 
L 248.02875 245.4 
M 239.92875 249.72 
L 243.52875 249.72 
" clip-path="url(#p03ba9bc618)" style="fill: none; stroke: #000000; stroke-width: 2; stroke-linecap: round"/>
   </g>
   <g id="line2d_5">
    <path d="M 241.72875 118.68 
L 190.96875 118.68 
M 190.96875 127.68 
L 190.96875 109.68 
M 184.48875 127.68 
L 184.48875 109.68 
M 184.48875 118.68 
L 133.72875 118.68 
" clip-path="url(#p03ba9bc618)" style="fill: none; stroke: #000000; stroke-width: 2; stroke-linecap: round"/>
   </g>
   <g id="line2d_6">
    <path d="M 133.72875 118.68 
L 133.72875 154.68 
L 133.72875 154.68 
M 133.72875 190.68 
L 133.72875 190.68 
L 133.72875 226.68 
" clip-path="url(#p03ba9bc618)" style="fill: none; stroke: #000000; stroke-width: 2; stroke-linecap: round"/>
   </g>
   <g id="line2d_7">
    <path d="M 124.72875 172.68 
L 125.47875 174.543497 
L 126.22875 176.28 
L 126.97875 177.771169 
L 127.72875 178.915383 
L 128.47875 179.634666 
L 129.22875 179.88 
L 129.97875 179.634666 
L 130.72875 178.915383 
L 131.47875 177.771169 
L 132.22875 176.28 
L 132.97875 174.543497 
L 133.72875 172.68 
L 134.47875 170.816503 
L 135.22875 169.08 
L 135.97875 167.588831 
L 136.72875 166.444617 
L 137.47875 165.725334 
L 138.22875 165.48 
L 138.97875 165.725334 
L 139.72875 166.444617 
L 140.47875 167.588831 
L 141.22875 169.08 
L 141.97875 170.816503 
L 142.72875 172.68 
" clip-path="url(#p03ba9bc618)" style="fill: none; stroke: #000000; stroke-width: 2; stroke-linecap: round"/>
   </g>
   <g id="line2d_8">
    <path d="M 133.72875 226.68 
L 133.72875 241.08 
L 124.72875 241.08 
L 142.72875 241.08 
M 127.42875 245.4 
L 140.02875 245.4 
M 131.92875 249.72 
L 135.52875 249.72 
" clip-path="url(#p03ba9bc618)" style="fill: none; stroke: #000000; stroke-width: 2; stroke-linecap: round"/>
   </g>
   <g id="line2d_9">
    <path d="M 241.72875 118.68 
L 254.92875 118.68 
" clip-path="url(#p03ba9bc618)" style="fill: none; stroke: #000000; stroke-width: 2; stroke-linecap: round"/>
   </g>
   <g id="line2d_10">
    <path d="M 254.92875 105.48 
L 254.92875 131.88 
" clip-path="url(#p03ba9bc618)" style="fill: none; stroke: #000000; stroke-width: 2; stroke-linecap: round"/>
   </g>
   <g id="line2d_11">
    <path d="M 254.92875 112.08 
L 268.78875 100.2 
L 268.78875 93.6 
" clip-path="url(#p03ba9bc618)" style="fill: none; stroke: #000000; stroke-width: 2; stroke-linecap: round"/>
   </g>
   <g id="line2d_12">
    <path d="M 254.92875 125.28 
L 268.78875 137.16 
L 268.78875 143.76 
" clip-path="url(#p03ba9bc618)" style="fill: none; stroke: #000000; stroke-width: 2; stroke-linecap: round"/>
   </g>
   <g id="line2d_13">
    <path d="M 254.92875 125.28 
L 261.955441 131.302878 
" clip-path="url(#p03ba9bc618)" style="fill: none; stroke: #000000; stroke-width: 2; stroke-linecap: round"/>
   </g>
   <g id="patch_3">
    <path d="M 264.29829 128.569554 
L 268.78875 137.16 
L 259.612592 134.036201 
z
" clip-path="url(#p03ba9bc618)"/>
   </g>
   <g id="line2d_14">
    <path d="M 268.78875 143.76 
L 268.78875 179.76 
L 277.78875 182.76 
L 259.78875 188.76 
L 277.78875 194.76 
L 259.78875 200.76 
L 277.78875 206.76 
L 259.78875 212.76 
L 268.78875 215.76 
L 268.78875 251.76 
" clip-path="url(#p03ba9bc618)" style="fill: none; stroke: #000000; stroke-width: 2; stroke-linecap: round"/>
   </g>
   <g id="line2d_15">
    <path d="M 268.78875 251.76 
L 268.78875 266.16 
L 259.78875 266.16 
L 277.78875 266.16 
M 262.48875 270.48 
L 275.08875 270.48 
M 266.98875 274.8 
L 270.58875 274.8 
" clip-path="url(#p03ba9bc618)" style="fill: none; stroke: #000000; stroke-width: 2; stroke-linecap: round"/>
   </g>
   <g id="line2d_16">
    <path d="M 268.78875 143.76 
L 286.78875 143.76 
L 304.78875 143.76 
" clip-path="url(#p03ba9bc618)" style="fill: none; stroke: #000000; stroke-width: 2; stroke-linecap: round"/>
   </g>
   <g id="line2d_17">
    <path d="M 304.78875 143.76 
L 304.78875 194.52 
M 313.78875 194.52 
L 295.78875 194.52 
M 313.78875 201 
L 295.78875 201 
M 304.78875 201 
L 304.78875 251.76 
" clip-path="url(#p03ba9bc618)" style="fill: none; stroke: #000000; stroke-width: 2; stroke-linecap: round"/>
   </g>
   <g id="line2d_18">
    <path d="M 304.78875 251.76 
L 304.78875 266.16 
L 295.78875 266.16 
L 313.78875 266.16 
M 298.48875 270.48 
L 311.08875 270.48 
M 302.98875 274.8 
L 306.58875 274.8 
" clip-path="url(#p03ba9bc618)" style="fill: none; stroke: #000000; stroke-width: 2; stroke-linecap: round"/>
   </g>
   <g id="line2d_19">
    <path d="M 268.78875 93.6 
L 268.78875 70.14 
L 259.78875 67.14 
L 277.78875 61.14 
L 259.78875 55.14 
L 277.78875 49.14 
L 259.78875 43.14 
L 277.78875 37.14 
L 268.78875 34.14 
L 268.78875 10.68 
" clip-path="url(#p03ba9bc618)" style="fill: none; stroke: #000000; stroke-width: 2; stroke-linecap: round"/>
   </g>
   <g id="line2d_20">
    <path d="M 268.78875 93.6 
L 319.54875 93.6 
M 319.54875 84.6 
L 319.54875 102.6 
M 326.02875 84.6 
L 326.02875 102.6 
M 326.02875 93.6 
L 376.78875 93.6 
" clip-path="url(#p03ba9bc618)" style="fill: none; stroke: #000000; stroke-width: 2; stroke-linecap: round"/>
   </g>
   <g id="line2d_21">
    <path d="M 376.78875 93.6 
L 376.78875 129.6 
L 385.78875 132.6 
L 367.78875 138.6 
L 385.78875 144.6 
L 367.78875 150.6 
L 385.78875 156.6 
L 367.78875 162.6 
L 376.78875 165.6 
L 376.78875 201.6 
" clip-path="url(#p03ba9bc618)" style="fill: none; stroke: #000000; stroke-width: 2; stroke-linecap: round"/>
   </g>
   <g id="line2d_22">
    <path d="M 376.78875 201.6 
L 376.78875 216 
L 367.78875 216 
L 385.78875 216 
M 370.48875 220.32 
L 383.08875 220.32 
M 374.98875 224.64 
L 378.58875 224.64 
" clip-path="url(#p03ba9bc618)" style="fill: none; stroke: #000000; stroke-width: 2; stroke-linecap: round"/>
   </g>
   <g id="line2d_23">
    <path d="M 268.78875 93.6 
L 286.78875 93.6 
L 304.78875 93.6 
" clip-path="url(#p03ba9bc618)" style="fill: none; stroke: #000000; stroke-width: 2; stroke-linecap: round"/>
   </g>
   <g id="text_1">
    <!-- Vcc -->
    <g transform="translate(389.32875 13.99125) scale(0.12 -0.12)">
     <defs>
      <path id="DejaVuSans-56" d="M 1831 0 
L 50 4666 
L 709 4666 
L 2188 738 
L 3669 4666 
L 4325 4666 
L 2547 0 
L 1831 0 
z
" transform="scale(0.015625)"/>
      <path id="DejaVuSans-63" d="M 3122 3366 
L 3122 2828 
Q 2878 2963 2633 3030 
Q 2388 3097 2138 3097 
Q 1578 3097 1268 2742 
Q 959 2388 959 1747 
Q 959 1106 1268 751 
Q 1578 397 2138 397 
Q 2388 397 2633 464 
Q 2878 531 3122 666 
L 3122 134 
Q 2881 22 2623 -34 
Q 2366 -91 2075 -91 
Q 1284 -91 818 406 
Q 353 903 353 1747 
Q 353 2603 823 3093 
Q 1294 3584 2113 3584 
Q 2378 3584 2631 3529 
Q 2884 3475 3122 3366 
z
" transform="scale(0.015625)"/>
     </defs>
     <use xlink:href="#DejaVuSans-56"/>
     <use xlink:href="#DejaVuSans-63" transform="translate(68.408203 0)"/>
     <use xlink:href="#DejaVuSans-63" transform="translate(123.388672 0)"/>
    </g>
   </g>
   <g id="text_2">
    <!-- R1 -->
    <g transform="translate(213.155625 67.99125) scale(0.12 -0.12)">
     <defs>
      <path id="DejaVuSans-52" d="M 2841 2188 
Q 3044 2119 3236 1894 
Q 3428 1669 3622 1275 
L 4263 0 
L 3584 0 
L 2988 1197 
Q 2756 1666 2539 1819 
Q 2322 1972 1947 1972 
L 1259 1972 
L 1259 0 
L 628 0 
L 628 4666 
L 2053 4666 
Q 2853 4666 3247 4331 
Q 3641 3997 3641 3322 
Q 3641 2881 3436 2590 
Q 3231 2300 2841 2188 
z
M 1259 4147 
L 1259 2491 
L 2053 2491 
Q 2509 2491 2742 2702 
Q 2975 2913 2975 3322 
Q 2975 3731 2742 3939 
Q 2509 4147 2053 4147 
L 1259 4147 
z
" transform="scale(0.015625)"/>
      <path id="DejaVuSans-31" d="M 794 531 
L 1825 531 
L 1825 4091 
L 703 3866 
L 703 4441 
L 1819 4666 
L 2450 4666 
L 2450 531 
L 3481 531 
L 3481 0 
L 794 0 
L 794 531 
z
" transform="scale(0.015625)"/>
     </defs>
     <use xlink:href="#DejaVuSans-52"/>
     <use xlink:href="#DejaVuSans-31" transform="translate(69.482422 0)"/>
    </g>
   </g>
   <g id="text_3">
    <!-- R2 -->
    <g transform="translate(213.155625 175.99125) scale(0.12 -0.12)">
     <defs>
      <path id="DejaVuSans-32" d="M 1228 531 
L 3431 531 
L 3431 0 
L 469 0 
L 469 531 
Q 828 903 1448 1529 
Q 2069 2156 2228 2338 
Q 2531 2678 2651 2914 
Q 2772 3150 2772 3378 
Q 2772 3750 2511 3984 
Q 2250 4219 1831 4219 
Q 1534 4219 1204 4116 
Q 875 4013 500 3803 
L 500 4441 
Q 881 4594 1212 4672 
Q 1544 4750 1819 4750 
Q 2544 4750 2975 4387 
Q 3406 4025 3406 3419 
Q 3406 3131 3298 2873 
Q 3191 2616 2906 2266 
Q 2828 2175 2409 1742 
Q 1991 1309 1228 531 
z
" transform="scale(0.015625)"/>
     </defs>
     <use xlink:href="#DejaVuSans-52"/>
     <use xlink:href="#DejaVuSans-32" transform="translate(69.482422 0)"/>
    </g>
   </g>
   <g id="text_4">
    <!-- Cin -->
    <g transform="translate(178.069687 103.584375) scale(0.12 -0.12)">
     <defs>
      <path id="DejaVuSans-43" d="M 4122 4306 
L 4122 3641 
Q 3803 3938 3442 4084 
Q 3081 4231 2675 4231 
Q 1875 4231 1450 3742 
Q 1025 3253 1025 2328 
Q 1025 1406 1450 917 
Q 1875 428 2675 428 
Q 3081 428 3442 575 
Q 3803 722 4122 1019 
L 4122 359 
Q 3791 134 3420 21 
Q 3050 -91 2638 -91 
Q 1578 -91 968 557 
Q 359 1206 359 2328 
Q 359 3453 968 4101 
Q 1578 4750 2638 4750 
Q 3056 4750 3426 4639 
Q 3797 4528 4122 4306 
z
" transform="scale(0.015625)"/>
      <path id="DejaVuSans-69" d="M 603 3500 
L 1178 3500 
L 1178 0 
L 603 0 
L 603 3500 
z
M 603 4863 
L 1178 4863 
L 1178 4134 
L 603 4134 
L 603 4863 
z
" transform="scale(0.015625)"/>
      <path id="DejaVuSans-6e" d="M 3513 2113 
L 3513 0 
L 2938 0 
L 2938 2094 
Q 2938 2591 2744 2837 
Q 2550 3084 2163 3084 
Q 1697 3084 1428 2787 
Q 1159 2491 1159 1978 
L 1159 0 
L 581 0 
L 581 3500 
L 1159 3500 
L 1159 2956 
Q 1366 3272 1645 3428 
Q 1925 3584 2291 3584 
Q 2894 3584 3203 3211 
Q 3513 2838 3513 2113 
z
" transform="scale(0.015625)"/>
     </defs>
     <use xlink:href="#DejaVuSans-43"/>
     <use xlink:href="#DejaVuSans-69" transform="translate(69.824219 0)"/>
     <use xlink:href="#DejaVuSans-6e" transform="translate(97.607422 0)"/>
    </g>
   </g>
   <g id="text_5">
    <!-- Vin -->
    <g transform="translate(93.25125 170.184375) scale(0.12 -0.12)">
     <use xlink:href="#DejaVuSans-56"/>
     <use xlink:href="#DejaVuSans-69" transform="translate(66.158203 0)"/>
     <use xlink:href="#DejaVuSans-6e" transform="translate(93.941406 0)"/>
    </g>
    <!-- (Segnale Ingresso) -->
    <g transform="translate(-0 181.798125) scale(0.12 -0.12)">
     <defs>
      <path id="DejaVuSans-28" d="M 1984 4856 
Q 1566 4138 1362 3434 
Q 1159 2731 1159 2009 
Q 1159 1288 1364 580 
Q 1569 -128 1984 -844 
L 1484 -844 
Q 1016 -109 783 600 
Q 550 1309 550 2009 
Q 550 2706 781 3412 
Q 1013 4119 1484 4856 
L 1984 4856 
z
" transform="scale(0.015625)"/>
      <path id="DejaVuSans-53" d="M 3425 4513 
L 3425 3897 
Q 3066 4069 2747 4153 
Q 2428 4238 2131 4238 
Q 1616 4238 1336 4038 
Q 1056 3838 1056 3469 
Q 1056 3159 1242 3001 
Q 1428 2844 1947 2747 
L 2328 2669 
Q 3034 2534 3370 2195 
Q 3706 1856 3706 1288 
Q 3706 609 3251 259 
Q 2797 -91 1919 -91 
Q 1588 -91 1214 -16 
Q 841 59 441 206 
L 441 856 
Q 825 641 1194 531 
Q 1563 422 1919 422 
Q 2459 422 2753 634 
Q 3047 847 3047 1241 
Q 3047 1584 2836 1778 
Q 2625 1972 2144 2069 
L 1759 2144 
Q 1053 2284 737 2584 
Q 422 2884 422 3419 
Q 422 4038 858 4394 
Q 1294 4750 2059 4750 
Q 2388 4750 2728 4690 
Q 3069 4631 3425 4513 
z
" transform="scale(0.015625)"/>
      <path id="DejaVuSans-65" d="M 3597 1894 
L 3597 1613 
L 953 1613 
Q 991 1019 1311 708 
Q 1631 397 2203 397 
Q 2534 397 2845 478 
Q 3156 559 3463 722 
L 3463 178 
Q 3153 47 2828 -22 
Q 2503 -91 2169 -91 
Q 1331 -91 842 396 
Q 353 884 353 1716 
Q 353 2575 817 3079 
Q 1281 3584 2069 3584 
Q 2775 3584 3186 3129 
Q 3597 2675 3597 1894 
z
M 3022 2063 
Q 3016 2534 2758 2815 
Q 2500 3097 2075 3097 
Q 1594 3097 1305 2825 
Q 1016 2553 972 2059 
L 3022 2063 
z
" transform="scale(0.015625)"/>
      <path id="DejaVuSans-67" d="M 2906 1791 
Q 2906 2416 2648 2759 
Q 2391 3103 1925 3103 
Q 1463 3103 1205 2759 
Q 947 2416 947 1791 
Q 947 1169 1205 825 
Q 1463 481 1925 481 
Q 2391 481 2648 825 
Q 2906 1169 2906 1791 
z
M 3481 434 
Q 3481 -459 3084 -895 
Q 2688 -1331 1869 -1331 
Q 1566 -1331 1297 -1286 
Q 1028 -1241 775 -1147 
L 775 -588 
Q 1028 -725 1275 -790 
Q 1522 -856 1778 -856 
Q 2344 -856 2625 -561 
Q 2906 -266 2906 331 
L 2906 616 
Q 2728 306 2450 153 
Q 2172 0 1784 0 
Q 1141 0 747 490 
Q 353 981 353 1791 
Q 353 2603 747 3093 
Q 1141 3584 1784 3584 
Q 2172 3584 2450 3431 
Q 2728 3278 2906 2969 
L 2906 3500 
L 3481 3500 
L 3481 434 
z
" transform="scale(0.015625)"/>
      <path id="DejaVuSans-61" d="M 2194 1759 
Q 1497 1759 1228 1600 
Q 959 1441 959 1056 
Q 959 750 1161 570 
Q 1363 391 1709 391 
Q 2188 391 2477 730 
Q 2766 1069 2766 1631 
L 2766 1759 
L 2194 1759 
z
M 3341 1997 
L 3341 0 
L 2766 0 
L 2766 531 
Q 2569 213 2275 61 
Q 1981 -91 1556 -91 
Q 1019 -91 701 211 
Q 384 513 384 1019 
Q 384 1609 779 1909 
Q 1175 2209 1959 2209 
L 2766 2209 
L 2766 2266 
Q 2766 2663 2505 2880 
Q 2244 3097 1772 3097 
Q 1472 3097 1187 3025 
Q 903 2953 641 2809 
L 641 3341 
Q 956 3463 1253 3523 
Q 1550 3584 1831 3584 
Q 2591 3584 2966 3190 
Q 3341 2797 3341 1997 
z
" transform="scale(0.015625)"/>
      <path id="DejaVuSans-6c" d="M 603 4863 
L 1178 4863 
L 1178 0 
L 603 0 
L 603 4863 
z
" transform="scale(0.015625)"/>
      <path id="DejaVuSans-20" transform="scale(0.015625)"/>
      <path id="DejaVuSans-49" d="M 628 4666 
L 1259 4666 
L 1259 0 
L 628 0 
L 628 4666 
z
" transform="scale(0.015625)"/>
      <path id="DejaVuSans-72" d="M 2631 2963 
Q 2534 3019 2420 3045 
Q 2306 3072 2169 3072 
Q 1681 3072 1420 2755 
Q 1159 2438 1159 1844 
L 1159 0 
L 581 0 
L 581 3500 
L 1159 3500 
L 1159 2956 
Q 1341 3275 1631 3429 
Q 1922 3584 2338 3584 
Q 2397 3584 2469 3576 
Q 2541 3569 2628 3553 
L 2631 2963 
z
" transform="scale(0.015625)"/>
      <path id="DejaVuSans-73" d="M 2834 3397 
L 2834 2853 
Q 2591 2978 2328 3040 
Q 2066 3103 1784 3103 
Q 1356 3103 1142 2972 
Q 928 2841 928 2578 
Q 928 2378 1081 2264 
Q 1234 2150 1697 2047 
L 1894 2003 
Q 2506 1872 2764 1633 
Q 3022 1394 3022 966 
Q 3022 478 2636 193 
Q 2250 -91 1575 -91 
Q 1294 -91 989 -36 
Q 684 19 347 128 
L 347 722 
Q 666 556 975 473 
Q 1284 391 1588 391 
Q 1994 391 2212 530 
Q 2431 669 2431 922 
Q 2431 1156 2273 1281 
Q 2116 1406 1581 1522 
L 1381 1569 
Q 847 1681 609 1914 
Q 372 2147 372 2553 
Q 372 3047 722 3315 
Q 1072 3584 1716 3584 
Q 2034 3584 2315 3537 
Q 2597 3491 2834 3397 
z
" transform="scale(0.015625)"/>
      <path id="DejaVuSans-6f" d="M 1959 3097 
Q 1497 3097 1228 2736 
Q 959 2375 959 1747 
Q 959 1119 1226 758 
Q 1494 397 1959 397 
Q 2419 397 2687 759 
Q 2956 1122 2956 1747 
Q 2956 2369 2687 2733 
Q 2419 3097 1959 3097 
z
M 1959 3584 
Q 2709 3584 3137 3096 
Q 3566 2609 3566 1747 
Q 3566 888 3137 398 
Q 2709 -91 1959 -91 
Q 1206 -91 779 398 
Q 353 888 353 1747 
Q 353 2609 779 3096 
Q 1206 3584 1959 3584 
z
" transform="scale(0.015625)"/>
      <path id="DejaVuSans-29" d="M 513 4856 
L 1013 4856 
Q 1481 4119 1714 3412 
Q 1947 2706 1947 2009 
Q 1947 1309 1714 600 
Q 1481 -109 1013 -844 
L 513 -844 
Q 928 -128 1133 580 
Q 1338 1288 1338 2009 
Q 1338 2731 1133 3434 
Q 928 4138 513 4856 
z
" transform="scale(0.015625)"/>
     </defs>
     <use xlink:href="#DejaVuSans-28"/>
     <use xlink:href="#DejaVuSans-53" transform="translate(39.013672 0)"/>
     <use xlink:href="#DejaVuSans-65" transform="translate(102.490234 0)"/>
     <use xlink:href="#DejaVuSans-67" transform="translate(164.013672 0)"/>
     <use xlink:href="#DejaVuSans-6e" transform="translate(227.490234 0)"/>
     <use xlink:href="#DejaVuSans-61" transform="translate(290.869141 0)"/>
     <use xlink:href="#DejaVuSans-6c" transform="translate(352.148438 0)"/>
     <use xlink:href="#DejaVuSans-65" transform="translate(379.931641 0)"/>
     <use xlink:href="#DejaVuSans-20" transform="translate(441.455078 0)"/>
     <use xlink:href="#DejaVuSans-49" transform="translate(473.242188 0)"/>
     <use xlink:href="#DejaVuSans-6e" transform="translate(502.734375 0)"/>
     <use xlink:href="#DejaVuSans-67" transform="translate(566.113281 0)"/>
     <use xlink:href="#DejaVuSans-72" transform="translate(629.589844 0)"/>
     <use xlink:href="#DejaVuSans-65" transform="translate(668.453125 0)"/>
     <use xlink:href="#DejaVuSans-73" transform="translate(729.976562 0)"/>
     <use xlink:href="#DejaVuSans-73" transform="translate(782.076172 0)"/>
     <use xlink:href="#DejaVuSans-6f" transform="translate(834.175781 0)"/>
     <use xlink:href="#DejaVuSans-29" transform="translate(895.357422 0)"/>
    </g>
   </g>
   <g id="text_6">
    <!-- Q1 -->
    <g transform="translate(272.38875 122.29125) scale(0.12 -0.12)">
     <defs>
      <path id="DejaVuSans-51" d="M 2522 4238 
Q 1834 4238 1429 3725 
Q 1025 3213 1025 2328 
Q 1025 1447 1429 934 
Q 1834 422 2522 422 
Q 3209 422 3611 934 
Q 4013 1447 4013 2328 
Q 4013 3213 3611 3725 
Q 3209 4238 2522 4238 
z
M 3406 84 
L 4238 -825 
L 3475 -825 
L 2784 -78 
Q 2681 -84 2626 -87 
Q 2572 -91 2522 -91 
Q 1538 -91 948 567 
Q 359 1225 359 2328 
Q 359 3434 948 4092 
Q 1538 4750 2522 4750 
Q 3503 4750 4090 4092 
Q 4678 3434 4678 2328 
Q 4678 1516 4351 937 
Q 4025 359 3406 84 
z
" transform="scale(0.015625)"/>
     </defs>
     <use xlink:href="#DejaVuSans-51"/>
     <use xlink:href="#DejaVuSans-31" transform="translate(78.710938 0)"/>
    </g>
   </g>
   <g id="text_7">
    <!-- Re -->
    <g transform="translate(241.006875 201.07125) scale(0.12 -0.12)">
     <use xlink:href="#DejaVuSans-52"/>
     <use xlink:href="#DejaVuSans-65" transform="translate(64.982422 0)"/>
    </g>
   </g>
   <g id="text_8">
    <!-- Ce -->
    <g transform="translate(276.425625 201.07125) scale(0.12 -0.12)">
     <use xlink:href="#DejaVuSans-43"/>
     <use xlink:href="#DejaVuSans-65" transform="translate(69.824219 0)"/>
    </g>
   </g>
   <g id="text_9">
    <!-- Rc -->
    <g transform="translate(241.2525 55.45125) scale(0.12 -0.12)">
     <use xlink:href="#DejaVuSans-52"/>
     <use xlink:href="#DejaVuSans-63" transform="translate(69.482422 0)"/>
    </g>
   </g>
   <g id="text_10">
    <!-- Cout -->
    <g transform="translate(308.773125 78.504375) scale(0.12 -0.12)">
     <defs>
      <path id="DejaVuSans-75" d="M 544 1381 
L 544 3500 
L 1119 3500 
L 1119 1403 
Q 1119 906 1312 657 
Q 1506 409 1894 409 
Q 2359 409 2629 706 
Q 2900 1003 2900 1516 
L 2900 3500 
L 3475 3500 
L 3475 0 
L 2900 0 
L 2900 538 
Q 2691 219 2414 64 
Q 2138 -91 1772 -91 
Q 1169 -91 856 284 
Q 544 659 544 1381 
z
M 1991 3584 
L 1991 3584 
z
" transform="scale(0.015625)"/>
      <path id="DejaVuSans-74" d="M 1172 4494 
L 1172 3500 
L 2356 3500 
L 2356 3053 
L 1172 3053 
L 1172 1153 
Q 1172 725 1289 603 
Q 1406 481 1766 481 
L 2356 481 
L 2356 0 
L 1766 0 
Q 1100 0 847 248 
Q 594 497 594 1153 
L 594 3053 
L 172 3053 
L 172 3500 
L 594 3500 
L 594 4494 
L 1172 4494 
z
" transform="scale(0.015625)"/>
     </defs>
     <use xlink:href="#DejaVuSans-43"/>
     <use xlink:href="#DejaVuSans-6f" transform="translate(69.824219 0)"/>
     <use xlink:href="#DejaVuSans-75" transform="translate(131.005859 0)"/>
     <use xlink:href="#DejaVuSans-74" transform="translate(194.384766 0)"/>
    </g>
   </g>
   <g id="text_11">
    <!-- RL -->
    <g transform="translate(349.164375 150.91125) scale(0.12 -0.12)">
     <defs>
      <path id="DejaVuSans-4c" d="M 628 4666 
L 1259 4666 
L 1259 531 
L 3531 531 
L 3531 0 
L 628 0 
L 628 4666 
z
" transform="scale(0.015625)"/>
     </defs>
     <use xlink:href="#DejaVuSans-52"/>
     <use xlink:href="#DejaVuSans-4c" transform="translate(69.482422 0)"/>
    </g>
   </g>
   <g id="text_12">
    <!-- Vout -->
    <g transform="translate(308.38875 91.104375) scale(0.12 -0.12)">
     <use xlink:href="#DejaVuSans-56"/>
     <use xlink:href="#DejaVuSans-6f" transform="translate(60.658203 0)"/>
     <use xlink:href="#DejaVuSans-75" transform="translate(121.839844 0)"/>
     <use xlink:href="#DejaVuSans-74" transform="translate(185.21875 0)"/>
    </g>
    <!-- (Segnale Uscita) -->
    <g transform="translate(308.38875 102.718125) scale(0.12 -0.12)">
     <defs>
      <path id="DejaVuSans-55" d="M 556 4666 
L 1191 4666 
L 1191 1831 
Q 1191 1081 1462 751 
Q 1734 422 2344 422 
Q 2950 422 3222 751 
Q 3494 1081 3494 1831 
L 3494 4666 
L 4128 4666 
L 4128 1753 
Q 4128 841 3676 375 
Q 3225 -91 2344 -91 
Q 1459 -91 1007 375 
Q 556 841 556 1753 
L 556 4666 
z
" transform="scale(0.015625)"/>
     </defs>
     <use xlink:href="#DejaVuSans-28"/>
     <use xlink:href="#DejaVuSans-53" transform="translate(39.013672 0)"/>
     <use xlink:href="#DejaVuSans-65" transform="translate(102.490234 0)"/>
     <use xlink:href="#DejaVuSans-67" transform="translate(164.013672 0)"/>
     <use xlink:href="#DejaVuSans-6e" transform="translate(227.490234 0)"/>
     <use xlink:href="#DejaVuSans-61" transform="translate(290.869141 0)"/>
     <use xlink:href="#DejaVuSans-6c" transform="translate(352.148438 0)"/>
     <use xlink:href="#DejaVuSans-65" transform="translate(379.931641 0)"/>
     <use xlink:href="#DejaVuSans-20" transform="translate(441.455078 0)"/>
     <use xlink:href="#DejaVuSans-55" transform="translate(473.242188 0)"/>
     <use xlink:href="#DejaVuSans-73" transform="translate(546.435547 0)"/>
     <use xlink:href="#DejaVuSans-63" transform="translate(598.535156 0)"/>
     <use xlink:href="#DejaVuSans-69" transform="translate(653.515625 0)"/>
     <use xlink:href="#DejaVuSans-74" transform="translate(681.298828 0)"/>
     <use xlink:href="#DejaVuSans-61" transform="translate(720.507812 0)"/>
     <use xlink:href="#DejaVuSans-29" transform="translate(781.787109 0)"/>
    </g>
   </g>
  </g>
 </g>
 <defs>
  <clipPath id="p03ba9bc618">
   <rect x="3.69675" y="0" width="410.616" height="279.48"/>
  </clipPath>
 </defs>
</svg>
