<?xml version="1.0" encoding="utf-8" standalone="no"?>
<!DOCTYPE svg PUBLIC "-//W3C//DTD SVG 1.1//EN"
  "http://www.w3.org/Graphics/SVG/1.1/DTD/svg11.dtd">
<svg xmlns:xlink="http://www.w3.org/1999/xlink" width="433.379476pt" height="310.32pt" viewBox="0 0 433.379476 310.32" xmlns="http://www.w3.org/2000/svg" version="1.1">
 <metadata>
  <rdf:RDF xmlns:dc="http://purl.org/dc/elements/1.1/" xmlns:cc="http://creativecommons.org/ns#" xmlns:rdf="http://www.w3.org/1999/02/22-rdf-syntax-ns#">
   <cc:Work>
    <dc:type rdf:resource="http://purl.org/dc/dcmitype/StillImage"/>
    <dc:date>2025-11-21T22:37:41.650045</dc:date>
    <dc:format>image/svg+xml</dc:format>
    <dc:creator>
     <cc:Agent>
      <dc:title>Matplotlib v3.10.7, https://matplotlib.org/</dc:title>
     </cc:Agent>
    </dc:creator>
   </cc:Work>
  </rdf:RDF>
 </metadata>
 <defs>
  <style type="text/css">*{stroke-linejoin: round; stroke-linecap: butt}</style>
 </defs>
 <g id="figure_1">
  <g id="patch_1">
   <path d="M -0 310.32 
L 433.379476 310.32 
L 433.379476 0 
L -0 0 
L -0 310.32 
z
" style="fill: none"/>
  </g>
  <g id="axes_1">
   <g id="patch_2">
    <path d="M 92.047147 138.975465 
C 96.810365 138.975465 101.379135 137.083018 104.747239 133.714914 
C 108.115343 130.34681 110.00779 125.77804 110.00779 121.014822 
C 110.00779 116.251604 108.115343 111.682833 104.747239 108.314729 
C 101.379135 104.946625 96.810365 103.054179 92.047147 103.054179 
C 87.283928 103.054179 82.715158 104.946625 79.347054 108.314729 
C 75.97895 111.682833 74.086504 116.251604 74.086504 121.014822 
C 74.086504 125.77804 75.97895 130.34681 79.347054 133.714914 
C 82.715158 137.083018 87.283928 138.975465 92.047147 138.975465 
L 92.047147 138.975465 
z
" clip-path="url(#pe90bde5626)" style="fill: none; stroke: #000000; stroke-width: 2; stroke-linejoin: miter"/>
   </g>
   <g id="patch_3">
    <path d="M 277.582871 138.975465 
C 282.346089 138.975465 286.91486 137.083018 290.282964 133.714914 
C 293.651068 130.34681 295.543514 125.77804 295.543514 121.014822 
C 295.543514 116.251604 293.651068 111.682833 290.282964 108.314729 
C 286.91486 104.946625 282.346089 103.054179 277.582871 103.054179 
C 272.819653 103.054179 268.250883 104.946625 264.882779 108.314729 
C 261.514675 111.682833 259.622228 116.251604 259.622228 121.014822 
C 259.622228 125.77804 261.514675 130.34681 264.882779 133.714914 
C 268.250883 137.083018 272.819653 138.975465 277.582871 138.975465 
L 277.582871 138.975465 
z
" clip-path="url(#pe90bde5626)" style="fill: none; stroke: #000000; stroke-width: 2; stroke-linejoin: miter"/>
   </g>
   <g id="line2d_1">
    <path d="M 92.047147 174.896751 
L 92.047147 138.975465 
L 92.047147 138.975465 
M 92.047147 103.054179 
L 92.047147 103.054179 
L 92.047147 67.132893 
" clip-path="url(#pe90bde5626)" style="fill: none; stroke: #000000; stroke-width: 2; stroke-linecap: round"/>
   </g>
   <g id="line2d_2">
    <path d="M 101.027468 121.014822 
L 100.279108 119.155399 
L 99.530748 117.422693 
L 98.782388 115.934785 
L 98.034028 114.793073 
L 97.285668 114.075362 
L 96.537307 113.830565 
L 95.788947 114.075362 
L 95.040587 114.793073 
L 94.292227 115.934785 
L 93.543867 117.422693 
L 92.795507 119.155399 
L 92.047147 121.014822 
L 91.298787 122.874244 
L 90.550426 124.60695 
L 89.802066 126.094859 
L 89.053706 127.236571 
L 88.305346 127.954281 
L 87.556986 128.199079 
L 86.808626 127.954281 
L 86.060266 127.236571 
L 85.311906 126.094859 
L 84.563545 124.60695 
L 83.815185 122.874244 
L 83.066825 121.014822 
" clip-path="url(#pe90bde5626)" style="fill: none; stroke: #000000; stroke-width: 2; stroke-linecap: round"/>
   </g>
   <g id="line2d_3">
    <path d="M 92.047147 67.132893 
L 142.69616 67.132893 
M 142.69616 58.152571 
L 142.69616 76.113214 
M 149.161992 58.152571 
L 149.161992 76.113214 
M 149.161992 67.132893 
L 199.811005 67.132893 
" clip-path="url(#pe90bde5626)" style="fill: none; stroke: #000000; stroke-width: 2; stroke-linecap: round"/>
   </g>
   <g id="line2d_4">
    <path d="M 199.811005 67.132893 
L 199.811005 22.231285 
L 277.582871 67.132893 
L 199.811005 112.0345 
L 199.811005 67.132893 
M 277.582871 67.132893 
" clip-path="url(#pe90bde5626)" style="fill: none; stroke: #000000; stroke-width: 2; stroke-linecap: round"/>
   </g>
   <g id="line2d_5">
    <path d="M 205.94036 44.682089 
L 213.124617 44.682089 
" clip-path="url(#pe90bde5626)" style="fill: none; stroke: #000000; stroke-width: 2; stroke-linecap: round"/>
   </g>
   <g id="line2d_6">
    <path d="M 205.94036 89.583696 
L 213.124617 89.583696 
" clip-path="url(#pe90bde5626)" style="fill: none; stroke: #000000; stroke-width: 2; stroke-linecap: round"/>
   </g>
   <g id="line2d_7">
    <path d="M 209.532488 93.175825 
L 209.532488 85.991568 
" clip-path="url(#pe90bde5626)" style="fill: none; stroke: #000000; stroke-width: 2; stroke-linecap: round"/>
   </g>
   <g id="line2d_8">
    <path d="M 277.582871 67.132893 
L 277.582871 103.054179 
L 277.582871 103.054179 
M 277.582871 138.975465 
L 277.582871 138.975465 
L 277.582871 174.896751 
" clip-path="url(#pe90bde5626)" style="fill: none; stroke: #000000; stroke-width: 2; stroke-linecap: round"/>
   </g>
   <g id="line2d_9">
    <path d="M 268.60255 121.014822 
L 269.35091 122.874244 
L 270.09927 124.60695 
L 270.84763 126.094859 
L 271.59599 127.236571 
L 272.34435 127.954281 
L 273.09271 128.199079 
L 273.84107 127.954281 
L 274.589431 127.236571 
L 275.337791 126.094859 
L 276.086151 124.60695 
L 276.834511 122.874244 
L 277.582871 121.014822 
L 278.331231 119.155399 
L 279.079591 117.422693 
L 279.827952 115.934785 
L 280.576312 114.793073 
L 281.324672 114.075362 
L 282.073032 113.830565 
L 282.821392 114.075362 
L 283.569752 114.793073 
L 284.318112 115.934785 
L 285.066472 117.422693 
L 285.814833 119.155399 
L 286.563193 121.014822 
" clip-path="url(#pe90bde5626)" style="fill: none; stroke: #000000; stroke-width: 2; stroke-linecap: round"/>
   </g>
   <g id="line2d_10">
    <path d="M 277.582871 174.896751 
L 277.582871 189.265266 
L 268.60255 189.265266 
L 286.563193 189.265266 
M 271.296646 193.57582 
L 283.869096 193.57582 
M 275.786807 197.886374 
L 279.378935 197.886374 
" clip-path="url(#pe90bde5626)" style="fill: none; stroke: #000000; stroke-width: 2; stroke-linecap: round"/>
   </g>
   <g id="line2d_11">
    <path d="M 277.582871 174.896751 
L 328.231885 174.896751 
M 328.231885 165.91643 
L 328.231885 183.877073 
M 334.697716 165.91643 
L 334.697716 183.877073 
M 334.697716 174.896751 
L 385.34673 174.896751 
" clip-path="url(#pe90bde5626)" style="fill: none; stroke: #000000; stroke-width: 2; stroke-linecap: round"/>
   </g>
   <g id="line2d_12">
    <path d="M 385.34673 174.896751 
L 385.34673 210.818037 
L 394.327051 213.811478 
L 376.366408 219.798359 
L 394.327051 225.78524 
L 376.366408 231.772121 
L 394.327051 237.759002 
L 376.366408 243.745883 
L 385.34673 246.739323 
L 385.34673 282.66061 
" clip-path="url(#pe90bde5626)" style="fill: none; stroke: #000000; stroke-width: 2; stroke-linecap: round"/>
   </g>
   <g id="line2d_13">
    <path d="M 385.34673 282.66061 
L 385.34673 297.029124 
L 376.366408 297.029124 
L 394.327051 297.029124 
M 379.060505 301.339678 
L 391.632955 301.339678 
M 383.550665 305.650233 
L 387.142794 305.650233 
" clip-path="url(#pe90bde5626)" style="fill: none; stroke: #000000; stroke-width: 2; stroke-linecap: round"/>
   </g>
   <g id="text_1">
    <!-- Reference -->
    <g transform="translate(0 124.877947) scale(0.14 -0.14)">
     <defs>
      <path id="DejaVuSans-52" d="M 2841 2188 
Q 3044 2119 3236 1894 
Q 3428 1669 3622 1275 
L 4263 0 
L 3584 0 
L 2988 1197 
Q 2756 1666 2539 1819 
Q 2322 1972 1947 1972 
L 1259 1972 
L 1259 0 
L 628 0 
L 628 4666 
L 2053 4666 
Q 2853 4666 3247 4331 
Q 3641 3997 3641 3322 
Q 3641 2881 3436 2590 
Q 3231 2300 2841 2188 
z
M 1259 4147 
L 1259 2491 
L 2053 2491 
Q 2509 2491 2742 2702 
Q 2975 2913 2975 3322 
Q 2975 3731 2742 3939 
Q 2509 4147 2053 4147 
L 1259 4147 
z
" transform="scale(0.015625)"/>
      <path id="DejaVuSans-65" d="M 3597 1894 
L 3597 1613 
L 953 1613 
Q 991 1019 1311 708 
Q 1631 397 2203 397 
Q 2534 397 2845 478 
Q 3156 559 3463 722 
L 3463 178 
Q 3153 47 2828 -22 
Q 2503 -91 2169 -91 
Q 1331 -91 842 396 
Q 353 884 353 1716 
Q 353 2575 817 3079 
Q 1281 3584 2069 3584 
Q 2775 3584 3186 3129 
Q 3597 2675 3597 1894 
z
M 3022 2063 
Q 3016 2534 2758 2815 
Q 2500 3097 2075 3097 
Q 1594 3097 1305 2825 
Q 1016 2553 972 2059 
L 3022 2063 
z
" transform="scale(0.015625)"/>
      <path id="DejaVuSans-66" d="M 2375 4863 
L 2375 4384 
L 1825 4384 
Q 1516 4384 1395 4259 
Q 1275 4134 1275 3809 
L 1275 3500 
L 2222 3500 
L 2222 3053 
L 1275 3053 
L 1275 0 
L 697 0 
L 697 3053 
L 147 3053 
L 147 3500 
L 697 3500 
L 697 3744 
Q 697 4328 969 4595 
Q 1241 4863 1831 4863 
L 2375 4863 
z
" transform="scale(0.015625)"/>
      <path id="DejaVuSans-72" d="M 2631 2963 
Q 2534 3019 2420 3045 
Q 2306 3072 2169 3072 
Q 1681 3072 1420 2755 
Q 1159 2438 1159 1844 
L 1159 0 
L 581 0 
L 581 3500 
L 1159 3500 
L 1159 2956 
Q 1341 3275 1631 3429 
Q 1922 3584 2338 3584 
Q 2397 3584 2469 3576 
Q 2541 3569 2628 3553 
L 2631 2963 
z
" transform="scale(0.015625)"/>
      <path id="DejaVuSans-6e" d="M 3513 2113 
L 3513 0 
L 2938 0 
L 2938 2094 
Q 2938 2591 2744 2837 
Q 2550 3084 2163 3084 
Q 1697 3084 1428 2787 
Q 1159 2491 1159 1978 
L 1159 0 
L 581 0 
L 581 3500 
L 1159 3500 
L 1159 2956 
Q 1366 3272 1645 3428 
Q 1925 3584 2291 3584 
Q 2894 3584 3203 3211 
Q 3513 2838 3513 2113 
z
" transform="scale(0.015625)"/>
      <path id="DejaVuSans-63" d="M 3122 3366 
L 3122 2828 
Q 2878 2963 2633 3030 
Q 2388 3097 2138 3097 
Q 1578 3097 1268 2742 
Q 959 2388 959 1747 
Q 959 1106 1268 751 
Q 1578 397 2138 397 
Q 2388 397 2633 464 
Q 2878 531 3122 666 
L 3122 134 
Q 2881 22 2623 -34 
Q 2366 -91 2075 -91 
Q 1284 -91 818 406 
Q 353 903 353 1747 
Q 353 2603 823 3093 
Q 1294 3584 2113 3584 
Q 2378 3584 2631 3529 
Q 2884 3475 3122 3366 
z
" transform="scale(0.015625)"/>
     </defs>
     <use xlink:href="#DejaVuSans-52"/>
     <use xlink:href="#DejaVuSans-65" transform="translate(64.982422 0)"/>
     <use xlink:href="#DejaVuSans-66" transform="translate(126.505859 0)"/>
     <use xlink:href="#DejaVuSans-65" transform="translate(161.710938 0)"/>
     <use xlink:href="#DejaVuSans-72" transform="translate(223.234375 0)"/>
     <use xlink:href="#DejaVuSans-65" transform="translate(262.097656 0)"/>
     <use xlink:href="#DejaVuSans-6e" transform="translate(323.621094 0)"/>
     <use xlink:href="#DejaVuSans-63" transform="translate(387 0)"/>
     <use xlink:href="#DejaVuSans-65" transform="translate(441.980469 0)"/>
    </g>
   </g>
   <g id="text_2">
    <!-- C_in -->
    <g transform="translate(131.16017 51.259505) scale(0.14 -0.14)">
     <defs>
      <path id="DejaVuSans-43" d="M 4122 4306 
L 4122 3641 
Q 3803 3938 3442 4084 
Q 3081 4231 2675 4231 
Q 1875 4231 1450 3742 
Q 1025 3253 1025 2328 
Q 1025 1406 1450 917 
Q 1875 428 2675 428 
Q 3081 428 3442 575 
Q 3803 722 4122 1019 
L 4122 359 
Q 3791 134 3420 21 
Q 3050 -91 2638 -91 
Q 1578 -91 968 557 
Q 359 1206 359 2328 
Q 359 3453 968 4101 
Q 1578 4750 2638 4750 
Q 3056 4750 3426 4639 
Q 3797 4528 4122 4306 
z
" transform="scale(0.015625)"/>
      <path id="DejaVuSans-5f" d="M 3263 -1063 
L 3263 -1509 
L -63 -1509 
L -63 -1063 
L 3263 -1063 
z
" transform="scale(0.015625)"/>
      <path id="DejaVuSans-69" d="M 603 3500 
L 1178 3500 
L 1178 0 
L 603 0 
L 603 3500 
z
M 603 4863 
L 1178 4863 
L 1178 4134 
L 603 4134 
L 603 4863 
z
" transform="scale(0.015625)"/>
     </defs>
     <use xlink:href="#DejaVuSans-43"/>
     <use xlink:href="#DejaVuSans-5f" transform="translate(69.824219 0)"/>
     <use xlink:href="#DejaVuSans-69" transform="translate(119.824219 0)"/>
     <use xlink:href="#DejaVuSans-6e" transform="translate(147.607422 0)"/>
    </g>
   </g>
   <g id="text_3">
    <!-- Mixer -->
    <g transform="translate(219.603344 15.727594) scale(0.14 -0.14)">
     <defs>
      <path id="DejaVuSans-4d" d="M 628 4666 
L 1569 4666 
L 2759 1491 
L 3956 4666 
L 4897 4666 
L 4897 0 
L 4281 0 
L 4281 4097 
L 3078 897 
L 2444 897 
L 1241 4097 
L 1241 0 
L 628 0 
L 628 4666 
z
" transform="scale(0.015625)"/>
      <path id="DejaVuSans-78" d="M 3513 3500 
L 2247 1797 
L 3578 0 
L 2900 0 
L 1881 1375 
L 863 0 
L 184 0 
L 1544 1831 
L 300 3500 
L 978 3500 
L 1906 2253 
L 2834 3500 
L 3513 3500 
z
" transform="scale(0.015625)"/>
     </defs>
     <use xlink:href="#DejaVuSans-4d"/>
     <use xlink:href="#DejaVuSans-69" transform="translate(86.279297 0)"/>
     <use xlink:href="#DejaVuSans-78" transform="translate(114.0625 0)"/>
     <use xlink:href="#DejaVuSans-65" transform="translate(170.117188 0)"/>
     <use xlink:href="#DejaVuSans-72" transform="translate(231.640625 0)"/>
    </g>
   </g>
   <g id="text_4">
    <!-- VCO Feedback -->
    <g transform="translate(154.536662 124.877947) scale(0.14 -0.14)">
     <defs>
      <path id="DejaVuSans-56" d="M 1831 0 
L 50 4666 
L 709 4666 
L 2188 738 
L 3669 4666 
L 4325 4666 
L 2547 0 
L 1831 0 
z
" transform="scale(0.015625)"/>
      <path id="DejaVuSans-4f" d="M 2522 4238 
Q 1834 4238 1429 3725 
Q 1025 3213 1025 2328 
Q 1025 1447 1429 934 
Q 1834 422 2522 422 
Q 3209 422 3611 934 
Q 4013 1447 4013 2328 
Q 4013 3213 3611 3725 
Q 3209 4238 2522 4238 
z
M 2522 4750 
Q 3503 4750 4090 4092 
Q 4678 3434 4678 2328 
Q 4678 1225 4090 567 
Q 3503 -91 2522 -91 
Q 1538 -91 948 565 
Q 359 1222 359 2328 
Q 359 3434 948 4092 
Q 1538 4750 2522 4750 
z
" transform="scale(0.015625)"/>
      <path id="DejaVuSans-20" transform="scale(0.015625)"/>
      <path id="DejaVuSans-46" d="M 628 4666 
L 3309 4666 
L 3309 4134 
L 1259 4134 
L 1259 2759 
L 3109 2759 
L 3109 2228 
L 1259 2228 
L 1259 0 
L 628 0 
L 628 4666 
z
" transform="scale(0.015625)"/>
      <path id="DejaVuSans-64" d="M 2906 2969 
L 2906 4863 
L 3481 4863 
L 3481 0 
L 2906 0 
L 2906 525 
Q 2725 213 2448 61 
Q 2172 -91 1784 -91 
Q 1150 -91 751 415 
Q 353 922 353 1747 
Q 353 2572 751 3078 
Q 1150 3584 1784 3584 
Q 2172 3584 2448 3432 
Q 2725 3281 2906 2969 
z
M 947 1747 
Q 947 1113 1208 752 
Q 1469 391 1925 391 
Q 2381 391 2643 752 
Q 2906 1113 2906 1747 
Q 2906 2381 2643 2742 
Q 2381 3103 1925 3103 
Q 1469 3103 1208 2742 
Q 947 2381 947 1747 
z
" transform="scale(0.015625)"/>
      <path id="DejaVuSans-62" d="M 3116 1747 
Q 3116 2381 2855 2742 
Q 2594 3103 2138 3103 
Q 1681 3103 1420 2742 
Q 1159 2381 1159 1747 
Q 1159 1113 1420 752 
Q 1681 391 2138 391 
Q 2594 391 2855 752 
Q 3116 1113 3116 1747 
z
M 1159 2969 
Q 1341 3281 1617 3432 
Q 1894 3584 2278 3584 
Q 2916 3584 3314 3078 
Q 3713 2572 3713 1747 
Q 3713 922 3314 415 
Q 2916 -91 2278 -91 
Q 1894 -91 1617 61 
Q 1341 213 1159 525 
L 1159 0 
L 581 0 
L 581 4863 
L 1159 4863 
L 1159 2969 
z
" transform="scale(0.015625)"/>
      <path id="DejaVuSans-61" d="M 2194 1759 
Q 1497 1759 1228 1600 
Q 959 1441 959 1056 
Q 959 750 1161 570 
Q 1363 391 1709 391 
Q 2188 391 2477 730 
Q 2766 1069 2766 1631 
L 2766 1759 
L 2194 1759 
z
M 3341 1997 
L 3341 0 
L 2766 0 
L 2766 531 
Q 2569 213 2275 61 
Q 1981 -91 1556 -91 
Q 1019 -91 701 211 
Q 384 513 384 1019 
Q 384 1609 779 1909 
Q 1175 2209 1959 2209 
L 2766 2209 
L 2766 2266 
Q 2766 2663 2505 2880 
Q 2244 3097 1772 3097 
Q 1472 3097 1187 3025 
Q 903 2953 641 2809 
L 641 3341 
Q 956 3463 1253 3523 
Q 1550 3584 1831 3584 
Q 2591 3584 2966 3190 
Q 3341 2797 3341 1997 
z
" transform="scale(0.015625)"/>
      <path id="DejaVuSans-6b" d="M 581 4863 
L 1159 4863 
L 1159 1991 
L 2875 3500 
L 3609 3500 
L 1753 1863 
L 3688 0 
L 2938 0 
L 1159 1709 
L 1159 0 
L 581 0 
L 581 4863 
z
" transform="scale(0.015625)"/>
     </defs>
     <use xlink:href="#DejaVuSans-56"/>
     <use xlink:href="#DejaVuSans-43" transform="translate(68.408203 0)"/>
     <use xlink:href="#DejaVuSans-4f" transform="translate(138.232422 0)"/>
     <use xlink:href="#DejaVuSans-20" transform="translate(216.943359 0)"/>
     <use xlink:href="#DejaVuSans-46" transform="translate(248.730469 0)"/>
     <use xlink:href="#DejaVuSans-65" transform="translate(300.75 0)"/>
     <use xlink:href="#DejaVuSans-65" transform="translate(362.273438 0)"/>
     <use xlink:href="#DejaVuSans-64" transform="translate(423.796875 0)"/>
     <use xlink:href="#DejaVuSans-62" transform="translate(487.273438 0)"/>
     <use xlink:href="#DejaVuSans-61" transform="translate(550.75 0)"/>
     <use xlink:href="#DejaVuSans-63" transform="translate(612.029297 0)"/>
     <use xlink:href="#DejaVuSans-6b" transform="translate(667.009766 0)"/>
    </g>
   </g>
   <g id="text_5">
    <!-- C_out -->
    <g transform="translate(311.613238 159.023363) scale(0.14 -0.14)">
     <defs>
      <path id="DejaVuSans-6f" d="M 1959 3097 
Q 1497 3097 1228 2736 
Q 959 2375 959 1747 
Q 959 1119 1226 758 
Q 1494 397 1959 397 
Q 2419 397 2687 759 
Q 2956 1122 2956 1747 
Q 2956 2369 2687 2733 
Q 2419 3097 1959 3097 
z
M 1959 3584 
Q 2709 3584 3137 3096 
Q 3566 2609 3566 1747 
Q 3566 888 3137 398 
Q 2709 -91 1959 -91 
Q 1206 -91 779 398 
Q 353 888 353 1747 
Q 353 2609 779 3096 
Q 1206 3584 1959 3584 
z
" transform="scale(0.015625)"/>
      <path id="DejaVuSans-75" d="M 544 1381 
L 544 3500 
L 1119 3500 
L 1119 1403 
Q 1119 906 1312 657 
Q 1506 409 1894 409 
Q 2359 409 2629 706 
Q 2900 1003 2900 1516 
L 2900 3500 
L 3475 3500 
L 3475 0 
L 2900 0 
L 2900 538 
Q 2691 219 2414 64 
Q 2138 -91 1772 -91 
Q 1169 -91 856 284 
Q 544 659 544 1381 
z
M 1991 3584 
L 1991 3584 
z
" transform="scale(0.015625)"/>
      <path id="DejaVuSans-74" d="M 1172 4494 
L 1172 3500 
L 2356 3500 
L 2356 3053 
L 1172 3053 
L 1172 1153 
Q 1172 725 1289 603 
Q 1406 481 1766 481 
L 2356 481 
L 2356 0 
L 1766 0 
Q 1100 0 847 248 
Q 594 497 594 1153 
L 594 3053 
L 172 3053 
L 172 3500 
L 594 3500 
L 594 4494 
L 1172 4494 
z
" transform="scale(0.015625)"/>
     </defs>
     <use xlink:href="#DejaVuSans-43"/>
     <use xlink:href="#DejaVuSans-5f" transform="translate(69.824219 0)"/>
     <use xlink:href="#DejaVuSans-6f" transform="translate(119.824219 0)"/>
     <use xlink:href="#DejaVuSans-75" transform="translate(181.005859 0)"/>
     <use xlink:href="#DejaVuSans-74" transform="translate(244.384766 0)"/>
    </g>
   </g>
   <g id="text_6">
    <!-- Error Output -->
    <g transform="translate(345.339796 175.167748) scale(0.14 -0.14)">
     <defs>
      <path id="DejaVuSans-45" d="M 628 4666 
L 3578 4666 
L 3578 4134 
L 1259 4134 
L 1259 2753 
L 3481 2753 
L 3481 2222 
L 1259 2222 
L 1259 531 
L 3634 531 
L 3634 0 
L 628 0 
L 628 4666 
z
" transform="scale(0.015625)"/>
      <path id="DejaVuSans-70" d="M 1159 525 
L 1159 -1331 
L 581 -1331 
L 581 3500 
L 1159 3500 
L 1159 2969 
Q 1341 3281 1617 3432 
Q 1894 3584 2278 3584 
Q 2916 3584 3314 3078 
Q 3713 2572 3713 1747 
Q 3713 922 3314 415 
Q 2916 -91 2278 -91 
Q 1894 -91 1617 61 
Q 1341 213 1159 525 
z
M 3116 1747 
Q 3116 2381 2855 2742 
Q 2594 3103 2138 3103 
Q 1681 3103 1420 2742 
Q 1159 2381 1159 1747 
Q 1159 1113 1420 752 
Q 1681 391 2138 391 
Q 2594 391 2855 752 
Q 3116 1113 3116 1747 
z
" transform="scale(0.015625)"/>
     </defs>
     <use xlink:href="#DejaVuSans-45"/>
     <use xlink:href="#DejaVuSans-72" transform="translate(63.183594 0)"/>
     <use xlink:href="#DejaVuSans-72" transform="translate(102.546875 0)"/>
     <use xlink:href="#DejaVuSans-6f" transform="translate(141.410156 0)"/>
     <use xlink:href="#DejaVuSans-72" transform="translate(202.591797 0)"/>
     <use xlink:href="#DejaVuSans-20" transform="translate(243.705078 0)"/>
     <use xlink:href="#DejaVuSans-4f" transform="translate(275.492188 0)"/>
     <use xlink:href="#DejaVuSans-75" transform="translate(354.203125 0)"/>
     <use xlink:href="#DejaVuSans-74" transform="translate(417.582031 0)"/>
     <use xlink:href="#DejaVuSans-70" transform="translate(456.791016 0)"/>
     <use xlink:href="#DejaVuSans-75" transform="translate(520.267578 0)"/>
     <use xlink:href="#DejaVuSans-74" transform="translate(583.646484 0)"/>
    </g>
   </g>
   <g id="text_7">
    <!-- R_out -->
    <g transform="translate(333.119279 232.25243) scale(0.14 -0.14)">
     <use xlink:href="#DejaVuSans-52"/>
     <use xlink:href="#DejaVuSans-5f" transform="translate(69.482422 0)"/>
     <use xlink:href="#DejaVuSans-6f" transform="translate(119.482422 0)"/>
     <use xlink:href="#DejaVuSans-75" transform="translate(180.664062 0)"/>
     <use xlink:href="#DejaVuSans-74" transform="translate(244.042969 0)"/>
    </g>
   </g>
  </g>
 </g>
 <defs>
  <clipPath id="pe90bde5626">
   <rect x="0.280234" y="0" width="433.099242" height="310.32"/>
  </clipPath>
 </defs>
</svg>
