<?xml version="1.0" encoding="utf-8" standalone="no"?>
<!DOCTYPE svg PUBLIC "-//W3C//DTD SVG 1.1//EN"
  "http://www.w3.org/Graphics/SVG/1.1/DTD/svg11.dtd">
<svg xmlns:xlink="http://www.w3.org/1999/xlink" width="287.865056pt" height="323.28pt" viewBox="0 0 287.865056 323.28" xmlns="http://www.w3.org/2000/svg" version="1.1">
 <metadata>
  <rdf:RDF xmlns:dc="http://purl.org/dc/elements/1.1/" xmlns:cc="http://creativecommons.org/ns#" xmlns:rdf="http://www.w3.org/1999/02/22-rdf-syntax-ns#">
   <cc:Work>
    <dc:type rdf:resource="http://purl.org/dc/dcmitype/StillImage"/>
    <dc:date>2025-11-21T22:25:17.899099</dc:date>
    <dc:format>image/svg+xml</dc:format>
    <dc:creator>
     <cc:Agent>
      <dc:title>Matplotlib v3.10.7, https://matplotlib.org/</dc:title>
     </cc:Agent>
    </dc:creator>
   </cc:Work>
  </rdf:RDF>
 </metadata>
 <defs>
  <style type="text/css">*{stroke-linejoin: round; stroke-linecap: butt}</style>
 </defs>
 <g id="figure_1">
  <g id="patch_1">
   <path d="M 0 323.28 
L 287.865056 323.28 
L 287.865056 0 
L 0 0 
L 0 323.28 
z
" style="fill: none"/>
  </g>
  <g id="axes_1">
   <g id="patch_2">
    <path d="M 45.051406 151.72981 
C 49.820341 151.72981 54.394595 149.835092 57.766741 146.462945 
C 61.138888 143.090799 63.033606 138.516545 63.033606 133.747609 
C 63.033606 128.978674 61.138888 124.40442 57.766741 121.032274 
C 54.394595 117.660127 49.820341 115.765409 45.051406 115.765409 
C 40.28247 115.765409 35.708216 117.660127 32.33607 121.032274 
C 28.963923 124.40442 27.069205 128.978674 27.069205 133.747609 
C 27.069205 138.516545 28.963923 143.090799 32.33607 146.462945 
C 35.708216 149.835092 40.28247 151.72981 45.051406 151.72981 
L 45.051406 151.72981 
z
" clip-path="url(#pb31b49faba)" style="fill: none; stroke: #000000; stroke-width: 2; stroke-linejoin: miter"/>
   </g>
   <g id="patch_3">
    <path d="M 45.051406 36.643728 
C 46.958344 36.643728 48.789131 35.885392 50.13754 34.536982 
C 51.485949 33.188573 52.244286 31.357787 52.244286 29.450848 
C 52.244286 27.543909 51.485949 25.713123 50.13754 24.364714 
C 48.789131 23.016304 46.958344 22.257968 45.051406 22.257968 
" clip-path="url(#pb31b49faba)" style="fill: none; stroke: #000000; stroke-width: 2; stroke-linejoin: miter"/>
   </g>
   <g id="patch_4">
    <path d="M 45.051406 51.029488 
C 46.958344 51.029488 48.789131 50.271152 50.13754 48.922742 
C 51.485949 47.574333 52.244286 45.743547 52.244286 43.836608 
C 52.244286 41.929669 51.485949 40.098883 50.13754 38.750474 
C 48.789131 37.402065 46.958344 36.643728 45.051406 36.643728 
" clip-path="url(#pb31b49faba)" style="fill: none; stroke: #000000; stroke-width: 2; stroke-linejoin: miter"/>
   </g>
   <g id="patch_5">
    <path d="M 45.051406 65.415248 
C 46.958344 65.415248 48.789131 64.656912 50.13754 63.308503 
C 51.485949 61.960093 52.244286 60.129307 52.244286 58.222368 
C 52.244286 56.31543 51.485949 54.484643 50.13754 53.136234 
C 48.789131 51.787825 46.958344 51.029488 45.051406 51.029488 
" clip-path="url(#pb31b49faba)" style="fill: none; stroke: #000000; stroke-width: 2; stroke-linejoin: miter"/>
   </g>
   <g id="patch_6">
    <path d="M 45.051406 79.801009 
C 46.958344 79.801009 48.789131 79.042672 50.13754 77.694263 
C 51.485949 76.345854 52.244286 74.515067 52.244286 72.608129 
C 52.244286 70.70119 51.485949 68.870404 50.13754 67.521994 
C 48.789131 66.173585 46.958344 65.415248 45.051406 65.415248 
" clip-path="url(#pb31b49faba)" style="fill: none; stroke: #000000; stroke-width: 2; stroke-linejoin: miter"/>
   </g>
   <g id="patch_7">
    <path d="M 81.015806 22.257968 
C 79.108867 22.257968 77.278081 23.016304 75.929672 24.364714 
C 74.581263 25.713123 73.822926 27.543909 73.822926 29.450848 
C 73.822926 31.357787 74.581263 33.188573 75.929672 34.536982 
C 77.278081 35.885392 79.108867 36.643728 81.015806 36.643728 
" clip-path="url(#pb31b49faba)" style="fill: none; stroke: #000000; stroke-width: 2; stroke-linejoin: miter"/>
   </g>
   <g id="patch_8">
    <path d="M 81.015806 36.643728 
C 79.108867 36.643728 77.278081 37.402065 75.929672 38.750474 
C 74.581263 40.098883 73.822926 41.929669 73.822926 43.836608 
C 73.822926 45.743547 74.581263 47.574333 75.929672 48.922742 
C 77.278081 50.271152 79.108867 51.029488 81.015806 51.029488 
" clip-path="url(#pb31b49faba)" style="fill: none; stroke: #000000; stroke-width: 2; stroke-linejoin: miter"/>
   </g>
   <g id="patch_9">
    <path d="M 81.015806 51.029488 
C 79.108867 51.029488 77.278081 51.787825 75.929672 53.136234 
C 74.581263 54.484643 73.822926 56.31543 73.822926 58.222368 
C 73.822926 60.129307 74.581263 61.960093 75.929672 63.308503 
C 77.278081 64.656912 79.108867 65.415248 81.015806 65.415248 
" clip-path="url(#pb31b49faba)" style="fill: none; stroke: #000000; stroke-width: 2; stroke-linejoin: miter"/>
   </g>
   <g id="patch_10">
    <path d="M 81.015806 65.415248 
C 79.108867 65.415248 77.278081 66.173585 75.929672 67.521994 
C 74.581263 68.870404 73.822926 70.70119 73.822926 72.608129 
C 73.822926 74.515067 74.581263 76.345854 75.929672 77.694263 
C 77.278081 79.042672 79.108867 79.801009 81.015806 79.801009 
" clip-path="url(#pb31b49faba)" style="fill: none; stroke: #000000; stroke-width: 2; stroke-linejoin: miter"/>
   </g>
   <g id="patch_11">
    <path d="M 92.704236 70.809909 
L 105.291777 79.801009 
L 92.704236 88.792109 
L 92.704236 70.809909 
z
" clip-path="url(#pb31b49faba)" style="fill: none; stroke: #000000; stroke-width: 2; stroke-linecap: round"/>
   </g>
   <g id="line2d_1">
    <path d="M 45.051406 187.69421 
L 45.051406 151.72981 
L 45.051406 151.72981 
M 45.051406 115.765409 
L 45.051406 115.765409 
L 45.051406 79.801009 
" clip-path="url(#pb31b49faba)" style="fill: none; stroke: #000000; stroke-width: 2; stroke-linecap: round"/>
   </g>
   <g id="line2d_2">
    <path d="M 48.647846 142.73871 
L 41.454966 142.73871 
" clip-path="url(#pb31b49faba)" style="fill: none; stroke: #000000; stroke-width: 2; stroke-linecap: round"/>
   </g>
   <g id="line2d_3">
    <path d="M 45.051406 128.352949 
L 45.051406 121.160069 
" clip-path="url(#pb31b49faba)" style="fill: none; stroke: #000000; stroke-width: 2; stroke-linecap: round"/>
   </g>
   <g id="line2d_4">
    <path d="M 48.647846 124.756509 
L 41.454966 124.756509 
" clip-path="url(#pb31b49faba)" style="fill: none; stroke: #000000; stroke-width: 2; stroke-linecap: round"/>
   </g>
   <g id="line2d_5">
    <path d="M 59.437166 22.257968 
L 59.437166 79.801009 
" clip-path="url(#pb31b49faba)" style="fill: none; stroke: #000000; stroke-width: 2; stroke-linecap: round"/>
   </g>
   <g id="line2d_6">
    <path d="M 66.630046 22.257968 
L 66.630046 79.801009 
" clip-path="url(#pb31b49faba)" style="fill: none; stroke: #000000; stroke-width: 2; stroke-linecap: round"/>
   </g>
   <g id="line2d_7">
    <path d="M 45.051406 79.801009 
L 92.704236 79.801009 
M 105.291777 70.809909 
L 105.291777 88.792109 
M 105.291777 79.801009 
L 152.944607 79.801009 
" clip-path="url(#pb31b49faba)" style="fill: none; stroke: #000000; stroke-width: 2; stroke-linecap: round"/>
   </g>
   <g id="line2d_8">
    <path d="M 152.944607 79.801009 
L 152.944607 130.510813 
M 161.935707 130.510813 
L 143.953507 130.510813 
M 161.935707 136.984405 
L 143.953507 136.984405 
M 152.944607 136.984405 
L 152.944607 187.69421 
" clip-path="url(#pb31b49faba)" style="fill: none; stroke: #000000; stroke-width: 2; stroke-linecap: round"/>
   </g>
   <g id="line2d_9">
    <path d="M 152.944607 187.69421 
L 152.944607 202.07997 
L 143.953507 202.07997 
L 161.935707 202.07997 
M 146.650837 206.395698 
L 159.238377 206.395698 
M 151.146387 210.711426 
L 154.742827 210.711426 
" clip-path="url(#pb31b49faba)" style="fill: none; stroke: #000000; stroke-width: 2; stroke-linecap: round"/>
   </g>
   <g id="line2d_10">
    <path d="M 152.944607 187.69421 
L 206.891208 187.69421 
L 260.837809 187.69421 
" clip-path="url(#pb31b49faba)" style="fill: none; stroke: #000000; stroke-width: 2; stroke-linecap: round"/>
   </g>
   <g id="line2d_11">
    <path d="M 260.837809 187.69421 
L 260.837809 223.658611 
L 269.828909 226.655644 
L 251.846709 232.649711 
L 269.828909 238.643778 
L 251.846709 244.637844 
L 269.828909 250.631911 
L 251.846709 256.625978 
L 260.837809 259.623011 
L 260.837809 295.587412 
" clip-path="url(#pb31b49faba)" style="fill: none; stroke: #000000; stroke-width: 2; stroke-linecap: round"/>
   </g>
   <g id="line2d_12">
    <path d="M 260.837809 295.587412 
L 260.837809 309.973172 
L 251.846709 309.973172 
L 269.828909 309.973172 
M 254.544039 314.2889 
L 267.131579 314.2889 
M 259.039589 318.604628 
L 262.636029 318.604628 
" clip-path="url(#pb31b49faba)" style="fill: none; stroke: #000000; stroke-width: 2; stroke-linecap: round"/>
   </g>
   <g id="text_1">
    <!-- AC -->
    <g transform="translate(4.364953 137.610734) scale(0.14 -0.14)">
     <defs>
      <path id="DejaVuSans-41" d="M 2188 4044 
L 1331 1722 
L 3047 1722 
L 2188 4044 
z
M 1831 4666 
L 2547 4666 
L 4325 0 
L 3669 0 
L 3244 1197 
L 1141 1197 
L 716 0 
L 50 0 
L 1831 4666 
z
" transform="scale(0.015625)"/>
      <path id="DejaVuSans-43" d="M 4122 4306 
L 4122 3641 
Q 3803 3938 3442 4084 
Q 3081 4231 2675 4231 
Q 1875 4231 1450 3742 
Q 1025 3253 1025 2328 
Q 1025 1406 1450 917 
Q 1875 428 2675 428 
Q 3081 428 3442 575 
Q 3803 722 4122 1019 
L 4122 359 
Q 3791 134 3420 21 
Q 3050 -91 2638 -91 
Q 1578 -91 968 557 
Q 359 1206 359 2328 
Q 359 3453 968 4101 
Q 1578 4750 2638 4750 
Q 3056 4750 3426 4639 
Q 3797 4528 4122 4306 
z
" transform="scale(0.015625)"/>
     </defs>
     <use xlink:href="#DejaVuSans-41"/>
     <use xlink:href="#DejaVuSans-43" transform="translate(66.658203 0)"/>
    </g>
   </g>
   <g id="text_2">
    <!-- T1 -->
    <g transform="translate(54.304387 15.749965) scale(0.14 -0.14)">
     <defs>
      <path id="DejaVuSans-54" d="M -19 4666 
L 3928 4666 
L 3928 4134 
L 2272 4134 
L 2272 0 
L 1638 0 
L 1638 4134 
L -19 4134 
L -19 4666 
z
" transform="scale(0.015625)"/>
      <path id="DejaVuSans-31" d="M 794 531 
L 1825 531 
L 1825 4091 
L 703 3866 
L 703 4441 
L 1819 4666 
L 2450 4666 
L 2450 531 
L 3481 531 
L 3481 0 
L 794 0 
L 794 531 
z
" transform="scale(0.015625)"/>
     </defs>
     <use xlink:href="#DejaVuSans-54"/>
     <use xlink:href="#DejaVuSans-31" transform="translate(61.083984 0)"/>
    </g>
   </g>
   <g id="text_3">
    <!-- D1 -->
    <g transform="translate(89.154256 64.301906) scale(0.14 -0.14)">
     <defs>
      <path id="DejaVuSans-44" d="M 1259 4147 
L 1259 519 
L 2022 519 
Q 2988 519 3436 956 
Q 3884 1394 3884 2338 
Q 3884 3275 3436 3711 
Q 2988 4147 2022 4147 
L 1259 4147 
z
M 628 4666 
L 1925 4666 
Q 3281 4666 3915 4102 
Q 4550 3538 4550 2338 
Q 4550 1131 3912 565 
Q 3275 0 1925 0 
L 628 0 
L 628 4666 
z
" transform="scale(0.015625)"/>
     </defs>
     <use xlink:href="#DejaVuSans-44"/>
     <use xlink:href="#DejaVuSans-31" transform="translate(77.001953 0)"/>
    </g>
   </g>
   <g id="text_4">
    <!-- C1 -->
    <g transform="translate(121.673629 137.610734) scale(0.14 -0.14)">
     <use xlink:href="#DejaVuSans-43"/>
     <use xlink:href="#DejaVuSans-31" transform="translate(69.824219 0)"/>
    </g>
   </g>
   <g id="text_5">
    <!-- V_out -->
    <g transform="translate(244.682217 187.57152) scale(0.14 -0.14)">
     <defs>
      <path id="DejaVuSans-56" d="M 1831 0 
L 50 4666 
L 709 4666 
L 2188 738 
L 3669 4666 
L 4325 4666 
L 2547 0 
L 1831 0 
z
" transform="scale(0.015625)"/>
      <path id="DejaVuSans-5f" d="M 3263 -1063 
L 3263 -1509 
L -63 -1509 
L -63 -1063 
L 3263 -1063 
z
" transform="scale(0.015625)"/>
      <path id="DejaVuSans-6f" d="M 1959 3097 
Q 1497 3097 1228 2736 
Q 959 2375 959 1747 
Q 959 1119 1226 758 
Q 1494 397 1959 397 
Q 2419 397 2687 759 
Q 2956 1122 2956 1747 
Q 2956 2369 2687 2733 
Q 2419 3097 1959 3097 
z
M 1959 3584 
Q 2709 3584 3137 3096 
Q 3566 2609 3566 1747 
Q 3566 888 3137 398 
Q 2709 -91 1959 -91 
Q 1206 -91 779 398 
Q 353 888 353 1747 
Q 353 2609 779 3096 
Q 1206 3584 1959 3584 
z
" transform="scale(0.015625)"/>
      <path id="DejaVuSans-75" d="M 544 1381 
L 544 3500 
L 1119 3500 
L 1119 1403 
Q 1119 906 1312 657 
Q 1506 409 1894 409 
Q 2359 409 2629 706 
Q 2900 1003 2900 1516 
L 2900 3500 
L 3475 3500 
L 3475 0 
L 2900 0 
L 2900 538 
Q 2691 219 2414 64 
Q 2138 -91 1772 -91 
Q 1169 -91 856 284 
Q 544 659 544 1381 
z
M 1991 3584 
L 1991 3584 
z
" transform="scale(0.015625)"/>
      <path id="DejaVuSans-74" d="M 1172 4494 
L 1172 3500 
L 2356 3500 
L 2356 3053 
L 1172 3053 
L 1172 1153 
Q 1172 725 1289 603 
Q 1406 481 1766 481 
L 2356 481 
L 2356 0 
L 1766 0 
Q 1100 0 847 248 
Q 594 497 594 1153 
L 594 3053 
L 172 3053 
L 172 3500 
L 594 3500 
L 594 4494 
L 1172 4494 
z
" transform="scale(0.015625)"/>
     </defs>
     <use xlink:href="#DejaVuSans-56"/>
     <use xlink:href="#DejaVuSans-5f" transform="translate(68.408203 0)"/>
     <use xlink:href="#DejaVuSans-6f" transform="translate(118.408203 0)"/>
     <use xlink:href="#DejaVuSans-75" transform="translate(179.589844 0)"/>
     <use xlink:href="#DejaVuSans-74" transform="translate(242.96875 0)"/>
    </g>
   </g>
   <g id="text_6">
    <!-- R_L -->
    <g transform="translate(223.721831 245.114561) scale(0.14 -0.14)">
     <defs>
      <path id="DejaVuSans-52" d="M 2841 2188 
Q 3044 2119 3236 1894 
Q 3428 1669 3622 1275 
L 4263 0 
L 3584 0 
L 2988 1197 
Q 2756 1666 2539 1819 
Q 2322 1972 1947 1972 
L 1259 1972 
L 1259 0 
L 628 0 
L 628 4666 
L 2053 4666 
Q 2853 4666 3247 4331 
Q 3641 3997 3641 3322 
Q 3641 2881 3436 2590 
Q 3231 2300 2841 2188 
z
M 1259 4147 
L 1259 2491 
L 2053 2491 
Q 2509 2491 2742 2702 
Q 2975 2913 2975 3322 
Q 2975 3731 2742 3939 
Q 2509 4147 2053 4147 
L 1259 4147 
z
" transform="scale(0.015625)"/>
      <path id="DejaVuSans-4c" d="M 628 4666 
L 1259 4666 
L 1259 531 
L 3531 531 
L 3531 0 
L 628 0 
L 628 4666 
z
" transform="scale(0.015625)"/>
     </defs>
     <use xlink:href="#DejaVuSans-52"/>
     <use xlink:href="#DejaVuSans-5f" transform="translate(69.482422 0)"/>
     <use xlink:href="#DejaVuSans-4c" transform="translate(119.482422 0)"/>
    </g>
   </g>
  </g>
 </g>
 <defs>
  <clipPath id="pb31b49faba">
   <rect x="0" y="0" width="287.865056" height="323.28"/>
  </clipPath>
 </defs>
</svg>
