<?xml version="1.0" encoding="utf-8" standalone="no"?>
<!DOCTYPE svg PUBLIC "-//W3C//DTD SVG 1.1//EN"
  "http://www.w3.org/Graphics/SVG/1.1/DTD/svg11.dtd">
<svg xmlns:xlink="http://www.w3.org/1999/xlink" width="429.199796pt" height="310.32pt" viewBox="0 0 429.199796 310.32" xmlns="http://www.w3.org/2000/svg" version="1.1">
 <metadata>
  <rdf:RDF xmlns:dc="http://purl.org/dc/elements/1.1/" xmlns:cc="http://creativecommons.org/ns#" xmlns:rdf="http://www.w3.org/1999/02/22-rdf-syntax-ns#">
   <cc:Work>
    <dc:type rdf:resource="http://purl.org/dc/dcmitype/StillImage"/>
    <dc:date>2025-11-21T22:31:51.400503</dc:date>
    <dc:format>image/svg+xml</dc:format>
    <dc:creator>
     <cc:Agent>
      <dc:title>Matplotlib v3.10.7, https://matplotlib.org/</dc:title>
     </cc:Agent>
    </dc:creator>
   </cc:Work>
  </rdf:RDF>
 </metadata>
 <defs>
  <style type="text/css">*{stroke-linejoin: round; stroke-linecap: butt}</style>
 </defs>
 <g id="figure_1">
  <g id="patch_1">
   <path d="M 0 310.32 
L 429.199796 310.32 
L 429.199796 0 
L 0 0 
L 0 310.32 
z
" style="fill: none"/>
  </g>
  <g id="axes_1">
   <g id="patch_2">
    <path d="M 85.871834 138.975465 
C 90.635052 138.975465 95.203823 137.083018 98.571927 133.714914 
C 101.940031 130.34681 103.832477 125.77804 103.832477 121.014822 
C 103.832477 116.251604 101.940031 111.682833 98.571927 108.314729 
C 95.203823 104.946625 90.635052 103.054179 85.871834 103.054179 
C 81.108616 103.054179 76.539846 104.946625 73.171742 108.314729 
C 69.803638 111.682833 67.911191 116.251604 67.911191 121.014822 
C 67.911191 125.77804 69.803638 130.34681 73.171742 133.714914 
C 76.539846 137.083018 81.108616 138.975465 85.871834 138.975465 
L 85.871834 138.975465 
z
" clip-path="url(#pc6fbed67c5)" style="fill: none; stroke: #000000; stroke-width: 2; stroke-linejoin: miter"/>
   </g>
   <g id="patch_3">
    <path d="M 271.407559 138.975465 
C 276.170777 138.975465 280.739547 137.083018 284.107651 133.714914 
C 287.475755 130.34681 289.368202 125.77804 289.368202 121.014822 
C 289.368202 116.251604 287.475755 111.682833 284.107651 108.314729 
C 280.739547 104.946625 276.170777 103.054179 271.407559 103.054179 
C 266.64434 103.054179 262.07557 104.946625 258.707466 108.314729 
C 255.339362 111.682833 253.446916 116.251604 253.446916 121.014822 
C 253.446916 125.77804 255.339362 130.34681 258.707466 133.714914 
C 262.07557 137.083018 266.64434 138.975465 271.407559 138.975465 
L 271.407559 138.975465 
z
" clip-path="url(#pc6fbed67c5)" style="fill: none; stroke: #000000; stroke-width: 2; stroke-linejoin: miter"/>
   </g>
   <g id="line2d_1">
    <path d="M 85.871834 174.896751 
L 85.871834 138.975465 
L 85.871834 138.975465 
M 85.871834 103.054179 
L 85.871834 103.054179 
L 85.871834 67.132893 
" clip-path="url(#pc6fbed67c5)" style="fill: none; stroke: #000000; stroke-width: 2; stroke-linecap: round"/>
   </g>
   <g id="line2d_2">
    <path d="M 94.852156 121.014822 
L 94.103796 119.155399 
L 93.355435 117.422693 
L 92.607075 115.934785 
L 91.858715 114.793073 
L 91.110355 114.075362 
L 90.361995 113.830565 
L 89.613635 114.075362 
L 88.865275 114.793073 
L 88.116915 115.934785 
L 87.368554 117.422693 
L 86.620194 119.155399 
L 85.871834 121.014822 
L 85.123474 122.874244 
L 84.375114 124.60695 
L 83.626754 126.094859 
L 82.878394 127.236571 
L 82.130034 127.954281 
L 81.381673 128.199079 
L 80.633313 127.954281 
L 79.884953 127.236571 
L 79.136593 126.094859 
L 78.388233 124.60695 
L 77.639873 122.874244 
L 76.891513 121.014822 
" clip-path="url(#pc6fbed67c5)" style="fill: none; stroke: #000000; stroke-width: 2; stroke-linecap: round"/>
   </g>
   <g id="line2d_3">
    <path d="M 85.871834 67.132893 
L 136.520848 67.132893 
M 136.520848 58.152571 
L 136.520848 76.113214 
M 142.986679 58.152571 
L 142.986679 76.113214 
M 142.986679 67.132893 
L 193.635693 67.132893 
" clip-path="url(#pc6fbed67c5)" style="fill: none; stroke: #000000; stroke-width: 2; stroke-linecap: round"/>
   </g>
   <g id="line2d_4">
    <path d="M 193.635693 67.132893 
L 193.635693 22.231285 
L 271.407559 67.132893 
L 193.635693 112.0345 
L 193.635693 67.132893 
M 271.407559 67.132893 
" clip-path="url(#pc6fbed67c5)" style="fill: none; stroke: #000000; stroke-width: 2; stroke-linecap: round"/>
   </g>
   <g id="line2d_5">
    <path d="M 199.765047 44.682089 
L 206.949305 44.682089 
" clip-path="url(#pc6fbed67c5)" style="fill: none; stroke: #000000; stroke-width: 2; stroke-linecap: round"/>
   </g>
   <g id="line2d_6">
    <path d="M 199.765047 89.583696 
L 206.949305 89.583696 
" clip-path="url(#pc6fbed67c5)" style="fill: none; stroke: #000000; stroke-width: 2; stroke-linecap: round"/>
   </g>
   <g id="line2d_7">
    <path d="M 203.357176 93.175825 
L 203.357176 85.991568 
" clip-path="url(#pc6fbed67c5)" style="fill: none; stroke: #000000; stroke-width: 2; stroke-linecap: round"/>
   </g>
   <g id="line2d_8">
    <path d="M 271.407559 67.132893 
L 271.407559 103.054179 
L 271.407559 103.054179 
M 271.407559 138.975465 
L 271.407559 138.975465 
L 271.407559 174.896751 
" clip-path="url(#pc6fbed67c5)" style="fill: none; stroke: #000000; stroke-width: 2; stroke-linecap: round"/>
   </g>
   <g id="line2d_9">
    <path d="M 262.427237 121.014822 
L 263.175597 122.874244 
L 263.923957 124.60695 
L 264.672317 126.094859 
L 265.420678 127.236571 
L 266.169038 127.954281 
L 266.917398 128.199079 
L 267.665758 127.954281 
L 268.414118 127.236571 
L 269.162478 126.094859 
L 269.910838 124.60695 
L 270.659199 122.874244 
L 271.407559 121.014822 
L 272.155919 119.155399 
L 272.904279 117.422693 
L 273.652639 115.934785 
L 274.400999 114.793073 
L 275.149359 114.075362 
L 275.897719 113.830565 
L 276.64608 114.075362 
L 277.39444 114.793073 
L 278.1428 115.934785 
L 278.89116 117.422693 
L 279.63952 119.155399 
L 280.38788 121.014822 
" clip-path="url(#pc6fbed67c5)" style="fill: none; stroke: #000000; stroke-width: 2; stroke-linecap: round"/>
   </g>
   <g id="line2d_10">
    <path d="M 271.407559 174.896751 
L 271.407559 189.265266 
L 262.427237 189.265266 
L 280.38788 189.265266 
M 265.121334 193.57582 
L 277.693784 193.57582 
M 269.611494 197.886374 
L 273.203623 197.886374 
" clip-path="url(#pc6fbed67c5)" style="fill: none; stroke: #000000; stroke-width: 2; stroke-linecap: round"/>
   </g>
   <g id="line2d_11">
    <path d="M 271.407559 174.896751 
L 322.056572 174.896751 
M 322.056572 165.91643 
L 322.056572 183.877073 
M 328.522404 165.91643 
L 328.522404 183.877073 
M 328.522404 174.896751 
L 379.171417 174.896751 
" clip-path="url(#pc6fbed67c5)" style="fill: none; stroke: #000000; stroke-width: 2; stroke-linecap: round"/>
   </g>
   <g id="line2d_12">
    <path d="M 379.171417 174.896751 
L 379.171417 210.818037 
L 388.151739 213.811478 
L 370.191096 219.798359 
L 388.151739 225.78524 
L 370.191096 231.772121 
L 388.151739 237.759002 
L 370.191096 243.745883 
L 379.171417 246.739323 
L 379.171417 282.66061 
" clip-path="url(#pc6fbed67c5)" style="fill: none; stroke: #000000; stroke-width: 2; stroke-linecap: round"/>
   </g>
   <g id="line2d_13">
    <path d="M 379.171417 282.66061 
L 379.171417 297.029124 
L 370.191096 297.029124 
L 388.151739 297.029124 
M 372.885192 301.339678 
L 385.457642 301.339678 
M 377.375353 305.650233 
L 380.967481 305.650233 
" clip-path="url(#pc6fbed67c5)" style="fill: none; stroke: #000000; stroke-width: 2; stroke-linecap: round"/>
   </g>
   <g id="text_1">
    <!-- CW Input -->
    <g transform="translate(0 124.877947) scale(0.14 -0.14)">
     <defs>
      <path id="DejaVuSans-43" d="M 4122 4306 
L 4122 3641 
Q 3803 3938 3442 4084 
Q 3081 4231 2675 4231 
Q 1875 4231 1450 3742 
Q 1025 3253 1025 2328 
Q 1025 1406 1450 917 
Q 1875 428 2675 428 
Q 3081 428 3442 575 
Q 3803 722 4122 1019 
L 4122 359 
Q 3791 134 3420 21 
Q 3050 -91 2638 -91 
Q 1578 -91 968 557 
Q 359 1206 359 2328 
Q 359 3453 968 4101 
Q 1578 4750 2638 4750 
Q 3056 4750 3426 4639 
Q 3797 4528 4122 4306 
z
" transform="scale(0.015625)"/>
      <path id="DejaVuSans-57" d="M 213 4666 
L 850 4666 
L 1831 722 
L 2809 4666 
L 3519 4666 
L 4500 722 
L 5478 4666 
L 6119 4666 
L 4947 0 
L 4153 0 
L 3169 4050 
L 2175 0 
L 1381 0 
L 213 4666 
z
" transform="scale(0.015625)"/>
      <path id="DejaVuSans-20" transform="scale(0.015625)"/>
      <path id="DejaVuSans-49" d="M 628 4666 
L 1259 4666 
L 1259 0 
L 628 0 
L 628 4666 
z
" transform="scale(0.015625)"/>
      <path id="DejaVuSans-6e" d="M 3513 2113 
L 3513 0 
L 2938 0 
L 2938 2094 
Q 2938 2591 2744 2837 
Q 2550 3084 2163 3084 
Q 1697 3084 1428 2787 
Q 1159 2491 1159 1978 
L 1159 0 
L 581 0 
L 581 3500 
L 1159 3500 
L 1159 2956 
Q 1366 3272 1645 3428 
Q 1925 3584 2291 3584 
Q 2894 3584 3203 3211 
Q 3513 2838 3513 2113 
z
" transform="scale(0.015625)"/>
      <path id="DejaVuSans-70" d="M 1159 525 
L 1159 -1331 
L 581 -1331 
L 581 3500 
L 1159 3500 
L 1159 2969 
Q 1341 3281 1617 3432 
Q 1894 3584 2278 3584 
Q 2916 3584 3314 3078 
Q 3713 2572 3713 1747 
Q 3713 922 3314 415 
Q 2916 -91 2278 -91 
Q 1894 -91 1617 61 
Q 1341 213 1159 525 
z
M 3116 1747 
Q 3116 2381 2855 2742 
Q 2594 3103 2138 3103 
Q 1681 3103 1420 2742 
Q 1159 2381 1159 1747 
Q 1159 1113 1420 752 
Q 1681 391 2138 391 
Q 2594 391 2855 752 
Q 3116 1113 3116 1747 
z
" transform="scale(0.015625)"/>
      <path id="DejaVuSans-75" d="M 544 1381 
L 544 3500 
L 1119 3500 
L 1119 1403 
Q 1119 906 1312 657 
Q 1506 409 1894 409 
Q 2359 409 2629 706 
Q 2900 1003 2900 1516 
L 2900 3500 
L 3475 3500 
L 3475 0 
L 2900 0 
L 2900 538 
Q 2691 219 2414 64 
Q 2138 -91 1772 -91 
Q 1169 -91 856 284 
Q 544 659 544 1381 
z
M 1991 3584 
L 1991 3584 
z
" transform="scale(0.015625)"/>
      <path id="DejaVuSans-74" d="M 1172 4494 
L 1172 3500 
L 2356 3500 
L 2356 3053 
L 1172 3053 
L 1172 1153 
Q 1172 725 1289 603 
Q 1406 481 1766 481 
L 2356 481 
L 2356 0 
L 1766 0 
Q 1100 0 847 248 
Q 594 497 594 1153 
L 594 3053 
L 172 3053 
L 172 3500 
L 594 3500 
L 594 4494 
L 1172 4494 
z
" transform="scale(0.015625)"/>
     </defs>
     <use xlink:href="#DejaVuSans-43"/>
     <use xlink:href="#DejaVuSans-57" transform="translate(69.824219 0)"/>
     <use xlink:href="#DejaVuSans-20" transform="translate(168.701172 0)"/>
     <use xlink:href="#DejaVuSans-49" transform="translate(200.488281 0)"/>
     <use xlink:href="#DejaVuSans-6e" transform="translate(229.980469 0)"/>
     <use xlink:href="#DejaVuSans-70" transform="translate(293.359375 0)"/>
     <use xlink:href="#DejaVuSans-75" transform="translate(356.835938 0)"/>
     <use xlink:href="#DejaVuSans-74" transform="translate(420.214844 0)"/>
    </g>
   </g>
   <g id="text_2">
    <!-- C_in -->
    <g transform="translate(124.984857 51.259505) scale(0.14 -0.14)">
     <defs>
      <path id="DejaVuSans-5f" d="M 3263 -1063 
L 3263 -1509 
L -63 -1509 
L -63 -1063 
L 3263 -1063 
z
" transform="scale(0.015625)"/>
      <path id="DejaVuSans-69" d="M 603 3500 
L 1178 3500 
L 1178 0 
L 603 0 
L 603 3500 
z
M 603 4863 
L 1178 4863 
L 1178 4134 
L 603 4134 
L 603 4863 
z
" transform="scale(0.015625)"/>
     </defs>
     <use xlink:href="#DejaVuSans-43"/>
     <use xlink:href="#DejaVuSans-5f" transform="translate(69.824219 0)"/>
     <use xlink:href="#DejaVuSans-69" transform="translate(119.824219 0)"/>
     <use xlink:href="#DejaVuSans-6e" transform="translate(147.607422 0)"/>
    </g>
   </g>
   <g id="text_3">
    <!-- Beat Detector -->
    <g transform="translate(183.650688 15.727594) scale(0.14 -0.14)">
     <defs>
      <path id="DejaVuSans-42" d="M 1259 2228 
L 1259 519 
L 2272 519 
Q 2781 519 3026 730 
Q 3272 941 3272 1375 
Q 3272 1813 3026 2020 
Q 2781 2228 2272 2228 
L 1259 2228 
z
M 1259 4147 
L 1259 2741 
L 2194 2741 
Q 2656 2741 2882 2914 
Q 3109 3088 3109 3444 
Q 3109 3797 2882 3972 
Q 2656 4147 2194 4147 
L 1259 4147 
z
M 628 4666 
L 2241 4666 
Q 2963 4666 3353 4366 
Q 3744 4066 3744 3513 
Q 3744 3084 3544 2831 
Q 3344 2578 2956 2516 
Q 3422 2416 3680 2098 
Q 3938 1781 3938 1306 
Q 3938 681 3513 340 
Q 3088 0 2303 0 
L 628 0 
L 628 4666 
z
" transform="scale(0.015625)"/>
      <path id="DejaVuSans-65" d="M 3597 1894 
L 3597 1613 
L 953 1613 
Q 991 1019 1311 708 
Q 1631 397 2203 397 
Q 2534 397 2845 478 
Q 3156 559 3463 722 
L 3463 178 
Q 3153 47 2828 -22 
Q 2503 -91 2169 -91 
Q 1331 -91 842 396 
Q 353 884 353 1716 
Q 353 2575 817 3079 
Q 1281 3584 2069 3584 
Q 2775 3584 3186 3129 
Q 3597 2675 3597 1894 
z
M 3022 2063 
Q 3016 2534 2758 2815 
Q 2500 3097 2075 3097 
Q 1594 3097 1305 2825 
Q 1016 2553 972 2059 
L 3022 2063 
z
" transform="scale(0.015625)"/>
      <path id="DejaVuSans-61" d="M 2194 1759 
Q 1497 1759 1228 1600 
Q 959 1441 959 1056 
Q 959 750 1161 570 
Q 1363 391 1709 391 
Q 2188 391 2477 730 
Q 2766 1069 2766 1631 
L 2766 1759 
L 2194 1759 
z
M 3341 1997 
L 3341 0 
L 2766 0 
L 2766 531 
Q 2569 213 2275 61 
Q 1981 -91 1556 -91 
Q 1019 -91 701 211 
Q 384 513 384 1019 
Q 384 1609 779 1909 
Q 1175 2209 1959 2209 
L 2766 2209 
L 2766 2266 
Q 2766 2663 2505 2880 
Q 2244 3097 1772 3097 
Q 1472 3097 1187 3025 
Q 903 2953 641 2809 
L 641 3341 
Q 956 3463 1253 3523 
Q 1550 3584 1831 3584 
Q 2591 3584 2966 3190 
Q 3341 2797 3341 1997 
z
" transform="scale(0.015625)"/>
      <path id="DejaVuSans-44" d="M 1259 4147 
L 1259 519 
L 2022 519 
Q 2988 519 3436 956 
Q 3884 1394 3884 2338 
Q 3884 3275 3436 3711 
Q 2988 4147 2022 4147 
L 1259 4147 
z
M 628 4666 
L 1925 4666 
Q 3281 4666 3915 4102 
Q 4550 3538 4550 2338 
Q 4550 1131 3912 565 
Q 3275 0 1925 0 
L 628 0 
L 628 4666 
z
" transform="scale(0.015625)"/>
      <path id="DejaVuSans-63" d="M 3122 3366 
L 3122 2828 
Q 2878 2963 2633 3030 
Q 2388 3097 2138 3097 
Q 1578 3097 1268 2742 
Q 959 2388 959 1747 
Q 959 1106 1268 751 
Q 1578 397 2138 397 
Q 2388 397 2633 464 
Q 2878 531 3122 666 
L 3122 134 
Q 2881 22 2623 -34 
Q 2366 -91 2075 -91 
Q 1284 -91 818 406 
Q 353 903 353 1747 
Q 353 2603 823 3093 
Q 1294 3584 2113 3584 
Q 2378 3584 2631 3529 
Q 2884 3475 3122 3366 
z
" transform="scale(0.015625)"/>
      <path id="DejaVuSans-6f" d="M 1959 3097 
Q 1497 3097 1228 2736 
Q 959 2375 959 1747 
Q 959 1119 1226 758 
Q 1494 397 1959 397 
Q 2419 397 2687 759 
Q 2956 1122 2956 1747 
Q 2956 2369 2687 2733 
Q 2419 3097 1959 3097 
z
M 1959 3584 
Q 2709 3584 3137 3096 
Q 3566 2609 3566 1747 
Q 3566 888 3137 398 
Q 2709 -91 1959 -91 
Q 1206 -91 779 398 
Q 353 888 353 1747 
Q 353 2609 779 3096 
Q 1206 3584 1959 3584 
z
" transform="scale(0.015625)"/>
      <path id="DejaVuSans-72" d="M 2631 2963 
Q 2534 3019 2420 3045 
Q 2306 3072 2169 3072 
Q 1681 3072 1420 2755 
Q 1159 2438 1159 1844 
L 1159 0 
L 581 0 
L 581 3500 
L 1159 3500 
L 1159 2956 
Q 1341 3275 1631 3429 
Q 1922 3584 2338 3584 
Q 2397 3584 2469 3576 
Q 2541 3569 2628 3553 
L 2631 2963 
z
" transform="scale(0.015625)"/>
     </defs>
     <use xlink:href="#DejaVuSans-42"/>
     <use xlink:href="#DejaVuSans-65" transform="translate(68.603516 0)"/>
     <use xlink:href="#DejaVuSans-61" transform="translate(130.126953 0)"/>
     <use xlink:href="#DejaVuSans-74" transform="translate(191.40625 0)"/>
     <use xlink:href="#DejaVuSans-20" transform="translate(230.615234 0)"/>
     <use xlink:href="#DejaVuSans-44" transform="translate(262.402344 0)"/>
     <use xlink:href="#DejaVuSans-65" transform="translate(339.404297 0)"/>
     <use xlink:href="#DejaVuSans-74" transform="translate(400.927734 0)"/>
     <use xlink:href="#DejaVuSans-65" transform="translate(440.136719 0)"/>
     <use xlink:href="#DejaVuSans-63" transform="translate(501.660156 0)"/>
     <use xlink:href="#DejaVuSans-74" transform="translate(556.640625 0)"/>
     <use xlink:href="#DejaVuSans-6f" transform="translate(595.849609 0)"/>
     <use xlink:href="#DejaVuSans-72" transform="translate(657.03125 0)"/>
    </g>
   </g>
   <g id="text_4">
    <!-- BFO -->
    <g transform="translate(221.176662 124.877947) scale(0.14 -0.14)">
     <defs>
      <path id="DejaVuSans-46" d="M 628 4666 
L 3309 4666 
L 3309 4134 
L 1259 4134 
L 1259 2759 
L 3109 2759 
L 3109 2228 
L 1259 2228 
L 1259 0 
L 628 0 
L 628 4666 
z
" transform="scale(0.015625)"/>
      <path id="DejaVuSans-4f" d="M 2522 4238 
Q 1834 4238 1429 3725 
Q 1025 3213 1025 2328 
Q 1025 1447 1429 934 
Q 1834 422 2522 422 
Q 3209 422 3611 934 
Q 4013 1447 4013 2328 
Q 4013 3213 3611 3725 
Q 3209 4238 2522 4238 
z
M 2522 4750 
Q 3503 4750 4090 4092 
Q 4678 3434 4678 2328 
Q 4678 1225 4090 567 
Q 3503 -91 2522 -91 
Q 1538 -91 948 565 
Q 359 1222 359 2328 
Q 359 3434 948 4092 
Q 1538 4750 2522 4750 
z
" transform="scale(0.015625)"/>
     </defs>
     <use xlink:href="#DejaVuSans-42"/>
     <use xlink:href="#DejaVuSans-46" transform="translate(68.603516 0)"/>
     <use xlink:href="#DejaVuSans-4f" transform="translate(126.123047 0)"/>
    </g>
   </g>
   <g id="text_5">
    <!-- C_out -->
    <g transform="translate(305.437925 159.023363) scale(0.14 -0.14)">
     <use xlink:href="#DejaVuSans-43"/>
     <use xlink:href="#DejaVuSans-5f" transform="translate(69.824219 0)"/>
     <use xlink:href="#DejaVuSans-6f" transform="translate(119.824219 0)"/>
     <use xlink:href="#DejaVuSans-75" transform="translate(181.005859 0)"/>
     <use xlink:href="#DejaVuSans-74" transform="translate(244.384766 0)"/>
    </g>
   </g>
   <g id="text_6">
    <!-- Audio Output -->
    <g transform="translate(336.327296 175.167748) scale(0.14 -0.14)">
     <defs>
      <path id="DejaVuSans-41" d="M 2188 4044 
L 1331 1722 
L 3047 1722 
L 2188 4044 
z
M 1831 4666 
L 2547 4666 
L 4325 0 
L 3669 0 
L 3244 1197 
L 1141 1197 
L 716 0 
L 50 0 
L 1831 4666 
z
" transform="scale(0.015625)"/>
      <path id="DejaVuSans-64" d="M 2906 2969 
L 2906 4863 
L 3481 4863 
L 3481 0 
L 2906 0 
L 2906 525 
Q 2725 213 2448 61 
Q 2172 -91 1784 -91 
Q 1150 -91 751 415 
Q 353 922 353 1747 
Q 353 2572 751 3078 
Q 1150 3584 1784 3584 
Q 2172 3584 2448 3432 
Q 2725 3281 2906 2969 
z
M 947 1747 
Q 947 1113 1208 752 
Q 1469 391 1925 391 
Q 2381 391 2643 752 
Q 2906 1113 2906 1747 
Q 2906 2381 2643 2742 
Q 2381 3103 1925 3103 
Q 1469 3103 1208 2742 
Q 947 2381 947 1747 
z
" transform="scale(0.015625)"/>
     </defs>
     <use xlink:href="#DejaVuSans-41"/>
     <use xlink:href="#DejaVuSans-75" transform="translate(68.408203 0)"/>
     <use xlink:href="#DejaVuSans-64" transform="translate(131.787109 0)"/>
     <use xlink:href="#DejaVuSans-69" transform="translate(195.263672 0)"/>
     <use xlink:href="#DejaVuSans-6f" transform="translate(223.046875 0)"/>
     <use xlink:href="#DejaVuSans-20" transform="translate(284.228516 0)"/>
     <use xlink:href="#DejaVuSans-4f" transform="translate(316.015625 0)"/>
     <use xlink:href="#DejaVuSans-75" transform="translate(394.726562 0)"/>
     <use xlink:href="#DejaVuSans-74" transform="translate(458.105469 0)"/>
     <use xlink:href="#DejaVuSans-70" transform="translate(497.314453 0)"/>
     <use xlink:href="#DejaVuSans-75" transform="translate(560.791016 0)"/>
     <use xlink:href="#DejaVuSans-74" transform="translate(624.169922 0)"/>
    </g>
   </g>
   <g id="text_7">
    <!-- R_L -->
    <g transform="translate(342.070529 232.25243) scale(0.14 -0.14)">
     <defs>
      <path id="DejaVuSans-52" d="M 2841 2188 
Q 3044 2119 3236 1894 
Q 3428 1669 3622 1275 
L 4263 0 
L 3584 0 
L 2988 1197 
Q 2756 1666 2539 1819 
Q 2322 1972 1947 1972 
L 1259 1972 
L 1259 0 
L 628 0 
L 628 4666 
L 2053 4666 
Q 2853 4666 3247 4331 
Q 3641 3997 3641 3322 
Q 3641 2881 3436 2590 
Q 3231 2300 2841 2188 
z
M 1259 4147 
L 1259 2491 
L 2053 2491 
Q 2509 2491 2742 2702 
Q 2975 2913 2975 3322 
Q 2975 3731 2742 3939 
Q 2509 4147 2053 4147 
L 1259 4147 
z
" transform="scale(0.015625)"/>
      <path id="DejaVuSans-4c" d="M 628 4666 
L 1259 4666 
L 1259 531 
L 3531 531 
L 3531 0 
L 628 0 
L 628 4666 
z
" transform="scale(0.015625)"/>
     </defs>
     <use xlink:href="#DejaVuSans-52"/>
     <use xlink:href="#DejaVuSans-5f" transform="translate(69.482422 0)"/>
     <use xlink:href="#DejaVuSans-4c" transform="translate(119.482422 0)"/>
    </g>
   </g>
  </g>
 </g>
 <defs>
  <clipPath id="pc6fbed67c5">
   <rect x="1.899841" y="0" width="427.274007" height="310.32"/>
  </clipPath>
 </defs>
</svg>
