<?xml version="1.0" encoding="utf-8" standalone="no"?>
<!DOCTYPE svg PUBLIC "-//W3C//DTD SVG 1.1//EN"
  "http://www.w3.org/Graphics/SVG/1.1/DTD/svg11.dtd">
<svg xmlns:xlink="http://www.w3.org/1999/xlink" width="561.305136pt" height="382.32pt" viewBox="0 0 561.305136 382.32" xmlns="http://www.w3.org/2000/svg" version="1.1">
 <metadata>
  <rdf:RDF xmlns:dc="http://purl.org/dc/elements/1.1/" xmlns:cc="http://creativecommons.org/ns#" xmlns:rdf="http://www.w3.org/1999/02/22-rdf-syntax-ns#">
   <cc:Work>
    <dc:type rdf:resource="http://purl.org/dc/dcmitype/StillImage"/>
    <dc:date>2025-11-21T22:31:51.313495</dc:date>
    <dc:format>image/svg+xml</dc:format>
    <dc:creator>
     <cc:Agent>
      <dc:title>Matplotlib v3.10.7, https://matplotlib.org/</dc:title>
     </cc:Agent>
    </dc:creator>
   </cc:Work>
  </rdf:RDF>
 </metadata>
 <defs>
  <style type="text/css">*{stroke-linejoin: round; stroke-linecap: butt}</style>
 </defs>
 <g id="figure_1">
  <g id="patch_1">
   <path d="M 0 382.32 
L 561.305136 382.32 
L 561.305136 0 
L 0 0 
L 0 382.32 
z
" style="fill: none"/>
  </g>
  <g id="axes_1">
   <g id="patch_2">
    <path d="M 80.042275 103.096631 
C 84.807456 103.096631 89.378108 101.203405 92.747599 97.833913 
C 96.117091 94.464422 98.010317 89.893769 98.010317 85.128589 
C 98.010317 80.363409 96.117091 75.792756 92.747599 72.423265 
C 89.378108 69.053773 84.807456 67.160547 80.042275 67.160547 
C 75.277095 67.160547 70.706442 69.053773 67.336951 72.423265 
C 63.96746 75.792756 62.074233 80.363409 62.074233 85.128589 
C 62.074233 89.893769 63.96746 94.464422 67.336951 97.833913 
C 70.706442 101.203405 75.277095 103.096631 80.042275 103.096631 
L 80.042275 103.096631 
z
" clip-path="url(#p2ce47459e2)" style="fill: none; stroke: #000000; stroke-width: 2; stroke-linejoin: miter"/>
   </g>
   <g id="patch_3">
    <path d="M 232.77063 31.224464 
C 232.77063 30.033565 232.297043 28.890225 231.454951 28.048133 
C 230.612859 27.20604 229.469518 26.732453 228.27862 26.732453 
C 227.087721 26.732453 225.944381 27.20604 225.102289 28.048133 
C 224.260196 28.890225 223.786609 30.033565 223.786609 31.224464 
" clip-path="url(#p2ce47459e2)" style="fill: none; stroke: #000000; stroke-width: 2; stroke-linejoin: miter"/>
   </g>
   <g id="patch_4">
    <path d="M 241.754651 31.224464 
C 241.754651 30.033565 241.281064 28.890225 240.438972 28.048133 
C 239.596879 27.20604 238.453539 26.732453 237.262641 26.732453 
C 236.071742 26.732453 234.928402 27.20604 234.08631 28.048133 
C 233.244217 28.890225 232.77063 30.033565 232.77063 31.224464 
" clip-path="url(#p2ce47459e2)" style="fill: none; stroke: #000000; stroke-width: 2; stroke-linejoin: miter"/>
   </g>
   <g id="patch_5">
    <path d="M 250.738672 31.224464 
C 250.738672 30.033565 250.265085 28.890225 249.422993 28.048133 
C 248.5809 27.20604 247.43756 26.732453 246.246662 26.732453 
C 245.055763 26.732453 243.912423 27.20604 243.070331 28.048133 
C 242.228238 28.890225 241.754651 30.033565 241.754651 31.224464 
" clip-path="url(#p2ce47459e2)" style="fill: none; stroke: #000000; stroke-width: 2; stroke-linejoin: miter"/>
   </g>
   <g id="patch_6">
    <path d="M 259.722693 31.224464 
C 259.722693 30.033565 259.249106 28.890225 258.407013 28.048133 
C 257.564921 27.20604 256.421581 26.732453 255.230682 26.732453 
C 254.039784 26.732453 252.896444 27.20604 252.054351 28.048133 
C 251.212259 28.890225 250.738672 30.033565 250.738672 31.224464 
" clip-path="url(#p2ce47459e2)" style="fill: none; stroke: #000000; stroke-width: 2; stroke-linejoin: miter"/>
   </g>
   <g id="patch_7">
    <path d="M 343.274087 130.048693 
L 355.851716 139.032714 
L 343.274087 148.016735 
L 343.274087 130.048693 
z
" clip-path="url(#p2ce47459e2)" style="fill: none; stroke: #000000; stroke-width: 2; stroke-linecap: round"/>
   </g>
   <g id="line2d_1">
    <path d="M 80.042275 139.032714 
L 80.042275 103.096631 
L 80.042275 103.096631 
M 80.042275 67.160547 
L 80.042275 67.160547 
L 80.042275 31.224464 
" clip-path="url(#p2ce47459e2)" style="fill: none; stroke: #000000; stroke-width: 2; stroke-linecap: round"/>
   </g>
   <g id="line2d_2">
    <path d="M 89.026296 85.128589 
L 88.277628 83.2684 
L 87.528959 81.534981 
L 86.780291 80.046459 
L 86.031622 78.904277 
L 85.282954 78.186271 
L 84.534286 77.941372 
L 83.785617 78.186271 
L 83.036949 78.904277 
L 82.28828 80.046459 
L 81.539612 81.534981 
L 80.790944 83.2684 
L 80.042275 85.128589 
L 79.293607 86.988778 
L 78.544938 88.722197 
L 77.79627 90.210719 
L 77.047602 91.352901 
L 76.298933 92.070907 
L 75.550265 92.315806 
L 74.801596 92.070907 
L 74.052928 91.352901 
L 73.304259 90.210719 
L 72.555591 88.722197 
L 71.806923 86.988778 
L 71.058254 85.128589 
" clip-path="url(#p2ce47459e2)" style="fill: none; stroke: #000000; stroke-width: 2; stroke-linecap: round"/>
   </g>
   <g id="line2d_3">
    <path d="M 80.042275 31.224464 
L 130.712153 31.224464 
M 130.712153 22.240443 
L 130.712153 40.208485 
M 137.180648 22.240443 
L 137.180648 40.208485 
M 137.180648 31.224464 
L 187.850526 31.224464 
" clip-path="url(#p2ce47459e2)" style="fill: none; stroke: #000000; stroke-width: 2; stroke-linecap: round"/>
   </g>
   <g id="line2d_4">
    <path d="M 187.850526 31.224464 
L 223.786609 31.224464 
M 259.722693 31.224464 
L 295.658776 31.224464 
" clip-path="url(#p2ce47459e2)" style="fill: none; stroke: #000000; stroke-width: 2; stroke-linecap: round"/>
   </g>
   <g id="line2d_5">
    <path d="M 295.658776 31.224464 
L 295.658776 81.894342 
M 304.642797 81.894342 
L 286.674756 81.894342 
M 304.642797 88.362837 
L 286.674756 88.362837 
M 295.658776 88.362837 
L 295.658776 139.032714 
" clip-path="url(#p2ce47459e2)" style="fill: none; stroke: #000000; stroke-width: 2; stroke-linecap: round"/>
   </g>
   <g id="line2d_6">
    <path d="M 295.658776 139.032714 
L 295.658776 153.407148 
L 286.674756 153.407148 
L 304.642797 153.407148 
M 289.369962 157.719478 
L 301.947591 157.719478 
M 293.861972 162.031808 
L 297.455581 162.031808 
" clip-path="url(#p2ce47459e2)" style="fill: none; stroke: #000000; stroke-width: 2; stroke-linecap: round"/>
   </g>
   <g id="line2d_7">
    <path d="M 295.658776 139.032714 
L 343.274087 139.032714 
M 355.851716 130.048693 
L 355.851716 148.016735 
M 355.851716 139.032714 
L 403.467027 139.032714 
" clip-path="url(#p2ce47459e2)" style="fill: none; stroke: #000000; stroke-width: 2; stroke-linecap: round"/>
   </g>
   <g id="line2d_8">
    <path d="M 403.467027 139.032714 
L 403.467027 189.702592 
M 412.451048 189.702592 
L 394.483006 189.702592 
M 412.451048 196.171087 
L 394.483006 196.171087 
M 403.467027 196.171087 
L 403.467027 246.840965 
" clip-path="url(#p2ce47459e2)" style="fill: none; stroke: #000000; stroke-width: 2; stroke-linecap: round"/>
   </g>
   <g id="line2d_9">
    <path d="M 403.467027 246.840965 
L 403.467027 261.215398 
L 394.483006 261.215398 
L 412.451048 261.215398 
M 397.178212 265.527728 
L 409.755842 265.527728 
M 401.670223 269.840058 
L 405.263831 269.840058 
" clip-path="url(#p2ce47459e2)" style="fill: none; stroke: #000000; stroke-width: 2; stroke-linecap: round"/>
   </g>
   <g id="line2d_10">
    <path d="M 403.467027 246.840965 
L 457.371152 246.840965 
L 511.275278 246.840965 
" clip-path="url(#p2ce47459e2)" style="fill: none; stroke: #000000; stroke-width: 2; stroke-linecap: round"/>
   </g>
   <g id="line2d_11">
    <path d="M 511.275278 246.840965 
L 511.275278 282.777049 
L 520.259299 285.771722 
L 502.291257 291.761069 
L 520.259299 297.750417 
L 502.291257 303.739764 
L 520.259299 309.729111 
L 502.291257 315.718458 
L 511.275278 318.713132 
L 511.275278 354.649216 
" clip-path="url(#p2ce47459e2)" style="fill: none; stroke: #000000; stroke-width: 2; stroke-linecap: round"/>
   </g>
   <g id="line2d_12">
    <path d="M 511.275278 354.649216 
L 511.275278 369.023649 
L 502.291257 369.023649 
L 520.259299 369.023649 
M 504.986463 373.335979 
L 517.564092 373.335979 
M 509.478474 377.648309 
L 513.072082 377.648309 
" clip-path="url(#p2ce47459e2)" style="fill: none; stroke: #000000; stroke-width: 2; stroke-linecap: round"/>
   </g>
   <g id="text_1">
    <!-- RF Input -->
    <g transform="translate(0 88.991714) scale(0.14 -0.14)">
     <defs>
      <path id="DejaVuSans-52" d="M 2841 2188 
Q 3044 2119 3236 1894 
Q 3428 1669 3622 1275 
L 4263 0 
L 3584 0 
L 2988 1197 
Q 2756 1666 2539 1819 
Q 2322 1972 1947 1972 
L 1259 1972 
L 1259 0 
L 628 0 
L 628 4666 
L 2053 4666 
Q 2853 4666 3247 4331 
Q 3641 3997 3641 3322 
Q 3641 2881 3436 2590 
Q 3231 2300 2841 2188 
z
M 1259 4147 
L 1259 2491 
L 2053 2491 
Q 2509 2491 2742 2702 
Q 2975 2913 2975 3322 
Q 2975 3731 2742 3939 
Q 2509 4147 2053 4147 
L 1259 4147 
z
" transform="scale(0.015625)"/>
      <path id="DejaVuSans-46" d="M 628 4666 
L 3309 4666 
L 3309 4134 
L 1259 4134 
L 1259 2759 
L 3109 2759 
L 3109 2228 
L 1259 2228 
L 1259 0 
L 628 0 
L 628 4666 
z
" transform="scale(0.015625)"/>
      <path id="DejaVuSans-20" transform="scale(0.015625)"/>
      <path id="DejaVuSans-49" d="M 628 4666 
L 1259 4666 
L 1259 0 
L 628 0 
L 628 4666 
z
" transform="scale(0.015625)"/>
      <path id="DejaVuSans-6e" d="M 3513 2113 
L 3513 0 
L 2938 0 
L 2938 2094 
Q 2938 2591 2744 2837 
Q 2550 3084 2163 3084 
Q 1697 3084 1428 2787 
Q 1159 2491 1159 1978 
L 1159 0 
L 581 0 
L 581 3500 
L 1159 3500 
L 1159 2956 
Q 1366 3272 1645 3428 
Q 1925 3584 2291 3584 
Q 2894 3584 3203 3211 
Q 3513 2838 3513 2113 
z
" transform="scale(0.015625)"/>
      <path id="DejaVuSans-70" d="M 1159 525 
L 1159 -1331 
L 581 -1331 
L 581 3500 
L 1159 3500 
L 1159 2969 
Q 1341 3281 1617 3432 
Q 1894 3584 2278 3584 
Q 2916 3584 3314 3078 
Q 3713 2572 3713 1747 
Q 3713 922 3314 415 
Q 2916 -91 2278 -91 
Q 1894 -91 1617 61 
Q 1341 213 1159 525 
z
M 3116 1747 
Q 3116 2381 2855 2742 
Q 2594 3103 2138 3103 
Q 1681 3103 1420 2742 
Q 1159 2381 1159 1747 
Q 1159 1113 1420 752 
Q 1681 391 2138 391 
Q 2594 391 2855 752 
Q 3116 1113 3116 1747 
z
" transform="scale(0.015625)"/>
      <path id="DejaVuSans-75" d="M 544 1381 
L 544 3500 
L 1119 3500 
L 1119 1403 
Q 1119 906 1312 657 
Q 1506 409 1894 409 
Q 2359 409 2629 706 
Q 2900 1003 2900 1516 
L 2900 3500 
L 3475 3500 
L 3475 0 
L 2900 0 
L 2900 538 
Q 2691 219 2414 64 
Q 2138 -91 1772 -91 
Q 1169 -91 856 284 
Q 544 659 544 1381 
z
M 1991 3584 
L 1991 3584 
z
" transform="scale(0.015625)"/>
      <path id="DejaVuSans-74" d="M 1172 4494 
L 1172 3500 
L 2356 3500 
L 2356 3053 
L 1172 3053 
L 1172 1153 
Q 1172 725 1289 603 
Q 1406 481 1766 481 
L 2356 481 
L 2356 0 
L 1766 0 
Q 1100 0 847 248 
Q 594 497 594 1153 
L 594 3053 
L 172 3053 
L 172 3500 
L 594 3500 
L 594 4494 
L 1172 4494 
z
" transform="scale(0.015625)"/>
     </defs>
     <use xlink:href="#DejaVuSans-52"/>
     <use xlink:href="#DejaVuSans-46" transform="translate(69.482422 0)"/>
     <use xlink:href="#DejaVuSans-20" transform="translate(127.001953 0)"/>
     <use xlink:href="#DejaVuSans-49" transform="translate(158.789062 0)"/>
     <use xlink:href="#DejaVuSans-6e" transform="translate(188.28125 0)"/>
     <use xlink:href="#DejaVuSans-70" transform="translate(251.660156 0)"/>
     <use xlink:href="#DejaVuSans-75" transform="translate(315.136719 0)"/>
     <use xlink:href="#DejaVuSans-74" transform="translate(378.515625 0)"/>
    </g>
   </g>
   <g id="text_2">
    <!-- C_c -->
    <g transform="translate(121.709525 15.345897) scale(0.14 -0.14)">
     <defs>
      <path id="DejaVuSans-43" d="M 4122 4306 
L 4122 3641 
Q 3803 3938 3442 4084 
Q 3081 4231 2675 4231 
Q 1875 4231 1450 3742 
Q 1025 3253 1025 2328 
Q 1025 1406 1450 917 
Q 1875 428 2675 428 
Q 3081 428 3442 575 
Q 3803 722 4122 1019 
L 4122 359 
Q 3791 134 3420 21 
Q 3050 -91 2638 -91 
Q 1578 -91 968 557 
Q 359 1206 359 2328 
Q 359 3453 968 4101 
Q 1578 4750 2638 4750 
Q 3056 4750 3426 4639 
Q 3797 4528 4122 4306 
z
" transform="scale(0.015625)"/>
      <path id="DejaVuSans-5f" d="M 3263 -1063 
L 3263 -1509 
L -63 -1509 
L -63 -1063 
L 3263 -1063 
z
" transform="scale(0.015625)"/>
      <path id="DejaVuSans-63" d="M 3122 3366 
L 3122 2828 
Q 2878 2963 2633 3030 
Q 2388 3097 2138 3097 
Q 1578 3097 1268 2742 
Q 959 2388 959 1747 
Q 959 1106 1268 751 
Q 1578 397 2138 397 
Q 2388 397 2633 464 
Q 2878 531 3122 666 
L 3122 134 
Q 2881 22 2623 -34 
Q 2366 -91 2075 -91 
Q 1284 -91 818 406 
Q 353 903 353 1747 
Q 353 2603 823 3093 
Q 1294 3584 2113 3584 
Q 2378 3584 2631 3529 
Q 2884 3475 3122 3366 
z
" transform="scale(0.015625)"/>
     </defs>
     <use xlink:href="#DejaVuSans-43"/>
     <use xlink:href="#DejaVuSans-5f" transform="translate(69.824219 0)"/>
     <use xlink:href="#DejaVuSans-63" transform="translate(119.824219 0)"/>
    </g>
   </g>
   <g id="text_3">
    <!-- L -->
    <g transform="translate(237.854339 20.227305) scale(0.14 -0.14)">
     <defs>
      <path id="DejaVuSans-4c" d="M 628 4666 
L 1259 4666 
L 1259 531 
L 3531 531 
L 3531 0 
L 628 0 
L 628 4666 
z
" transform="scale(0.015625)"/>
     </defs>
     <use xlink:href="#DejaVuSans-4c"/>
    </g>
   </g>
   <g id="text_4">
    <!-- C -->
    <g transform="translate(273.30521 88.991714) scale(0.14 -0.14)">
     <use xlink:href="#DejaVuSans-43"/>
    </g>
   </g>
   <g id="text_5">
    <!-- D1 -->
    <g transform="translate(339.719152 123.543523) scale(0.14 -0.14)">
     <defs>
      <path id="DejaVuSans-44" d="M 1259 4147 
L 1259 519 
L 2022 519 
Q 2988 519 3436 956 
Q 3884 1394 3884 2338 
Q 3884 3275 3436 3711 
Q 2988 4147 2022 4147 
L 1259 4147 
z
M 628 4666 
L 1925 4666 
Q 3281 4666 3915 4102 
Q 4550 3538 4550 2338 
Q 4550 1131 3912 565 
Q 3275 0 1925 0 
L 628 0 
L 628 4666 
z
" transform="scale(0.015625)"/>
      <path id="DejaVuSans-31" d="M 794 531 
L 1825 531 
L 1825 4091 
L 703 3866 
L 703 4441 
L 1819 4666 
L 2450 4666 
L 2450 531 
L 3481 531 
L 3481 0 
L 794 0 
L 794 531 
z
" transform="scale(0.015625)"/>
     </defs>
     <use xlink:href="#DejaVuSans-44"/>
     <use xlink:href="#DejaVuSans-31" transform="translate(77.001953 0)"/>
    </g>
   </g>
   <g id="text_6">
    <!-- C_out -->
    <g transform="translate(351.186273 196.481683) scale(0.14 -0.14)">
     <defs>
      <path id="DejaVuSans-6f" d="M 1959 3097 
Q 1497 3097 1228 2736 
Q 959 2375 959 1747 
Q 959 1119 1226 758 
Q 1494 397 1959 397 
Q 2419 397 2687 759 
Q 2956 1122 2956 1747 
Q 2956 2369 2687 2733 
Q 2419 3097 1959 3097 
z
M 1959 3584 
Q 2709 3584 3137 3096 
Q 3566 2609 3566 1747 
Q 3566 888 3137 398 
Q 2709 -91 1959 -91 
Q 1206 -91 779 398 
Q 353 888 353 1747 
Q 353 2609 779 3096 
Q 1206 3584 1959 3584 
z
" transform="scale(0.015625)"/>
     </defs>
     <use xlink:href="#DejaVuSans-43"/>
     <use xlink:href="#DejaVuSans-5f" transform="translate(69.824219 0)"/>
     <use xlink:href="#DejaVuSans-6f" transform="translate(119.824219 0)"/>
     <use xlink:href="#DejaVuSans-75" transform="translate(181.005859 0)"/>
     <use xlink:href="#DejaVuSans-74" transform="translate(244.384766 0)"/>
    </g>
   </g>
   <g id="text_7">
    <!-- Audio Output -->
    <g transform="translate(468.432636 247.110482) scale(0.14 -0.14)">
     <defs>
      <path id="DejaVuSans-41" d="M 2188 4044 
L 1331 1722 
L 3047 1722 
L 2188 4044 
z
M 1831 4666 
L 2547 4666 
L 4325 0 
L 3669 0 
L 3244 1197 
L 1141 1197 
L 716 0 
L 50 0 
L 1831 4666 
z
" transform="scale(0.015625)"/>
      <path id="DejaVuSans-64" d="M 2906 2969 
L 2906 4863 
L 3481 4863 
L 3481 0 
L 2906 0 
L 2906 525 
Q 2725 213 2448 61 
Q 2172 -91 1784 -91 
Q 1150 -91 751 415 
Q 353 922 353 1747 
Q 353 2572 751 3078 
Q 1150 3584 1784 3584 
Q 2172 3584 2448 3432 
Q 2725 3281 2906 2969 
z
M 947 1747 
Q 947 1113 1208 752 
Q 1469 391 1925 391 
Q 2381 391 2643 752 
Q 2906 1113 2906 1747 
Q 2906 2381 2643 2742 
Q 2381 3103 1925 3103 
Q 1469 3103 1208 2742 
Q 947 2381 947 1747 
z
" transform="scale(0.015625)"/>
      <path id="DejaVuSans-69" d="M 603 3500 
L 1178 3500 
L 1178 0 
L 603 0 
L 603 3500 
z
M 603 4863 
L 1178 4863 
L 1178 4134 
L 603 4134 
L 603 4863 
z
" transform="scale(0.015625)"/>
      <path id="DejaVuSans-4f" d="M 2522 4238 
Q 1834 4238 1429 3725 
Q 1025 3213 1025 2328 
Q 1025 1447 1429 934 
Q 1834 422 2522 422 
Q 3209 422 3611 934 
Q 4013 1447 4013 2328 
Q 4013 3213 3611 3725 
Q 3209 4238 2522 4238 
z
M 2522 4750 
Q 3503 4750 4090 4092 
Q 4678 3434 4678 2328 
Q 4678 1225 4090 567 
Q 3503 -91 2522 -91 
Q 1538 -91 948 565 
Q 359 1222 359 2328 
Q 359 3434 948 4092 
Q 1538 4750 2522 4750 
z
" transform="scale(0.015625)"/>
     </defs>
     <use xlink:href="#DejaVuSans-41"/>
     <use xlink:href="#DejaVuSans-75" transform="translate(68.408203 0)"/>
     <use xlink:href="#DejaVuSans-64" transform="translate(131.787109 0)"/>
     <use xlink:href="#DejaVuSans-69" transform="translate(195.263672 0)"/>
     <use xlink:href="#DejaVuSans-6f" transform="translate(223.046875 0)"/>
     <use xlink:href="#DejaVuSans-20" transform="translate(284.228516 0)"/>
     <use xlink:href="#DejaVuSans-4f" transform="translate(316.015625 0)"/>
     <use xlink:href="#DejaVuSans-75" transform="translate(394.726562 0)"/>
     <use xlink:href="#DejaVuSans-74" transform="translate(458.105469 0)"/>
     <use xlink:href="#DejaVuSans-70" transform="translate(497.314453 0)"/>
     <use xlink:href="#DejaVuSans-75" transform="translate(560.791016 0)"/>
     <use xlink:href="#DejaVuSans-74" transform="translate(624.169922 0)"/>
    </g>
   </g>
   <g id="text_8">
    <!-- R_L -->
    <g transform="translate(474.169211 304.21884) scale(0.14 -0.14)">
     <use xlink:href="#DejaVuSans-52"/>
     <use xlink:href="#DejaVuSans-5f" transform="translate(69.482422 0)"/>
     <use xlink:href="#DejaVuSans-4c" transform="translate(119.482422 0)"/>
    </g>
   </g>
  </g>
 </g>
 <defs>
  <clipPath id="p2ce47459e2">
   <rect x="1.066742" y="0" width="560.231564" height="382.32"/>
  </clipPath>
 </defs>
</svg>
