<?xml version="1.0" encoding="utf-8" standalone="no"?>
<!DOCTYPE svg PUBLIC "-//W3C//DTD SVG 1.1//EN"
  "http://www.w3.org/Graphics/SVG/1.1/DTD/svg11.dtd">
<svg xmlns:xlink="http://www.w3.org/1999/xlink" width="81.36pt" height="31.459978pt" viewBox="0 0 81.36 31.459978" xmlns="http://www.w3.org/2000/svg" version="1.1">
 <metadata>
  <rdf:RDF xmlns:dc="http://purl.org/dc/elements/1.1/" xmlns:cc="http://creativecommons.org/ns#" xmlns:rdf="http://www.w3.org/1999/02/22-rdf-syntax-ns#">
   <cc:Work>
    <dc:type rdf:resource="http://purl.org/dc/dcmitype/StillImage"/>
    <dc:date>2025-11-20T19:58:38.670603</dc:date>
    <dc:format>image/svg+xml</dc:format>
    <dc:creator>
     <cc:Agent>
      <dc:title>Matplotlib v3.10.7, https://matplotlib.org/</dc:title>
     </cc:Agent>
    </dc:creator>
   </cc:Work>
  </rdf:RDF>
 </metadata>
 <defs>
  <style type="text/css">*{stroke-linejoin: round; stroke-linecap: butt}</style>
 </defs>
 <g id="figure_1">
  <g id="patch_1">
   <path d="M 0 31.459978 
L 81.36 31.459978 
L 81.36 0 
L 0 0 
z
" style="fill: #ffffff"/>
  </g>
  <g id="axes_1">
   <g id="patch_2">
    <path d="M 20.88 9.179978 
C 20.88 7.986961 20.405571 6.841587 19.561981 5.997997 
C 18.71839 5.154407 17.573016 4.679978 16.38 4.679978 
C 15.186984 4.679978 14.04161 5.154407 13.198019 5.997997 
C 12.354429 6.841587 11.88 7.986961 11.88 9.179978 
" clip-path="url(#p5d580f060f)" style="fill: none; stroke: #000000; stroke-width: 2; stroke-linejoin: miter"/>
   </g>
   <g id="patch_3">
    <path d="M 29.88 9.179978 
C 29.88 7.986961 29.405571 6.841587 28.561981 5.997997 
C 27.71839 5.154407 26.573016 4.679978 25.38 4.679978 
C 24.186984 4.679978 23.04161 5.154407 22.198019 5.997997 
C 21.354429 6.841587 20.88 7.986961 20.88 9.179978 
" clip-path="url(#p5d580f060f)" style="fill: none; stroke: #000000; stroke-width: 2; stroke-linejoin: miter"/>
   </g>
   <g id="patch_4">
    <path d="M 38.88 9.179978 
C 38.88 7.986961 38.405571 6.841587 37.561981 5.997997 
C 36.71839 5.154407 35.573016 4.679978 34.38 4.679978 
C 33.186984 4.679978 32.04161 5.154407 31.198019 5.997997 
C 30.354429 6.841587 29.88 7.986961 29.88 9.179978 
" clip-path="url(#p5d580f060f)" style="fill: none; stroke: #000000; stroke-width: 2; stroke-linejoin: miter"/>
   </g>
   <g id="patch_5">
    <path d="M 47.88 9.179978 
C 47.88 7.986961 47.405571 6.841587 46.561981 5.997997 
C 45.71839 5.154407 44.573016 4.679978 43.38 4.679978 
C 42.186984 4.679978 41.04161 5.154407 40.198019 5.997997 
C 39.354429 6.841587 38.88 7.986961 38.88 9.179978 
" clip-path="url(#p5d580f060f)" style="fill: none; stroke: #000000; stroke-width: 2; stroke-linejoin: miter"/>
   </g>
   <g id="line2d_1">
    <path d="M 26.28 9.179978 
L 15.48 9.179978 
L 4.68 9.179978 
" clip-path="url(#p5d580f060f)" style="fill: none; stroke: #000000; stroke-width: 2; stroke-linecap: round"/>
   </g>
   <g id="line2d_2">
    <path d="M 4.68 9.179978 
L 11.88 9.179978 
M 47.88 9.179978 
L 55.08 9.179978 
" clip-path="url(#p5d580f060f)" style="fill: none; stroke: #000000; stroke-width: 2; stroke-linecap: round"/>
   </g>
   <g id="line2d_3">
    <path d="M 55.08 9.179978 
L 65.88 9.179978 
L 76.68 9.179978 
" clip-path="url(#p5d580f060f)" style="fill: none; stroke: #000000; stroke-width: 2; stroke-linecap: round"/>
   </g>
   <g id="text_1">
    <!-- L -->
    <g transform="translate(25.979687 23.41779) scale(0.14 -0.14)">
     <defs>
      <path id="DejaVuSans-4c" d="M 628 4666 
L 1259 4666 
L 1259 531 
L 3531 531 
L 3531 0 
L 628 0 
L 628 4666 
z
" transform="scale(0.015625)"/>
     </defs>
     <use xlink:href="#DejaVuSans-4c"/>
    </g>
   </g>
  </g>
 </g>
 <defs>
  <clipPath id="p5d580f060f">
   <rect x="0" y="0" width="81.36" height="31.459978"/>
  </clipPath>
 </defs>
</svg>
