<?xml version="1.0" encoding="utf-8" standalone="no"?>
<!DOCTYPE svg PUBLIC "-//W3C//DTD SVG 1.1//EN"
  "http://www.w3.org/Graphics/SVG/1.1/DTD/svg11.dtd">
<svg xmlns:xlink="http://www.w3.org/1999/xlink" width="179.526541pt" height="114.48pt" viewBox="0 0 179.526541 114.48" xmlns="http://www.w3.org/2000/svg" version="1.1">
 <metadata>
  <rdf:RDF xmlns:dc="http://purl.org/dc/elements/1.1/" xmlns:cc="http://creativecommons.org/ns#" xmlns:rdf="http://www.w3.org/1999/02/22-rdf-syntax-ns#">
   <cc:Work>
    <dc:type rdf:resource="http://purl.org/dc/dcmitype/StillImage"/>
    <dc:date>2025-12-07T17:41:43.322048</dc:date>
    <dc:format>image/svg+xml</dc:format>
    <dc:creator>
     <cc:Agent>
      <dc:title>Matplotlib v3.10.7, https://matplotlib.org/</dc:title>
     </cc:Agent>
    </dc:creator>
   </cc:Work>
  </rdf:RDF>
 </metadata>
 <defs>
  <style type="text/css">*{stroke-linejoin: round; stroke-linecap: butt}</style>
 </defs>
 <g id="figure_1">
  <g id="patch_1">
   <path d="M 0 114.48 
L 179.526541 114.48 
L 179.526541 0 
L 0 0 
L 0 114.48 
z
" style="fill: none"/>
  </g>
  <g id="axes_1">
   <g id="patch_2">
    <path d="M 51.963965 72.550456 
C 53.86416 72.550456 55.688472 71.794801 57.032113 70.45116 
C 58.375754 69.107519 59.131409 67.283207 59.131409 65.383012 
C 59.131409 63.482817 58.375754 61.658505 57.032113 60.314864 
C 55.688472 58.971223 53.86416 58.215569 51.963965 58.215569 
" clip-path="url(#pd9ac2c5b49)" style="fill: none; stroke: #000000; stroke-width: 2; stroke-linejoin: miter"/>
   </g>
   <g id="patch_3">
    <path d="M 51.963965 86.885343 
C 53.86416 86.885343 55.688472 86.129688 57.032113 84.786047 
C 58.375754 83.442406 59.131409 81.618094 59.131409 79.717899 
C 59.131409 77.817704 58.375754 75.993392 57.032113 74.649751 
C 55.688472 73.30611 53.86416 72.550456 51.963965 72.550456 
" clip-path="url(#pd9ac2c5b49)" style="fill: none; stroke: #000000; stroke-width: 2; stroke-linejoin: miter"/>
   </g>
   <g id="patch_4">
    <path d="M 87.801183 43.880682 
C 85.900987 43.880682 84.076676 44.636336 82.733035 45.979977 
C 81.389394 47.323618 80.633739 49.14793 80.633739 51.048125 
C 80.633739 52.94832 81.389394 54.772632 82.733035 56.116273 
C 84.076676 57.459914 85.900987 58.215569 87.801183 58.215569 
" clip-path="url(#pd9ac2c5b49)" style="fill: none; stroke: #000000; stroke-width: 2; stroke-linejoin: miter"/>
   </g>
   <g id="patch_5">
    <path d="M 87.801183 58.215569 
C 85.900987 58.215569 84.076676 58.971223 82.733035 60.314864 
C 81.389394 61.658505 80.633739 63.482817 80.633739 65.383012 
C 80.633739 67.283207 81.389394 69.107519 82.733035 70.45116 
C 84.076676 71.794801 85.900987 72.550456 87.801183 72.550456 
" clip-path="url(#pd9ac2c5b49)" style="fill: none; stroke: #000000; stroke-width: 2; stroke-linejoin: miter"/>
   </g>
   <g id="patch_6">
    <path d="M 87.801183 72.550456 
C 85.900987 72.550456 84.076676 73.30611 82.733035 74.649751 
C 81.389394 75.993392 80.633739 77.817704 80.633739 79.717899 
C 80.633739 81.618094 81.389394 83.442406 82.733035 84.786047 
C 84.076676 86.129688 85.900987 86.885343 87.801183 86.885343 
" clip-path="url(#pd9ac2c5b49)" style="fill: none; stroke: #000000; stroke-width: 2; stroke-linejoin: miter"/>
   </g>
   <g id="patch_7">
    <path d="M 87.801183 86.885343 
C 85.900987 86.885343 84.076676 87.640997 82.733035 88.984638 
C 81.389394 90.328279 80.633739 92.152591 80.633739 94.052786 
C 80.633739 95.952981 81.389394 97.777293 82.733035 99.120934 
C 84.076676 100.464575 85.900987 101.22023 87.801183 101.22023 
" clip-path="url(#pd9ac2c5b49)" style="fill: none; stroke: #000000; stroke-width: 2; stroke-linejoin: miter"/>
   </g>
   <g id="line2d_1">
    <path d="M 34.045357 86.885343 
L 43.004661 86.885343 
L 51.963965 86.885343 
" clip-path="url(#pd9ac2c5b49)" style="fill: none; stroke: #000000; stroke-width: 2; stroke-linecap: round"/>
   </g>
   <g id="line2d_2">
    <path d="M 66.298852 43.880682 
L 66.298852 101.22023 
" clip-path="url(#pd9ac2c5b49)" style="fill: none; stroke: #000000; stroke-width: 2; stroke-linecap: round"/>
   </g>
   <g id="line2d_3">
    <path d="M 73.466296 43.880682 
L 73.466296 101.22023 
" clip-path="url(#pd9ac2c5b49)" style="fill: none; stroke: #000000; stroke-width: 2; stroke-linecap: round"/>
   </g>
   <g id="line2d_4">
    <path d="M 87.801183 43.880682 
L 96.760487 43.880682 
L 105.719791 43.880682 
" clip-path="url(#pd9ac2c5b49)" style="fill: none; stroke: #000000; stroke-width: 2; stroke-linecap: round"/>
   </g>
   <g id="line2d_5">
    <path d="M 87.801183 101.22023 
L 96.760487 101.22023 
L 105.719791 101.22023 
" clip-path="url(#pd9ac2c5b49)" style="fill: none; stroke: #000000; stroke-width: 2; stroke-linecap: round"/>
   </g>
   <g id="line2d_6">
    <path d="M 51.963965 86.885343 
L 51.963965 101.22023 
L 43.004661 101.22023 
L 60.92327 101.22023 
M 45.692452 105.520696 
L 58.235478 105.520696 
M 50.172104 109.821162 
L 53.755826 109.821162 
" clip-path="url(#pd9ac2c5b49)" style="fill: none; stroke: #000000; stroke-width: 2; stroke-linecap: round"/>
   </g>
   <g id="text_1">
    <!-- Balun 4:1 -->
    <g transform="translate(111.740887 15.490311) scale(0.14 -0.14)">
     <defs>
      <path id="DejaVuSans-42" d="M 1259 2228 
L 1259 519 
L 2272 519 
Q 2781 519 3026 730 
Q 3272 941 3272 1375 
Q 3272 1813 3026 2020 
Q 2781 2228 2272 2228 
L 1259 2228 
z
M 1259 4147 
L 1259 2741 
L 2194 2741 
Q 2656 2741 2882 2914 
Q 3109 3088 3109 3444 
Q 3109 3797 2882 3972 
Q 2656 4147 2194 4147 
L 1259 4147 
z
M 628 4666 
L 2241 4666 
Q 2963 4666 3353 4366 
Q 3744 4066 3744 3513 
Q 3744 3084 3544 2831 
Q 3344 2578 2956 2516 
Q 3422 2416 3680 2098 
Q 3938 1781 3938 1306 
Q 3938 681 3513 340 
Q 3088 0 2303 0 
L 628 0 
L 628 4666 
z
" transform="scale(0.015625)"/>
      <path id="DejaVuSans-61" d="M 2194 1759 
Q 1497 1759 1228 1600 
Q 959 1441 959 1056 
Q 959 750 1161 570 
Q 1363 391 1709 391 
Q 2188 391 2477 730 
Q 2766 1069 2766 1631 
L 2766 1759 
L 2194 1759 
z
M 3341 1997 
L 3341 0 
L 2766 0 
L 2766 531 
Q 2569 213 2275 61 
Q 1981 -91 1556 -91 
Q 1019 -91 701 211 
Q 384 513 384 1019 
Q 384 1609 779 1909 
Q 1175 2209 1959 2209 
L 2766 2209 
L 2766 2266 
Q 2766 2663 2505 2880 
Q 2244 3097 1772 3097 
Q 1472 3097 1187 3025 
Q 903 2953 641 2809 
L 641 3341 
Q 956 3463 1253 3523 
Q 1550 3584 1831 3584 
Q 2591 3584 2966 3190 
Q 3341 2797 3341 1997 
z
" transform="scale(0.015625)"/>
      <path id="DejaVuSans-6c" d="M 603 4863 
L 1178 4863 
L 1178 0 
L 603 0 
L 603 4863 
z
" transform="scale(0.015625)"/>
      <path id="DejaVuSans-75" d="M 544 1381 
L 544 3500 
L 1119 3500 
L 1119 1403 
Q 1119 906 1312 657 
Q 1506 409 1894 409 
Q 2359 409 2629 706 
Q 2900 1003 2900 1516 
L 2900 3500 
L 3475 3500 
L 3475 0 
L 2900 0 
L 2900 538 
Q 2691 219 2414 64 
Q 2138 -91 1772 -91 
Q 1169 -91 856 284 
Q 544 659 544 1381 
z
M 1991 3584 
L 1991 3584 
z
" transform="scale(0.015625)"/>
      <path id="DejaVuSans-6e" d="M 3513 2113 
L 3513 0 
L 2938 0 
L 2938 2094 
Q 2938 2591 2744 2837 
Q 2550 3084 2163 3084 
Q 1697 3084 1428 2787 
Q 1159 2491 1159 1978 
L 1159 0 
L 581 0 
L 581 3500 
L 1159 3500 
L 1159 2956 
Q 1366 3272 1645 3428 
Q 1925 3584 2291 3584 
Q 2894 3584 3203 3211 
Q 3513 2838 3513 2113 
z
" transform="scale(0.015625)"/>
      <path id="DejaVuSans-20" transform="scale(0.015625)"/>
      <path id="DejaVuSans-34" d="M 2419 4116 
L 825 1625 
L 2419 1625 
L 2419 4116 
z
M 2253 4666 
L 3047 4666 
L 3047 1625 
L 3713 1625 
L 3713 1100 
L 3047 1100 
L 3047 0 
L 2419 0 
L 2419 1100 
L 313 1100 
L 313 1709 
L 2253 4666 
z
" transform="scale(0.015625)"/>
      <path id="DejaVuSans-3a" d="M 750 794 
L 1409 794 
L 1409 0 
L 750 0 
L 750 794 
z
M 750 3309 
L 1409 3309 
L 1409 2516 
L 750 2516 
L 750 3309 
z
" transform="scale(0.015625)"/>
      <path id="DejaVuSans-31" d="M 794 531 
L 1825 531 
L 1825 4091 
L 703 3866 
L 703 4441 
L 1819 4666 
L 2450 4666 
L 2450 531 
L 3481 531 
L 3481 0 
L 794 0 
L 794 531 
z
" transform="scale(0.015625)"/>
     </defs>
     <use xlink:href="#DejaVuSans-42"/>
     <use xlink:href="#DejaVuSans-61" transform="translate(68.603516 0)"/>
     <use xlink:href="#DejaVuSans-6c" transform="translate(129.882812 0)"/>
     <use xlink:href="#DejaVuSans-75" transform="translate(157.666016 0)"/>
     <use xlink:href="#DejaVuSans-6e" transform="translate(221.044922 0)"/>
     <use xlink:href="#DejaVuSans-20" transform="translate(284.423828 0)"/>
     <use xlink:href="#DejaVuSans-34" transform="translate(316.210938 0)"/>
     <use xlink:href="#DejaVuSans-3a" transform="translate(379.833984 0)"/>
     <use xlink:href="#DejaVuSans-31" transform="translate(413.525391 0)"/>
    </g>
   </g>
   <g id="text_2">
    <!-- 1:4 (Z) -->
    <g transform="translate(71.029904 104.53148) scale(0.12 -0.12)">
     <defs>
      <path id="DejaVuSans-28" d="M 1984 4856 
Q 1566 4138 1362 3434 
Q 1159 2731 1159 2009 
Q 1159 1288 1364 580 
Q 1569 -128 1984 -844 
L 1484 -844 
Q 1016 -109 783 600 
Q 550 1309 550 2009 
Q 550 2706 781 3412 
Q 1013 4119 1484 4856 
L 1984 4856 
z
" transform="scale(0.015625)"/>
      <path id="DejaVuSans-5a" d="M 359 4666 
L 4025 4666 
L 4025 4184 
L 1075 531 
L 4097 531 
L 4097 0 
L 288 0 
L 288 481 
L 3238 4134 
L 359 4134 
L 359 4666 
z
" transform="scale(0.015625)"/>
      <path id="DejaVuSans-29" d="M 513 4856 
L 1013 4856 
Q 1481 4119 1714 3412 
Q 1947 2706 1947 2009 
Q 1947 1309 1714 600 
Q 1481 -109 1013 -844 
L 513 -844 
Q 928 -128 1133 580 
Q 1338 1288 1338 2009 
Q 1338 2731 1133 3434 
Q 928 4138 513 4856 
z
" transform="scale(0.015625)"/>
     </defs>
     <use xlink:href="#DejaVuSans-31"/>
     <use xlink:href="#DejaVuSans-3a" transform="translate(63.623047 0)"/>
     <use xlink:href="#DejaVuSans-34" transform="translate(97.314453 0)"/>
     <use xlink:href="#DejaVuSans-20" transform="translate(160.9375 0)"/>
     <use xlink:href="#DejaVuSans-28" transform="translate(192.724609 0)"/>
     <use xlink:href="#DejaVuSans-5a" transform="translate(231.738281 0)"/>
     <use xlink:href="#DejaVuSans-29" transform="translate(300.244141 0)"/>
    </g>
   </g>
   <g id="patch_8">
    <path d="M 34.045357 89.573134 
C 34.758167 89.573134 35.441879 89.289931 35.945912 88.785898 
C 36.449945 88.281865 36.733148 87.598153 36.733148 86.885343 
C 36.733148 86.172532 36.449945 85.48882 35.945912 84.984787 
C 35.441879 84.480754 34.758167 84.197551 34.045357 84.197551 
C 33.332546 84.197551 32.648834 84.480754 32.144801 84.984787 
C 31.640768 85.48882 31.357565 86.172532 31.357565 86.885343 
C 31.357565 87.598153 31.640768 88.281865 32.144801 88.785898 
C 32.648834 89.289931 33.332546 89.573134 34.045357 89.573134 
z
" clip-path="url(#pd9ac2c5b49)" style="stroke: #000000; stroke-width: 2; stroke-linejoin: miter"/>
   </g>
   <g id="text_3">
    <!-- Coax -->
    <g transform="translate(2.625406 84.805655) scale(0.1 -0.1)">
     <defs>
      <path id="DejaVuSans-43" d="M 4122 4306 
L 4122 3641 
Q 3803 3938 3442 4084 
Q 3081 4231 2675 4231 
Q 1875 4231 1450 3742 
Q 1025 3253 1025 2328 
Q 1025 1406 1450 917 
Q 1875 428 2675 428 
Q 3081 428 3442 575 
Q 3803 722 4122 1019 
L 4122 359 
Q 3791 134 3420 21 
Q 3050 -91 2638 -91 
Q 1578 -91 968 557 
Q 359 1206 359 2328 
Q 359 3453 968 4101 
Q 1578 4750 2638 4750 
Q 3056 4750 3426 4639 
Q 3797 4528 4122 4306 
z
" transform="scale(0.015625)"/>
      <path id="DejaVuSans-6f" d="M 1959 3097 
Q 1497 3097 1228 2736 
Q 959 2375 959 1747 
Q 959 1119 1226 758 
Q 1494 397 1959 397 
Q 2419 397 2687 759 
Q 2956 1122 2956 1747 
Q 2956 2369 2687 2733 
Q 2419 3097 1959 3097 
z
M 1959 3584 
Q 2709 3584 3137 3096 
Q 3566 2609 3566 1747 
Q 3566 888 3137 398 
Q 2709 -91 1959 -91 
Q 1206 -91 779 398 
Q 353 888 353 1747 
Q 353 2609 779 3096 
Q 1206 3584 1959 3584 
z
" transform="scale(0.015625)"/>
      <path id="DejaVuSans-78" d="M 3513 3500 
L 2247 1797 
L 3578 0 
L 2900 0 
L 1881 1375 
L 863 0 
L 184 0 
L 1544 1831 
L 300 3500 
L 978 3500 
L 1906 2253 
L 2834 3500 
L 3513 3500 
z
" transform="scale(0.015625)"/>
     </defs>
     <use xlink:href="#DejaVuSans-43"/>
     <use xlink:href="#DejaVuSans-6f" transform="translate(69.824219 0)"/>
     <use xlink:href="#DejaVuSans-61" transform="translate(131.005859 0)"/>
     <use xlink:href="#DejaVuSans-78" transform="translate(192.285156 0)"/>
    </g>
    <!-- 50Ω -->
    <g transform="translate(7.406656 94.48378) scale(0.1 -0.1)">
     <defs>
      <path id="DejaVuSans-35" d="M 691 4666 
L 3169 4666 
L 3169 4134 
L 1269 4134 
L 1269 2991 
Q 1406 3038 1543 3061 
Q 1681 3084 1819 3084 
Q 2600 3084 3056 2656 
Q 3513 2228 3513 1497 
Q 3513 744 3044 326 
Q 2575 -91 1722 -91 
Q 1428 -91 1123 -41 
Q 819 9 494 109 
L 494 744 
Q 775 591 1075 516 
Q 1375 441 1709 441 
Q 2250 441 2565 725 
Q 2881 1009 2881 1497 
Q 2881 1984 2565 2268 
Q 2250 2553 1709 2553 
Q 1456 2553 1204 2497 
Q 953 2441 691 2322 
L 691 4666 
z
" transform="scale(0.015625)"/>
      <path id="DejaVuSans-30" d="M 2034 4250 
Q 1547 4250 1301 3770 
Q 1056 3291 1056 2328 
Q 1056 1369 1301 889 
Q 1547 409 2034 409 
Q 2525 409 2770 889 
Q 3016 1369 3016 2328 
Q 3016 3291 2770 3770 
Q 2525 4250 2034 4250 
z
M 2034 4750 
Q 2819 4750 3233 4129 
Q 3647 3509 3647 2328 
Q 3647 1150 3233 529 
Q 2819 -91 2034 -91 
Q 1250 -91 836 529 
Q 422 1150 422 2328 
Q 422 3509 836 4129 
Q 1250 4750 2034 4750 
z
" transform="scale(0.015625)"/>
      <path id="DejaVuSans-3a9" d="M 4647 556 
L 4647 0 
L 2772 0 
L 2772 556 
Q 3325 859 3634 1378 
Q 3944 1897 3944 2528 
Q 3944 3278 3531 3731 
Q 3119 4184 2444 4184 
Q 1769 4184 1355 3729 
Q 941 3275 941 2528 
Q 941 1897 1250 1378 
Q 1563 859 2119 556 
L 2119 0 
L 244 0 
L 244 556 
L 1241 556 
Q 747 991 519 1456 
Q 294 1922 294 2497 
Q 294 3491 894 4106 
Q 1491 4722 2444 4722 
Q 3391 4722 3994 4106 
Q 4594 3494 4594 2528 
Q 4594 1922 4372 1459 
Q 4150 997 3647 556 
L 4647 556 
z
" transform="scale(0.015625)"/>
     </defs>
     <use xlink:href="#DejaVuSans-35"/>
     <use xlink:href="#DejaVuSans-30" transform="translate(63.623047 0)"/>
     <use xlink:href="#DejaVuSans-3a9" transform="translate(127.246094 0)"/>
    </g>
   </g>
   <g id="patch_9">
    <path d="M 105.719791 46.568473 
C 106.432602 46.568473 107.116314 46.28527 107.620347 45.781237 
C 108.12438 45.277204 108.407583 44.593492 108.407583 43.880682 
C 108.407583 43.167871 108.12438 42.484159 107.620347 41.980126 
C 107.116314 41.476093 106.432602 41.19289 105.719791 41.19289 
C 105.006981 41.19289 104.323269 41.476093 103.819236 41.980126 
C 103.315203 42.484159 103.032 43.167871 103.032 43.880682 
C 103.032 44.593492 103.315203 45.277204 103.819236 45.781237 
C 104.323269 46.28527 105.006981 46.568473 105.719791 46.568473 
z
" clip-path="url(#pd9ac2c5b49)" style="stroke: #000000; stroke-width: 2; stroke-linejoin: miter"/>
   </g>
   <g id="text_4">
    <!-- Ant+ -->
    <g transform="translate(111.991304 41.800994) scale(0.1 -0.1)">
     <defs>
      <path id="DejaVuSans-41" d="M 2188 4044 
L 1331 1722 
L 3047 1722 
L 2188 4044 
z
M 1831 4666 
L 2547 4666 
L 4325 0 
L 3669 0 
L 3244 1197 
L 1141 1197 
L 716 0 
L 50 0 
L 1831 4666 
z
" transform="scale(0.015625)"/>
      <path id="DejaVuSans-74" d="M 1172 4494 
L 1172 3500 
L 2356 3500 
L 2356 3053 
L 1172 3053 
L 1172 1153 
Q 1172 725 1289 603 
Q 1406 481 1766 481 
L 2356 481 
L 2356 0 
L 1766 0 
Q 1100 0 847 248 
Q 594 497 594 1153 
L 594 3053 
L 172 3053 
L 172 3500 
L 594 3500 
L 594 4494 
L 1172 4494 
z
" transform="scale(0.015625)"/>
      <path id="DejaVuSans-2b" d="M 2944 4013 
L 2944 2272 
L 4684 2272 
L 4684 1741 
L 2944 1741 
L 2944 0 
L 2419 0 
L 2419 1741 
L 678 1741 
L 678 2272 
L 2419 2272 
L 2419 4013 
L 2944 4013 
z
" transform="scale(0.015625)"/>
     </defs>
     <use xlink:href="#DejaVuSans-41"/>
     <use xlink:href="#DejaVuSans-6e" transform="translate(68.408203 0)"/>
     <use xlink:href="#DejaVuSans-74" transform="translate(131.787109 0)"/>
     <use xlink:href="#DejaVuSans-2b" transform="translate(170.996094 0)"/>
    </g>
    <!-- 200Ω -->
    <g transform="translate(111.991304 51.479119) scale(0.1 -0.1)">
     <defs>
      <path id="DejaVuSans-32" d="M 1228 531 
L 3431 531 
L 3431 0 
L 469 0 
L 469 531 
Q 828 903 1448 1529 
Q 2069 2156 2228 2338 
Q 2531 2678 2651 2914 
Q 2772 3150 2772 3378 
Q 2772 3750 2511 3984 
Q 2250 4219 1831 4219 
Q 1534 4219 1204 4116 
Q 875 4013 500 3803 
L 500 4441 
Q 881 4594 1212 4672 
Q 1544 4750 1819 4750 
Q 2544 4750 2975 4387 
Q 3406 4025 3406 3419 
Q 3406 3131 3298 2873 
Q 3191 2616 2906 2266 
Q 2828 2175 2409 1742 
Q 1991 1309 1228 531 
z
" transform="scale(0.015625)"/>
     </defs>
     <use xlink:href="#DejaVuSans-32"/>
     <use xlink:href="#DejaVuSans-30" transform="translate(63.623047 0)"/>
     <use xlink:href="#DejaVuSans-30" transform="translate(127.246094 0)"/>
     <use xlink:href="#DejaVuSans-3a9" transform="translate(190.869141 0)"/>
    </g>
   </g>
   <g id="patch_10">
    <path d="M 105.719791 103.908021 
C 106.432602 103.908021 107.116314 103.624818 107.620347 103.120785 
C 108.12438 102.616752 108.407583 101.93304 108.407583 101.22023 
C 108.407583 100.507419 108.12438 99.823707 107.620347 99.319674 
C 107.116314 98.815641 106.432602 98.532438 105.719791 98.532438 
C 105.006981 98.532438 104.323269 98.815641 103.819236 99.319674 
C 103.315203 99.823707 103.032 100.507419 103.032 101.22023 
C 103.032 101.93304 103.315203 102.616752 103.819236 103.120785 
C 104.323269 103.624818 105.006981 103.908021 105.719791 103.908021 
z
" clip-path="url(#pd9ac2c5b49)" style="stroke: #000000; stroke-width: 2; stroke-linejoin: miter"/>
   </g>
   <g id="text_5">
    <!-- Ant- -->
    <g transform="translate(111.991304 103.979605) scale(0.1 -0.1)">
     <defs>
      <path id="DejaVuSans-2d" d="M 313 2009 
L 1997 2009 
L 1997 1497 
L 313 1497 
L 313 2009 
z
" transform="scale(0.015625)"/>
     </defs>
     <use xlink:href="#DejaVuSans-41"/>
     <use xlink:href="#DejaVuSans-6e" transform="translate(68.408203 0)"/>
     <use xlink:href="#DejaVuSans-74" transform="translate(131.787109 0)"/>
     <use xlink:href="#DejaVuSans-2d" transform="translate(170.996094 0)"/>
    </g>
   </g>
  </g>
 </g>
 <defs>
  <clipPath id="pd9ac2c5b49">
   <rect x="0" y="-0" width="179.526541" height="114.48"/>
  </clipPath>
 </defs>
</svg>
