<?xml version="1.0" encoding="utf-8" standalone="no"?>
<!DOCTYPE svg PUBLIC "-//W3C//DTD SVG 1.1//EN"
  "http://www.w3.org/Graphics/SVG/1.1/DTD/svg11.dtd">
<svg xmlns:xlink="http://www.w3.org/1999/xlink" width="225.357968pt" height="141.12pt" viewBox="0 0 225.357968 141.12" xmlns="http://www.w3.org/2000/svg" version="1.1">
 <metadata>
  <rdf:RDF xmlns:dc="http://purl.org/dc/elements/1.1/" xmlns:cc="http://creativecommons.org/ns#" xmlns:rdf="http://www.w3.org/1999/02/22-rdf-syntax-ns#">
   <cc:Work>
    <dc:type rdf:resource="http://purl.org/dc/dcmitype/StillImage"/>
    <dc:date>2025-12-07T23:59:01.684859</dc:date>
    <dc:format>image/svg+xml</dc:format>
    <dc:creator>
     <cc:Agent>
      <dc:title>Matplotlib v3.10.7, https://matplotlib.org/</dc:title>
     </cc:Agent>
    </dc:creator>
   </cc:Work>
  </rdf:RDF>
 </metadata>
 <defs>
  <style type="text/css">*{stroke-linejoin: round; stroke-linecap: butt}</style>
 </defs>
 <g id="figure_1">
  <g id="patch_1">
   <path d="M 0 141.12 
L 225.357968 141.12 
L 225.357968 0 
L 0 0 
L 0 141.12 
z
" style="fill: none"/>
  </g>
  <g id="axes_1">
   <g id="patch_2">
    <path d="M 112.768578 46.867449 
C 112.768578 45.679819 112.29629 44.539616 111.456509 43.699834 
C 110.616727 42.860053 109.476524 42.387765 108.288894 42.387765 
C 107.101264 42.387765 105.961061 42.860053 105.121279 43.699834 
C 104.281497 44.539616 103.80921 45.679819 103.80921 46.867449 
" clip-path="url(#pea179d3e74)" style="fill: none; stroke: #000000; stroke-width: 2; stroke-linejoin: miter"/>
   </g>
   <g id="patch_3">
    <path d="M 121.727946 46.867449 
C 121.727946 45.679819 121.255658 44.539616 120.415877 43.699834 
C 119.576095 42.860053 118.435892 42.387765 117.248262 42.387765 
C 116.060631 42.387765 114.920428 42.860053 114.080647 43.699834 
C 113.240865 44.539616 112.768578 45.679819 112.768578 46.867449 
" clip-path="url(#pea179d3e74)" style="fill: none; stroke: #000000; stroke-width: 2; stroke-linejoin: miter"/>
   </g>
   <g id="patch_4">
    <path d="M 130.687314 46.867449 
C 130.687314 45.679819 130.215026 44.539616 129.375245 43.699834 
C 128.535463 42.860053 127.39526 42.387765 126.20763 42.387765 
C 125.019999 42.387765 123.879796 42.860053 123.040015 43.699834 
C 122.200233 44.539616 121.727946 45.679819 121.727946 46.867449 
" clip-path="url(#pea179d3e74)" style="fill: none; stroke: #000000; stroke-width: 2; stroke-linejoin: miter"/>
   </g>
   <g id="patch_5">
    <path d="M 139.646682 46.867449 
C 139.646682 45.679819 139.174394 44.539616 138.334613 43.699834 
C 137.494831 42.860053 136.354628 42.387765 135.166998 42.387765 
C 133.979367 42.387765 132.839164 42.860053 131.999383 43.699834 
C 131.159601 44.539616 130.687314 45.679819 130.687314 46.867449 
" clip-path="url(#pea179d3e74)" style="fill: none; stroke: #000000; stroke-width: 2; stroke-linejoin: miter"/>
   </g>
   <g id="patch_6">
    <path d="M 112.768578 118.542393 
C 112.768578 117.354762 112.29629 116.214559 111.456509 115.374778 
C 110.616727 114.534996 109.476524 114.062709 108.288894 114.062709 
C 107.101264 114.062709 105.961061 114.534996 105.121279 115.374778 
C 104.281497 116.214559 103.80921 117.354762 103.80921 118.542393 
" clip-path="url(#pea179d3e74)" style="fill: none; stroke: #000000; stroke-width: 2; stroke-linejoin: miter"/>
   </g>
   <g id="patch_7">
    <path d="M 121.727946 118.542393 
C 121.727946 117.354762 121.255658 116.214559 120.415877 115.374778 
C 119.576095 114.534996 118.435892 114.062709 117.248262 114.062709 
C 116.060631 114.062709 114.920428 114.534996 114.080647 115.374778 
C 113.240865 116.214559 112.768578 117.354762 112.768578 118.542393 
" clip-path="url(#pea179d3e74)" style="fill: none; stroke: #000000; stroke-width: 2; stroke-linejoin: miter"/>
   </g>
   <g id="patch_8">
    <path d="M 130.687314 118.542393 
C 130.687314 117.354762 130.215026 116.214559 129.375245 115.374778 
C 128.535463 114.534996 127.39526 114.062709 126.20763 114.062709 
C 125.019999 114.062709 123.879796 114.534996 123.040015 115.374778 
C 122.200233 116.214559 121.727946 117.354762 121.727946 118.542393 
" clip-path="url(#pea179d3e74)" style="fill: none; stroke: #000000; stroke-width: 2; stroke-linejoin: miter"/>
   </g>
   <g id="patch_9">
    <path d="M 139.646682 118.542393 
C 139.646682 117.354762 139.174394 116.214559 138.334613 115.374778 
C 137.494831 114.534996 136.354628 114.062709 135.166998 114.062709 
C 133.979367 114.062709 132.839164 114.534996 131.999383 115.374778 
C 131.159601 116.214559 130.687314 117.354762 130.687314 118.542393 
" clip-path="url(#pea179d3e74)" style="fill: none; stroke: #000000; stroke-width: 2; stroke-linejoin: miter"/>
   </g>
   <g id="line2d_1">
    <path d="M 50.053002 46.867449 
L 59.01237 46.867449 
L 67.971738 46.867449 
" clip-path="url(#pea179d3e74)" style="fill: none; stroke: #000000; stroke-width: 2; stroke-linecap: round"/>
   </g>
   <g id="line2d_2">
    <path d="M 67.971738 46.867449 
L 103.80921 46.867449 
M 139.646682 46.867449 
L 175.484153 46.867449 
" clip-path="url(#pea179d3e74)" style="fill: none; stroke: #000000; stroke-width: 2; stroke-linecap: round"/>
   </g>
   <g id="line2d_3">
    <path d="M 175.484153 46.867449 
L 184.443521 46.867449 
L 193.402889 46.867449 
" clip-path="url(#pea179d3e74)" style="fill: none; stroke: #000000; stroke-width: 2; stroke-linecap: round"/>
   </g>
   <g id="line2d_4">
    <path d="M 50.053002 118.542393 
L 59.01237 118.542393 
L 67.971738 118.542393 
" clip-path="url(#pea179d3e74)" style="fill: none; stroke: #000000; stroke-width: 2; stroke-linecap: round"/>
   </g>
   <g id="line2d_5">
    <path d="M 67.971738 118.542393 
L 103.80921 118.542393 
M 139.646682 118.542393 
L 175.484153 118.542393 
" clip-path="url(#pea179d3e74)" style="fill: none; stroke: #000000; stroke-width: 2; stroke-linecap: round"/>
   </g>
   <g id="line2d_6">
    <path d="M 175.484153 118.542393 
L 184.443521 118.542393 
L 193.402889 118.542393 
" clip-path="url(#pea179d3e74)" style="fill: none; stroke: #000000; stroke-width: 2; stroke-linecap: round"/>
   </g>
   <g id="line2d_7">
    <path d="M 128.89544 28.948713 
L 128.89544 82.704921 
L 128.89544 136.461129 
" clip-path="url(#pea179d3e74)" style="fill: none; stroke: #808080; stroke-width: 3; stroke-linecap: round"/>
   </g>
   <g id="line2d_8">
    <path d="M 136.062935 28.948713 
L 136.062935 82.704921 
L 136.062935 136.461129 
" clip-path="url(#pea179d3e74)" style="fill: none; stroke: #808080; stroke-width: 3; stroke-linecap: round"/>
   </g>
   <g id="text_1">
    <!-- Ferrite -->
    <g transform="translate(119.936372 12.534037) scale(0.1 -0.1)">
     <defs>
      <path id="DejaVuSans-46" d="M 628 4666 
L 3309 4666 
L 3309 4134 
L 1259 4134 
L 1259 2759 
L 3109 2759 
L 3109 2228 
L 1259 2228 
L 1259 0 
L 628 0 
L 628 4666 
z
" transform="scale(0.015625)"/>
      <path id="DejaVuSans-65" d="M 3597 1894 
L 3597 1613 
L 953 1613 
Q 991 1019 1311 708 
Q 1631 397 2203 397 
Q 2534 397 2845 478 
Q 3156 559 3463 722 
L 3463 178 
Q 3153 47 2828 -22 
Q 2503 -91 2169 -91 
Q 1331 -91 842 396 
Q 353 884 353 1716 
Q 353 2575 817 3079 
Q 1281 3584 2069 3584 
Q 2775 3584 3186 3129 
Q 3597 2675 3597 1894 
z
M 3022 2063 
Q 3016 2534 2758 2815 
Q 2500 3097 2075 3097 
Q 1594 3097 1305 2825 
Q 1016 2553 972 2059 
L 3022 2063 
z
" transform="scale(0.015625)"/>
      <path id="DejaVuSans-72" d="M 2631 2963 
Q 2534 3019 2420 3045 
Q 2306 3072 2169 3072 
Q 1681 3072 1420 2755 
Q 1159 2438 1159 1844 
L 1159 0 
L 581 0 
L 581 3500 
L 1159 3500 
L 1159 2956 
Q 1341 3275 1631 3429 
Q 1922 3584 2338 3584 
Q 2397 3584 2469 3576 
Q 2541 3569 2628 3553 
L 2631 2963 
z
" transform="scale(0.015625)"/>
      <path id="DejaVuSans-69" d="M 603 3500 
L 1178 3500 
L 1178 0 
L 603 0 
L 603 3500 
z
M 603 4863 
L 1178 4863 
L 1178 4134 
L 603 4134 
L 603 4863 
z
" transform="scale(0.015625)"/>
      <path id="DejaVuSans-74" d="M 1172 4494 
L 1172 3500 
L 2356 3500 
L 2356 3053 
L 1172 3053 
L 1172 1153 
Q 1172 725 1289 603 
Q 1406 481 1766 481 
L 2356 481 
L 2356 0 
L 1766 0 
Q 1100 0 847 248 
Q 594 497 594 1153 
L 594 3053 
L 172 3053 
L 172 3500 
L 594 3500 
L 594 4494 
L 1172 4494 
z
" transform="scale(0.015625)"/>
     </defs>
     <use xlink:href="#DejaVuSans-46"/>
     <use xlink:href="#DejaVuSans-65" transform="translate(52.019531 0)"/>
     <use xlink:href="#DejaVuSans-72" transform="translate(113.542969 0)"/>
     <use xlink:href="#DejaVuSans-72" transform="translate(152.90625 0)"/>
     <use xlink:href="#DejaVuSans-69" transform="translate(194.019531 0)"/>
     <use xlink:href="#DejaVuSans-74" transform="translate(221.802734 0)"/>
     <use xlink:href="#DejaVuSans-65" transform="translate(261.011719 0)"/>
    </g>
    <!-- Core -->
    <g transform="translate(124.492622 22.212162) scale(0.1 -0.1)">
     <defs>
      <path id="DejaVuSans-43" d="M 4122 4306 
L 4122 3641 
Q 3803 3938 3442 4084 
Q 3081 4231 2675 4231 
Q 1875 4231 1450 3742 
Q 1025 3253 1025 2328 
Q 1025 1406 1450 917 
Q 1875 428 2675 428 
Q 3081 428 3442 575 
Q 3803 722 4122 1019 
L 4122 359 
Q 3791 134 3420 21 
Q 3050 -91 2638 -91 
Q 1578 -91 968 557 
Q 359 1206 359 2328 
Q 359 3453 968 4101 
Q 1578 4750 2638 4750 
Q 3056 4750 3426 4639 
Q 3797 4528 4122 4306 
z
" transform="scale(0.015625)"/>
      <path id="DejaVuSans-6f" d="M 1959 3097 
Q 1497 3097 1228 2736 
Q 959 2375 959 1747 
Q 959 1119 1226 758 
Q 1494 397 1959 397 
Q 2419 397 2687 759 
Q 2956 1122 2956 1747 
Q 2956 2369 2687 2733 
Q 2419 3097 1959 3097 
z
M 1959 3584 
Q 2709 3584 3137 3096 
Q 3566 2609 3566 1747 
Q 3566 888 3137 398 
Q 2709 -91 1959 -91 
Q 1206 -91 779 398 
Q 353 888 353 1747 
Q 353 2609 779 3096 
Q 1206 3584 1959 3584 
z
" transform="scale(0.015625)"/>
     </defs>
     <use xlink:href="#DejaVuSans-43"/>
     <use xlink:href="#DejaVuSans-6f" transform="translate(69.824219 0)"/>
     <use xlink:href="#DejaVuSans-72" transform="translate(131.005859 0)"/>
     <use xlink:href="#DejaVuSans-65" transform="translate(169.869141 0)"/>
    </g>
   </g>
   <g id="patch_10">
    <path d="M 50.053002 49.55526 
C 50.765818 49.55526 51.449534 49.272055 51.953571 48.768018 
C 52.457608 48.263981 52.740813 47.580265 52.740813 46.867449 
C 52.740813 46.154634 52.457608 45.470917 51.953571 44.96688 
C 51.449534 44.462843 50.765818 44.179639 50.053002 44.179639 
C 49.340187 44.179639 48.65647 44.462843 48.152433 44.96688 
C 47.648397 45.470917 47.365192 46.154634 47.365192 46.867449 
C 47.365192 47.580265 47.648397 48.263981 48.152433 48.768018 
C 48.65647 49.272055 49.340187 49.55526 50.053002 49.55526 
z
" clip-path="url(#pea179d3e74)" style="stroke: #000000; stroke-width: 2; stroke-linejoin: miter"/>
   </g>
   <g id="text_2">
    <!-- Coax -->
    <g transform="translate(18.633007 44.787762) scale(0.1 -0.1)">
     <defs>
      <path id="DejaVuSans-61" d="M 2194 1759 
Q 1497 1759 1228 1600 
Q 959 1441 959 1056 
Q 959 750 1161 570 
Q 1363 391 1709 391 
Q 2188 391 2477 730 
Q 2766 1069 2766 1631 
L 2766 1759 
L 2194 1759 
z
M 3341 1997 
L 3341 0 
L 2766 0 
L 2766 531 
Q 2569 213 2275 61 
Q 1981 -91 1556 -91 
Q 1019 -91 701 211 
Q 384 513 384 1019 
Q 384 1609 779 1909 
Q 1175 2209 1959 2209 
L 2766 2209 
L 2766 2266 
Q 2766 2663 2505 2880 
Q 2244 3097 1772 3097 
Q 1472 3097 1187 3025 
Q 903 2953 641 2809 
L 641 3341 
Q 956 3463 1253 3523 
Q 1550 3584 1831 3584 
Q 2591 3584 2966 3190 
Q 3341 2797 3341 1997 
z
" transform="scale(0.015625)"/>
      <path id="DejaVuSans-78" d="M 3513 3500 
L 2247 1797 
L 3578 0 
L 2900 0 
L 1881 1375 
L 863 0 
L 184 0 
L 1544 1831 
L 300 3500 
L 978 3500 
L 1906 2253 
L 2834 3500 
L 3513 3500 
z
" transform="scale(0.015625)"/>
     </defs>
     <use xlink:href="#DejaVuSans-43"/>
     <use xlink:href="#DejaVuSans-6f" transform="translate(69.824219 0)"/>
     <use xlink:href="#DejaVuSans-61" transform="translate(131.005859 0)"/>
     <use xlink:href="#DejaVuSans-78" transform="translate(192.285156 0)"/>
    </g>
    <!-- centro -->
    <g transform="translate(11.867382 54.465887) scale(0.1 -0.1)">
     <defs>
      <path id="DejaVuSans-63" d="M 3122 3366 
L 3122 2828 
Q 2878 2963 2633 3030 
Q 2388 3097 2138 3097 
Q 1578 3097 1268 2742 
Q 959 2388 959 1747 
Q 959 1106 1268 751 
Q 1578 397 2138 397 
Q 2388 397 2633 464 
Q 2878 531 3122 666 
L 3122 134 
Q 2881 22 2623 -34 
Q 2366 -91 2075 -91 
Q 1284 -91 818 406 
Q 353 903 353 1747 
Q 353 2603 823 3093 
Q 1294 3584 2113 3584 
Q 2378 3584 2631 3529 
Q 2884 3475 3122 3366 
z
" transform="scale(0.015625)"/>
      <path id="DejaVuSans-6e" d="M 3513 2113 
L 3513 0 
L 2938 0 
L 2938 2094 
Q 2938 2591 2744 2837 
Q 2550 3084 2163 3084 
Q 1697 3084 1428 2787 
Q 1159 2491 1159 1978 
L 1159 0 
L 581 0 
L 581 3500 
L 1159 3500 
L 1159 2956 
Q 1366 3272 1645 3428 
Q 1925 3584 2291 3584 
Q 2894 3584 3203 3211 
Q 3513 2838 3513 2113 
z
" transform="scale(0.015625)"/>
     </defs>
     <use xlink:href="#DejaVuSans-63"/>
     <use xlink:href="#DejaVuSans-65" transform="translate(54.980469 0)"/>
     <use xlink:href="#DejaVuSans-6e" transform="translate(116.503906 0)"/>
     <use xlink:href="#DejaVuSans-74" transform="translate(179.882812 0)"/>
     <use xlink:href="#DejaVuSans-72" transform="translate(219.091797 0)"/>
     <use xlink:href="#DejaVuSans-6f" transform="translate(257.955078 0)"/>
    </g>
   </g>
   <g id="patch_11">
    <path d="M 193.402889 49.55526 
C 194.115705 49.55526 194.799422 49.272055 195.303458 48.768018 
C 195.807495 48.263981 196.0907 47.580265 196.0907 46.867449 
C 196.0907 46.154634 195.807495 45.470917 195.303458 44.96688 
C 194.799422 44.462843 194.115705 44.179639 193.402889 44.179639 
C 192.690074 44.179639 192.006357 44.462843 191.50232 44.96688 
C 190.998284 45.470917 190.715079 46.154634 190.715079 46.867449 
C 190.715079 47.580265 190.998284 48.263981 191.50232 48.768018 
C 192.006357 49.272055 192.690074 49.55526 193.402889 49.55526 
z
" clip-path="url(#pea179d3e74)" style="stroke: #000000; stroke-width: 2; stroke-linejoin: miter"/>
   </g>
   <g id="text_3">
    <!-- Ant+ -->
    <g transform="translate(199.674447 49.626824) scale(0.1 -0.1)">
     <defs>
      <path id="DejaVuSans-41" d="M 2188 4044 
L 1331 1722 
L 3047 1722 
L 2188 4044 
z
M 1831 4666 
L 2547 4666 
L 4325 0 
L 3669 0 
L 3244 1197 
L 1141 1197 
L 716 0 
L 50 0 
L 1831 4666 
z
" transform="scale(0.015625)"/>
      <path id="DejaVuSans-2b" d="M 2944 4013 
L 2944 2272 
L 4684 2272 
L 4684 1741 
L 2944 1741 
L 2944 0 
L 2419 0 
L 2419 1741 
L 678 1741 
L 678 2272 
L 2419 2272 
L 2419 4013 
L 2944 4013 
z
" transform="scale(0.015625)"/>
     </defs>
     <use xlink:href="#DejaVuSans-41"/>
     <use xlink:href="#DejaVuSans-6e" transform="translate(68.408203 0)"/>
     <use xlink:href="#DejaVuSans-74" transform="translate(131.787109 0)"/>
     <use xlink:href="#DejaVuSans-2b" transform="translate(170.996094 0)"/>
    </g>
   </g>
   <g id="patch_12">
    <path d="M 50.053002 121.230203 
C 50.765818 121.230203 51.449534 120.946999 51.953571 120.442962 
C 52.457608 119.938925 52.740813 119.255208 52.740813 118.542393 
C 52.740813 117.829577 52.457608 117.145861 51.953571 116.641824 
C 51.449534 116.137787 50.765818 115.854582 50.053002 115.854582 
C 49.340187 115.854582 48.65647 116.137787 48.152433 116.641824 
C 47.648397 117.145861 47.365192 117.829577 47.365192 118.542393 
C 47.365192 119.255208 47.648397 119.938925 48.152433 120.442962 
C 48.65647 120.946999 49.340187 121.230203 50.053002 121.230203 
z
" clip-path="url(#pea179d3e74)" style="stroke: #000000; stroke-width: 2; stroke-linejoin: miter"/>
   </g>
   <g id="text_4">
    <!-- Coax -->
    <g transform="translate(18.633007 116.462705) scale(0.1 -0.1)">
     <use xlink:href="#DejaVuSans-43"/>
     <use xlink:href="#DejaVuSans-6f" transform="translate(69.824219 0)"/>
     <use xlink:href="#DejaVuSans-61" transform="translate(131.005859 0)"/>
     <use xlink:href="#DejaVuSans-78" transform="translate(192.285156 0)"/>
    </g>
    <!-- schermo -->
    <g transform="translate(0.787695 126.14083) scale(0.1 -0.1)">
     <defs>
      <path id="DejaVuSans-73" d="M 2834 3397 
L 2834 2853 
Q 2591 2978 2328 3040 
Q 2066 3103 1784 3103 
Q 1356 3103 1142 2972 
Q 928 2841 928 2578 
Q 928 2378 1081 2264 
Q 1234 2150 1697 2047 
L 1894 2003 
Q 2506 1872 2764 1633 
Q 3022 1394 3022 966 
Q 3022 478 2636 193 
Q 2250 -91 1575 -91 
Q 1294 -91 989 -36 
Q 684 19 347 128 
L 347 722 
Q 666 556 975 473 
Q 1284 391 1588 391 
Q 1994 391 2212 530 
Q 2431 669 2431 922 
Q 2431 1156 2273 1281 
Q 2116 1406 1581 1522 
L 1381 1569 
Q 847 1681 609 1914 
Q 372 2147 372 2553 
Q 372 3047 722 3315 
Q 1072 3584 1716 3584 
Q 2034 3584 2315 3537 
Q 2597 3491 2834 3397 
z
" transform="scale(0.015625)"/>
      <path id="DejaVuSans-68" d="M 3513 2113 
L 3513 0 
L 2938 0 
L 2938 2094 
Q 2938 2591 2744 2837 
Q 2550 3084 2163 3084 
Q 1697 3084 1428 2787 
Q 1159 2491 1159 1978 
L 1159 0 
L 581 0 
L 581 4863 
L 1159 4863 
L 1159 2956 
Q 1366 3272 1645 3428 
Q 1925 3584 2291 3584 
Q 2894 3584 3203 3211 
Q 3513 2838 3513 2113 
z
" transform="scale(0.015625)"/>
      <path id="DejaVuSans-6d" d="M 3328 2828 
Q 3544 3216 3844 3400 
Q 4144 3584 4550 3584 
Q 5097 3584 5394 3201 
Q 5691 2819 5691 2113 
L 5691 0 
L 5113 0 
L 5113 2094 
Q 5113 2597 4934 2840 
Q 4756 3084 4391 3084 
Q 3944 3084 3684 2787 
Q 3425 2491 3425 1978 
L 3425 0 
L 2847 0 
L 2847 2094 
Q 2847 2600 2669 2842 
Q 2491 3084 2119 3084 
Q 1678 3084 1418 2786 
Q 1159 2488 1159 1978 
L 1159 0 
L 581 0 
L 581 3500 
L 1159 3500 
L 1159 2956 
Q 1356 3278 1631 3431 
Q 1906 3584 2284 3584 
Q 2666 3584 2933 3390 
Q 3200 3197 3328 2828 
z
" transform="scale(0.015625)"/>
     </defs>
     <use xlink:href="#DejaVuSans-73"/>
     <use xlink:href="#DejaVuSans-63" transform="translate(52.099609 0)"/>
     <use xlink:href="#DejaVuSans-68" transform="translate(107.080078 0)"/>
     <use xlink:href="#DejaVuSans-65" transform="translate(170.458984 0)"/>
     <use xlink:href="#DejaVuSans-72" transform="translate(231.982422 0)"/>
     <use xlink:href="#DejaVuSans-6d" transform="translate(271.345703 0)"/>
     <use xlink:href="#DejaVuSans-6f" transform="translate(368.757812 0)"/>
    </g>
   </g>
   <g id="patch_13">
    <path d="M 193.402889 121.230203 
C 194.115705 121.230203 194.799422 120.946999 195.303458 120.442962 
C 195.807495 119.938925 196.0907 119.255208 196.0907 118.542393 
C 196.0907 117.829577 195.807495 117.145861 195.303458 116.641824 
C 194.799422 116.137787 194.115705 115.854582 193.402889 115.854582 
C 192.690074 115.854582 192.006357 116.137787 191.50232 116.641824 
C 190.998284 117.145861 190.715079 117.829577 190.715079 118.542393 
C 190.715079 119.255208 190.998284 119.938925 191.50232 120.442962 
C 192.006357 120.946999 192.690074 121.230203 193.402889 121.230203 
z
" clip-path="url(#pea179d3e74)" style="stroke: #000000; stroke-width: 2; stroke-linejoin: miter"/>
   </g>
   <g id="text_5">
    <!-- Ant- -->
    <g transform="translate(199.674447 121.301768) scale(0.1 -0.1)">
     <defs>
      <path id="DejaVuSans-2d" d="M 313 2009 
L 1997 2009 
L 1997 1497 
L 313 1497 
L 313 2009 
z
" transform="scale(0.015625)"/>
     </defs>
     <use xlink:href="#DejaVuSans-41"/>
     <use xlink:href="#DejaVuSans-6e" transform="translate(68.408203 0)"/>
     <use xlink:href="#DejaVuSans-74" transform="translate(131.787109 0)"/>
     <use xlink:href="#DejaVuSans-2d" transform="translate(170.996094 0)"/>
    </g>
   </g>
  </g>
 </g>
 <defs>
  <clipPath id="pea179d3e74">
   <rect x="0" y="0" width="225.357968" height="141.12"/>
  </clipPath>
 </defs>
</svg>
