<?xml version="1.0" encoding="utf-8" standalone="no"?>
<!DOCTYPE svg PUBLIC "-//W3C//DTD SVG 1.1//EN"
  "http://www.w3.org/Graphics/SVG/1.1/DTD/svg11.dtd">
<svg xmlns:xlink="http://www.w3.org/1999/xlink" width="271.441222pt" height="159.84pt" viewBox="0 0 271.441222 159.84" xmlns="http://www.w3.org/2000/svg" version="1.1">
 <metadata>
  <rdf:RDF xmlns:dc="http://purl.org/dc/elements/1.1/" xmlns:cc="http://creativecommons.org/ns#" xmlns:rdf="http://www.w3.org/1999/02/22-rdf-syntax-ns#">
   <cc:Work>
    <dc:type rdf:resource="http://purl.org/dc/dcmitype/StillImage"/>
    <dc:date>2025-12-07T17:41:43.174066</dc:date>
    <dc:format>image/svg+xml</dc:format>
    <dc:creator>
     <cc:Agent>
      <dc:title>Matplotlib v3.10.7, https://matplotlib.org/</dc:title>
     </cc:Agent>
    </dc:creator>
   </cc:Work>
  </rdf:RDF>
 </metadata>
 <defs>
  <style type="text/css">*{stroke-linejoin: round; stroke-linecap: butt}</style>
 </defs>
 <g id="figure_1">
  <g id="patch_1">
   <path d="M 0 159.84 
L 271.441222 159.84 
L 271.441222 0 
L 0 0 
L 0 159.84 
z
" style="fill: none"/>
  </g>
  <g id="axes_1">
   <g id="patch_2">
    <path d="M 157.031618 24.678082 
C 157.031618 23.489971 156.559139 22.349307 155.719018 21.509186 
C 154.878897 20.669065 153.738233 20.196586 152.550122 20.196586 
C 151.362011 20.196586 150.221347 20.669065 149.381226 21.509186 
C 148.541105 22.349307 148.068626 23.489971 148.068626 24.678082 
" clip-path="url(#pa1f30a86f4)" style="fill: none; stroke: #000000; stroke-width: 2; stroke-linejoin: miter"/>
   </g>
   <g id="patch_3">
    <path d="M 165.99461 24.678082 
C 165.99461 23.489971 165.522131 22.349307 164.68201 21.509186 
C 163.841889 20.669065 162.701225 20.196586 161.513114 20.196586 
C 160.325003 20.196586 159.184339 20.669065 158.344218 21.509186 
C 157.504097 22.349307 157.031618 23.489971 157.031618 24.678082 
" clip-path="url(#pa1f30a86f4)" style="fill: none; stroke: #000000; stroke-width: 2; stroke-linejoin: miter"/>
   </g>
   <g id="patch_4">
    <path d="M 174.957602 24.678082 
C 174.957602 23.489971 174.485123 22.349307 173.645002 21.509186 
C 172.804881 20.669065 171.664217 20.196586 170.476106 20.196586 
C 169.287995 20.196586 168.147331 20.669065 167.30721 21.509186 
C 166.467089 22.349307 165.99461 23.489971 165.99461 24.678082 
" clip-path="url(#pa1f30a86f4)" style="fill: none; stroke: #000000; stroke-width: 2; stroke-linejoin: miter"/>
   </g>
   <g id="patch_5">
    <path d="M 183.920594 24.678082 
C 183.920594 23.489971 183.448115 22.349307 182.607994 21.509186 
C 181.767873 20.669065 180.627209 20.196586 179.439098 20.196586 
C 178.250987 20.196586 177.110323 20.669065 176.270202 21.509186 
C 175.43008 22.349307 174.957602 23.489971 174.957602 24.678082 
" clip-path="url(#pa1f30a86f4)" style="fill: none; stroke: #000000; stroke-width: 2; stroke-linejoin: miter"/>
   </g>
   <g id="line2d_1">
    <path d="M 94.290675 24.678082 
L 103.253667 24.678082 
L 112.216659 24.678082 
" clip-path="url(#pa1f30a86f4)" style="fill: none; stroke: #000000; stroke-width: 2; stroke-linecap: round"/>
   </g>
   <g id="line2d_2">
    <path d="M 112.216659 24.678082 
L 148.068626 24.678082 
M 183.920594 24.678082 
L 219.772561 24.678082 
" clip-path="url(#pa1f30a86f4)" style="fill: none; stroke: #000000; stroke-width: 2; stroke-linecap: round"/>
   </g>
   <g id="line2d_3">
    <path d="M 219.772561 24.678082 
L 228.735553 24.678082 
L 237.698545 24.678082 
" clip-path="url(#pa1f30a86f4)" style="fill: none; stroke: #000000; stroke-width: 2; stroke-linecap: round"/>
   </g>
   <g id="line2d_4">
    <path d="M 219.772561 24.678082 
L 219.772561 75.229356 
M 228.735553 75.229356 
L 210.809569 75.229356 
M 228.735553 81.682711 
L 210.809569 81.682711 
M 219.772561 81.682711 
L 219.772561 132.233985 
" clip-path="url(#pa1f30a86f4)" style="fill: none; stroke: #000000; stroke-width: 2; stroke-linecap: round"/>
   </g>
   <g id="line2d_5">
    <path d="M 219.772561 132.233985 
L 219.772561 146.574772 
L 210.809569 146.574772 
L 228.735553 146.574772 
M 213.498467 150.877008 
L 226.046656 150.877008 
M 217.979963 155.179244 
L 221.56516 155.179244 
" clip-path="url(#pa1f30a86f4)" style="fill: none; stroke: #000000; stroke-width: 2; stroke-linecap: round"/>
   </g>
   <g id="line2d_6">
    <path d="M 94.290675 132.233985 
L 49.475715 132.233985 
L 4.660756 132.233985 
" clip-path="url(#pa1f30a86f4)" style="fill: none; stroke: #000000; stroke-width: 2; stroke-linecap: round"/>
   </g>
   <g id="line2d_7">
    <path d="M 94.290675 132.233985 
L 94.290675 146.574772 
L 85.327683 146.574772 
L 103.253667 146.574772 
M 88.01658 150.877008 
L 100.564769 150.877008 
M 92.498076 155.179244 
L 96.083273 155.179244 
" clip-path="url(#pa1f30a86f4)" style="fill: none; stroke: #000000; stroke-width: 2; stroke-linecap: round"/>
   </g>
   <g id="text_1">
    <!-- L -->
    <g transform="translate(162.651485 14.115787) scale(0.12 -0.12)">
     <defs>
      <path id="DejaVuSans-4c" d="M 628 4666 
L 1259 4666 
L 1259 531 
L 3531 531 
L 3531 0 
L 628 0 
L 628 4666 
z
" transform="scale(0.015625)"/>
     </defs>
     <use xlink:href="#DejaVuSans-4c"/>
    </g>
   </g>
   <g id="text_2">
    <!-- C -->
    <g transform="translate(215.582874 18.59726) scale(0.12 -0.12)">
     <defs>
      <path id="DejaVuSans-43" d="M 4122 4306 
L 4122 3641 
Q 3803 3938 3442 4084 
Q 3081 4231 2675 4231 
Q 1875 4231 1450 3742 
Q 1025 3253 1025 2328 
Q 1025 1406 1450 917 
Q 1875 428 2675 428 
Q 3081 428 3442 575 
Q 3803 722 4122 1019 
L 4122 359 
Q 3791 134 3420 21 
Q 3050 -91 2638 -91 
Q 1578 -91 968 557 
Q 359 1206 359 2328 
Q 359 3453 968 4101 
Q 1578 4750 2638 4750 
Q 3056 4750 3426 4639 
Q 3797 4528 4122 4306 
z
" transform="scale(0.015625)"/>
     </defs>
     <use xlink:href="#DejaVuSans-43"/>
    </g>
   </g>
   <g id="patch_6">
    <path d="M 94.290675 27.36698 
C 95.003779 27.36698 95.687772 27.083661 96.192012 26.57942 
C 96.696253 26.075179 96.979572 25.391186 96.979572 24.678082 
C 96.979572 23.964978 96.696253 23.280985 96.192012 22.776744 
C 95.687772 22.272504 95.003779 21.989185 94.290675 21.989185 
C 93.577571 21.989185 92.893578 22.272504 92.389337 22.776744 
C 91.885096 23.280985 91.601777 23.964978 91.601777 24.678082 
C 91.601777 25.391186 91.885096 26.075179 92.389337 26.57942 
C 92.893578 27.083661 93.577571 27.36698 94.290675 27.36698 
z
" clip-path="url(#pa1f30a86f4)" style="stroke: #000000; stroke-width: 2; stroke-linejoin: miter"/>
   </g>
   <g id="text_3">
    <!-- IN -->
    <g transform="translate(76.542205 22.390426) scale(0.11 -0.11)">
     <defs>
      <path id="DejaVuSans-49" d="M 628 4666 
L 1259 4666 
L 1259 0 
L 628 0 
L 628 4666 
z
" transform="scale(0.015625)"/>
      <path id="DejaVuSans-4e" d="M 628 4666 
L 1478 4666 
L 3547 763 
L 3547 4666 
L 4159 4666 
L 4159 0 
L 3309 0 
L 1241 3903 
L 1241 0 
L 628 0 
L 628 4666 
z
" transform="scale(0.015625)"/>
     </defs>
     <use xlink:href="#DejaVuSans-49"/>
     <use xlink:href="#DejaVuSans-4e" transform="translate(29.492188 0)"/>
    </g>
    <!-- 50Ω -->
    <g transform="translate(65.612674 33.036363) scale(0.11 -0.11)">
     <defs>
      <path id="DejaVuSans-35" d="M 691 4666 
L 3169 4666 
L 3169 4134 
L 1269 4134 
L 1269 2991 
Q 1406 3038 1543 3061 
Q 1681 3084 1819 3084 
Q 2600 3084 3056 2656 
Q 3513 2228 3513 1497 
Q 3513 744 3044 326 
Q 2575 -91 1722 -91 
Q 1428 -91 1123 -41 
Q 819 9 494 109 
L 494 744 
Q 775 591 1075 516 
Q 1375 441 1709 441 
Q 2250 441 2565 725 
Q 2881 1009 2881 1497 
Q 2881 1984 2565 2268 
Q 2250 2553 1709 2553 
Q 1456 2553 1204 2497 
Q 953 2441 691 2322 
L 691 4666 
z
" transform="scale(0.015625)"/>
      <path id="DejaVuSans-30" d="M 2034 4250 
Q 1547 4250 1301 3770 
Q 1056 3291 1056 2328 
Q 1056 1369 1301 889 
Q 1547 409 2034 409 
Q 2525 409 2770 889 
Q 3016 1369 3016 2328 
Q 3016 3291 2770 3770 
Q 2525 4250 2034 4250 
z
M 2034 4750 
Q 2819 4750 3233 4129 
Q 3647 3509 3647 2328 
Q 3647 1150 3233 529 
Q 2819 -91 2034 -91 
Q 1250 -91 836 529 
Q 422 1150 422 2328 
Q 422 3509 836 4129 
Q 1250 4750 2034 4750 
z
" transform="scale(0.015625)"/>
      <path id="DejaVuSans-3a9" d="M 4647 556 
L 4647 0 
L 2772 0 
L 2772 556 
Q 3325 859 3634 1378 
Q 3944 1897 3944 2528 
Q 3944 3278 3531 3731 
Q 3119 4184 2444 4184 
Q 1769 4184 1355 3729 
Q 941 3275 941 2528 
Q 941 1897 1250 1378 
Q 1563 859 2119 556 
L 2119 0 
L 244 0 
L 244 556 
L 1241 556 
Q 747 991 519 1456 
Q 294 1922 294 2497 
Q 294 3491 894 4106 
Q 1491 4722 2444 4722 
Q 3391 4722 3994 4106 
Q 4594 3494 4594 2528 
Q 4594 1922 4372 1459 
Q 4150 997 3647 556 
L 4647 556 
z
" transform="scale(0.015625)"/>
     </defs>
     <use xlink:href="#DejaVuSans-35"/>
     <use xlink:href="#DejaVuSans-30" transform="translate(63.623047 0)"/>
     <use xlink:href="#DejaVuSans-3a9" transform="translate(127.246094 0)"/>
    </g>
   </g>
   <g id="patch_7">
    <path d="M 237.698545 27.36698 
C 238.411649 27.36698 239.095642 27.083661 239.599883 26.57942 
C 240.104124 26.075179 240.387443 25.391186 240.387443 24.678082 
C 240.387443 23.964978 240.104124 23.280985 239.599883 22.776744 
C 239.095642 22.272504 238.411649 21.989185 237.698545 21.989185 
C 236.985441 21.989185 236.301448 22.272504 235.797207 22.776744 
C 235.292967 23.280985 235.009648 23.964978 235.009648 24.678082 
C 235.009648 25.391186 235.292967 26.075179 235.797207 26.57942 
C 236.301448 27.083661 236.985441 27.36698 237.698545 27.36698 
z
" clip-path="url(#pa1f30a86f4)" style="stroke: #000000; stroke-width: 2; stroke-linejoin: miter"/>
   </g>
   <g id="text_4">
    <!-- OUT -->
    <g transform="translate(243.972639 22.237457) scale(0.11 -0.11)">
     <defs>
      <path id="DejaVuSans-4f" d="M 2522 4238 
Q 1834 4238 1429 3725 
Q 1025 3213 1025 2328 
Q 1025 1447 1429 934 
Q 1834 422 2522 422 
Q 3209 422 3611 934 
Q 4013 1447 4013 2328 
Q 4013 3213 3611 3725 
Q 3209 4238 2522 4238 
z
M 2522 4750 
Q 3503 4750 4090 4092 
Q 4678 3434 4678 2328 
Q 4678 1225 4090 567 
Q 3503 -91 2522 -91 
Q 1538 -91 948 565 
Q 359 1222 359 2328 
Q 359 3434 948 4092 
Q 1538 4750 2522 4750 
z
" transform="scale(0.015625)"/>
      <path id="DejaVuSans-55" d="M 556 4666 
L 1191 4666 
L 1191 1831 
Q 1191 1081 1462 751 
Q 1734 422 2344 422 
Q 2950 422 3222 751 
Q 3494 1081 3494 1831 
L 3494 4666 
L 4128 4666 
L 4128 1753 
Q 4128 841 3676 375 
Q 3225 -91 2344 -91 
Q 1459 -91 1007 375 
Q 556 841 556 1753 
L 556 4666 
z
" transform="scale(0.015625)"/>
      <path id="DejaVuSans-54" d="M -19 4666 
L 3928 4666 
L 3928 4134 
L 2272 4134 
L 2272 0 
L 1638 0 
L 1638 4134 
L -19 4134 
L -19 4666 
z
" transform="scale(0.015625)"/>
     </defs>
     <use xlink:href="#DejaVuSans-4f"/>
     <use xlink:href="#DejaVuSans-55" transform="translate(78.710938 0)"/>
     <use xlink:href="#DejaVuSans-54" transform="translate(151.904297 0)"/>
    </g>
    <!-- Z_L -->
    <g transform="translate(243.972639 32.883395) scale(0.11 -0.11)">
     <defs>
      <path id="DejaVuSans-5a" d="M 359 4666 
L 4025 4666 
L 4025 4184 
L 1075 531 
L 4097 531 
L 4097 0 
L 288 0 
L 288 481 
L 3238 4134 
L 359 4134 
L 359 4666 
z
" transform="scale(0.015625)"/>
      <path id="DejaVuSans-5f" d="M 3263 -1063 
L 3263 -1509 
L -63 -1509 
L -63 -1063 
L 3263 -1063 
z
" transform="scale(0.015625)"/>
     </defs>
     <use xlink:href="#DejaVuSans-5a"/>
     <use xlink:href="#DejaVuSans-5f" transform="translate(68.505859 0)"/>
     <use xlink:href="#DejaVuSans-4c" transform="translate(118.505859 0)"/>
    </g>
   </g>
  </g>
 </g>
 <defs>
  <clipPath id="pa1f30a86f4">
   <rect x="0" y="-0" width="271.441222" height="159.84"/>
  </clipPath>
 </defs>
</svg>
