<?xml version="1.0" encoding="utf-8" standalone="no"?>
<!DOCTYPE svg PUBLIC "-//W3C//DTD SVG 1.1//EN"
  "http://www.w3.org/Graphics/SVG/1.1/DTD/svg11.dtd">
<svg xmlns:xlink="http://www.w3.org/1999/xlink" width="210.24pt" height="164.685106pt" viewBox="0 0 210.24 164.685106" xmlns="http://www.w3.org/2000/svg" version="1.1">
 <metadata>
  <rdf:RDF xmlns:dc="http://purl.org/dc/elements/1.1/" xmlns:cc="http://creativecommons.org/ns#" xmlns:rdf="http://www.w3.org/1999/02/22-rdf-syntax-ns#">
   <cc:Work>
    <dc:type rdf:resource="http://purl.org/dc/dcmitype/StillImage"/>
    <dc:date>2025-12-07T17:41:43.203547</dc:date>
    <dc:format>image/svg+xml</dc:format>
    <dc:creator>
     <cc:Agent>
      <dc:title>Matplotlib v3.10.7, https://matplotlib.org/</dc:title>
     </cc:Agent>
    </dc:creator>
   </cc:Work>
  </rdf:RDF>
 </metadata>
 <defs>
  <style type="text/css">*{stroke-linejoin: round; stroke-linecap: butt}</style>
 </defs>
 <g id="figure_1">
  <g id="patch_1">
   <path d="M 0 164.685106 
L 210.24 164.685106 
L 210.24 0 
L 0 0 
L 0 164.685106 
z
" style="fill: none"/>
  </g>
  <g id="axes_1">
   <g id="patch_2">
    <path d="M 158.457014 74.13824 
C 159.647754 74.13824 160.790942 73.664716 161.632922 72.822736 
C 162.474902 71.980756 162.948426 70.837568 162.948426 69.646828 
C 162.948426 68.456089 162.474902 67.312901 161.632922 66.47092 
C 160.790942 65.62894 159.647754 65.155416 158.457014 65.155416 
" clip-path="url(#p95c60aee70)" style="fill: none; stroke: #000000; stroke-width: 2; stroke-linejoin: miter"/>
   </g>
   <g id="patch_3">
    <path d="M 158.457014 83.121064 
C 159.647754 83.121064 160.790942 82.64754 161.632922 81.80556 
C 162.474902 80.96358 162.948426 79.820392 162.948426 78.629652 
C 162.948426 77.438913 162.474902 76.295724 161.632922 75.453744 
C 160.790942 74.611764 159.647754 74.13824 158.457014 74.13824 
" clip-path="url(#p95c60aee70)" style="fill: none; stroke: #000000; stroke-width: 2; stroke-linejoin: miter"/>
   </g>
   <g id="patch_4">
    <path d="M 158.457014 92.103888 
C 159.647754 92.103888 160.790942 91.630364 161.632922 90.788384 
C 162.474902 89.946404 162.948426 88.803216 162.948426 87.612476 
C 162.948426 86.421736 162.474902 85.278548 161.632922 84.436568 
C 160.790942 83.594588 159.647754 83.121064 158.457014 83.121064 
" clip-path="url(#p95c60aee70)" style="fill: none; stroke: #000000; stroke-width: 2; stroke-linejoin: miter"/>
   </g>
   <g id="patch_5">
    <path d="M 158.457014 101.086712 
C 159.647754 101.086712 160.790942 100.613188 161.632922 99.771208 
C 162.474902 98.929228 162.948426 97.78604 162.948426 96.5953 
C 162.948426 95.40456 162.474902 94.261372 161.632922 93.419392 
C 160.790942 92.577412 159.647754 92.103888 158.457014 92.103888 
" clip-path="url(#p95c60aee70)" style="fill: none; stroke: #000000; stroke-width: 2; stroke-linejoin: miter"/>
   </g>
   <g id="line2d_1">
    <path d="M 32.697479 29.224121 
L 41.680303 29.224121 
L 50.663127 29.224121 
" clip-path="url(#p95c60aee70)" style="fill: none; stroke: #000000; stroke-width: 2; stroke-linecap: round"/>
   </g>
   <g id="line2d_2">
    <path d="M 50.663127 29.224121 
L 101.326254 29.224121 
M 101.326254 20.241297 
L 101.326254 38.206944 
M 107.793887 20.241297 
L 107.793887 38.206944 
M 107.793887 29.224121 
L 158.457014 29.224121 
" clip-path="url(#p95c60aee70)" style="fill: none; stroke: #000000; stroke-width: 2; stroke-linecap: round"/>
   </g>
   <g id="line2d_3">
    <path d="M 158.457014 29.224121 
L 167.439838 29.224121 
L 176.422662 29.224121 
" clip-path="url(#p95c60aee70)" style="fill: none; stroke: #000000; stroke-width: 2; stroke-linecap: round"/>
   </g>
   <g id="line2d_4">
    <path d="M 158.457014 29.224121 
L 158.457014 65.155416 
M 158.457014 101.086712 
L 158.457014 137.018008 
" clip-path="url(#p95c60aee70)" style="fill: none; stroke: #000000; stroke-width: 2; stroke-linecap: round"/>
   </g>
   <g id="line2d_5">
    <path d="M 158.457014 137.018008 
L 158.457014 151.390526 
L 149.47419 151.390526 
L 167.439838 151.390526 
M 152.169038 155.702282 
L 164.744991 155.702282 
M 156.660449 160.014037 
L 160.253579 160.014037 
" clip-path="url(#p95c60aee70)" style="fill: none; stroke: #000000; stroke-width: 2; stroke-linecap: round"/>
   </g>
   <g id="text_1">
    <!-- C -->
    <g transform="translate(100.370383 14.152542) scale(0.12 -0.12)">
     <defs>
      <path id="DejaVuSans-43" d="M 4122 4306 
L 4122 3641 
Q 3803 3938 3442 4084 
Q 3081 4231 2675 4231 
Q 1875 4231 1450 3742 
Q 1025 3253 1025 2328 
Q 1025 1406 1450 917 
Q 1875 428 2675 428 
Q 3081 428 3442 575 
Q 3803 722 4122 1019 
L 4122 359 
Q 3791 134 3420 21 
Q 3050 -91 2638 -91 
Q 1578 -91 968 557 
Q 359 1206 359 2328 
Q 359 3453 968 4101 
Q 1578 4750 2638 4750 
Q 3056 4750 3426 4639 
Q 3797 4528 4122 4306 
z
" transform="scale(0.015625)"/>
     </defs>
     <use xlink:href="#DejaVuSans-43"/>
    </g>
   </g>
   <g id="text_2">
    <!-- L -->
    <g transform="translate(157.359584 23.135366) scale(0.12 -0.12)">
     <defs>
      <path id="DejaVuSans-4c" d="M 628 4666 
L 1259 4666 
L 1259 531 
L 3531 531 
L 3531 0 
L 628 0 
L 628 4666 
z
" transform="scale(0.015625)"/>
     </defs>
     <use xlink:href="#DejaVuSans-4c"/>
    </g>
   </g>
   <g id="patch_6">
    <path d="M 32.697479 31.918968 
C 33.412161 31.918968 34.097667 31.635022 34.603024 31.129665 
C 35.10838 30.624309 35.392326 29.938802 35.392326 29.224121 
C 35.392326 28.509439 35.10838 27.823932 34.603024 27.318576 
C 34.097667 26.813219 33.412161 26.529273 32.697479 26.529273 
C 31.982797 26.529273 31.297291 26.813219 30.791934 27.318576 
C 30.286578 27.823932 30.002632 28.509439 30.002632 29.224121 
C 30.002632 29.938802 30.286578 30.624309 30.791934 31.129665 
C 31.297291 31.635022 31.982797 31.918968 32.697479 31.918968 
z
" clip-path="url(#p95c60aee70)" style="stroke: #000000; stroke-width: 2; stroke-linejoin: miter"/>
   </g>
   <g id="text_3">
    <!-- IN -->
    <g transform="translate(14.935127 26.936464) scale(0.11 -0.11)">
     <defs>
      <path id="DejaVuSans-49" d="M 628 4666 
L 1259 4666 
L 1259 0 
L 628 0 
L 628 4666 
z
" transform="scale(0.015625)"/>
      <path id="DejaVuSans-4e" d="M 628 4666 
L 1478 4666 
L 3547 763 
L 3547 4666 
L 4159 4666 
L 4159 0 
L 3309 0 
L 1241 3903 
L 1241 0 
L 628 0 
L 628 4666 
z
" transform="scale(0.015625)"/>
     </defs>
     <use xlink:href="#DejaVuSans-49"/>
     <use xlink:href="#DejaVuSans-4e" transform="translate(29.492188 0)"/>
    </g>
    <!-- 50Ω -->
    <g transform="translate(4.005596 37.582402) scale(0.11 -0.11)">
     <defs>
      <path id="DejaVuSans-35" d="M 691 4666 
L 3169 4666 
L 3169 4134 
L 1269 4134 
L 1269 2991 
Q 1406 3038 1543 3061 
Q 1681 3084 1819 3084 
Q 2600 3084 3056 2656 
Q 3513 2228 3513 1497 
Q 3513 744 3044 326 
Q 2575 -91 1722 -91 
Q 1428 -91 1123 -41 
Q 819 9 494 109 
L 494 744 
Q 775 591 1075 516 
Q 1375 441 1709 441 
Q 2250 441 2565 725 
Q 2881 1009 2881 1497 
Q 2881 1984 2565 2268 
Q 2250 2553 1709 2553 
Q 1456 2553 1204 2497 
Q 953 2441 691 2322 
L 691 4666 
z
" transform="scale(0.015625)"/>
      <path id="DejaVuSans-30" d="M 2034 4250 
Q 1547 4250 1301 3770 
Q 1056 3291 1056 2328 
Q 1056 1369 1301 889 
Q 1547 409 2034 409 
Q 2525 409 2770 889 
Q 3016 1369 3016 2328 
Q 3016 3291 2770 3770 
Q 2525 4250 2034 4250 
z
M 2034 4750 
Q 2819 4750 3233 4129 
Q 3647 3509 3647 2328 
Q 3647 1150 3233 529 
Q 2819 -91 2034 -91 
Q 1250 -91 836 529 
Q 422 1150 422 2328 
Q 422 3509 836 4129 
Q 1250 4750 2034 4750 
z
" transform="scale(0.015625)"/>
      <path id="DejaVuSans-3a9" d="M 4647 556 
L 4647 0 
L 2772 0 
L 2772 556 
Q 3325 859 3634 1378 
Q 3944 1897 3944 2528 
Q 3944 3278 3531 3731 
Q 3119 4184 2444 4184 
Q 1769 4184 1355 3729 
Q 941 3275 941 2528 
Q 941 1897 1250 1378 
Q 1563 859 2119 556 
L 2119 0 
L 244 0 
L 244 556 
L 1241 556 
Q 747 991 519 1456 
Q 294 1922 294 2497 
Q 294 3491 894 4106 
Q 1491 4722 2444 4722 
Q 3391 4722 3994 4106 
Q 4594 3494 4594 2528 
Q 4594 1922 4372 1459 
Q 4150 997 3647 556 
L 4647 556 
z
" transform="scale(0.015625)"/>
     </defs>
     <use xlink:href="#DejaVuSans-35"/>
     <use xlink:href="#DejaVuSans-30" transform="translate(63.623047 0)"/>
     <use xlink:href="#DejaVuSans-3a9" transform="translate(127.246094 0)"/>
    </g>
   </g>
   <g id="patch_7">
    <path d="M 176.422662 31.918968 
C 177.137344 31.918968 177.82285 31.635022 178.328207 31.129665 
C 178.833563 30.624309 179.117509 29.938802 179.117509 29.224121 
C 179.117509 28.509439 178.833563 27.823932 178.328207 27.318576 
C 177.82285 26.813219 177.137344 26.529273 176.422662 26.529273 
C 175.70798 26.529273 175.022474 26.813219 174.517117 27.318576 
C 174.011761 27.823932 173.727815 28.509439 173.727815 29.224121 
C 173.727815 29.938802 174.011761 30.624309 174.517117 31.129665 
C 175.022474 31.635022 175.70798 31.918968 176.422662 31.918968 
z
" clip-path="url(#p95c60aee70)" style="stroke: #000000; stroke-width: 2; stroke-linejoin: miter"/>
   </g>
   <g id="text_4">
    <!-- OUT -->
    <g transform="translate(182.710639 26.783496) scale(0.11 -0.11)">
     <defs>
      <path id="DejaVuSans-4f" d="M 2522 4238 
Q 1834 4238 1429 3725 
Q 1025 3213 1025 2328 
Q 1025 1447 1429 934 
Q 1834 422 2522 422 
Q 3209 422 3611 934 
Q 4013 1447 4013 2328 
Q 4013 3213 3611 3725 
Q 3209 4238 2522 4238 
z
M 2522 4750 
Q 3503 4750 4090 4092 
Q 4678 3434 4678 2328 
Q 4678 1225 4090 567 
Q 3503 -91 2522 -91 
Q 1538 -91 948 565 
Q 359 1222 359 2328 
Q 359 3434 948 4092 
Q 1538 4750 2522 4750 
z
" transform="scale(0.015625)"/>
      <path id="DejaVuSans-55" d="M 556 4666 
L 1191 4666 
L 1191 1831 
Q 1191 1081 1462 751 
Q 1734 422 2344 422 
Q 2950 422 3222 751 
Q 3494 1081 3494 1831 
L 3494 4666 
L 4128 4666 
L 4128 1753 
Q 4128 841 3676 375 
Q 3225 -91 2344 -91 
Q 1459 -91 1007 375 
Q 556 841 556 1753 
L 556 4666 
z
" transform="scale(0.015625)"/>
      <path id="DejaVuSans-54" d="M -19 4666 
L 3928 4666 
L 3928 4134 
L 2272 4134 
L 2272 0 
L 1638 0 
L 1638 4134 
L -19 4134 
L -19 4666 
z
" transform="scale(0.015625)"/>
     </defs>
     <use xlink:href="#DejaVuSans-4f"/>
     <use xlink:href="#DejaVuSans-55" transform="translate(78.710938 0)"/>
     <use xlink:href="#DejaVuSans-54" transform="translate(151.904297 0)"/>
    </g>
    <!-- Z_L -->
    <g transform="translate(182.710639 37.429433) scale(0.11 -0.11)">
     <defs>
      <path id="DejaVuSans-5a" d="M 359 4666 
L 4025 4666 
L 4025 4184 
L 1075 531 
L 4097 531 
L 4097 0 
L 288 0 
L 288 481 
L 3238 4134 
L 359 4134 
L 359 4666 
z
" transform="scale(0.015625)"/>
      <path id="DejaVuSans-5f" d="M 3263 -1063 
L 3263 -1509 
L -63 -1509 
L -63 -1063 
L 3263 -1063 
z
" transform="scale(0.015625)"/>
     </defs>
     <use xlink:href="#DejaVuSans-5a"/>
     <use xlink:href="#DejaVuSans-5f" transform="translate(68.505859 0)"/>
     <use xlink:href="#DejaVuSans-4c" transform="translate(118.505859 0)"/>
    </g>
   </g>
  </g>
 </g>
 <defs>
  <clipPath id="p95c60aee70">
   <rect x="0" y="0" width="210.24" height="164.685106"/>
  </clipPath>
 </defs>
</svg>
