<?xml version="1.0" encoding="utf-8" standalone="no"?>
<!DOCTYPE svg PUBLIC "-//W3C//DTD SVG 1.1//EN"
  "http://www.w3.org/Graphics/SVG/1.1/DTD/svg11.dtd">
<svg xmlns:xlink="http://www.w3.org/1999/xlink" width="297.073597pt" height="274.32pt" viewBox="0 0 297.073597 274.32" xmlns="http://www.w3.org/2000/svg" version="1.1">
 <metadata>
  <rdf:RDF xmlns:dc="http://purl.org/dc/elements/1.1/" xmlns:cc="http://creativecommons.org/ns#" xmlns:rdf="http://www.w3.org/1999/02/22-rdf-syntax-ns#">
   <cc:Work>
    <dc:type rdf:resource="http://purl.org/dc/dcmitype/StillImage"/>
    <dc:date>2025-12-07T23:58:53.359171</dc:date>
    <dc:format>image/svg+xml</dc:format>
    <dc:creator>
     <cc:Agent>
      <dc:title>Matplotlib v3.10.7, https://matplotlib.org/</dc:title>
     </cc:Agent>
    </dc:creator>
   </cc:Work>
  </rdf:RDF>
 </metadata>
 <defs>
  <style type="text/css">*{stroke-linejoin: round; stroke-linecap: butt}</style>
 </defs>
 <g id="figure_1">
  <g id="patch_1">
   <path d="M 0 274.32 
L 297.073597 274.32 
L 297.073597 0 
L 0 0 
L 0 274.32 
z
" style="fill: none"/>
  </g>
  <g id="axes_1">
   <g id="patch_2">
    <path d="M 54.620603 103.024617 
C 59.382455 103.024617 63.949915 101.132713 67.317053 97.765575 
C 70.68419 94.398437 72.576094 89.830978 72.576094 85.069126 
C 72.576094 80.307274 70.68419 75.739814 67.317053 72.372676 
C 63.949915 69.005539 59.382455 67.113635 54.620603 67.113635 
C 49.858751 67.113635 45.291292 69.005539 41.924154 72.372676 
C 38.557016 75.739814 36.665112 80.307274 36.665112 85.069126 
C 36.665112 89.830978 38.557016 94.398437 41.924154 97.765575 
C 45.291292 101.132713 49.858751 103.024617 54.620603 103.024617 
L 54.620603 103.024617 
z
" clip-path="url(#p273ddc9b39)" style="fill: none; stroke: #000000; stroke-width: 2; stroke-linejoin: miter"/>
   </g>
   <g id="patch_3">
    <path d="M 162.353549 76.09138 
C 163.543615 76.09138 164.686157 75.618124 165.527661 74.77662 
C 166.369165 73.935116 166.842422 72.792574 166.842422 71.602508 
C 166.842422 70.412441 166.369165 69.269899 165.527661 68.428395 
C 164.686157 67.586891 163.543615 67.113635 162.353549 67.113635 
" clip-path="url(#p273ddc9b39)" style="fill: none; stroke: #000000; stroke-width: 2; stroke-linejoin: miter"/>
   </g>
   <g id="patch_4">
    <path d="M 162.353549 85.069126 
C 163.543615 85.069126 164.686157 84.59587 165.527661 83.754365 
C 166.369165 82.912861 166.842422 81.77032 166.842422 80.580253 
C 166.842422 79.390187 166.369165 78.247645 165.527661 77.406141 
C 164.686157 76.564637 163.543615 76.09138 162.353549 76.09138 
" clip-path="url(#p273ddc9b39)" style="fill: none; stroke: #000000; stroke-width: 2; stroke-linejoin: miter"/>
   </g>
   <g id="patch_5">
    <path d="M 162.353549 94.046871 
C 163.543615 94.046871 164.686157 93.573615 165.527661 92.732111 
C 166.369165 91.890607 166.842422 90.748065 166.842422 89.557999 
C 166.842422 88.367932 166.369165 87.22539 165.527661 86.383886 
C 164.686157 85.542382 163.543615 85.069126 162.353549 85.069126 
" clip-path="url(#p273ddc9b39)" style="fill: none; stroke: #000000; stroke-width: 2; stroke-linejoin: miter"/>
   </g>
   <g id="patch_6">
    <path d="M 162.353549 103.024617 
C 163.543615 103.024617 164.686157 102.55136 165.527661 101.709856 
C 166.369165 100.868352 166.842422 99.72581 166.842422 98.535744 
C 166.842422 97.345678 166.369165 96.203136 165.527661 95.361632 
C 164.686157 94.520128 163.543615 94.046871 162.353549 94.046871 
" clip-path="url(#p273ddc9b39)" style="fill: none; stroke: #000000; stroke-width: 2; stroke-linejoin: miter"/>
   </g>
   <g id="line2d_1">
    <path d="M 54.620603 138.935599 
L 54.620603 103.024617 
L 54.620603 103.024617 
M 54.620603 67.113635 
L 54.620603 67.113635 
L 54.620603 31.202653 
" clip-path="url(#p273ddc9b39)" style="fill: none; stroke: #000000; stroke-width: 2; stroke-linecap: round"/>
   </g>
   <g id="line2d_2">
    <path d="M 63.598349 85.069126 
L 62.850203 83.210237 
L 62.102058 81.478028 
L 61.353912 79.990546 
L 60.605767 78.849161 
L 59.857622 78.131657 
L 59.109476 77.886929 
L 58.361331 78.131657 
L 57.613185 78.849161 
L 56.86504 79.990546 
L 56.116894 81.478028 
L 55.368749 83.210237 
L 54.620603 85.069126 
L 53.872458 86.928015 
L 53.124312 88.660224 
L 52.376167 90.147706 
L 51.628022 91.28909 
L 50.879876 92.006595 
L 50.131731 92.251322 
L 49.383585 92.006595 
L 48.63544 91.28909 
L 47.887294 90.147706 
L 47.139149 88.660224 
L 46.391003 86.928015 
L 45.642858 85.069126 
" clip-path="url(#p273ddc9b39)" style="fill: none; stroke: #000000; stroke-width: 2; stroke-linecap: round"/>
   </g>
   <g id="line2d_3">
    <path d="M 54.620603 31.202653 
L 90.531585 31.202653 
L 93.524167 22.224908 
L 99.509331 40.180399 
L 105.494494 22.224908 
L 111.479658 40.180399 
L 117.464822 22.224908 
L 123.449985 40.180399 
L 126.442567 31.202653 
L 162.353549 31.202653 
" clip-path="url(#p273ddc9b39)" style="fill: none; stroke: #000000; stroke-width: 2; stroke-linecap: round"/>
   </g>
   <g id="line2d_4">
    <path d="M 162.353549 31.202653 
L 162.353549 67.113635 
M 162.353549 103.024617 
L 162.353549 138.935599 
" clip-path="url(#p273ddc9b39)" style="fill: none; stroke: #000000; stroke-width: 2; stroke-linecap: round"/>
   </g>
   <g id="line2d_5">
    <path d="M 162.353549 138.935599 
L 162.353549 153.299991 
L 153.375803 153.299991 
L 171.331294 153.299991 
M 156.069127 157.609309 
L 168.637971 157.609309 
M 160.558 161.918627 
L 164.149098 161.918627 
" clip-path="url(#p273ddc9b39)" style="fill: none; stroke: #000000; stroke-width: 2; stroke-linecap: round"/>
   </g>
   <g id="line2d_6">
    <path d="M 162.353549 31.202653 
L 162.353549 81.837137 
M 171.331294 81.837137 
L 153.375803 81.837137 
M 171.331294 88.301114 
L 153.375803 88.301114 
M 162.353549 88.301114 
L 162.353549 138.935599 
" clip-path="url(#p273ddc9b39)" style="fill: none; stroke: #000000; stroke-width: 2; stroke-linecap: round"/>
   </g>
   <g id="line2d_7">
    <path d="M 162.353549 138.935599 
L 162.353549 153.299991 
L 153.375803 153.299991 
L 171.331294 153.299991 
M 156.069127 157.609309 
L 168.637971 157.609309 
M 160.558 161.918627 
L 164.149098 161.918627 
" clip-path="url(#p273ddc9b39)" style="fill: none; stroke: #000000; stroke-width: 2; stroke-linecap: round"/>
   </g>
   <g id="line2d_8">
    <path d="M 162.353549 138.935599 
L 216.220022 138.935599 
L 270.086494 138.935599 
" clip-path="url(#p273ddc9b39)" style="fill: none; stroke: #000000; stroke-width: 2; stroke-linecap: round"/>
   </g>
   <g id="line2d_9">
    <path d="M 270.086494 138.935599 
L 270.086494 174.84658 
L 279.06424 177.839162 
L 261.108749 183.824326 
L 279.06424 189.809489 
L 261.108749 195.794653 
L 279.06424 201.779817 
L 261.108749 207.76498 
L 270.086494 210.757562 
L 270.086494 246.668544 
" clip-path="url(#p273ddc9b39)" style="fill: none; stroke: #000000; stroke-width: 2; stroke-linecap: round"/>
   </g>
   <g id="line2d_10">
    <path d="M 270.086494 246.668544 
L 270.086494 261.032937 
L 261.108749 261.032937 
L 279.06424 261.032937 
M 263.802072 265.342255 
L 276.370916 265.342255 
M 268.290945 269.651572 
L 271.882043 269.651572 
" clip-path="url(#p273ddc9b39)" style="fill: none; stroke: #000000; stroke-width: 2; stroke-linecap: round"/>
   </g>
   <g id="text_1">
    <!-- V_in -->
    <g transform="translate(3.735264 88.737563) scale(0.14 -0.14)">
     <defs>
      <path id="DejaVuSans-56" d="M 1831 0 
L 50 4666 
L 709 4666 
L 2188 738 
L 3669 4666 
L 4325 4666 
L 2547 0 
L 1831 0 
z
" transform="scale(0.015625)"/>
      <path id="DejaVuSans-5f" d="M 3263 -1063 
L 3263 -1509 
L -63 -1509 
L -63 -1063 
L 3263 -1063 
z
" transform="scale(0.015625)"/>
      <path id="DejaVuSans-69" d="M 603 3500 
L 1178 3500 
L 1178 0 
L 603 0 
L 603 3500 
z
M 603 4863 
L 1178 4863 
L 1178 4134 
L 603 4134 
L 603 4863 
z
" transform="scale(0.015625)"/>
      <path id="DejaVuSans-6e" d="M 3513 2113 
L 3513 0 
L 2938 0 
L 2938 2094 
Q 2938 2591 2744 2837 
Q 2550 3084 2163 3084 
Q 1697 3084 1428 2787 
Q 1159 2491 1159 1978 
L 1159 0 
L 581 0 
L 581 3500 
L 1159 3500 
L 1159 2956 
Q 1366 3272 1645 3428 
Q 1925 3584 2291 3584 
Q 2894 3584 3203 3211 
Q 3513 2838 3513 2113 
z
" transform="scale(0.015625)"/>
     </defs>
     <use xlink:href="#DejaVuSans-56"/>
     <use xlink:href="#DejaVuSans-5f" transform="translate(68.408203 0)"/>
     <use xlink:href="#DejaVuSans-69" transform="translate(118.408203 0)"/>
     <use xlink:href="#DejaVuSans-6e" transform="translate(146.191406 0)"/>
    </g>
   </g>
   <g id="text_2">
    <!-- R -->
    <g transform="translate(103.62317 15.722247) scale(0.14 -0.14)">
     <defs>
      <path id="DejaVuSans-52" d="M 2841 2188 
Q 3044 2119 3236 1894 
Q 3428 1669 3622 1275 
L 4263 0 
L 3584 0 
L 2988 1197 
Q 2756 1666 2539 1819 
Q 2322 1972 1947 1972 
L 1259 1972 
L 1259 0 
L 628 0 
L 628 4666 
L 2053 4666 
Q 2853 4666 3247 4331 
Q 3641 3997 3641 3322 
Q 3641 2881 3436 2590 
Q 3231 2300 2841 2188 
z
M 1259 4147 
L 1259 2491 
L 2053 2491 
Q 2509 2491 2742 2702 
Q 2975 2913 2975 3322 
Q 2975 3731 2742 3939 
Q 2509 4147 2053 4147 
L 1259 4147 
z
" transform="scale(0.015625)"/>
     </defs>
     <use xlink:href="#DejaVuSans-52"/>
    </g>
   </g>
   <g id="text_3">
    <!-- L -->
    <g transform="translate(150.961826 88.932251) scale(0.14 -0.14)">
     <defs>
      <path id="DejaVuSans-4c" d="M 628 4666 
L 1259 4666 
L 1259 531 
L 3531 531 
L 3531 0 
L 628 0 
L 628 4666 
z
" transform="scale(0.015625)"/>
     </defs>
     <use xlink:href="#DejaVuSans-4c"/>
    </g>
   </g>
   <g id="text_4">
    <!-- C -->
    <g transform="translate(140.008768 88.932251) scale(0.14 -0.14)">
     <defs>
      <path id="DejaVuSans-43" d="M 4122 4306 
L 4122 3641 
Q 3803 3938 3442 4084 
Q 3081 4231 2675 4231 
Q 1875 4231 1450 3742 
Q 1025 3253 1025 2328 
Q 1025 1406 1450 917 
Q 1875 428 2675 428 
Q 3081 428 3442 575 
Q 3803 722 4122 1019 
L 4122 359 
Q 3791 134 3420 21 
Q 3050 -91 2638 -91 
Q 1578 -91 968 557 
Q 359 1206 359 2328 
Q 359 3453 968 4101 
Q 1578 4750 2638 4750 
Q 3056 4750 3426 4639 
Q 3797 4528 4122 4306 
z
" transform="scale(0.015625)"/>
     </defs>
     <use xlink:href="#DejaVuSans-43"/>
    </g>
   </g>
   <g id="text_5">
    <!-- V_out -->
    <g transform="translate(253.925561 138.81825) scale(0.14 -0.14)">
     <defs>
      <path id="DejaVuSans-6f" d="M 1959 3097 
Q 1497 3097 1228 2736 
Q 959 2375 959 1747 
Q 959 1119 1226 758 
Q 1494 397 1959 397 
Q 2419 397 2687 759 
Q 2956 1122 2956 1747 
Q 2956 2369 2687 2733 
Q 2419 3097 1959 3097 
z
M 1959 3584 
Q 2709 3584 3137 3096 
Q 3566 2609 3566 1747 
Q 3566 888 3137 398 
Q 2709 -91 1959 -91 
Q 1206 -91 779 398 
Q 353 888 353 1747 
Q 353 2609 779 3096 
Q 1206 3584 1959 3584 
z
" transform="scale(0.015625)"/>
      <path id="DejaVuSans-75" d="M 544 1381 
L 544 3500 
L 1119 3500 
L 1119 1403 
Q 1119 906 1312 657 
Q 1506 409 1894 409 
Q 2359 409 2629 706 
Q 2900 1003 2900 1516 
L 2900 3500 
L 3475 3500 
L 3475 0 
L 2900 0 
L 2900 538 
Q 2691 219 2414 64 
Q 2138 -91 1772 -91 
Q 1169 -91 856 284 
Q 544 659 544 1381 
z
M 1991 3584 
L 1991 3584 
z
" transform="scale(0.015625)"/>
      <path id="DejaVuSans-74" d="M 1172 4494 
L 1172 3500 
L 2356 3500 
L 2356 3053 
L 1172 3053 
L 1172 1153 
Q 1172 725 1289 603 
Q 1406 481 1766 481 
L 2356 481 
L 2356 0 
L 1766 0 
Q 1100 0 847 248 
Q 594 497 594 1153 
L 594 3053 
L 172 3053 
L 172 3500 
L 594 3500 
L 594 4494 
L 1172 4494 
z
" transform="scale(0.015625)"/>
     </defs>
     <use xlink:href="#DejaVuSans-56"/>
     <use xlink:href="#DejaVuSans-5f" transform="translate(68.408203 0)"/>
     <use xlink:href="#DejaVuSans-6f" transform="translate(118.408203 0)"/>
     <use xlink:href="#DejaVuSans-75" transform="translate(179.589844 0)"/>
     <use xlink:href="#DejaVuSans-74" transform="translate(242.96875 0)"/>
    </g>
   </g>
   <g id="text_6">
    <!-- R_L -->
    <g transform="translate(232.989213 196.275821) scale(0.14 -0.14)">
     <use xlink:href="#DejaVuSans-52"/>
     <use xlink:href="#DejaVuSans-5f" transform="translate(69.482422 0)"/>
     <use xlink:href="#DejaVuSans-4c" transform="translate(119.482422 0)"/>
    </g>
   </g>
  </g>
 </g>
 <defs>
  <clipPath id="p273ddc9b39">
   <rect x="0" y="0" width="297.073597" height="274.32"/>
  </clipPath>
 </defs>
</svg>
