<?xml version="1.0" encoding="utf-8" standalone="no"?>
<!DOCTYPE svg PUBLIC "-//W3C//DTD SVG 1.1//EN"
  "http://www.w3.org/Graphics/SVG/1.1/DTD/svg11.dtd">
<svg xmlns:xlink="http://www.w3.org/1999/xlink" width="291.410567pt" height="166.32pt" viewBox="0 0 291.410567 166.32" xmlns="http://www.w3.org/2000/svg" version="1.1">
 <metadata>
  <rdf:RDF xmlns:dc="http://purl.org/dc/elements/1.1/" xmlns:cc="http://creativecommons.org/ns#" xmlns:rdf="http://www.w3.org/1999/02/22-rdf-syntax-ns#">
   <cc:Work>
    <dc:type rdf:resource="http://purl.org/dc/dcmitype/StillImage"/>
    <dc:date>2025-12-07T23:58:53.497978</dc:date>
    <dc:format>image/svg+xml</dc:format>
    <dc:creator>
     <cc:Agent>
      <dc:title>Matplotlib v3.10.7, https://matplotlib.org/</dc:title>
     </cc:Agent>
    </dc:creator>
   </cc:Work>
  </rdf:RDF>
 </metadata>
 <defs>
  <style type="text/css">*{stroke-linejoin: round; stroke-linecap: butt}</style>
 </defs>
 <g id="figure_1">
  <g id="patch_1">
   <path d="M 0 166.32 
L 291.410567 166.32 
L 291.410567 0 
L 0 0 
L 0 166.32 
z
" style="fill: none"/>
  </g>
  <g id="axes_1">
   <g id="patch_2">
    <path d="M 49.346248 102.859459 
C 54.100466 102.859459 58.660604 100.970588 62.022343 97.608848 
C 65.384083 94.247108 67.272954 89.68697 67.272954 84.932752 
C 67.272954 80.178534 65.384083 75.618396 62.022343 72.256656 
C 58.660604 68.894916 54.100466 67.006046 49.346248 67.006046 
C 44.59203 67.006046 40.031892 68.894916 36.670152 72.256656 
C 33.308412 75.618396 31.419541 80.178534 31.419541 84.932752 
C 31.419541 89.68697 33.308412 94.247108 36.670152 97.608848 
C 40.031892 100.970588 44.59203 102.859459 49.346248 102.859459 
L 49.346248 102.859459 
z
" clip-path="url(#pcc9498538e)" style="fill: none; stroke: #000000; stroke-width: 2; stroke-linejoin: miter"/>
   </g>
   <g id="patch_3">
    <path d="M 156.906487 75.969399 
C 158.094646 75.969399 159.235356 75.496901 160.075511 74.656746 
C 160.915666 73.816591 161.388164 72.675881 161.388164 71.487722 
C 161.388164 70.299563 160.915666 69.158853 160.075511 68.318698 
C 159.235356 67.478543 158.094646 67.006046 156.906487 67.006046 
" clip-path="url(#pcc9498538e)" style="fill: none; stroke: #000000; stroke-width: 2; stroke-linejoin: miter"/>
   </g>
   <g id="patch_4">
    <path d="M 156.906487 84.932752 
C 158.094646 84.932752 159.235356 84.460254 160.075511 83.620099 
C 160.915666 82.779944 161.388164 81.639234 161.388164 80.451075 
C 161.388164 79.262917 160.915666 78.122207 160.075511 77.282052 
C 159.235356 76.441896 158.094646 75.969399 156.906487 75.969399 
" clip-path="url(#pcc9498538e)" style="fill: none; stroke: #000000; stroke-width: 2; stroke-linejoin: miter"/>
   </g>
   <g id="patch_5">
    <path d="M 156.906487 93.896105 
C 158.094646 93.896105 159.235356 93.423608 160.075511 92.583453 
C 160.915666 91.743298 161.388164 90.602587 161.388164 89.414429 
C 161.388164 88.22627 160.915666 87.08556 160.075511 86.245405 
C 159.235356 85.40525 158.094646 84.932752 156.906487 84.932752 
" clip-path="url(#pcc9498538e)" style="fill: none; stroke: #000000; stroke-width: 2; stroke-linejoin: miter"/>
   </g>
   <g id="patch_6">
    <path d="M 156.906487 102.859459 
C 158.094646 102.859459 159.235356 102.386961 160.075511 101.546806 
C 160.915666 100.706651 161.388164 99.565941 161.388164 98.377782 
C 161.388164 97.189623 160.915666 96.048913 160.075511 95.208758 
C 159.235356 94.368603 158.094646 93.896105 156.906487 93.896105 
" clip-path="url(#pcc9498538e)" style="fill: none; stroke: #000000; stroke-width: 2; stroke-linejoin: miter"/>
   </g>
   <g id="line2d_1">
    <path d="M 49.346248 138.712872 
L 49.346248 102.859459 
L 49.346248 102.859459 
M 49.346248 67.006046 
L 49.346248 67.006046 
L 49.346248 31.152632 
" clip-path="url(#pcc9498538e)" style="fill: none; stroke: #000000; stroke-width: 2; stroke-linecap: round"/>
   </g>
   <g id="line2d_2">
    <path d="M 58.309601 84.932752 
L 57.562655 83.076843 
L 56.815709 81.347411 
L 56.068763 79.862314 
L 55.321817 78.722759 
L 54.57487 78.006405 
L 53.827924 77.762069 
L 53.080978 78.006405 
L 52.334032 78.722759 
L 51.587086 79.862314 
L 50.84014 81.347411 
L 50.093194 83.076843 
L 49.346248 84.932752 
L 48.599302 86.788661 
L 47.852355 88.518093 
L 47.105409 90.00319 
L 46.358463 91.142745 
L 45.611517 91.8591 
L 44.864571 92.103435 
L 44.117625 91.8591 
L 43.370679 91.142745 
L 42.623733 90.00319 
L 41.876787 88.518093 
L 41.12984 86.788661 
L 40.382894 84.932752 
" clip-path="url(#pcc9498538e)" style="fill: none; stroke: #000000; stroke-width: 2; stroke-linecap: round"/>
   </g>
   <g id="line2d_3">
    <path d="M 49.346248 31.152632 
L 85.199661 31.152632 
L 88.187445 22.189279 
L 94.163014 40.115986 
L 100.138583 22.189279 
L 106.114152 40.115986 
L 112.089721 22.189279 
L 118.06529 40.115986 
L 121.053074 31.152632 
L 156.906487 31.152632 
" clip-path="url(#pcc9498538e)" style="fill: none; stroke: #000000; stroke-width: 2; stroke-linecap: round"/>
   </g>
   <g id="line2d_4">
    <path d="M 156.906487 31.152632 
L 156.906487 67.006046 
M 156.906487 102.859459 
L 156.906487 138.712872 
" clip-path="url(#pcc9498538e)" style="fill: none; stroke: #000000; stroke-width: 2; stroke-linecap: round"/>
   </g>
   <g id="line2d_5">
    <path d="M 156.906487 138.712872 
L 156.906487 153.054237 
L 147.943134 153.054237 
L 165.86984 153.054237 
M 150.63214 157.356647 
L 163.180834 157.356647 
M 155.113817 161.659056 
L 158.699158 161.659056 
" clip-path="url(#pcc9498538e)" style="fill: none; stroke: #000000; stroke-width: 2; stroke-linecap: round"/>
   </g>
   <g id="line2d_6">
    <path d="M 156.906487 31.152632 
L 156.906487 81.705945 
M 165.86984 81.705945 
L 147.943134 81.705945 
M 165.86984 88.159559 
L 147.943134 88.159559 
M 156.906487 88.159559 
L 156.906487 138.712872 
" clip-path="url(#pcc9498538e)" style="fill: none; stroke: #000000; stroke-width: 2; stroke-linecap: round"/>
   </g>
   <g id="line2d_7">
    <path d="M 156.906487 138.712872 
L 156.906487 153.054237 
L 147.943134 153.054237 
L 165.86984 153.054237 
M 150.63214 157.356647 
L 163.180834 157.356647 
M 155.113817 161.659056 
L 158.699158 161.659056 
" clip-path="url(#pcc9498538e)" style="fill: none; stroke: #000000; stroke-width: 2; stroke-linecap: round"/>
   </g>
   <g id="line2d_8">
    <path d="M 156.906487 138.712872 
L 210.686607 138.712872 
L 264.466727 138.712872 
" clip-path="url(#pcc9498538e)" style="fill: none; stroke: #000000; stroke-width: 2; stroke-linecap: round"/>
   </g>
   <g id="text_1">
    <!-- I_in -->
    <g transform="translate(3.942325 88.60119) scale(0.14 -0.14)">
     <defs>
      <path id="DejaVuSans-49" d="M 628 4666 
L 1259 4666 
L 1259 0 
L 628 0 
L 628 4666 
z
" transform="scale(0.015625)"/>
      <path id="DejaVuSans-5f" d="M 3263 -1063 
L 3263 -1509 
L -63 -1509 
L -63 -1063 
L 3263 -1063 
z
" transform="scale(0.015625)"/>
      <path id="DejaVuSans-69" d="M 603 3500 
L 1178 3500 
L 1178 0 
L 603 0 
L 603 3500 
z
M 603 4863 
L 1178 4863 
L 1178 4134 
L 603 4134 
L 603 4863 
z
" transform="scale(0.015625)"/>
      <path id="DejaVuSans-6e" d="M 3513 2113 
L 3513 0 
L 2938 0 
L 2938 2094 
Q 2938 2591 2744 2837 
Q 2550 3084 2163 3084 
Q 1697 3084 1428 2787 
Q 1159 2491 1159 1978 
L 1159 0 
L 581 0 
L 581 3500 
L 1159 3500 
L 1159 2956 
Q 1366 3272 1645 3428 
Q 1925 3584 2291 3584 
Q 2894 3584 3203 3211 
Q 3513 2838 3513 2113 
z
" transform="scale(0.015625)"/>
     </defs>
     <use xlink:href="#DejaVuSans-49"/>
     <use xlink:href="#DejaVuSans-5f" transform="translate(29.492188 0)"/>
     <use xlink:href="#DejaVuSans-69" transform="translate(79.492188 0)"/>
     <use xlink:href="#DejaVuSans-6e" transform="translate(107.275391 0)"/>
    </g>
   </g>
   <g id="text_2">
    <!-- R -->
    <g transform="translate(98.262461 15.692375) scale(0.14 -0.14)">
     <defs>
      <path id="DejaVuSans-52" d="M 2841 2188 
Q 3044 2119 3236 1894 
Q 3428 1669 3622 1275 
L 4263 0 
L 3584 0 
L 2988 1197 
Q 2756 1666 2539 1819 
Q 2322 1972 1947 1972 
L 1259 1972 
L 1259 0 
L 628 0 
L 628 4666 
L 2053 4666 
Q 2853 4666 3247 4331 
Q 3641 3997 3641 3322 
Q 3641 2881 3436 2590 
Q 3231 2300 2841 2188 
z
M 1259 4147 
L 1259 2491 
L 2053 2491 
Q 2509 2491 2742 2702 
Q 2975 2913 2975 3322 
Q 2975 3731 2742 3939 
Q 2509 4147 2053 4147 
L 1259 4147 
z
" transform="scale(0.015625)"/>
     </defs>
     <use xlink:href="#DejaVuSans-52"/>
    </g>
   </g>
   <g id="text_3">
    <!-- L -->
    <g transform="translate(145.520521 88.795877) scale(0.14 -0.14)">
     <defs>
      <path id="DejaVuSans-4c" d="M 628 4666 
L 1259 4666 
L 1259 531 
L 3531 531 
L 3531 0 
L 628 0 
L 628 4666 
z
" transform="scale(0.015625)"/>
     </defs>
     <use xlink:href="#DejaVuSans-4c"/>
    </g>
   </g>
   <g id="text_4">
    <!-- C -->
    <g transform="translate(134.581855 88.795877) scale(0.14 -0.14)">
     <defs>
      <path id="DejaVuSans-43" d="M 4122 4306 
L 4122 3641 
Q 3803 3938 3442 4084 
Q 3081 4231 2675 4231 
Q 1875 4231 1450 3742 
Q 1025 3253 1025 2328 
Q 1025 1406 1450 917 
Q 1875 428 2675 428 
Q 3081 428 3442 575 
Q 3803 722 4122 1019 
L 4122 359 
Q 3791 134 3420 21 
Q 3050 -91 2638 -91 
Q 1578 -91 968 557 
Q 359 1206 359 2328 
Q 359 3453 968 4101 
Q 1578 4750 2638 4750 
Q 3056 4750 3426 4639 
Q 3797 4528 4122 4306 
z
" transform="scale(0.015625)"/>
     </defs>
     <use xlink:href="#DejaVuSans-43"/>
    </g>
   </g>
   <g id="text_5">
    <!-- V_out -->
    <g transform="translate(248.300037 138.601281) scale(0.14 -0.14)">
     <defs>
      <path id="DejaVuSans-56" d="M 1831 0 
L 50 4666 
L 709 4666 
L 2188 738 
L 3669 4666 
L 4325 4666 
L 2547 0 
L 1831 0 
z
" transform="scale(0.015625)"/>
      <path id="DejaVuSans-6f" d="M 1959 3097 
Q 1497 3097 1228 2736 
Q 959 2375 959 1747 
Q 959 1119 1226 758 
Q 1494 397 1959 397 
Q 2419 397 2687 759 
Q 2956 1122 2956 1747 
Q 2956 2369 2687 2733 
Q 2419 3097 1959 3097 
z
M 1959 3584 
Q 2709 3584 3137 3096 
Q 3566 2609 3566 1747 
Q 3566 888 3137 398 
Q 2709 -91 1959 -91 
Q 1206 -91 779 398 
Q 353 888 353 1747 
Q 353 2609 779 3096 
Q 1206 3584 1959 3584 
z
" transform="scale(0.015625)"/>
      <path id="DejaVuSans-75" d="M 544 1381 
L 544 3500 
L 1119 3500 
L 1119 1403 
Q 1119 906 1312 657 
Q 1506 409 1894 409 
Q 2359 409 2629 706 
Q 2900 1003 2900 1516 
L 2900 3500 
L 3475 3500 
L 3475 0 
L 2900 0 
L 2900 538 
Q 2691 219 2414 64 
Q 2138 -91 1772 -91 
Q 1169 -91 856 284 
Q 544 659 544 1381 
z
M 1991 3584 
L 1991 3584 
z
" transform="scale(0.015625)"/>
      <path id="DejaVuSans-74" d="M 1172 4494 
L 1172 3500 
L 2356 3500 
L 2356 3053 
L 1172 3053 
L 1172 1153 
Q 1172 725 1289 603 
Q 1406 481 1766 481 
L 2356 481 
L 2356 0 
L 1766 0 
Q 1100 0 847 248 
Q 594 497 594 1153 
L 594 3053 
L 172 3053 
L 172 3500 
L 594 3500 
L 594 4494 
L 1172 4494 
z
" transform="scale(0.015625)"/>
     </defs>
     <use xlink:href="#DejaVuSans-56"/>
     <use xlink:href="#DejaVuSans-5f" transform="translate(68.408203 0)"/>
     <use xlink:href="#DejaVuSans-6f" transform="translate(118.408203 0)"/>
     <use xlink:href="#DejaVuSans-75" transform="translate(179.589844 0)"/>
     <use xlink:href="#DejaVuSans-74" transform="translate(242.96875 0)"/>
    </g>
   </g>
  </g>
 </g>
 <defs>
  <clipPath id="pcc9498538e">
   <rect x="0" y="-0" width="291.410567" height="166.32"/>
  </clipPath>
 </defs>
</svg>
