<?xml version="1.0" encoding="utf-8" standalone="no"?>
<!DOCTYPE svg PUBLIC "-//W3C//DTD SVG 1.1//EN"
  "http://www.w3.org/Graphics/SVG/1.1/DTD/svg11.dtd">
<svg xmlns:xlink="http://www.w3.org/1999/xlink" width="381.624827pt" height="143.28pt" viewBox="0 0 381.624827 143.28" xmlns="http://www.w3.org/2000/svg" version="1.1">
 <metadata>
  <rdf:RDF xmlns:dc="http://purl.org/dc/elements/1.1/" xmlns:cc="http://creativecommons.org/ns#" xmlns:rdf="http://www.w3.org/1999/02/22-rdf-syntax-ns#">
   <cc:Work>
    <dc:type rdf:resource="http://purl.org/dc/dcmitype/StillImage"/>
    <dc:date>2025-12-07T23:58:53.474420</dc:date>
    <dc:format>image/svg+xml</dc:format>
    <dc:creator>
     <cc:Agent>
      <dc:title>Matplotlib v3.10.7, https://matplotlib.org/</dc:title>
     </cc:Agent>
    </dc:creator>
   </cc:Work>
  </rdf:RDF>
 </metadata>
 <defs>
  <style type="text/css">*{stroke-linejoin: round; stroke-linecap: butt}</style>
 </defs>
 <g id="figure_1">
  <g id="patch_1">
   <path d="M 0 143.28 
L 381.624827 143.28 
L 381.624827 0 
L 0 0 
L 0 143.28 
z
" style="fill: none"/>
  </g>
  <g id="axes_1">
   <g id="patch_2">
    <path d="M 54.497358 102.792153 
C 59.248465 102.792153 63.805619 100.904518 67.165159 97.544978 
C 70.5247 94.185438 72.412335 89.628284 72.412335 84.877177 
C 72.412335 80.12607 70.5247 75.568916 67.165159 72.209376 
C 63.805619 68.849836 59.248465 66.962201 54.497358 66.962201 
C 49.746251 66.962201 45.189097 68.849836 41.829557 72.209376 
C 38.470017 75.568916 36.582382 80.12607 36.582382 84.877177 
C 36.582382 89.628284 38.470017 94.185438 41.829557 97.544978 
C 45.189097 100.904518 49.746251 102.792153 54.497358 102.792153 
L 54.497358 102.792153 
z
" clip-path="url(#p46c86eeae9)" style="fill: none; stroke: #000000; stroke-width: 2; stroke-linejoin: miter"/>
   </g>
   <g id="patch_3">
    <path d="M 206.774657 31.132248 
C 206.774657 29.944867 206.302469 28.804903 205.462864 27.965298 
C 204.623258 27.125692 203.483295 26.653504 202.295913 26.653504 
C 201.108532 26.653504 199.968568 27.125692 199.128963 27.965298 
C 198.289358 28.804903 197.817169 29.944867 197.817169 31.132248 
" clip-path="url(#p46c86eeae9)" style="fill: none; stroke: #000000; stroke-width: 2; stroke-linejoin: miter"/>
   </g>
   <g id="patch_4">
    <path d="M 215.732146 31.132248 
C 215.732146 29.944867 215.259957 28.804903 214.420352 27.965298 
C 213.580747 27.125692 212.440783 26.653504 211.253402 26.653504 
C 210.06602 26.653504 208.926056 27.125692 208.086451 27.965298 
C 207.246846 28.804903 206.774657 29.944867 206.774657 31.132248 
" clip-path="url(#p46c86eeae9)" style="fill: none; stroke: #000000; stroke-width: 2; stroke-linejoin: miter"/>
   </g>
   <g id="patch_5">
    <path d="M 224.689634 31.132248 
C 224.689634 29.944867 224.217445 28.804903 223.37784 27.965298 
C 222.538235 27.125692 221.398271 26.653504 220.21089 26.653504 
C 219.023508 26.653504 217.883545 27.125692 217.043939 27.965298 
C 216.204334 28.804903 215.732146 29.944867 215.732146 31.132248 
" clip-path="url(#p46c86eeae9)" style="fill: none; stroke: #000000; stroke-width: 2; stroke-linejoin: miter"/>
   </g>
   <g id="patch_6">
    <path d="M 233.647122 31.132248 
C 233.647122 29.944867 233.174934 28.804903 232.335328 27.965298 
C 231.495723 27.125692 230.355759 26.653504 229.168378 26.653504 
C 227.980997 26.653504 226.841033 27.125692 226.001428 27.965298 
C 225.161822 28.804903 224.689634 29.944867 224.689634 31.132248 
" clip-path="url(#p46c86eeae9)" style="fill: none; stroke: #000000; stroke-width: 2; stroke-linejoin: miter"/>
   </g>
   <g id="line2d_1">
    <path d="M 54.497358 138.622106 
L 54.497358 102.792153 
L 54.497358 102.792153 
M 54.497358 66.962201 
L 54.497358 66.962201 
L 54.497358 31.132248 
" clip-path="url(#p46c86eeae9)" style="fill: none; stroke: #000000; stroke-width: 2; stroke-linecap: round"/>
   </g>
   <g id="line2d_2">
    <path d="M 63.454846 84.877177 
L 62.708389 83.022482 
L 61.961932 81.294182 
L 61.215474 79.810056 
L 60.469017 78.671247 
L 59.72256 77.955362 
L 58.976102 77.711186 
L 58.229645 77.955362 
L 57.483188 78.671247 
L 56.73673 79.810056 
L 55.990273 81.294182 
L 55.243816 83.022482 
L 54.497358 84.877177 
L 53.750901 86.731872 
L 53.004443 88.460172 
L 52.257986 89.944298 
L 51.511529 91.083107 
L 50.765071 91.798992 
L 50.018614 92.043168 
L 49.272157 91.798992 
L 48.525699 91.083107 
L 47.779242 89.944298 
L 47.032785 88.460172 
L 46.286327 86.731872 
L 45.53987 84.877177 
" clip-path="url(#p46c86eeae9)" style="fill: none; stroke: #000000; stroke-width: 2; stroke-linecap: round"/>
   </g>
   <g id="line2d_3">
    <path d="M 54.497358 31.132248 
L 90.327311 31.132248 
L 93.31314 22.17476 
L 99.284799 40.089736 
L 105.256458 22.17476 
L 111.228117 40.089736 
L 117.199775 22.17476 
L 123.171434 40.089736 
L 126.157264 31.132248 
L 161.987216 31.132248 
" clip-path="url(#p46c86eeae9)" style="fill: none; stroke: #000000; stroke-width: 2; stroke-linecap: round"/>
   </g>
   <g id="line2d_4">
    <path d="M 161.987216 31.132248 
L 197.817169 31.132248 
M 233.647122 31.132248 
L 269.477075 31.132248 
" clip-path="url(#p46c86eeae9)" style="fill: none; stroke: #000000; stroke-width: 2; stroke-linecap: round"/>
   </g>
   <g id="line2d_5">
    <path d="M 269.477075 31.132248 
L 319.997308 31.132248 
M 319.997308 22.17476 
L 319.997308 40.089736 
M 326.4467 22.17476 
L 326.4467 40.089736 
M 326.4467 31.132248 
L 376.966933 31.132248 
" clip-path="url(#p46c86eeae9)" style="fill: none; stroke: #000000; stroke-width: 2; stroke-linecap: round"/>
   </g>
   <g id="line2d_6">
    <path d="M 376.966933 31.132248 
L 376.966933 84.877177 
L 376.966933 138.622106 
" clip-path="url(#p46c86eeae9)" style="fill: none; stroke: #000000; stroke-width: 2; stroke-linecap: round"/>
   </g>
   <g id="line2d_7">
    <path d="M 376.966933 138.622106 
L 323.222004 138.622106 
L 269.477075 138.622106 
" clip-path="url(#p46c86eeae9)" style="fill: none; stroke: #000000; stroke-width: 2; stroke-linecap: round"/>
   </g>
   <g id="text_1">
    <!-- V_in -->
    <g transform="translate(3.660636 88.545614) scale(0.14 -0.14)">
     <defs>
      <path id="DejaVuSans-56" d="M 1831 0 
L 50 4666 
L 709 4666 
L 2188 738 
L 3669 4666 
L 4325 4666 
L 2547 0 
L 1831 0 
z
" transform="scale(0.015625)"/>
      <path id="DejaVuSans-5f" d="M 3263 -1063 
L 3263 -1509 
L -63 -1509 
L -63 -1063 
L 3263 -1063 
z
" transform="scale(0.015625)"/>
      <path id="DejaVuSans-69" d="M 603 3500 
L 1178 3500 
L 1178 0 
L 603 0 
L 603 3500 
z
M 603 4863 
L 1178 4863 
L 1178 4134 
L 603 4134 
L 603 4863 
z
" transform="scale(0.015625)"/>
      <path id="DejaVuSans-6e" d="M 3513 2113 
L 3513 0 
L 2938 0 
L 2938 2094 
Q 2938 2591 2744 2837 
Q 2550 3084 2163 3084 
Q 1697 3084 1428 2787 
Q 1159 2491 1159 1978 
L 1159 0 
L 581 0 
L 581 3500 
L 1159 3500 
L 1159 2956 
Q 1366 3272 1645 3428 
Q 1925 3584 2291 3584 
Q 2894 3584 3203 3211 
Q 3513 2838 3513 2113 
z
" transform="scale(0.015625)"/>
     </defs>
     <use xlink:href="#DejaVuSans-56"/>
     <use xlink:href="#DejaVuSans-5f" transform="translate(68.408203 0)"/>
     <use xlink:href="#DejaVuSans-69" transform="translate(118.408203 0)"/>
     <use xlink:href="#DejaVuSans-6e" transform="translate(146.191406 0)"/>
    </g>
   </g>
   <g id="text_2">
    <!-- R -->
    <g transform="translate(103.378381 15.680202) scale(0.14 -0.14)">
     <defs>
      <path id="DejaVuSans-52" d="M 2841 2188 
Q 3044 2119 3236 1894 
Q 3428 1669 3622 1275 
L 4263 0 
L 3584 0 
L 2988 1197 
Q 2756 1666 2539 1819 
Q 2322 1972 1947 1972 
L 1259 1972 
L 1259 0 
L 628 0 
L 628 4666 
L 2053 4666 
Q 2853 4666 3247 4331 
Q 3641 3997 3641 3322 
Q 3641 2881 3436 2590 
Q 3231 2300 2841 2188 
z
M 1259 4147 
L 1259 2491 
L 2053 2491 
Q 2509 2491 2742 2702 
Q 2975 2913 2975 3322 
Q 2975 3731 2742 3939 
Q 2509 4147 2053 4147 
L 1259 4147 
z
" transform="scale(0.015625)"/>
     </defs>
     <use xlink:href="#DejaVuSans-52"/>
    </g>
   </g>
   <g id="text_3">
    <!-- L -->
    <g transform="translate(211.831833 20.158968) scale(0.14 -0.14)">
     <defs>
      <path id="DejaVuSans-4c" d="M 628 4666 
L 1259 4666 
L 1259 531 
L 3531 531 
L 3531 0 
L 628 0 
L 628 4666 
z
" transform="scale(0.015625)"/>
     </defs>
     <use xlink:href="#DejaVuSans-4c"/>
    </g>
   </g>
   <g id="text_4">
    <!-- C -->
    <g transform="translate(318.334035 15.680202) scale(0.14 -0.14)">
     <defs>
      <path id="DejaVuSans-43" d="M 4122 4306 
L 4122 3641 
Q 3803 3938 3442 4084 
Q 3081 4231 2675 4231 
Q 1875 4231 1450 3742 
Q 1025 3253 1025 2328 
Q 1025 1406 1450 917 
Q 1875 428 2675 428 
Q 3081 428 3442 575 
Q 3803 722 4122 1019 
L 4122 359 
Q 3791 134 3420 21 
Q 3050 -91 2638 -91 
Q 1578 -91 968 557 
Q 359 1206 359 2328 
Q 359 3453 968 4101 
Q 1578 4750 2638 4750 
Q 3056 4750 3426 4639 
Q 3797 4528 4122 4306 
z
" transform="scale(0.015625)"/>
     </defs>
     <use xlink:href="#DejaVuSans-43"/>
    </g>
   </g>
  </g>
 </g>
 <defs>
  <clipPath id="p46c86eeae9">
   <rect x="0" y="0" width="381.624827" height="143.28"/>
  </clipPath>
 </defs>
</svg>
