<?xml version="1.0" encoding="utf-8" standalone="no"?>
<!DOCTYPE svg PUBLIC "-//W3C//DTD SVG 1.1//EN"
  "http://www.w3.org/Graphics/SVG/1.1/DTD/svg11.dtd">
<svg xmlns:xlink="http://www.w3.org/1999/xlink" width="423.55806pt" height="274.32pt" viewBox="0 0 423.55806 274.32" xmlns="http://www.w3.org/2000/svg" version="1.1">
 <metadata>
  <rdf:RDF xmlns:dc="http://purl.org/dc/elements/1.1/" xmlns:cc="http://creativecommons.org/ns#" xmlns:rdf="http://www.w3.org/1999/02/22-rdf-syntax-ns#">
   <cc:Work>
    <dc:type rdf:resource="http://purl.org/dc/dcmitype/StillImage"/>
    <dc:date>2025-12-07T23:58:53.574872</dc:date>
    <dc:format>image/svg+xml</dc:format>
    <dc:creator>
     <cc:Agent>
      <dc:title>Matplotlib v3.10.7, https://matplotlib.org/</dc:title>
     </cc:Agent>
    </dc:creator>
   </cc:Work>
  </rdf:RDF>
 </metadata>
 <defs>
  <style type="text/css">*{stroke-linejoin: round; stroke-linecap: butt}</style>
 </defs>
 <g id="figure_1">
  <g id="patch_1">
   <path d="M 0 274.32 
L 423.55806 274.32 
L 423.55806 0 
L 0 0 
L 0 274.32 
z
" style="fill: none"/>
  </g>
  <g id="axes_1">
   <g id="patch_2">
    <path d="M 86.713051 103.024617 
C 91.474903 103.024617 96.042362 101.132713 99.4095 97.765575 
C 102.776638 94.398437 104.668542 89.830978 104.668542 85.069126 
C 104.668542 80.307274 102.776638 75.739814 99.4095 72.372676 
C 96.042362 69.005539 91.474903 67.113635 86.713051 67.113635 
C 81.951199 67.113635 77.383739 69.005539 74.016601 72.372676 
C 70.649464 75.739814 68.75756 80.307274 68.75756 85.069126 
C 68.75756 89.830978 70.649464 94.398437 74.016601 97.765575 
C 77.383739 101.132713 81.951199 103.024617 86.713051 103.024617 
L 86.713051 103.024617 
z
" clip-path="url(#pe7f55ad0af)" style="fill: none; stroke: #000000; stroke-width: 2; stroke-linejoin: miter"/>
   </g>
   <g id="patch_3">
    <path d="M 239.334723 31.202653 
C 239.334723 30.012587 238.861467 28.870045 238.019963 28.028541 
C 237.178459 27.187037 236.035917 26.71378 234.845851 26.71378 
C 233.655784 26.71378 232.513242 27.187037 231.671738 28.028541 
C 230.830234 28.870045 230.356978 30.012587 230.356978 31.202653 
" clip-path="url(#pe7f55ad0af)" style="fill: none; stroke: #000000; stroke-width: 2; stroke-linejoin: miter"/>
   </g>
   <g id="patch_4">
    <path d="M 248.312469 31.202653 
C 248.312469 30.012587 247.839213 28.870045 246.997709 28.028541 
C 246.156204 27.187037 245.013663 26.71378 243.823596 26.71378 
C 242.63353 26.71378 241.490988 27.187037 240.649484 28.028541 
C 239.80798 28.870045 239.334723 30.012587 239.334723 31.202653 
" clip-path="url(#pe7f55ad0af)" style="fill: none; stroke: #000000; stroke-width: 2; stroke-linejoin: miter"/>
   </g>
   <g id="patch_5">
    <path d="M 257.290214 31.202653 
C 257.290214 30.012587 256.816958 28.870045 255.975454 28.028541 
C 255.13395 27.187037 253.991408 26.71378 252.801342 26.71378 
C 251.611275 26.71378 250.468733 27.187037 249.627229 28.028541 
C 248.785725 28.870045 248.312469 30.012587 248.312469 31.202653 
" clip-path="url(#pe7f55ad0af)" style="fill: none; stroke: #000000; stroke-width: 2; stroke-linejoin: miter"/>
   </g>
   <g id="patch_6">
    <path d="M 266.26796 31.202653 
C 266.26796 30.012587 265.794704 28.870045 264.953199 28.028541 
C 264.111695 27.187037 262.969154 26.71378 261.779087 26.71378 
C 260.589021 26.71378 259.446479 27.187037 258.604975 28.028541 
C 257.763471 28.870045 257.290214 30.012587 257.290214 31.202653 
" clip-path="url(#pe7f55ad0af)" style="fill: none; stroke: #000000; stroke-width: 2; stroke-linejoin: miter"/>
   </g>
   <g id="line2d_1">
    <path d="M 86.713051 138.935599 
L 86.713051 103.024617 
L 86.713051 103.024617 
M 86.713051 67.113635 
L 86.713051 67.113635 
L 86.713051 31.202653 
" clip-path="url(#pe7f55ad0af)" style="fill: none; stroke: #000000; stroke-width: 2; stroke-linecap: round"/>
   </g>
   <g id="line2d_2">
    <path d="M 90.304149 94.046871 
L 83.121953 94.046871 
" clip-path="url(#pe7f55ad0af)" style="fill: none; stroke: #000000; stroke-width: 2; stroke-linecap: round"/>
   </g>
   <g id="line2d_3">
    <path d="M 86.713051 79.682479 
L 86.713051 72.500282 
" clip-path="url(#pe7f55ad0af)" style="fill: none; stroke: #000000; stroke-width: 2; stroke-linecap: round"/>
   </g>
   <g id="line2d_4">
    <path d="M 90.304149 76.09138 
L 83.121953 76.09138 
" clip-path="url(#pe7f55ad0af)" style="fill: none; stroke: #000000; stroke-width: 2; stroke-linecap: round"/>
   </g>
   <g id="line2d_5">
    <path d="M 86.713051 31.202653 
L 122.624033 31.202653 
L 125.616614 22.224908 
L 131.601778 40.180399 
L 137.586942 22.224908 
L 143.572105 40.180399 
L 149.557269 22.224908 
L 155.542433 40.180399 
L 158.535014 31.202653 
L 194.445996 31.202653 
" clip-path="url(#pe7f55ad0af)" style="fill: none; stroke: #000000; stroke-width: 2; stroke-linecap: round"/>
   </g>
   <g id="line2d_6">
    <path d="M 194.445996 31.202653 
L 230.356978 31.202653 
M 266.26796 31.202653 
L 302.178942 31.202653 
" clip-path="url(#pe7f55ad0af)" style="fill: none; stroke: #000000; stroke-width: 2; stroke-linecap: round"/>
   </g>
   <g id="line2d_7">
    <path d="M 302.178942 31.202653 
L 302.178942 81.837137 
M 311.156687 81.837137 
L 293.201196 81.837137 
M 311.156687 88.301114 
L 293.201196 88.301114 
M 302.178942 88.301114 
L 302.178942 138.935599 
" clip-path="url(#pe7f55ad0af)" style="fill: none; stroke: #000000; stroke-width: 2; stroke-linecap: round"/>
   </g>
   <g id="line2d_8">
    <path d="M 302.178942 138.935599 
L 302.178942 153.299991 
L 293.201196 153.299991 
L 311.156687 153.299991 
M 295.89452 157.609309 
L 308.463363 157.609309 
M 300.383393 161.918627 
L 303.974491 161.918627 
" clip-path="url(#pe7f55ad0af)" style="fill: none; stroke: #000000; stroke-width: 2; stroke-linecap: round"/>
   </g>
   <g id="line2d_9">
    <path d="M 302.178942 138.935599 
L 356.045414 138.935599 
L 409.911887 138.935599 
" clip-path="url(#pe7f55ad0af)" style="fill: none; stroke: #000000; stroke-width: 2; stroke-linecap: round"/>
   </g>
   <g id="line2d_10">
    <path d="M 409.911887 138.935599 
L 409.911887 174.84658 
L 418.889633 177.839162 
L 400.934142 183.824326 
L 418.889633 189.809489 
L 400.934142 195.794653 
L 418.889633 201.779817 
L 400.934142 207.76498 
L 409.911887 210.757562 
L 409.911887 246.668544 
" clip-path="url(#pe7f55ad0af)" style="fill: none; stroke: #000000; stroke-width: 2; stroke-linecap: round"/>
   </g>
   <g id="line2d_11">
    <path d="M 409.911887 246.668544 
L 409.911887 261.032937 
L 400.934142 261.032937 
L 418.889633 261.032937 
M 403.627465 265.342255 
L 416.196309 265.342255 
M 408.116338 269.651572 
L 411.707436 269.651572 
" clip-path="url(#pe7f55ad0af)" style="fill: none; stroke: #000000; stroke-width: 2; stroke-linecap: round"/>
   </g>
   <g id="text_1">
    <!-- V_source -->
    <g transform="translate(2.105212 88.542876) scale(0.14 -0.14)">
     <defs>
      <path id="DejaVuSans-56" d="M 1831 0 
L 50 4666 
L 709 4666 
L 2188 738 
L 3669 4666 
L 4325 4666 
L 2547 0 
L 1831 0 
z
" transform="scale(0.015625)"/>
      <path id="DejaVuSans-5f" d="M 3263 -1063 
L 3263 -1509 
L -63 -1509 
L -63 -1063 
L 3263 -1063 
z
" transform="scale(0.015625)"/>
      <path id="DejaVuSans-73" d="M 2834 3397 
L 2834 2853 
Q 2591 2978 2328 3040 
Q 2066 3103 1784 3103 
Q 1356 3103 1142 2972 
Q 928 2841 928 2578 
Q 928 2378 1081 2264 
Q 1234 2150 1697 2047 
L 1894 2003 
Q 2506 1872 2764 1633 
Q 3022 1394 3022 966 
Q 3022 478 2636 193 
Q 2250 -91 1575 -91 
Q 1294 -91 989 -36 
Q 684 19 347 128 
L 347 722 
Q 666 556 975 473 
Q 1284 391 1588 391 
Q 1994 391 2212 530 
Q 2431 669 2431 922 
Q 2431 1156 2273 1281 
Q 2116 1406 1581 1522 
L 1381 1569 
Q 847 1681 609 1914 
Q 372 2147 372 2553 
Q 372 3047 722 3315 
Q 1072 3584 1716 3584 
Q 2034 3584 2315 3537 
Q 2597 3491 2834 3397 
z
" transform="scale(0.015625)"/>
      <path id="DejaVuSans-6f" d="M 1959 3097 
Q 1497 3097 1228 2736 
Q 959 2375 959 1747 
Q 959 1119 1226 758 
Q 1494 397 1959 397 
Q 2419 397 2687 759 
Q 2956 1122 2956 1747 
Q 2956 2369 2687 2733 
Q 2419 3097 1959 3097 
z
M 1959 3584 
Q 2709 3584 3137 3096 
Q 3566 2609 3566 1747 
Q 3566 888 3137 398 
Q 2709 -91 1959 -91 
Q 1206 -91 779 398 
Q 353 888 353 1747 
Q 353 2609 779 3096 
Q 1206 3584 1959 3584 
z
" transform="scale(0.015625)"/>
      <path id="DejaVuSans-75" d="M 544 1381 
L 544 3500 
L 1119 3500 
L 1119 1403 
Q 1119 906 1312 657 
Q 1506 409 1894 409 
Q 2359 409 2629 706 
Q 2900 1003 2900 1516 
L 2900 3500 
L 3475 3500 
L 3475 0 
L 2900 0 
L 2900 538 
Q 2691 219 2414 64 
Q 2138 -91 1772 -91 
Q 1169 -91 856 284 
Q 544 659 544 1381 
z
M 1991 3584 
L 1991 3584 
z
" transform="scale(0.015625)"/>
      <path id="DejaVuSans-72" d="M 2631 2963 
Q 2534 3019 2420 3045 
Q 2306 3072 2169 3072 
Q 1681 3072 1420 2755 
Q 1159 2438 1159 1844 
L 1159 0 
L 581 0 
L 581 3500 
L 1159 3500 
L 1159 2956 
Q 1341 3275 1631 3429 
Q 1922 3584 2338 3584 
Q 2397 3584 2469 3576 
Q 2541 3569 2628 3553 
L 2631 2963 
z
" transform="scale(0.015625)"/>
      <path id="DejaVuSans-63" d="M 3122 3366 
L 3122 2828 
Q 2878 2963 2633 3030 
Q 2388 3097 2138 3097 
Q 1578 3097 1268 2742 
Q 959 2388 959 1747 
Q 959 1106 1268 751 
Q 1578 397 2138 397 
Q 2388 397 2633 464 
Q 2878 531 3122 666 
L 3122 134 
Q 2881 22 2623 -34 
Q 2366 -91 2075 -91 
Q 1284 -91 818 406 
Q 353 903 353 1747 
Q 353 2603 823 3093 
Q 1294 3584 2113 3584 
Q 2378 3584 2631 3529 
Q 2884 3475 3122 3366 
z
" transform="scale(0.015625)"/>
      <path id="DejaVuSans-65" d="M 3597 1894 
L 3597 1613 
L 953 1613 
Q 991 1019 1311 708 
Q 1631 397 2203 397 
Q 2534 397 2845 478 
Q 3156 559 3463 722 
L 3463 178 
Q 3153 47 2828 -22 
Q 2503 -91 2169 -91 
Q 1331 -91 842 396 
Q 353 884 353 1716 
Q 353 2575 817 3079 
Q 1281 3584 2069 3584 
Q 2775 3584 3186 3129 
Q 3597 2675 3597 1894 
z
M 3022 2063 
Q 3016 2534 2758 2815 
Q 2500 3097 2075 3097 
Q 1594 3097 1305 2825 
Q 1016 2553 972 2059 
L 3022 2063 
z
" transform="scale(0.015625)"/>
     </defs>
     <use xlink:href="#DejaVuSans-56"/>
     <use xlink:href="#DejaVuSans-5f" transform="translate(68.408203 0)"/>
     <use xlink:href="#DejaVuSans-73" transform="translate(118.408203 0)"/>
     <use xlink:href="#DejaVuSans-6f" transform="translate(170.507812 0)"/>
     <use xlink:href="#DejaVuSans-75" transform="translate(231.689453 0)"/>
     <use xlink:href="#DejaVuSans-72" transform="translate(295.068359 0)"/>
     <use xlink:href="#DejaVuSans-63" transform="translate(333.931641 0)"/>
     <use xlink:href="#DejaVuSans-65" transform="translate(388.912109 0)"/>
    </g>
   </g>
   <g id="text_2">
    <!-- R_s -->
    <g transform="translate(128.569055 15.332872) scale(0.14 -0.14)">
     <defs>
      <path id="DejaVuSans-52" d="M 2841 2188 
Q 3044 2119 3236 1894 
Q 3428 1669 3622 1275 
L 4263 0 
L 3584 0 
L 2988 1197 
Q 2756 1666 2539 1819 
Q 2322 1972 1947 1972 
L 1259 1972 
L 1259 0 
L 628 0 
L 628 4666 
L 2053 4666 
Q 2853 4666 3247 4331 
Q 3641 3997 3641 3322 
Q 3641 2881 3436 2590 
Q 3231 2300 2841 2188 
z
M 1259 4147 
L 1259 2491 
L 2053 2491 
Q 2509 2491 2742 2702 
Q 2975 2913 2975 3322 
Q 2975 3731 2742 3939 
Q 2509 4147 2053 4147 
L 1259 4147 
z
" transform="scale(0.015625)"/>
     </defs>
     <use xlink:href="#DejaVuSans-52"/>
     <use xlink:href="#DejaVuSans-5f" transform="translate(69.482422 0)"/>
     <use xlink:href="#DejaVuSans-73" transform="translate(119.482422 0)"/>
    </g>
   </g>
   <g id="text_3">
    <!-- L_match -->
    <g transform="translate(218.774656 19.821767) scale(0.14 -0.14)">
     <defs>
      <path id="DejaVuSans-4c" d="M 628 4666 
L 1259 4666 
L 1259 531 
L 3531 531 
L 3531 0 
L 628 0 
L 628 4666 
z
" transform="scale(0.015625)"/>
      <path id="DejaVuSans-6d" d="M 3328 2828 
Q 3544 3216 3844 3400 
Q 4144 3584 4550 3584 
Q 5097 3584 5394 3201 
Q 5691 2819 5691 2113 
L 5691 0 
L 5113 0 
L 5113 2094 
Q 5113 2597 4934 2840 
Q 4756 3084 4391 3084 
Q 3944 3084 3684 2787 
Q 3425 2491 3425 1978 
L 3425 0 
L 2847 0 
L 2847 2094 
Q 2847 2600 2669 2842 
Q 2491 3084 2119 3084 
Q 1678 3084 1418 2786 
Q 1159 2488 1159 1978 
L 1159 0 
L 581 0 
L 581 3500 
L 1159 3500 
L 1159 2956 
Q 1356 3278 1631 3431 
Q 1906 3584 2284 3584 
Q 2666 3584 2933 3390 
Q 3200 3197 3328 2828 
z
" transform="scale(0.015625)"/>
      <path id="DejaVuSans-61" d="M 2194 1759 
Q 1497 1759 1228 1600 
Q 959 1441 959 1056 
Q 959 750 1161 570 
Q 1363 391 1709 391 
Q 2188 391 2477 730 
Q 2766 1069 2766 1631 
L 2766 1759 
L 2194 1759 
z
M 3341 1997 
L 3341 0 
L 2766 0 
L 2766 531 
Q 2569 213 2275 61 
Q 1981 -91 1556 -91 
Q 1019 -91 701 211 
Q 384 513 384 1019 
Q 384 1609 779 1909 
Q 1175 2209 1959 2209 
L 2766 2209 
L 2766 2266 
Q 2766 2663 2505 2880 
Q 2244 3097 1772 3097 
Q 1472 3097 1187 3025 
Q 903 2953 641 2809 
L 641 3341 
Q 956 3463 1253 3523 
Q 1550 3584 1831 3584 
Q 2591 3584 2966 3190 
Q 3341 2797 3341 1997 
z
" transform="scale(0.015625)"/>
      <path id="DejaVuSans-74" d="M 1172 4494 
L 1172 3500 
L 2356 3500 
L 2356 3053 
L 1172 3053 
L 1172 1153 
Q 1172 725 1289 603 
Q 1406 481 1766 481 
L 2356 481 
L 2356 0 
L 1766 0 
Q 1100 0 847 248 
Q 594 497 594 1153 
L 594 3053 
L 172 3053 
L 172 3500 
L 594 3500 
L 594 4494 
L 1172 4494 
z
" transform="scale(0.015625)"/>
      <path id="DejaVuSans-68" d="M 3513 2113 
L 3513 0 
L 2938 0 
L 2938 2094 
Q 2938 2591 2744 2837 
Q 2550 3084 2163 3084 
Q 1697 3084 1428 2787 
Q 1159 2491 1159 1978 
L 1159 0 
L 581 0 
L 581 4863 
L 1159 4863 
L 1159 2956 
Q 1366 3272 1645 3428 
Q 1925 3584 2291 3584 
Q 2894 3584 3203 3211 
Q 3513 2838 3513 2113 
z
" transform="scale(0.015625)"/>
     </defs>
     <use xlink:href="#DejaVuSans-4c"/>
     <use xlink:href="#DejaVuSans-5f" transform="translate(55.712891 0)"/>
     <use xlink:href="#DejaVuSans-6d" transform="translate(105.712891 0)"/>
     <use xlink:href="#DejaVuSans-61" transform="translate(203.125 0)"/>
     <use xlink:href="#DejaVuSans-74" transform="translate(264.404297 0)"/>
     <use xlink:href="#DejaVuSans-63" transform="translate(303.613281 0)"/>
     <use xlink:href="#DejaVuSans-68" transform="translate(358.59375 0)"/>
    </g>
   </g>
   <g id="text_4">
    <!-- C_match -->
    <g transform="translate(228.559161 88.737563) scale(0.14 -0.14)">
     <defs>
      <path id="DejaVuSans-43" d="M 4122 4306 
L 4122 3641 
Q 3803 3938 3442 4084 
Q 3081 4231 2675 4231 
Q 1875 4231 1450 3742 
Q 1025 3253 1025 2328 
Q 1025 1406 1450 917 
Q 1875 428 2675 428 
Q 3081 428 3442 575 
Q 3803 722 4122 1019 
L 4122 359 
Q 3791 134 3420 21 
Q 3050 -91 2638 -91 
Q 1578 -91 968 557 
Q 359 1206 359 2328 
Q 359 3453 968 4101 
Q 1578 4750 2638 4750 
Q 3056 4750 3426 4639 
Q 3797 4528 4122 4306 
z
" transform="scale(0.015625)"/>
     </defs>
     <use xlink:href="#DejaVuSans-43"/>
     <use xlink:href="#DejaVuSans-5f" transform="translate(69.824219 0)"/>
     <use xlink:href="#DejaVuSans-6d" transform="translate(119.824219 0)"/>
     <use xlink:href="#DejaVuSans-61" transform="translate(217.236328 0)"/>
     <use xlink:href="#DejaVuSans-74" transform="translate(278.515625 0)"/>
     <use xlink:href="#DejaVuSans-63" transform="translate(317.724609 0)"/>
     <use xlink:href="#DejaVuSans-68" transform="translate(372.705078 0)"/>
    </g>
   </g>
   <g id="text_5">
    <!-- R_load -->
    <g transform="translate(350.692418 196.470509) scale(0.14 -0.14)">
     <defs>
      <path id="DejaVuSans-6c" d="M 603 4863 
L 1178 4863 
L 1178 0 
L 603 0 
L 603 4863 
z
" transform="scale(0.015625)"/>
      <path id="DejaVuSans-64" d="M 2906 2969 
L 2906 4863 
L 3481 4863 
L 3481 0 
L 2906 0 
L 2906 525 
Q 2725 213 2448 61 
Q 2172 -91 1784 -91 
Q 1150 -91 751 415 
Q 353 922 353 1747 
Q 353 2572 751 3078 
Q 1150 3584 1784 3584 
Q 2172 3584 2448 3432 
Q 2725 3281 2906 2969 
z
M 947 1747 
Q 947 1113 1208 752 
Q 1469 391 1925 391 
Q 2381 391 2643 752 
Q 2906 1113 2906 1747 
Q 2906 2381 2643 2742 
Q 2381 3103 1925 3103 
Q 1469 3103 1208 2742 
Q 947 2381 947 1747 
z
" transform="scale(0.015625)"/>
     </defs>
     <use xlink:href="#DejaVuSans-52"/>
     <use xlink:href="#DejaVuSans-5f" transform="translate(69.482422 0)"/>
     <use xlink:href="#DejaVuSans-6c" transform="translate(119.482422 0)"/>
     <use xlink:href="#DejaVuSans-6f" transform="translate(147.265625 0)"/>
     <use xlink:href="#DejaVuSans-61" transform="translate(208.447266 0)"/>
     <use xlink:href="#DejaVuSans-64" transform="translate(269.726562 0)"/>
    </g>
   </g>
  </g>
 </g>
 <defs>
  <clipPath id="pe7f55ad0af">
   <rect x="0" y="0" width="423.55806" height="274.32"/>
  </clipPath>
 </defs>
</svg>
