<?xml version="1.0" encoding="utf-8" standalone="no"?>
<!DOCTYPE svg PUBLIC "-//W3C//DTD SVG 1.1//EN"
  "http://www.w3.org/Graphics/SVG/1.1/DTD/svg11.dtd">
<svg xmlns:xlink="http://www.w3.org/1999/xlink" width="314.040046pt" height="166.32pt" viewBox="0 0 314.040046 166.32" xmlns="http://www.w3.org/2000/svg" version="1.1">
 <metadata>
  <rdf:RDF xmlns:dc="http://purl.org/dc/elements/1.1/" xmlns:cc="http://creativecommons.org/ns#" xmlns:rdf="http://www.w3.org/1999/02/22-rdf-syntax-ns#">
   <cc:Work>
    <dc:type rdf:resource="http://purl.org/dc/dcmitype/StillImage"/>
    <dc:date>2025-12-07T23:58:54.132814</dc:date>
    <dc:format>image/svg+xml</dc:format>
    <dc:creator>
     <cc:Agent>
      <dc:title>Matplotlib v3.10.7, https://matplotlib.org/</dc:title>
     </cc:Agent>
    </dc:creator>
   </cc:Work>
  </rdf:RDF>
 </metadata>
 <defs>
  <style type="text/css">*{stroke-linejoin: round; stroke-linecap: butt}</style>
 </defs>
 <g id="figure_1">
  <g id="patch_1">
   <path d="M 0 166.32 
L 314.040046 166.32 
L 314.040046 0 
L 0 0 
L 0 166.32 
z
" style="fill: none"/>
  </g>
  <g id="axes_1">
   <g id="patch_2">
    <path d="M 54.533041 102.859459 
C 59.28726 102.859459 63.847397 100.970588 67.209137 97.608848 
C 70.570877 94.247108 72.459748 89.68697 72.459748 84.932752 
C 72.459748 80.178534 70.570877 75.618396 67.209137 72.256656 
C 63.847397 68.894916 59.28726 67.006046 54.533041 67.006046 
C 49.778823 67.006046 45.218686 68.894916 41.856946 72.256656 
C 38.495206 75.618396 36.606335 80.178534 36.606335 84.932752 
C 36.606335 89.68697 38.495206 94.247108 41.856946 97.608848 
C 45.218686 100.970588 49.778823 102.859459 54.533041 102.859459 
L 54.533041 102.859459 
z
" clip-path="url(#p24fef02f0c)" style="fill: none; stroke: #000000; stroke-width: 2; stroke-linejoin: miter"/>
   </g>
   <g id="patch_3">
    <path d="M 99.349808 31.152632 
C 99.349808 29.964474 98.87731 28.823763 98.037155 27.983608 
C 97.197 27.143453 96.05629 26.670956 94.868131 26.670956 
C 93.679973 26.670956 92.539262 27.143453 91.699107 27.983608 
C 90.858952 28.823763 90.386455 29.964474 90.386455 31.152632 
" clip-path="url(#p24fef02f0c)" style="fill: none; stroke: #000000; stroke-width: 2; stroke-linejoin: miter"/>
   </g>
   <g id="patch_4">
    <path d="M 108.313161 31.152632 
C 108.313161 29.964474 107.840664 28.823763 107.000508 27.983608 
C 106.160353 27.143453 105.019643 26.670956 103.831485 26.670956 
C 102.643326 26.670956 101.502616 27.143453 100.662461 27.983608 
C 99.822306 28.823763 99.349808 29.964474 99.349808 31.152632 
" clip-path="url(#p24fef02f0c)" style="fill: none; stroke: #000000; stroke-width: 2; stroke-linejoin: miter"/>
   </g>
   <g id="patch_5">
    <path d="M 117.276514 31.152632 
C 117.276514 29.964474 116.804017 28.823763 115.963862 27.983608 
C 115.123707 27.143453 113.982997 26.670956 112.794838 26.670956 
C 111.606679 26.670956 110.465969 27.143453 109.625814 27.983608 
C 108.785659 28.823763 108.313161 29.964474 108.313161 31.152632 
" clip-path="url(#p24fef02f0c)" style="fill: none; stroke: #000000; stroke-width: 2; stroke-linejoin: miter"/>
   </g>
   <g id="patch_6">
    <path d="M 126.239868 31.152632 
C 126.239868 29.964474 125.76737 28.823763 124.927215 27.983608 
C 124.08706 27.143453 122.94635 26.670956 121.758191 26.670956 
C 120.570032 26.670956 119.429322 27.143453 118.589167 27.983608 
C 117.749012 28.823763 117.276514 29.964474 117.276514 31.152632 
" clip-path="url(#p24fef02f0c)" style="fill: none; stroke: #000000; stroke-width: 2; stroke-linejoin: miter"/>
   </g>
   <g id="line2d_1">
    <path d="M 54.533041 138.712872 
L 54.533041 102.859459 
L 54.533041 102.859459 
M 54.533041 67.006046 
L 54.533041 67.006046 
L 54.533041 31.152632 
" clip-path="url(#p24fef02f0c)" style="fill: none; stroke: #000000; stroke-width: 2; stroke-linecap: round"/>
   </g>
   <g id="line2d_2">
    <path d="M 63.496395 84.932752 
L 62.749449 83.076843 
L 62.002503 81.347411 
L 61.255556 79.862314 
L 60.50861 78.722759 
L 59.761664 78.006405 
L 59.014718 77.762069 
L 58.267772 78.006405 
L 57.520826 78.722759 
L 56.77388 79.862314 
L 56.026934 81.347411 
L 55.279988 83.076843 
L 54.533041 84.932752 
L 53.786095 86.788661 
L 53.039149 88.518093 
L 52.292203 90.00319 
L 51.545257 91.142745 
L 50.798311 91.8591 
L 50.051365 92.103435 
L 49.304419 91.8591 
L 48.557473 91.142745 
L 47.810526 90.00319 
L 47.06358 88.518093 
L 46.316634 86.788661 
L 45.569688 84.932752 
" clip-path="url(#p24fef02f0c)" style="fill: none; stroke: #000000; stroke-width: 2; stroke-linecap: round"/>
   </g>
   <g id="line2d_3">
    <path d="M 54.533041 31.152632 
L 105.086354 31.152632 
M 105.086354 22.189279 
L 105.086354 40.115986 
M 111.539968 22.189279 
L 111.539968 40.115986 
M 111.539968 31.152632 
L 162.093281 31.152632 
" clip-path="url(#p24fef02f0c)" style="fill: none; stroke: #000000; stroke-width: 2; stroke-linecap: round"/>
   </g>
   <g id="line2d_4">
    <path d="M 162.093281 31.152632 
L 162.093281 67.006046 
L 171.056634 69.99383 
L 153.129928 75.969399 
L 171.056634 81.944968 
L 153.129928 87.920537 
L 171.056634 93.896105 
L 153.129928 99.871674 
L 162.093281 102.859459 
L 162.093281 138.712872 
" clip-path="url(#p24fef02f0c)" style="fill: none; stroke: #000000; stroke-width: 2; stroke-linecap: round"/>
   </g>
   <g id="line2d_5">
    <path d="M 162.093281 138.712872 
L 162.093281 153.054237 
L 153.129928 153.054237 
L 171.056634 153.054237 
M 155.818934 157.356647 
L 168.367628 157.356647 
M 160.30061 161.659056 
L 163.885952 161.659056 
" clip-path="url(#p24fef02f0c)" style="fill: none; stroke: #000000; stroke-width: 2; stroke-linecap: round"/>
   </g>
   <g id="line2d_6">
    <path d="M 162.093281 138.712872 
L 215.873401 138.712872 
L 269.65352 138.712872 
" clip-path="url(#p24fef02f0c)" style="fill: none; stroke: #000000; stroke-width: 2; stroke-linecap: round"/>
   </g>
   <g id="line2d_7">
    <path d="M 54.533041 31.152632 
L 90.386455 31.152632 
M 126.239868 31.152632 
L 162.093281 31.152632 
" clip-path="url(#p24fef02f0c)" style="fill: none; stroke: #000000; stroke-width: 2; stroke-linecap: round"/>
   </g>
   <g id="line2d_8">
    <path d="M 162.093281 31.152632 
L 162.093281 67.006046 
L 171.056634 69.99383 
L 153.129928 75.969399 
L 171.056634 81.944968 
L 153.129928 87.920537 
L 171.056634 93.896105 
L 153.129928 99.871674 
L 162.093281 102.859459 
L 162.093281 138.712872 
" clip-path="url(#p24fef02f0c)" style="fill: none; stroke: #000000; stroke-width: 2; stroke-linecap: round"/>
   </g>
   <g id="line2d_9">
    <path d="M 162.093281 138.712872 
L 162.093281 153.054237 
L 153.129928 153.054237 
L 171.056634 153.054237 
M 155.818934 157.356647 
L 168.367628 157.356647 
M 160.30061 161.659056 
L 163.885952 161.659056 
" clip-path="url(#p24fef02f0c)" style="fill: none; stroke: #000000; stroke-width: 2; stroke-linecap: round"/>
   </g>
   <g id="line2d_10">
    <path d="M 162.093281 138.712872 
L 215.873401 138.712872 
L 269.65352 138.712872 
" clip-path="url(#p24fef02f0c)" style="fill: none; stroke: #000000; stroke-width: 2; stroke-linecap: round"/>
   </g>
   <g id="text_1">
    <!-- V_in -->
    <g transform="translate(3.682244 88.60119) scale(0.14 -0.14)">
     <defs>
      <path id="DejaVuSans-56" d="M 1831 0 
L 50 4666 
L 709 4666 
L 2188 738 
L 3669 4666 
L 4325 4666 
L 2547 0 
L 1831 0 
z
" transform="scale(0.015625)"/>
      <path id="DejaVuSans-5f" d="M 3263 -1063 
L 3263 -1509 
L -63 -1509 
L -63 -1063 
L 3263 -1063 
z
" transform="scale(0.015625)"/>
      <path id="DejaVuSans-69" d="M 603 3500 
L 1178 3500 
L 1178 0 
L 603 0 
L 603 3500 
z
M 603 4863 
L 1178 4863 
L 1178 4134 
L 603 4134 
L 603 4863 
z
" transform="scale(0.015625)"/>
      <path id="DejaVuSans-6e" d="M 3513 2113 
L 3513 0 
L 2938 0 
L 2938 2094 
Q 2938 2591 2744 2837 
Q 2550 3084 2163 3084 
Q 1697 3084 1428 2787 
Q 1159 2491 1159 1978 
L 1159 0 
L 581 0 
L 581 3500 
L 1159 3500 
L 1159 2956 
Q 1366 3272 1645 3428 
Q 1925 3584 2291 3584 
Q 2894 3584 3203 3211 
Q 3513 2838 3513 2113 
z
" transform="scale(0.015625)"/>
     </defs>
     <use xlink:href="#DejaVuSans-56"/>
     <use xlink:href="#DejaVuSans-5f" transform="translate(68.408203 0)"/>
     <use xlink:href="#DejaVuSans-69" transform="translate(118.408203 0)"/>
     <use xlink:href="#DejaVuSans-6e" transform="translate(146.191406 0)"/>
    </g>
   </g>
   <g id="text_2">
    <!-- C_high -->
    <g transform="translate(84.664099 15.303) scale(0.14 -0.14)">
     <defs>
      <path id="DejaVuSans-43" d="M 4122 4306 
L 4122 3641 
Q 3803 3938 3442 4084 
Q 3081 4231 2675 4231 
Q 1875 4231 1450 3742 
Q 1025 3253 1025 2328 
Q 1025 1406 1450 917 
Q 1875 428 2675 428 
Q 3081 428 3442 575 
Q 3803 722 4122 1019 
L 4122 359 
Q 3791 134 3420 21 
Q 3050 -91 2638 -91 
Q 1578 -91 968 557 
Q 359 1206 359 2328 
Q 359 3453 968 4101 
Q 1578 4750 2638 4750 
Q 3056 4750 3426 4639 
Q 3797 4528 4122 4306 
z
" transform="scale(0.015625)"/>
      <path id="DejaVuSans-68" d="M 3513 2113 
L 3513 0 
L 2938 0 
L 2938 2094 
Q 2938 2591 2744 2837 
Q 2550 3084 2163 3084 
Q 1697 3084 1428 2787 
Q 1159 2491 1159 1978 
L 1159 0 
L 581 0 
L 581 4863 
L 1159 4863 
L 1159 2956 
Q 1366 3272 1645 3428 
Q 1925 3584 2291 3584 
Q 2894 3584 3203 3211 
Q 3513 2838 3513 2113 
z
" transform="scale(0.015625)"/>
      <path id="DejaVuSans-67" d="M 2906 1791 
Q 2906 2416 2648 2759 
Q 2391 3103 1925 3103 
Q 1463 3103 1205 2759 
Q 947 2416 947 1791 
Q 947 1169 1205 825 
Q 1463 481 1925 481 
Q 2391 481 2648 825 
Q 2906 1169 2906 1791 
z
M 3481 434 
Q 3481 -459 3084 -895 
Q 2688 -1331 1869 -1331 
Q 1566 -1331 1297 -1286 
Q 1028 -1241 775 -1147 
L 775 -588 
Q 1028 -725 1275 -790 
Q 1522 -856 1778 -856 
Q 2344 -856 2625 -561 
Q 2906 -266 2906 331 
L 2906 616 
Q 2728 306 2450 153 
Q 2172 0 1784 0 
Q 1141 0 747 490 
Q 353 981 353 1791 
Q 353 2603 747 3093 
Q 1141 3584 1784 3584 
Q 2172 3584 2450 3431 
Q 2728 3278 2906 2969 
L 2906 3500 
L 3481 3500 
L 3481 434 
z
" transform="scale(0.015625)"/>
     </defs>
     <use xlink:href="#DejaVuSans-43"/>
     <use xlink:href="#DejaVuSans-5f" transform="translate(69.824219 0)"/>
     <use xlink:href="#DejaVuSans-68" transform="translate(119.824219 0)"/>
     <use xlink:href="#DejaVuSans-69" transform="translate(183.203125 0)"/>
     <use xlink:href="#DejaVuSans-67" transform="translate(210.986328 0)"/>
     <use xlink:href="#DejaVuSans-68" transform="translate(274.462891 0)"/>
    </g>
   </g>
   <g id="text_3">
    <!-- R_high -->
    <g transform="translate(102.294586 88.60119) scale(0.14 -0.14)">
     <defs>
      <path id="DejaVuSans-52" d="M 2841 2188 
Q 3044 2119 3236 1894 
Q 3428 1669 3622 1275 
L 4263 0 
L 3584 0 
L 2988 1197 
Q 2756 1666 2539 1819 
Q 2322 1972 1947 1972 
L 1259 1972 
L 1259 0 
L 628 0 
L 628 4666 
L 2053 4666 
Q 2853 4666 3247 4331 
Q 3641 3997 3641 3322 
Q 3641 2881 3436 2590 
Q 3231 2300 2841 2188 
z
M 1259 4147 
L 1259 2491 
L 2053 2491 
Q 2509 2491 2742 2702 
Q 2975 2913 2975 3322 
Q 2975 3731 2742 3939 
Q 2509 4147 2053 4147 
L 1259 4147 
z
" transform="scale(0.015625)"/>
     </defs>
     <use xlink:href="#DejaVuSans-52"/>
     <use xlink:href="#DejaVuSans-5f" transform="translate(69.482422 0)"/>
     <use xlink:href="#DejaVuSans-68" transform="translate(119.482422 0)"/>
     <use xlink:href="#DejaVuSans-69" transform="translate(182.861328 0)"/>
     <use xlink:href="#DejaVuSans-67" transform="translate(210.644531 0)"/>
     <use xlink:href="#DejaVuSans-68" transform="translate(274.121094 0)"/>
    </g>
   </g>
   <g id="text_4">
    <!-- V_out_high -->
    <g transform="translate(234.725737 138.795968) scale(0.14 -0.14)">
     <defs>
      <path id="DejaVuSans-6f" d="M 1959 3097 
Q 1497 3097 1228 2736 
Q 959 2375 959 1747 
Q 959 1119 1226 758 
Q 1494 397 1959 397 
Q 2419 397 2687 759 
Q 2956 1122 2956 1747 
Q 2956 2369 2687 2733 
Q 2419 3097 1959 3097 
z
M 1959 3584 
Q 2709 3584 3137 3096 
Q 3566 2609 3566 1747 
Q 3566 888 3137 398 
Q 2709 -91 1959 -91 
Q 1206 -91 779 398 
Q 353 888 353 1747 
Q 353 2609 779 3096 
Q 1206 3584 1959 3584 
z
" transform="scale(0.015625)"/>
      <path id="DejaVuSans-75" d="M 544 1381 
L 544 3500 
L 1119 3500 
L 1119 1403 
Q 1119 906 1312 657 
Q 1506 409 1894 409 
Q 2359 409 2629 706 
Q 2900 1003 2900 1516 
L 2900 3500 
L 3475 3500 
L 3475 0 
L 2900 0 
L 2900 538 
Q 2691 219 2414 64 
Q 2138 -91 1772 -91 
Q 1169 -91 856 284 
Q 544 659 544 1381 
z
M 1991 3584 
L 1991 3584 
z
" transform="scale(0.015625)"/>
      <path id="DejaVuSans-74" d="M 1172 4494 
L 1172 3500 
L 2356 3500 
L 2356 3053 
L 1172 3053 
L 1172 1153 
Q 1172 725 1289 603 
Q 1406 481 1766 481 
L 2356 481 
L 2356 0 
L 1766 0 
Q 1100 0 847 248 
Q 594 497 594 1153 
L 594 3053 
L 172 3053 
L 172 3500 
L 594 3500 
L 594 4494 
L 1172 4494 
z
" transform="scale(0.015625)"/>
     </defs>
     <use xlink:href="#DejaVuSans-56"/>
     <use xlink:href="#DejaVuSans-5f" transform="translate(68.408203 0)"/>
     <use xlink:href="#DejaVuSans-6f" transform="translate(118.408203 0)"/>
     <use xlink:href="#DejaVuSans-75" transform="translate(179.589844 0)"/>
     <use xlink:href="#DejaVuSans-74" transform="translate(242.96875 0)"/>
     <use xlink:href="#DejaVuSans-5f" transform="translate(282.177734 0)"/>
     <use xlink:href="#DejaVuSans-68" transform="translate(332.177734 0)"/>
     <use xlink:href="#DejaVuSans-69" transform="translate(395.556641 0)"/>
     <use xlink:href="#DejaVuSans-67" transform="translate(423.339844 0)"/>
     <use xlink:href="#DejaVuSans-68" transform="translate(486.816406 0)"/>
    </g>
   </g>
   <g id="text_5">
    <!-- L_low -->
    <g transform="translate(88.960349 19.784699) scale(0.14 -0.14)">
     <defs>
      <path id="DejaVuSans-4c" d="M 628 4666 
L 1259 4666 
L 1259 531 
L 3531 531 
L 3531 0 
L 628 0 
L 628 4666 
z
" transform="scale(0.015625)"/>
      <path id="DejaVuSans-6c" d="M 603 4863 
L 1178 4863 
L 1178 0 
L 603 0 
L 603 4863 
z
" transform="scale(0.015625)"/>
      <path id="DejaVuSans-77" d="M 269 3500 
L 844 3500 
L 1563 769 
L 2278 3500 
L 2956 3500 
L 3675 769 
L 4391 3500 
L 4966 3500 
L 4050 0 
L 3372 0 
L 2619 2869 
L 1863 0 
L 1184 0 
L 269 3500 
z
" transform="scale(0.015625)"/>
     </defs>
     <use xlink:href="#DejaVuSans-4c"/>
     <use xlink:href="#DejaVuSans-5f" transform="translate(55.712891 0)"/>
     <use xlink:href="#DejaVuSans-6c" transform="translate(105.712891 0)"/>
     <use xlink:href="#DejaVuSans-6f" transform="translate(133.496094 0)"/>
     <use xlink:href="#DejaVuSans-77" transform="translate(194.677734 0)"/>
    </g>
   </g>
   <g id="text_6">
    <!-- R_low -->
    <g transform="translate(108.911774 88.60119) scale(0.14 -0.14)">
     <use xlink:href="#DejaVuSans-52"/>
     <use xlink:href="#DejaVuSans-5f" transform="translate(69.482422 0)"/>
     <use xlink:href="#DejaVuSans-6c" transform="translate(119.482422 0)"/>
     <use xlink:href="#DejaVuSans-6f" transform="translate(147.265625 0)"/>
     <use xlink:href="#DejaVuSans-77" transform="translate(208.447266 0)"/>
    </g>
   </g>
   <g id="text_7">
    <!-- V_out_low -->
    <g transform="translate(238.034331 138.795968) scale(0.14 -0.14)">
     <use xlink:href="#DejaVuSans-56"/>
     <use xlink:href="#DejaVuSans-5f" transform="translate(68.408203 0)"/>
     <use xlink:href="#DejaVuSans-6f" transform="translate(118.408203 0)"/>
     <use xlink:href="#DejaVuSans-75" transform="translate(179.589844 0)"/>
     <use xlink:href="#DejaVuSans-74" transform="translate(242.96875 0)"/>
     <use xlink:href="#DejaVuSans-5f" transform="translate(282.177734 0)"/>
     <use xlink:href="#DejaVuSans-6c" transform="translate(332.177734 0)"/>
     <use xlink:href="#DejaVuSans-6f" transform="translate(359.960938 0)"/>
     <use xlink:href="#DejaVuSans-77" transform="translate(421.142578 0)"/>
    </g>
   </g>
  </g>
 </g>
 <defs>
  <clipPath id="p24fef02f0c">
   <rect x="0" y="-0" width="314.040046" height="166.32"/>
  </clipPath>
 </defs>
</svg>
