<?xml version="1.0" encoding="utf-8" standalone="no"?>
<!DOCTYPE svg PUBLIC "-//W3C//DTD SVG 1.1//EN"
  "http://www.w3.org/Graphics/SVG/1.1/DTD/svg11.dtd">
<svg xmlns:xlink="http://www.w3.org/1999/xlink" width="404.1576pt" height="166.32pt" viewBox="0 0 404.1576 166.32" xmlns="http://www.w3.org/2000/svg" version="1.1">
 <metadata>
  <rdf:RDF xmlns:dc="http://purl.org/dc/elements/1.1/" xmlns:cc="http://creativecommons.org/ns#" xmlns:rdf="http://www.w3.org/1999/02/22-rdf-syntax-ns#">
   <cc:Work>
    <dc:type rdf:resource="http://purl.org/dc/dcmitype/StillImage"/>
    <dc:date>2025-12-07T23:58:54.064124</dc:date>
    <dc:format>image/svg+xml</dc:format>
    <dc:creator>
     <cc:Agent>
      <dc:title>Matplotlib v3.10.7, https://matplotlib.org/</dc:title>
     </cc:Agent>
    </dc:creator>
   </cc:Work>
  </rdf:RDF>
 </metadata>
 <defs>
  <style type="text/css">*{stroke-linejoin: round; stroke-linecap: butt}</style>
 </defs>
 <g id="figure_1">
  <g id="patch_1">
   <path d="M 0 166.32 
L 404.1576 166.32 
L 404.1576 0 
L 0 0 
L 0 166.32 
z
" style="fill: none"/>
  </g>
  <g id="axes_1">
   <g id="patch_2">
    <path d="M 54.533041 102.859459 
C 59.28726 102.859459 63.847397 100.970588 67.209137 97.608848 
C 70.570877 94.247108 72.459748 89.68697 72.459748 84.932752 
C 72.459748 80.178534 70.570877 75.618396 67.209137 72.256656 
C 63.847397 68.894916 59.28726 67.006046 54.533041 67.006046 
C 49.778823 67.006046 45.218686 68.894916 41.856946 72.256656 
C 38.495206 75.618396 36.606335 80.178534 36.606335 84.932752 
C 36.606335 89.68697 38.495206 94.247108 41.856946 97.608848 
C 45.218686 100.970588 49.778823 102.859459 54.533041 102.859459 
L 54.533041 102.859459 
z
" clip-path="url(#p13eb5268db)" style="fill: none; stroke: #000000; stroke-width: 2; stroke-linejoin: miter"/>
   </g>
   <g id="patch_3">
    <path d="M 54.533041 75.969399 
C 55.7212 75.969399 56.86191 75.496901 57.702065 74.656746 
C 58.54222 73.816591 59.014718 72.675881 59.014718 71.487722 
C 59.014718 70.299563 58.54222 69.158853 57.702065 68.318698 
C 56.86191 67.478543 55.7212 67.006046 54.533041 67.006046 
" clip-path="url(#p13eb5268db)" style="fill: none; stroke: #000000; stroke-width: 2; stroke-linejoin: miter"/>
   </g>
   <g id="patch_4">
    <path d="M 54.533041 84.932752 
C 55.7212 84.932752 56.86191 84.460254 57.702065 83.620099 
C 58.54222 82.779944 59.014718 81.639234 59.014718 80.451075 
C 59.014718 79.262917 58.54222 78.122207 57.702065 77.282052 
C 56.86191 76.441896 55.7212 75.969399 54.533041 75.969399 
" clip-path="url(#p13eb5268db)" style="fill: none; stroke: #000000; stroke-width: 2; stroke-linejoin: miter"/>
   </g>
   <g id="patch_5">
    <path d="M 54.533041 93.896105 
C 55.7212 93.896105 56.86191 93.423608 57.702065 92.583453 
C 58.54222 91.743298 59.014718 90.602587 59.014718 89.414429 
C 59.014718 88.22627 58.54222 87.08556 57.702065 86.245405 
C 56.86191 85.40525 55.7212 84.932752 54.533041 84.932752 
" clip-path="url(#p13eb5268db)" style="fill: none; stroke: #000000; stroke-width: 2; stroke-linejoin: miter"/>
   </g>
   <g id="patch_6">
    <path d="M 54.533041 102.859459 
C 55.7212 102.859459 56.86191 102.386961 57.702065 101.546806 
C 58.54222 100.706651 59.014718 99.565941 59.014718 98.377782 
C 59.014718 97.189623 58.54222 96.048913 57.702065 95.208758 
C 56.86191 94.368603 55.7212 93.896105 54.533041 93.896105 
" clip-path="url(#p13eb5268db)" style="fill: none; stroke: #000000; stroke-width: 2; stroke-linejoin: miter"/>
   </g>
   <g id="patch_7">
    <path d="M 206.910047 31.152632 
C 206.910047 29.964474 206.43755 28.823763 205.597395 27.983608 
C 204.75724 27.143453 203.616529 26.670956 202.428371 26.670956 
C 201.240212 26.670956 200.099502 27.143453 199.259347 27.983608 
C 198.419192 28.823763 197.946694 29.964474 197.946694 31.152632 
" clip-path="url(#p13eb5268db)" style="fill: none; stroke: #000000; stroke-width: 2; stroke-linejoin: miter"/>
   </g>
   <g id="patch_8">
    <path d="M 215.873401 31.152632 
C 215.873401 29.964474 215.400903 28.823763 214.560748 27.983608 
C 213.720593 27.143453 212.579883 26.670956 211.391724 26.670956 
C 210.203565 26.670956 209.062855 27.143453 208.2227 27.983608 
C 207.382545 28.823763 206.910047 29.964474 206.910047 31.152632 
" clip-path="url(#p13eb5268db)" style="fill: none; stroke: #000000; stroke-width: 2; stroke-linejoin: miter"/>
   </g>
   <g id="patch_9">
    <path d="M 224.836754 31.152632 
C 224.836754 29.964474 224.364256 28.823763 223.524101 27.983608 
C 222.683946 27.143453 221.543236 26.670956 220.355077 26.670956 
C 219.166919 26.670956 218.026208 27.143453 217.186053 27.983608 
C 216.345898 28.823763 215.873401 29.964474 215.873401 31.152632 
" clip-path="url(#p13eb5268db)" style="fill: none; stroke: #000000; stroke-width: 2; stroke-linejoin: miter"/>
   </g>
   <g id="patch_10">
    <path d="M 233.800107 31.152632 
C 233.800107 29.964474 233.32761 28.823763 232.487455 27.983608 
C 231.6473 27.143453 230.506589 26.670956 229.318431 26.670956 
C 228.130272 26.670956 226.989562 27.143453 226.149407 27.983608 
C 225.309252 28.823763 224.836754 29.964474 224.836754 31.152632 
" clip-path="url(#p13eb5268db)" style="fill: none; stroke: #000000; stroke-width: 2; stroke-linejoin: miter"/>
   </g>
   <g id="patch_11">
    <path d="M 269.65352 75.969399 
C 270.841679 75.969399 271.982389 75.496901 272.822544 74.656746 
C 273.662699 73.816591 274.135197 72.675881 274.135197 71.487722 
C 274.135197 70.299563 273.662699 69.158853 272.822544 68.318698 
C 271.982389 67.478543 270.841679 67.006046 269.65352 67.006046 
" clip-path="url(#p13eb5268db)" style="fill: none; stroke: #000000; stroke-width: 2; stroke-linejoin: miter"/>
   </g>
   <g id="patch_12">
    <path d="M 269.65352 84.932752 
C 270.841679 84.932752 271.982389 84.460254 272.822544 83.620099 
C 273.662699 82.779944 274.135197 81.639234 274.135197 80.451075 
C 274.135197 79.262917 273.662699 78.122207 272.822544 77.282052 
C 271.982389 76.441896 270.841679 75.969399 269.65352 75.969399 
" clip-path="url(#p13eb5268db)" style="fill: none; stroke: #000000; stroke-width: 2; stroke-linejoin: miter"/>
   </g>
   <g id="patch_13">
    <path d="M 269.65352 93.896105 
C 270.841679 93.896105 271.982389 93.423608 272.822544 92.583453 
C 273.662699 91.743298 274.135197 90.602587 274.135197 89.414429 
C 274.135197 88.22627 273.662699 87.08556 272.822544 86.245405 
C 271.982389 85.40525 270.841679 84.932752 269.65352 84.932752 
" clip-path="url(#p13eb5268db)" style="fill: none; stroke: #000000; stroke-width: 2; stroke-linejoin: miter"/>
   </g>
   <g id="patch_14">
    <path d="M 269.65352 102.859459 
C 270.841679 102.859459 271.982389 102.386961 272.822544 101.546806 
C 273.662699 100.706651 274.135197 99.565941 274.135197 98.377782 
C 274.135197 97.189623 273.662699 96.048913 272.822544 95.208758 
C 271.982389 94.368603 270.841679 93.896105 269.65352 93.896105 
" clip-path="url(#p13eb5268db)" style="fill: none; stroke: #000000; stroke-width: 2; stroke-linejoin: miter"/>
   </g>
   <g id="line2d_1">
    <path d="M 54.533041 138.712872 
L 54.533041 102.859459 
L 54.533041 102.859459 
M 54.533041 67.006046 
L 54.533041 67.006046 
L 54.533041 31.152632 
" clip-path="url(#p13eb5268db)" style="fill: none; stroke: #000000; stroke-width: 2; stroke-linecap: round"/>
   </g>
   <g id="line2d_2">
    <path d="M 63.496395 84.932752 
L 62.749449 83.076843 
L 62.002503 81.347411 
L 61.255556 79.862314 
L 60.50861 78.722759 
L 59.761664 78.006405 
L 59.014718 77.762069 
L 58.267772 78.006405 
L 57.520826 78.722759 
L 56.77388 79.862314 
L 56.026934 81.347411 
L 55.279988 83.076843 
L 54.533041 84.932752 
L 53.786095 86.788661 
L 53.039149 88.518093 
L 52.292203 90.00319 
L 51.545257 91.142745 
L 50.798311 91.8591 
L 50.051365 92.103435 
L 49.304419 91.8591 
L 48.557473 91.142745 
L 47.810526 90.00319 
L 47.06358 88.518093 
L 46.316634 86.788661 
L 45.569688 84.932752 
" clip-path="url(#p13eb5268db)" style="fill: none; stroke: #000000; stroke-width: 2; stroke-linecap: round"/>
   </g>
   <g id="line2d_3">
    <path d="M 54.533041 31.152632 
L 54.533041 67.006046 
M 54.533041 102.859459 
L 54.533041 138.712872 
" clip-path="url(#p13eb5268db)" style="fill: none; stroke: #000000; stroke-width: 2; stroke-linecap: round"/>
   </g>
   <g id="line2d_4">
    <path d="M 54.533041 138.712872 
L 54.533041 153.054237 
L 45.569688 153.054237 
L 63.496395 153.054237 
M 48.258694 157.356647 
L 60.807389 157.356647 
M 52.740371 161.659056 
L 56.325712 161.659056 
" clip-path="url(#p13eb5268db)" style="fill: none; stroke: #000000; stroke-width: 2; stroke-linecap: round"/>
   </g>
   <g id="line2d_5">
    <path d="M 54.533041 31.152632 
L 105.086354 31.152632 
M 105.086354 22.189279 
L 105.086354 40.115986 
M 111.539968 22.189279 
L 111.539968 40.115986 
M 111.539968 31.152632 
L 162.093281 31.152632 
" clip-path="url(#p13eb5268db)" style="fill: none; stroke: #000000; stroke-width: 2; stroke-linecap: round"/>
   </g>
   <g id="line2d_6">
    <path d="M 162.093281 31.152632 
L 197.946694 31.152632 
M 233.800107 31.152632 
L 269.65352 31.152632 
" clip-path="url(#p13eb5268db)" style="fill: none; stroke: #000000; stroke-width: 2; stroke-linecap: round"/>
   </g>
   <g id="line2d_7">
    <path d="M 269.65352 31.152632 
L 269.65352 67.006046 
M 269.65352 102.859459 
L 269.65352 138.712872 
" clip-path="url(#p13eb5268db)" style="fill: none; stroke: #000000; stroke-width: 2; stroke-linecap: round"/>
   </g>
   <g id="line2d_8">
    <path d="M 269.65352 138.712872 
L 269.65352 153.054237 
L 260.690167 153.054237 
L 278.616874 153.054237 
M 263.379173 157.356647 
L 275.927868 157.356647 
M 267.86085 161.659056 
L 271.446191 161.659056 
" clip-path="url(#p13eb5268db)" style="fill: none; stroke: #000000; stroke-width: 2; stroke-linecap: round"/>
   </g>
   <g id="line2d_9">
    <path d="M 269.65352 31.152632 
L 323.43364 31.152632 
L 377.21376 31.152632 
" clip-path="url(#p13eb5268db)" style="fill: none; stroke: #000000; stroke-width: 2; stroke-linecap: round"/>
   </g>
   <g id="line2d_10">
    <path d="M 377.21376 31.152632 
L 377.21376 67.006046 
L 386.177113 69.99383 
L 368.250407 75.969399 
L 386.177113 81.944968 
L 368.250407 87.920537 
L 386.177113 93.896105 
L 368.250407 99.871674 
L 377.21376 102.859459 
L 377.21376 138.712872 
" clip-path="url(#p13eb5268db)" style="fill: none; stroke: #000000; stroke-width: 2; stroke-linecap: round"/>
   </g>
   <g id="line2d_11">
    <path d="M 377.21376 138.712872 
L 377.21376 153.054237 
L 368.250407 153.054237 
L 386.177113 153.054237 
M 370.939413 157.356647 
L 383.488107 157.356647 
M 375.421089 161.659056 
L 379.006431 161.659056 
" clip-path="url(#p13eb5268db)" style="fill: none; stroke: #000000; stroke-width: 2; stroke-linecap: round"/>
   </g>
   <g id="text_1">
    <!-- V_in -->
    <g transform="translate(3.682244 88.60119) scale(0.14 -0.14)">
     <defs>
      <path id="DejaVuSans-56" d="M 1831 0 
L 50 4666 
L 709 4666 
L 2188 738 
L 3669 4666 
L 4325 4666 
L 2547 0 
L 1831 0 
z
" transform="scale(0.015625)"/>
      <path id="DejaVuSans-5f" d="M 3263 -1063 
L 3263 -1509 
L -63 -1509 
L -63 -1063 
L 3263 -1063 
z
" transform="scale(0.015625)"/>
      <path id="DejaVuSans-69" d="M 603 3500 
L 1178 3500 
L 1178 0 
L 603 0 
L 603 3500 
z
M 603 4863 
L 1178 4863 
L 1178 4134 
L 603 4134 
L 603 4863 
z
" transform="scale(0.015625)"/>
      <path id="DejaVuSans-6e" d="M 3513 2113 
L 3513 0 
L 2938 0 
L 2938 2094 
Q 2938 2591 2744 2837 
Q 2550 3084 2163 3084 
Q 1697 3084 1428 2787 
Q 1159 2491 1159 1978 
L 1159 0 
L 581 0 
L 581 3500 
L 1159 3500 
L 1159 2956 
Q 1366 3272 1645 3428 
Q 1925 3584 2291 3584 
Q 2894 3584 3203 3211 
Q 3513 2838 3513 2113 
z
" transform="scale(0.015625)"/>
     </defs>
     <use xlink:href="#DejaVuSans-56"/>
     <use xlink:href="#DejaVuSans-5f" transform="translate(68.408203 0)"/>
     <use xlink:href="#DejaVuSans-69" transform="translate(118.408203 0)"/>
     <use xlink:href="#DejaVuSans-6e" transform="translate(146.191406 0)"/>
    </g>
   </g>
   <g id="text_2">
    <!-- L_p1 -->
    <g transform="translate(18.351763 88.406502) scale(0.14 -0.14)">
     <defs>
      <path id="DejaVuSans-4c" d="M 628 4666 
L 1259 4666 
L 1259 531 
L 3531 531 
L 3531 0 
L 628 0 
L 628 4666 
z
" transform="scale(0.015625)"/>
      <path id="DejaVuSans-70" d="M 1159 525 
L 1159 -1331 
L 581 -1331 
L 581 3500 
L 1159 3500 
L 1159 2969 
Q 1341 3281 1617 3432 
Q 1894 3584 2278 3584 
Q 2916 3584 3314 3078 
Q 3713 2572 3713 1747 
Q 3713 922 3314 415 
Q 2916 -91 2278 -91 
Q 1894 -91 1617 61 
Q 1341 213 1159 525 
z
M 3116 1747 
Q 3116 2381 2855 2742 
Q 2594 3103 2138 3103 
Q 1681 3103 1420 2742 
Q 1159 2381 1159 1747 
Q 1159 1113 1420 752 
Q 1681 391 2138 391 
Q 2594 391 2855 752 
Q 3116 1113 3116 1747 
z
" transform="scale(0.015625)"/>
      <path id="DejaVuSans-31" d="M 794 531 
L 1825 531 
L 1825 4091 
L 703 3866 
L 703 4441 
L 1819 4666 
L 2450 4666 
L 2450 531 
L 3481 531 
L 3481 0 
L 794 0 
L 794 531 
z
" transform="scale(0.015625)"/>
     </defs>
     <use xlink:href="#DejaVuSans-4c"/>
     <use xlink:href="#DejaVuSans-5f" transform="translate(55.712891 0)"/>
     <use xlink:href="#DejaVuSans-70" transform="translate(105.712891 0)"/>
     <use xlink:href="#DejaVuSans-31" transform="translate(169.189453 0)"/>
    </g>
   </g>
   <g id="text_3">
    <!-- C_s -->
    <g transform="translate(96.27863 15.303) scale(0.14 -0.14)">
     <defs>
      <path id="DejaVuSans-43" d="M 4122 4306 
L 4122 3641 
Q 3803 3938 3442 4084 
Q 3081 4231 2675 4231 
Q 1875 4231 1450 3742 
Q 1025 3253 1025 2328 
Q 1025 1406 1450 917 
Q 1875 428 2675 428 
Q 3081 428 3442 575 
Q 3803 722 4122 1019 
L 4122 359 
Q 3791 134 3420 21 
Q 3050 -91 2638 -91 
Q 1578 -91 968 557 
Q 359 1206 359 2328 
Q 359 3453 968 4101 
Q 1578 4750 2638 4750 
Q 3056 4750 3426 4639 
Q 3797 4528 4122 4306 
z
" transform="scale(0.015625)"/>
      <path id="DejaVuSans-73" d="M 2834 3397 
L 2834 2853 
Q 2591 2978 2328 3040 
Q 2066 3103 1784 3103 
Q 1356 3103 1142 2972 
Q 928 2841 928 2578 
Q 928 2378 1081 2264 
Q 1234 2150 1697 2047 
L 1894 2003 
Q 2506 1872 2764 1633 
Q 3022 1394 3022 966 
Q 3022 478 2636 193 
Q 2250 -91 1575 -91 
Q 1294 -91 989 -36 
Q 684 19 347 128 
L 347 722 
Q 666 556 975 473 
Q 1284 391 1588 391 
Q 1994 391 2212 530 
Q 2431 669 2431 922 
Q 2431 1156 2273 1281 
Q 2116 1406 1581 1522 
L 1381 1569 
Q 847 1681 609 1914 
Q 372 2147 372 2553 
Q 372 3047 722 3315 
Q 1072 3584 1716 3584 
Q 2034 3584 2315 3537 
Q 2597 3491 2834 3397 
z
" transform="scale(0.015625)"/>
     </defs>
     <use xlink:href="#DejaVuSans-43"/>
     <use xlink:href="#DejaVuSans-5f" transform="translate(69.824219 0)"/>
     <use xlink:href="#DejaVuSans-73" transform="translate(119.824219 0)"/>
    </g>
   </g>
   <g id="text_4">
    <!-- L_s -->
    <g transform="translate(204.826526 19.784699) scale(0.14 -0.14)">
     <use xlink:href="#DejaVuSans-4c"/>
     <use xlink:href="#DejaVuSans-5f" transform="translate(55.712891 0)"/>
     <use xlink:href="#DejaVuSans-73" transform="translate(105.712891 0)"/>
    </g>
   </g>
   <g id="text_5">
    <!-- L_p2 -->
    <g transform="translate(233.472242 88.477596) scale(0.14 -0.14)">
     <defs>
      <path id="DejaVuSans-32" d="M 1228 531 
L 3431 531 
L 3431 0 
L 469 0 
L 469 531 
Q 828 903 1448 1529 
Q 2069 2156 2228 2338 
Q 2531 2678 2651 2914 
Q 2772 3150 2772 3378 
Q 2772 3750 2511 3984 
Q 2250 4219 1831 4219 
Q 1534 4219 1204 4116 
Q 875 4013 500 3803 
L 500 4441 
Q 881 4594 1212 4672 
Q 1544 4750 1819 4750 
Q 2544 4750 2975 4387 
Q 3406 4025 3406 3419 
Q 3406 3131 3298 2873 
Q 3191 2616 2906 2266 
Q 2828 2175 2409 1742 
Q 1991 1309 1228 531 
z
" transform="scale(0.015625)"/>
     </defs>
     <use xlink:href="#DejaVuSans-4c"/>
     <use xlink:href="#DejaVuSans-5f" transform="translate(55.712891 0)"/>
     <use xlink:href="#DejaVuSans-70" transform="translate(105.712891 0)"/>
     <use xlink:href="#DejaVuSans-32" transform="translate(169.189453 0)"/>
    </g>
   </g>
   <g id="text_6">
    <!-- V_out -->
    <g transform="translate(361.04707 31.041041) scale(0.14 -0.14)">
     <defs>
      <path id="DejaVuSans-6f" d="M 1959 3097 
Q 1497 3097 1228 2736 
Q 959 2375 959 1747 
Q 959 1119 1226 758 
Q 1494 397 1959 397 
Q 2419 397 2687 759 
Q 2956 1122 2956 1747 
Q 2956 2369 2687 2733 
Q 2419 3097 1959 3097 
z
M 1959 3584 
Q 2709 3584 3137 3096 
Q 3566 2609 3566 1747 
Q 3566 888 3137 398 
Q 2709 -91 1959 -91 
Q 1206 -91 779 398 
Q 353 888 353 1747 
Q 353 2609 779 3096 
Q 1206 3584 1959 3584 
z
" transform="scale(0.015625)"/>
      <path id="DejaVuSans-75" d="M 544 1381 
L 544 3500 
L 1119 3500 
L 1119 1403 
Q 1119 906 1312 657 
Q 1506 409 1894 409 
Q 2359 409 2629 706 
Q 2900 1003 2900 1516 
L 2900 3500 
L 3475 3500 
L 3475 0 
L 2900 0 
L 2900 538 
Q 2691 219 2414 64 
Q 2138 -91 1772 -91 
Q 1169 -91 856 284 
Q 544 659 544 1381 
z
M 1991 3584 
L 1991 3584 
z
" transform="scale(0.015625)"/>
      <path id="DejaVuSans-74" d="M 1172 4494 
L 1172 3500 
L 2356 3500 
L 2356 3053 
L 1172 3053 
L 1172 1153 
Q 1172 725 1289 603 
Q 1406 481 1766 481 
L 2356 481 
L 2356 0 
L 1766 0 
Q 1100 0 847 248 
Q 594 497 594 1153 
L 594 3053 
L 172 3053 
L 172 3500 
L 594 3500 
L 594 4494 
L 1172 4494 
z
" transform="scale(0.015625)"/>
     </defs>
     <use xlink:href="#DejaVuSans-56"/>
     <use xlink:href="#DejaVuSans-5f" transform="translate(68.408203 0)"/>
     <use xlink:href="#DejaVuSans-6f" transform="translate(118.408203 0)"/>
     <use xlink:href="#DejaVuSans-75" transform="translate(179.589844 0)"/>
     <use xlink:href="#DejaVuSans-74" transform="translate(242.96875 0)"/>
    </g>
   </g>
   <g id="text_7">
    <!-- R_L -->
    <g transform="translate(340.136628 88.406502) scale(0.14 -0.14)">
     <defs>
      <path id="DejaVuSans-52" d="M 2841 2188 
Q 3044 2119 3236 1894 
Q 3428 1669 3622 1275 
L 4263 0 
L 3584 0 
L 2988 1197 
Q 2756 1666 2539 1819 
Q 2322 1972 1947 1972 
L 1259 1972 
L 1259 0 
L 628 0 
L 628 4666 
L 2053 4666 
Q 2853 4666 3247 4331 
Q 3641 3997 3641 3322 
Q 3641 2881 3436 2590 
Q 3231 2300 2841 2188 
z
M 1259 4147 
L 1259 2491 
L 2053 2491 
Q 2509 2491 2742 2702 
Q 2975 2913 2975 3322 
Q 2975 3731 2742 3939 
Q 2509 4147 2053 4147 
L 1259 4147 
z
" transform="scale(0.015625)"/>
     </defs>
     <use xlink:href="#DejaVuSans-52"/>
     <use xlink:href="#DejaVuSans-5f" transform="translate(69.482422 0)"/>
     <use xlink:href="#DejaVuSans-4c" transform="translate(119.482422 0)"/>
    </g>
   </g>
  </g>
 </g>
 <defs>
  <clipPath id="p13eb5268db">
   <rect x="0" y="-0" width="404.1576" height="166.32"/>
  </clipPath>
 </defs>
</svg>
