<?xml version="1.0" encoding="utf-8" standalone="no"?>
<!DOCTYPE svg PUBLIC "-//W3C//DTD SVG 1.1//EN"
  "http://www.w3.org/Graphics/SVG/1.1/DTD/svg11.dtd">
<svg xmlns:xlink="http://www.w3.org/1999/xlink" width="405.089502pt" height="382.32pt" viewBox="0 0 405.089502 382.32" xmlns="http://www.w3.org/2000/svg" version="1.1">
 <metadata>
  <rdf:RDF xmlns:dc="http://purl.org/dc/elements/1.1/" xmlns:cc="http://creativecommons.org/ns#" xmlns:rdf="http://www.w3.org/1999/02/22-rdf-syntax-ns#">
   <cc:Work>
    <dc:type rdf:resource="http://purl.org/dc/dcmitype/StillImage"/>
    <dc:date>2025-12-07T23:58:54.031920</dc:date>
    <dc:format>image/svg+xml</dc:format>
    <dc:creator>
     <cc:Agent>
      <dc:title>Matplotlib v3.10.7, https://matplotlib.org/</dc:title>
     </cc:Agent>
    </dc:creator>
   </cc:Work>
  </rdf:RDF>
 </metadata>
 <defs>
  <style type="text/css">*{stroke-linejoin: round; stroke-linecap: butt}</style>
 </defs>
 <g id="figure_1">
  <g id="patch_1">
   <path d="M 0 382.32 
L 405.089502 382.32 
L 405.089502 0 
L 0 0 
L 0 382.32 
z
" style="fill: none"/>
  </g>
  <g id="axes_1">
   <g id="patch_2">
    <path d="M 54.658783 103.096631 
C 59.423963 103.096631 63.994616 101.203405 67.364107 97.833913 
C 70.733599 94.464422 72.626825 89.893769 72.626825 85.128589 
C 72.626825 80.363409 70.733599 75.792756 67.364107 72.423265 
C 63.994616 69.053773 59.423963 67.160547 54.658783 67.160547 
C 49.893603 67.160547 45.32295 69.053773 41.953459 72.423265 
C 38.583968 75.792756 36.690741 80.363409 36.690741 85.128589 
C 36.690741 89.893769 38.583968 94.464422 41.953459 97.833913 
C 45.32295 101.203405 49.893603 103.096631 54.658783 103.096631 
L 54.658783 103.096631 
z
" clip-path="url(#p1e62b426a4)" style="fill: none; stroke: #000000; stroke-width: 2; stroke-linejoin: miter"/>
   </g>
   <g id="patch_3">
    <path d="M 162.467034 76.144568 
C 163.657932 76.144568 164.801272 75.670981 165.643365 74.828889 
C 166.485457 73.986796 166.959044 72.843456 166.959044 71.652558 
C 166.959044 70.461659 166.485457 69.318319 165.643365 68.476227 
C 164.801272 67.634134 163.657932 67.160547 162.467034 67.160547 
" clip-path="url(#p1e62b426a4)" style="fill: none; stroke: #000000; stroke-width: 2; stroke-linejoin: miter"/>
   </g>
   <g id="patch_4">
    <path d="M 162.467034 85.128589 
C 163.657932 85.128589 164.801272 84.655002 165.643365 83.81291 
C 166.485457 82.970817 166.959044 81.827477 166.959044 80.636579 
C 166.959044 79.44568 166.485457 78.30234 165.643365 77.460248 
C 164.801272 76.618155 163.657932 76.144568 162.467034 76.144568 
" clip-path="url(#p1e62b426a4)" style="fill: none; stroke: #000000; stroke-width: 2; stroke-linejoin: miter"/>
   </g>
   <g id="patch_5">
    <path d="M 162.467034 94.11261 
C 163.657932 94.11261 164.801272 93.639023 165.643365 92.796931 
C 166.485457 91.954838 166.959044 90.811498 166.959044 89.620599 
C 166.959044 88.429701 166.485457 87.286361 165.643365 86.444268 
C 164.801272 85.602176 163.657932 85.128589 162.467034 85.128589 
" clip-path="url(#p1e62b426a4)" style="fill: none; stroke: #000000; stroke-width: 2; stroke-linejoin: miter"/>
   </g>
   <g id="patch_6">
    <path d="M 162.467034 103.096631 
C 163.657932 103.096631 164.801272 102.623044 165.643365 101.780951 
C 166.485457 100.938859 166.959044 99.795519 166.959044 98.60462 
C 166.959044 97.413722 166.485457 96.270382 165.643365 95.428289 
C 164.801272 94.586197 163.657932 94.11261 162.467034 94.11261 
" clip-path="url(#p1e62b426a4)" style="fill: none; stroke: #000000; stroke-width: 2; stroke-linejoin: miter"/>
   </g>
   <g id="patch_7">
    <path d="M 270.275284 183.952819 
C 271.466183 183.952819 272.609523 183.479232 273.451615 182.637139 
C 274.293708 181.795047 274.767295 180.651707 274.767295 179.460808 
C 274.767295 178.26991 274.293708 177.12657 273.451615 176.284477 
C 272.609523 175.442385 271.466183 174.968798 270.275284 174.968798 
" clip-path="url(#p1e62b426a4)" style="fill: none; stroke: #000000; stroke-width: 2; stroke-linejoin: miter"/>
   </g>
   <g id="patch_8">
    <path d="M 270.275284 192.93684 
C 271.466183 192.93684 272.609523 192.463253 273.451615 191.62116 
C 274.293708 190.779068 274.767295 189.635728 274.767295 188.444829 
C 274.767295 187.253931 274.293708 186.11059 273.451615 185.268498 
C 272.609523 184.426406 271.466183 183.952819 270.275284 183.952819 
" clip-path="url(#p1e62b426a4)" style="fill: none; stroke: #000000; stroke-width: 2; stroke-linejoin: miter"/>
   </g>
   <g id="patch_9">
    <path d="M 270.275284 201.920861 
C 271.466183 201.920861 272.609523 201.447273 273.451615 200.605181 
C 274.293708 199.763089 274.767295 198.619748 274.767295 197.42885 
C 274.767295 196.237952 274.293708 195.094611 273.451615 194.252519 
C 272.609523 193.410427 271.466183 192.93684 270.275284 192.93684 
" clip-path="url(#p1e62b426a4)" style="fill: none; stroke: #000000; stroke-width: 2; stroke-linejoin: miter"/>
   </g>
   <g id="patch_10">
    <path d="M 270.275284 210.904881 
C 271.466183 210.904881 272.609523 210.431294 273.451615 209.589202 
C 274.293708 208.74711 274.767295 207.603769 274.767295 206.412871 
C 274.767295 205.221973 274.293708 204.078632 273.451615 203.23654 
C 272.609523 202.394448 271.466183 201.920861 270.275284 201.920861 
" clip-path="url(#p1e62b426a4)" style="fill: none; stroke: #000000; stroke-width: 2; stroke-linejoin: miter"/>
   </g>
   <g id="line2d_1">
    <path d="M 54.658783 139.032714 
L 54.658783 103.096631 
L 54.658783 103.096631 
M 54.658783 67.160547 
L 54.658783 67.160547 
L 54.658783 31.224464 
" clip-path="url(#p1e62b426a4)" style="fill: none; stroke: #000000; stroke-width: 2; stroke-linecap: round"/>
   </g>
   <g id="line2d_2">
    <path d="M 63.642804 85.128589 
L 62.894136 83.2684 
L 62.145467 81.534981 
L 61.396799 80.046459 
L 60.64813 78.904277 
L 59.899462 78.186271 
L 59.150794 77.941372 
L 58.402125 78.186271 
L 57.653457 78.904277 
L 56.904788 80.046459 
L 56.15612 81.534981 
L 55.407451 83.2684 
L 54.658783 85.128589 
L 53.910115 86.988778 
L 53.161446 88.722197 
L 52.412778 90.210719 
L 51.664109 91.352901 
L 50.915441 92.070907 
L 50.166773 92.315806 
L 49.418104 92.070907 
L 48.669436 91.352901 
L 47.920767 90.210719 
L 47.172099 88.722197 
L 46.423431 86.988778 
L 45.674762 85.128589 
" clip-path="url(#p1e62b426a4)" style="fill: none; stroke: #000000; stroke-width: 2; stroke-linecap: round"/>
   </g>
   <g id="line2d_3">
    <path d="M 54.658783 31.224464 
L 105.328661 31.224464 
M 105.328661 22.240443 
L 105.328661 40.208485 
M 111.797156 22.240443 
L 111.797156 40.208485 
M 111.797156 31.224464 
L 162.467034 31.224464 
" clip-path="url(#p1e62b426a4)" style="fill: none; stroke: #000000; stroke-width: 2; stroke-linecap: round"/>
   </g>
   <g id="line2d_4">
    <path d="M 162.467034 31.224464 
L 162.467034 67.160547 
M 162.467034 103.096631 
L 162.467034 139.032714 
" clip-path="url(#p1e62b426a4)" style="fill: none; stroke: #000000; stroke-width: 2; stroke-linecap: round"/>
   </g>
   <g id="line2d_5">
    <path d="M 162.467034 139.032714 
L 162.467034 153.407148 
L 153.483013 153.407148 
L 171.451055 153.407148 
M 156.178219 157.719478 
L 168.755848 157.719478 
M 160.67023 162.031808 
L 164.263838 162.031808 
" clip-path="url(#p1e62b426a4)" style="fill: none; stroke: #000000; stroke-width: 2; stroke-linecap: round"/>
   </g>
   <g id="line2d_6">
    <path d="M 162.467034 139.032714 
L 213.136912 139.032714 
M 213.136912 130.048693 
L 213.136912 148.016735 
M 219.605407 130.048693 
L 219.605407 148.016735 
M 219.605407 139.032714 
L 270.275284 139.032714 
" clip-path="url(#p1e62b426a4)" style="fill: none; stroke: #000000; stroke-width: 2; stroke-linecap: round"/>
   </g>
   <g id="line2d_7">
    <path d="M 270.275284 139.032714 
L 270.275284 174.968798 
M 270.275284 210.904881 
L 270.275284 246.840965 
" clip-path="url(#p1e62b426a4)" style="fill: none; stroke: #000000; stroke-width: 2; stroke-linecap: round"/>
   </g>
   <g id="line2d_8">
    <path d="M 270.275284 246.840965 
L 270.275284 261.215398 
L 261.291263 261.215398 
L 279.259305 261.215398 
M 263.98647 265.527728 
L 276.564099 265.527728 
M 268.47848 269.840058 
L 272.072089 269.840058 
" clip-path="url(#p1e62b426a4)" style="fill: none; stroke: #000000; stroke-width: 2; stroke-linecap: round"/>
   </g>
   <g id="line2d_9">
    <path d="M 270.275284 246.840965 
L 324.17941 246.840965 
L 378.083535 246.840965 
" clip-path="url(#p1e62b426a4)" style="fill: none; stroke: #000000; stroke-width: 2; stroke-linecap: round"/>
   </g>
   <g id="line2d_10">
    <path d="M 378.083535 246.840965 
L 378.083535 282.777049 
L 387.067556 285.771722 
L 369.099514 291.761069 
L 387.067556 297.750417 
L 369.099514 303.739764 
L 387.067556 309.729111 
L 369.099514 315.718458 
L 378.083535 318.713132 
L 378.083535 354.649216 
" clip-path="url(#p1e62b426a4)" style="fill: none; stroke: #000000; stroke-width: 2; stroke-linecap: round"/>
   </g>
   <g id="line2d_11">
    <path d="M 378.083535 354.649216 
L 378.083535 369.023649 
L 369.099514 369.023649 
L 387.067556 369.023649 
M 371.79472 373.335979 
L 384.37235 373.335979 
M 376.286731 377.648309 
L 379.880339 377.648309 
" clip-path="url(#p1e62b426a4)" style="fill: none; stroke: #000000; stroke-width: 2; stroke-linecap: round"/>
   </g>
   <g id="text_1">
    <!-- V_in -->
    <g transform="translate(3.758383 88.797027) scale(0.14 -0.14)">
     <defs>
      <path id="DejaVuSans-56" d="M 1831 0 
L 50 4666 
L 709 4666 
L 2188 738 
L 3669 4666 
L 4325 4666 
L 2547 0 
L 1831 0 
z
" transform="scale(0.015625)"/>
      <path id="DejaVuSans-5f" d="M 3263 -1063 
L 3263 -1509 
L -63 -1509 
L -63 -1063 
L 3263 -1063 
z
" transform="scale(0.015625)"/>
      <path id="DejaVuSans-69" d="M 603 3500 
L 1178 3500 
L 1178 0 
L 603 0 
L 603 3500 
z
M 603 4863 
L 1178 4863 
L 1178 4134 
L 603 4134 
L 603 4863 
z
" transform="scale(0.015625)"/>
      <path id="DejaVuSans-6e" d="M 3513 2113 
L 3513 0 
L 2938 0 
L 2938 2094 
Q 2938 2591 2744 2837 
Q 2550 3084 2163 3084 
Q 1697 3084 1428 2787 
Q 1159 2491 1159 1978 
L 1159 0 
L 581 0 
L 581 3500 
L 1159 3500 
L 1159 2956 
Q 1366 3272 1645 3428 
Q 1925 3584 2291 3584 
Q 2894 3584 3203 3211 
Q 3513 2838 3513 2113 
z
" transform="scale(0.015625)"/>
     </defs>
     <use xlink:href="#DejaVuSans-56"/>
     <use xlink:href="#DejaVuSans-5f" transform="translate(68.408203 0)"/>
     <use xlink:href="#DejaVuSans-69" transform="translate(118.408203 0)"/>
     <use xlink:href="#DejaVuSans-6e" transform="translate(146.191406 0)"/>
    </g>
   </g>
   <g id="text_2">
    <!-- C1 -->
    <g transform="translate(99.22119 15.735272) scale(0.14 -0.14)">
     <defs>
      <path id="DejaVuSans-43" d="M 4122 4306 
L 4122 3641 
Q 3803 3938 3442 4084 
Q 3081 4231 2675 4231 
Q 1875 4231 1450 3742 
Q 1025 3253 1025 2328 
Q 1025 1406 1450 917 
Q 1875 428 2675 428 
Q 3081 428 3442 575 
Q 3803 722 4122 1019 
L 4122 359 
Q 3791 134 3420 21 
Q 3050 -91 2638 -91 
Q 1578 -91 968 557 
Q 359 1206 359 2328 
Q 359 3453 968 4101 
Q 1578 4750 2638 4750 
Q 3056 4750 3426 4639 
Q 3797 4528 4122 4306 
z
" transform="scale(0.015625)"/>
      <path id="DejaVuSans-31" d="M 794 531 
L 1825 531 
L 1825 4091 
L 703 3866 
L 703 4441 
L 1819 4666 
L 2450 4666 
L 2450 531 
L 3481 531 
L 3481 0 
L 794 0 
L 794 531 
z
" transform="scale(0.015625)"/>
     </defs>
     <use xlink:href="#DejaVuSans-43"/>
     <use xlink:href="#DejaVuSans-31" transform="translate(69.824219 0)"/>
    </g>
   </g>
   <g id="text_3">
    <!-- L1 -->
    <g transform="translate(142.1653 88.991714) scale(0.14 -0.14)">
     <defs>
      <path id="DejaVuSans-4c" d="M 628 4666 
L 1259 4666 
L 1259 531 
L 3531 531 
L 3531 0 
L 628 0 
L 628 4666 
z
" transform="scale(0.015625)"/>
     </defs>
     <use xlink:href="#DejaVuSans-4c"/>
     <use xlink:href="#DejaVuSans-31" transform="translate(55.712891 0)"/>
    </g>
   </g>
   <g id="text_4">
    <!-- C2 -->
    <g transform="translate(207.02944 123.543523) scale(0.14 -0.14)">
     <defs>
      <path id="DejaVuSans-32" d="M 1228 531 
L 3431 531 
L 3431 0 
L 469 0 
L 469 531 
Q 828 903 1448 1529 
Q 2069 2156 2228 2338 
Q 2531 2678 2651 2914 
Q 2772 3150 2772 3378 
Q 2772 3750 2511 3984 
Q 2250 4219 1831 4219 
Q 1534 4219 1204 4116 
Q 875 4013 500 3803 
L 500 4441 
Q 881 4594 1212 4672 
Q 1544 4750 1819 4750 
Q 2544 4750 2975 4387 
Q 3406 4025 3406 3419 
Q 3406 3131 3298 2873 
Q 3191 2616 2906 2266 
Q 2828 2175 2409 1742 
Q 1991 1309 1228 531 
z
" transform="scale(0.015625)"/>
     </defs>
     <use xlink:href="#DejaVuSans-43"/>
     <use xlink:href="#DejaVuSans-32" transform="translate(69.824219 0)"/>
    </g>
   </g>
   <g id="text_5">
    <!-- L2 -->
    <g transform="translate(249.973551 196.799965) scale(0.14 -0.14)">
     <use xlink:href="#DejaVuSans-4c"/>
     <use xlink:href="#DejaVuSans-32" transform="translate(55.712891 0)"/>
    </g>
   </g>
   <g id="text_6">
    <!-- V_out -->
    <g transform="translate(361.925112 246.721107) scale(0.14 -0.14)">
     <defs>
      <path id="DejaVuSans-6f" d="M 1959 3097 
Q 1497 3097 1228 2736 
Q 959 2375 959 1747 
Q 959 1119 1226 758 
Q 1494 397 1959 397 
Q 2419 397 2687 759 
Q 2956 1122 2956 1747 
Q 2956 2369 2687 2733 
Q 2419 3097 1959 3097 
z
M 1959 3584 
Q 2709 3584 3137 3096 
Q 3566 2609 3566 1747 
Q 3566 888 3137 398 
Q 2709 -91 1959 -91 
Q 1206 -91 779 398 
Q 353 888 353 1747 
Q 353 2609 779 3096 
Q 1206 3584 1959 3584 
z
" transform="scale(0.015625)"/>
      <path id="DejaVuSans-75" d="M 544 1381 
L 544 3500 
L 1119 3500 
L 1119 1403 
Q 1119 906 1312 657 
Q 1506 409 1894 409 
Q 2359 409 2629 706 
Q 2900 1003 2900 1516 
L 2900 3500 
L 3475 3500 
L 3475 0 
L 2900 0 
L 2900 538 
Q 2691 219 2414 64 
Q 2138 -91 1772 -91 
Q 1169 -91 856 284 
Q 544 659 544 1381 
z
M 1991 3584 
L 1991 3584 
z
" transform="scale(0.015625)"/>
      <path id="DejaVuSans-74" d="M 1172 4494 
L 1172 3500 
L 2356 3500 
L 2356 3053 
L 1172 3053 
L 1172 1153 
Q 1172 725 1289 603 
Q 1406 481 1766 481 
L 2356 481 
L 2356 0 
L 1766 0 
Q 1100 0 847 248 
Q 594 497 594 1153 
L 594 3053 
L 172 3053 
L 172 3500 
L 594 3500 
L 594 4494 
L 1172 4494 
z
" transform="scale(0.015625)"/>
     </defs>
     <use xlink:href="#DejaVuSans-56"/>
     <use xlink:href="#DejaVuSans-5f" transform="translate(68.408203 0)"/>
     <use xlink:href="#DejaVuSans-6f" transform="translate(118.408203 0)"/>
     <use xlink:href="#DejaVuSans-75" transform="translate(179.589844 0)"/>
     <use xlink:href="#DejaVuSans-74" transform="translate(242.96875 0)"/>
    </g>
   </g>
   <g id="text_7">
    <!-- R_L -->
    <g transform="translate(340.977468 304.21884) scale(0.14 -0.14)">
     <defs>
      <path id="DejaVuSans-52" d="M 2841 2188 
Q 3044 2119 3236 1894 
Q 3428 1669 3622 1275 
L 4263 0 
L 3584 0 
L 2988 1197 
Q 2756 1666 2539 1819 
Q 2322 1972 1947 1972 
L 1259 1972 
L 1259 0 
L 628 0 
L 628 4666 
L 2053 4666 
Q 2853 4666 3247 4331 
Q 3641 3997 3641 3322 
Q 3641 2881 3436 2590 
Q 3231 2300 2841 2188 
z
M 1259 4147 
L 1259 2491 
L 2053 2491 
Q 2509 2491 2742 2702 
Q 2975 2913 2975 3322 
Q 2975 3731 2742 3939 
Q 2509 4147 2053 4147 
L 1259 4147 
z
" transform="scale(0.015625)"/>
     </defs>
     <use xlink:href="#DejaVuSans-52"/>
     <use xlink:href="#DejaVuSans-5f" transform="translate(69.482422 0)"/>
     <use xlink:href="#DejaVuSans-4c" transform="translate(119.482422 0)"/>
    </g>
   </g>
  </g>
 </g>
 <defs>
  <clipPath id="p1e62b426a4">
   <rect x="0" y="0" width="405.089502" height="382.32"/>
  </clipPath>
 </defs>
</svg>
