<?xml version="1.0" encoding="utf-8" standalone="no"?>
<!DOCTYPE svg PUBLIC "-//W3C//DTD SVG 1.1//EN"
  "http://www.w3.org/Graphics/SVG/1.1/DTD/svg11.dtd">
<svg xmlns:xlink="http://www.w3.org/1999/xlink" width="322.257731pt" height="193.68pt" viewBox="0 0 322.257731 193.68" xmlns="http://www.w3.org/2000/svg" version="1.1">
 <metadata>
  <rdf:RDF xmlns:dc="http://purl.org/dc/elements/1.1/" xmlns:cc="http://creativecommons.org/ns#" xmlns:rdf="http://www.w3.org/1999/02/22-rdf-syntax-ns#">
   <cc:Work>
    <dc:type rdf:resource="http://purl.org/dc/dcmitype/StillImage"/>
    <dc:date>2025-12-07T23:58:54.728506</dc:date>
    <dc:format>image/svg+xml</dc:format>
    <dc:creator>
     <cc:Agent>
      <dc:title>Matplotlib v3.10.7, https://matplotlib.org/</dc:title>
     </cc:Agent>
    </dc:creator>
   </cc:Work>
  </rdf:RDF>
 </metadata>
 <defs>
  <style type="text/css">*{stroke-linejoin: round; stroke-linecap: butt}</style>
 </defs>
 <g id="figure_1">
  <g id="patch_1">
   <path d="M 0 193.68 
L 322.257731 193.68 
L 322.257731 0 
L 0 0 
L 0 193.68 
z
" style="fill: none"/>
  </g>
  <g id="axes_1">
   <g id="patch_2">
    <path d="M 54.648779 103.077762 
C 59.413087 103.077762 63.982903 101.184882 67.351778 97.816007 
C 70.720653 94.447132 72.613532 89.877317 72.613532 85.113008 
C 72.613532 80.3487 70.720653 75.778884 67.351778 72.41001 
C 63.982903 69.041135 59.413087 67.148255 54.648779 67.148255 
C 49.884471 67.148255 45.314655 69.041135 41.94578 72.41001 
C 38.576906 75.778884 36.684026 80.3487 36.684026 85.113008 
C 36.684026 89.877317 38.576906 94.447132 41.94578 97.816007 
C 45.314655 101.184882 49.884471 103.077762 54.648779 103.077762 
L 54.648779 103.077762 
z
" clip-path="url(#p787a24187c)" style="fill: none; stroke: #000000; stroke-width: 2; stroke-linejoin: miter"/>
   </g>
   <g id="line2d_1">
    <path d="M 54.648779 139.007268 
L 54.648779 103.077762 
L 54.648779 103.077762 
M 54.648779 67.148255 
L 54.648779 67.148255 
L 54.648779 31.218749 
" clip-path="url(#p787a24187c)" style="fill: none; stroke: #000000; stroke-width: 2; stroke-linecap: round"/>
   </g>
   <g id="line2d_2">
    <path d="M 58.24173 94.095385 
L 51.055829 94.095385 
" clip-path="url(#p787a24187c)" style="fill: none; stroke: #000000; stroke-width: 2; stroke-linecap: round"/>
   </g>
   <g id="line2d_3">
    <path d="M 54.648779 79.723582 
L 54.648779 72.537681 
" clip-path="url(#p787a24187c)" style="fill: none; stroke: #000000; stroke-width: 2; stroke-linecap: round"/>
   </g>
   <g id="line2d_4">
    <path d="M 58.24173 76.130632 
L 51.055829 76.130632 
" clip-path="url(#p787a24187c)" style="fill: none; stroke: #000000; stroke-width: 2; stroke-linecap: round"/>
   </g>
   <g id="line2d_5">
    <path d="M 54.648779 31.218749 
L 90.578285 31.218749 
L 93.572411 22.236372 
L 99.560662 40.201125 
L 105.548913 22.236372 
L 111.537164 40.201125 
L 117.525415 22.236372 
L 123.513666 40.201125 
L 126.507792 31.218749 
L 162.437298 31.218749 
" clip-path="url(#p787a24187c)" style="fill: none; stroke: #000000; stroke-width: 2; stroke-linecap: round"/>
   </g>
   <g id="line2d_6">
    <path d="M 162.437298 31.218749 
L 162.437298 44.392901 
" clip-path="url(#p787a24187c)" style="fill: none; stroke: #000000; stroke-width: 2; stroke-linecap: round"/>
   </g>
   <g id="line2d_7">
    <path d="M 175.61145 44.392901 
L 149.263146 44.392901 
" clip-path="url(#p787a24187c)" style="fill: none; stroke: #000000; stroke-width: 2; stroke-linecap: round"/>
   </g>
   <g id="line2d_8">
    <path d="M 169.024374 44.392901 
L 180.881111 58.225761 
L 187.468188 58.225761 
" clip-path="url(#p787a24187c)" style="fill: none; stroke: #000000; stroke-width: 2; stroke-linecap: round"/>
   </g>
   <g id="line2d_9">
    <path d="M 155.850222 44.392901 
L 143.993485 58.225761 
L 137.406409 58.225761 
" clip-path="url(#p787a24187c)" style="fill: none; stroke: #000000; stroke-width: 2; stroke-linecap: round"/>
   </g>
   <g id="line2d_10">
    <path d="M 155.850222 44.392901 
L 149.839138 51.405832 
" clip-path="url(#p787a24187c)" style="fill: none; stroke: #000000; stroke-width: 2; stroke-linecap: round"/>
   </g>
   <g id="patch_3">
    <path d="M 152.56711 53.744094 
L 143.993485 58.225761 
L 147.111167 49.067571 
z
" clip-path="url(#p787a24187c)"/>
   </g>
   <g id="line2d_11">
    <path d="M 187.468188 58.225761 
L 187.468188 72.597564 
L 178.485811 72.597564 
L 196.450564 72.597564 
M 181.180524 76.909104 
L 193.755851 76.909104 
M 185.671712 81.220645 
L 189.264663 81.220645 
" clip-path="url(#p787a24187c)" style="fill: none; stroke: #000000; stroke-width: 2; stroke-linecap: round"/>
   </g>
   <g id="line2d_12">
    <path d="M 187.468188 58.225761 
L 241.362447 58.225761 
L 295.256707 58.225761 
" clip-path="url(#p787a24187c)" style="fill: none; stroke: #000000; stroke-width: 2; stroke-linecap: round"/>
   </g>
   <g id="line2d_13">
    <path d="M 295.256707 58.225761 
L 295.256707 94.155267 
L 304.239083 97.149393 
L 286.27433 103.137644 
L 304.239083 109.125895 
L 286.27433 115.114146 
L 304.239083 121.102397 
L 286.27433 127.090648 
L 295.256707 130.084774 
L 295.256707 166.01428 
" clip-path="url(#p787a24187c)" style="fill: none; stroke: #000000; stroke-width: 2; stroke-linecap: round"/>
   </g>
   <g id="line2d_14">
    <path d="M 295.256707 166.01428 
L 295.256707 180.386083 
L 286.27433 180.386083 
L 304.239083 180.386083 
M 288.969043 184.697623 
L 301.54437 184.697623 
M 293.460231 189.009164 
L 297.053182 189.009164 
" clip-path="url(#p787a24187c)" style="fill: none; stroke: #000000; stroke-width: 2; stroke-linecap: round"/>
   </g>
   <g id="text_1">
    <!-- V_in -->
    <g transform="translate(3.752325 88.781446) scale(0.14 -0.14)">
     <defs>
      <path id="DejaVuSans-56" d="M 1831 0 
L 50 4666 
L 709 4666 
L 2188 738 
L 3669 4666 
L 4325 4666 
L 2547 0 
L 1831 0 
z
" transform="scale(0.015625)"/>
      <path id="DejaVuSans-5f" d="M 3263 -1063 
L 3263 -1509 
L -63 -1509 
L -63 -1063 
L 3263 -1063 
z
" transform="scale(0.015625)"/>
      <path id="DejaVuSans-69" d="M 603 3500 
L 1178 3500 
L 1178 0 
L 603 0 
L 603 3500 
z
M 603 4863 
L 1178 4863 
L 1178 4134 
L 603 4134 
L 603 4863 
z
" transform="scale(0.015625)"/>
      <path id="DejaVuSans-6e" d="M 3513 2113 
L 3513 0 
L 2938 0 
L 2938 2094 
Q 2938 2591 2744 2837 
Q 2550 3084 2163 3084 
Q 1697 3084 1428 2787 
Q 1159 2491 1159 1978 
L 1159 0 
L 581 0 
L 581 3500 
L 1159 3500 
L 1159 2956 
Q 1366 3272 1645 3428 
Q 1925 3584 2291 3584 
Q 2894 3584 3203 3211 
Q 3513 2838 3513 2113 
z
" transform="scale(0.015625)"/>
     </defs>
     <use xlink:href="#DejaVuSans-56"/>
     <use xlink:href="#DejaVuSans-5f" transform="translate(68.408203 0)"/>
     <use xlink:href="#DejaVuSans-69" transform="translate(118.408203 0)"/>
     <use xlink:href="#DejaVuSans-6e" transform="translate(146.191406 0)"/>
    </g>
   </g>
   <g id="text_2">
    <!-- R_sense -->
    <g transform="translate(79.835382 15.342484) scale(0.14 -0.14)">
     <defs>
      <path id="DejaVuSans-52" d="M 2841 2188 
Q 3044 2119 3236 1894 
Q 3428 1669 3622 1275 
L 4263 0 
L 3584 0 
L 2988 1197 
Q 2756 1666 2539 1819 
Q 2322 1972 1947 1972 
L 1259 1972 
L 1259 0 
L 628 0 
L 628 4666 
L 2053 4666 
Q 2853 4666 3247 4331 
Q 3641 3997 3641 3322 
Q 3641 2881 3436 2590 
Q 3231 2300 2841 2188 
z
M 1259 4147 
L 1259 2491 
L 2053 2491 
Q 2509 2491 2742 2702 
Q 2975 2913 2975 3322 
Q 2975 3731 2742 3939 
Q 2509 4147 2053 4147 
L 1259 4147 
z
" transform="scale(0.015625)"/>
      <path id="DejaVuSans-73" d="M 2834 3397 
L 2834 2853 
Q 2591 2978 2328 3040 
Q 2066 3103 1784 3103 
Q 1356 3103 1142 2972 
Q 928 2841 928 2578 
Q 928 2378 1081 2264 
Q 1234 2150 1697 2047 
L 1894 2003 
Q 2506 1872 2764 1633 
Q 3022 1394 3022 966 
Q 3022 478 2636 193 
Q 2250 -91 1575 -91 
Q 1294 -91 989 -36 
Q 684 19 347 128 
L 347 722 
Q 666 556 975 473 
Q 1284 391 1588 391 
Q 1994 391 2212 530 
Q 2431 669 2431 922 
Q 2431 1156 2273 1281 
Q 2116 1406 1581 1522 
L 1381 1569 
Q 847 1681 609 1914 
Q 372 2147 372 2553 
Q 372 3047 722 3315 
Q 1072 3584 1716 3584 
Q 2034 3584 2315 3537 
Q 2597 3491 2834 3397 
z
" transform="scale(0.015625)"/>
      <path id="DejaVuSans-65" d="M 3597 1894 
L 3597 1613 
L 953 1613 
Q 991 1019 1311 708 
Q 1631 397 2203 397 
Q 2534 397 2845 478 
Q 3156 559 3463 722 
L 3463 178 
Q 3153 47 2828 -22 
Q 2503 -91 2169 -91 
Q 1331 -91 842 396 
Q 353 884 353 1716 
Q 353 2575 817 3079 
Q 1281 3584 2069 3584 
Q 2775 3584 3186 3129 
Q 3597 2675 3597 1894 
z
M 3022 2063 
Q 3016 2534 2758 2815 
Q 2500 3097 2075 3097 
Q 1594 3097 1305 2825 
Q 1016 2553 972 2059 
L 3022 2063 
z
" transform="scale(0.015625)"/>
     </defs>
     <use xlink:href="#DejaVuSans-52"/>
     <use xlink:href="#DejaVuSans-5f" transform="translate(69.482422 0)"/>
     <use xlink:href="#DejaVuSans-73" transform="translate(119.482422 0)"/>
     <use xlink:href="#DejaVuSans-65" transform="translate(171.582031 0)"/>
     <use xlink:href="#DejaVuSans-6e" transform="translate(233.105469 0)"/>
     <use xlink:href="#DejaVuSans-73" transform="translate(296.484375 0)"/>
     <use xlink:href="#DejaVuSans-65" transform="translate(348.583984 0)"/>
    </g>
   </g>
   <g id="text_3">
    <!-- Q_limit -->
    <g transform="translate(137.730854 24.324861) scale(0.14 -0.14)">
     <defs>
      <path id="DejaVuSans-51" d="M 2522 4238 
Q 1834 4238 1429 3725 
Q 1025 3213 1025 2328 
Q 1025 1447 1429 934 
Q 1834 422 2522 422 
Q 3209 422 3611 934 
Q 4013 1447 4013 2328 
Q 4013 3213 3611 3725 
Q 3209 4238 2522 4238 
z
M 3406 84 
L 4238 -825 
L 3475 -825 
L 2784 -78 
Q 2681 -84 2626 -87 
Q 2572 -91 2522 -91 
Q 1538 -91 948 567 
Q 359 1225 359 2328 
Q 359 3434 948 4092 
Q 1538 4750 2522 4750 
Q 3503 4750 4090 4092 
Q 4678 3434 4678 2328 
Q 4678 1516 4351 937 
Q 4025 359 3406 84 
z
" transform="scale(0.015625)"/>
      <path id="DejaVuSans-6c" d="M 603 4863 
L 1178 4863 
L 1178 0 
L 603 0 
L 603 4863 
z
" transform="scale(0.015625)"/>
      <path id="DejaVuSans-6d" d="M 3328 2828 
Q 3544 3216 3844 3400 
Q 4144 3584 4550 3584 
Q 5097 3584 5394 3201 
Q 5691 2819 5691 2113 
L 5691 0 
L 5113 0 
L 5113 2094 
Q 5113 2597 4934 2840 
Q 4756 3084 4391 3084 
Q 3944 3084 3684 2787 
Q 3425 2491 3425 1978 
L 3425 0 
L 2847 0 
L 2847 2094 
Q 2847 2600 2669 2842 
Q 2491 3084 2119 3084 
Q 1678 3084 1418 2786 
Q 1159 2488 1159 1978 
L 1159 0 
L 581 0 
L 581 3500 
L 1159 3500 
L 1159 2956 
Q 1356 3278 1631 3431 
Q 1906 3584 2284 3584 
Q 2666 3584 2933 3390 
Q 3200 3197 3328 2828 
z
" transform="scale(0.015625)"/>
      <path id="DejaVuSans-74" d="M 1172 4494 
L 1172 3500 
L 2356 3500 
L 2356 3053 
L 1172 3053 
L 1172 1153 
Q 1172 725 1289 603 
Q 1406 481 1766 481 
L 2356 481 
L 2356 0 
L 1766 0 
Q 1100 0 847 248 
Q 594 497 594 1153 
L 594 3053 
L 172 3053 
L 172 3500 
L 594 3500 
L 594 4494 
L 1172 4494 
z
" transform="scale(0.015625)"/>
     </defs>
     <use xlink:href="#DejaVuSans-51"/>
     <use xlink:href="#DejaVuSans-5f" transform="translate(78.710938 0)"/>
     <use xlink:href="#DejaVuSans-6c" transform="translate(128.710938 0)"/>
     <use xlink:href="#DejaVuSans-69" transform="translate(156.494141 0)"/>
     <use xlink:href="#DejaVuSans-6d" transform="translate(184.277344 0)"/>
     <use xlink:href="#DejaVuSans-69" transform="translate(281.689453 0)"/>
     <use xlink:href="#DejaVuSans-74" transform="translate(309.472656 0)"/>
    </g>
   </g>
   <g id="text_4">
    <!-- V_out -->
    <g transform="translate(279.097626 58.10656) scale(0.14 -0.14)">
     <defs>
      <path id="DejaVuSans-6f" d="M 1959 3097 
Q 1497 3097 1228 2736 
Q 959 2375 959 1747 
Q 959 1119 1226 758 
Q 1494 397 1959 397 
Q 2419 397 2687 759 
Q 2956 1122 2956 1747 
Q 2956 2369 2687 2733 
Q 2419 3097 1959 3097 
z
M 1959 3584 
Q 2709 3584 3137 3096 
Q 3566 2609 3566 1747 
Q 3566 888 3137 398 
Q 2709 -91 1959 -91 
Q 1206 -91 779 398 
Q 353 888 353 1747 
Q 353 2609 779 3096 
Q 1206 3584 1959 3584 
z
" transform="scale(0.015625)"/>
      <path id="DejaVuSans-75" d="M 544 1381 
L 544 3500 
L 1119 3500 
L 1119 1403 
Q 1119 906 1312 657 
Q 1506 409 1894 409 
Q 2359 409 2629 706 
Q 2900 1003 2900 1516 
L 2900 3500 
L 3475 3500 
L 3475 0 
L 2900 0 
L 2900 538 
Q 2691 219 2414 64 
Q 2138 -91 1772 -91 
Q 1169 -91 856 284 
Q 544 659 544 1381 
z
M 1991 3584 
L 1991 3584 
z
" transform="scale(0.015625)"/>
     </defs>
     <use xlink:href="#DejaVuSans-56"/>
     <use xlink:href="#DejaVuSans-5f" transform="translate(68.408203 0)"/>
     <use xlink:href="#DejaVuSans-6f" transform="translate(118.408203 0)"/>
     <use xlink:href="#DejaVuSans-75" transform="translate(179.589844 0)"/>
     <use xlink:href="#DejaVuSans-74" transform="translate(242.96875 0)"/>
    </g>
   </g>
   <g id="text_5">
    <!-- R_load -->
    <g transform="translate(236.030754 115.788458) scale(0.14 -0.14)">
     <defs>
      <path id="DejaVuSans-61" d="M 2194 1759 
Q 1497 1759 1228 1600 
Q 959 1441 959 1056 
Q 959 750 1161 570 
Q 1363 391 1709 391 
Q 2188 391 2477 730 
Q 2766 1069 2766 1631 
L 2766 1759 
L 2194 1759 
z
M 3341 1997 
L 3341 0 
L 2766 0 
L 2766 531 
Q 2569 213 2275 61 
Q 1981 -91 1556 -91 
Q 1019 -91 701 211 
Q 384 513 384 1019 
Q 384 1609 779 1909 
Q 1175 2209 1959 2209 
L 2766 2209 
L 2766 2266 
Q 2766 2663 2505 2880 
Q 2244 3097 1772 3097 
Q 1472 3097 1187 3025 
Q 903 2953 641 2809 
L 641 3341 
Q 956 3463 1253 3523 
Q 1550 3584 1831 3584 
Q 2591 3584 2966 3190 
Q 3341 2797 3341 1997 
z
" transform="scale(0.015625)"/>
      <path id="DejaVuSans-64" d="M 2906 2969 
L 2906 4863 
L 3481 4863 
L 3481 0 
L 2906 0 
L 2906 525 
Q 2725 213 2448 61 
Q 2172 -91 1784 -91 
Q 1150 -91 751 415 
Q 353 922 353 1747 
Q 353 2572 751 3078 
Q 1150 3584 1784 3584 
Q 2172 3584 2448 3432 
Q 2725 3281 2906 2969 
z
M 947 1747 
Q 947 1113 1208 752 
Q 1469 391 1925 391 
Q 2381 391 2643 752 
Q 2906 1113 2906 1747 
Q 2906 2381 2643 2742 
Q 2381 3103 1925 3103 
Q 1469 3103 1208 2742 
Q 947 2381 947 1747 
z
" transform="scale(0.015625)"/>
     </defs>
     <use xlink:href="#DejaVuSans-52"/>
     <use xlink:href="#DejaVuSans-5f" transform="translate(69.482422 0)"/>
     <use xlink:href="#DejaVuSans-6c" transform="translate(119.482422 0)"/>
     <use xlink:href="#DejaVuSans-6f" transform="translate(147.265625 0)"/>
     <use xlink:href="#DejaVuSans-61" transform="translate(208.447266 0)"/>
     <use xlink:href="#DejaVuSans-64" transform="translate(269.726562 0)"/>
    </g>
   </g>
  </g>
 </g>
 <defs>
  <clipPath id="p787a24187c">
   <rect x="0" y="0" width="322.257731" height="193.68"/>
  </clipPath>
 </defs>
</svg>
