<?xml version="1.0" encoding="utf-8" standalone="no"?>
<!DOCTYPE svg PUBLIC "-//W3C//DTD SVG 1.1//EN"
  "http://www.w3.org/Graphics/SVG/1.1/DTD/svg11.dtd">
<svg xmlns:xlink="http://www.w3.org/1999/xlink" width="457.134828pt" height="274.32pt" viewBox="0 0 457.134828 274.32" xmlns="http://www.w3.org/2000/svg" version="1.1">
 <metadata>
  <rdf:RDF xmlns:dc="http://purl.org/dc/elements/1.1/" xmlns:cc="http://creativecommons.org/ns#" xmlns:rdf="http://www.w3.org/1999/02/22-rdf-syntax-ns#">
   <cc:Work>
    <dc:type rdf:resource="http://purl.org/dc/dcmitype/StillImage"/>
    <dc:date>2025-12-07T23:58:56.286685</dc:date>
    <dc:format>image/svg+xml</dc:format>
    <dc:creator>
     <cc:Agent>
      <dc:title>Matplotlib v3.10.7, https://matplotlib.org/</dc:title>
     </cc:Agent>
    </dc:creator>
   </cc:Work>
  </rdf:RDF>
 </metadata>
 <defs>
  <style type="text/css">*{stroke-linejoin: round; stroke-linecap: butt}</style>
 </defs>
 <g id="figure_1">
  <g id="patch_1">
   <path d="M 0 274.32 
L 457.134828 274.32 
L 457.134828 0 
L 0 0 
L 0 274.32 
z
" style="fill: none"/>
  </g>
  <g id="axes_1">
   <g id="patch_2">
    <path d="M 86.880635 103.024617 
C 91.642487 103.024617 96.209947 101.132713 99.577085 97.765575 
C 102.944222 94.398437 104.836126 89.830978 104.836126 85.069126 
C 104.836126 80.307274 102.944222 75.739814 99.577085 72.372676 
C 96.209947 69.005539 91.642487 67.113635 86.880635 67.113635 
C 82.118783 67.113635 77.551324 69.005539 74.184186 72.372676 
C 70.817048 75.739814 68.925144 80.307274 68.925144 85.069126 
C 68.925144 89.830978 70.817048 94.398437 74.184186 97.765575 
C 77.551324 101.132713 82.118783 103.024617 86.880635 103.024617 
L 86.880635 103.024617 
z
" clip-path="url(#pbf379ef3a7)" style="fill: none; stroke: #000000; stroke-width: 2; stroke-linejoin: miter"/>
   </g>
   <g id="patch_3">
    <path d="M 132.128472 22.224908 
L 144.697316 31.202653 
L 132.128472 40.180399 
L 132.128472 22.224908 
z
" clip-path="url(#pbf379ef3a7)" style="fill: none; stroke: #000000; stroke-width: 2; stroke-linecap: round"/>
   </g>
   <g id="patch_4">
    <path d="M 239.502308 31.202653 
C 239.502308 30.012587 239.029052 28.870045 238.187548 28.028541 
C 237.346044 27.187037 236.203502 26.71378 235.013435 26.71378 
C 233.823369 26.71378 232.680827 27.187037 231.839323 28.028541 
C 230.997819 28.870045 230.524563 30.012587 230.524563 31.202653 
" clip-path="url(#pbf379ef3a7)" style="fill: none; stroke: #000000; stroke-width: 2; stroke-linejoin: miter"/>
   </g>
   <g id="patch_5">
    <path d="M 248.480054 31.202653 
C 248.480054 30.012587 248.006797 28.870045 247.165293 28.028541 
C 246.323789 27.187037 245.181247 26.71378 243.991181 26.71378 
C 242.801114 26.71378 241.658573 27.187037 240.817068 28.028541 
C 239.975564 28.870045 239.502308 30.012587 239.502308 31.202653 
" clip-path="url(#pbf379ef3a7)" style="fill: none; stroke: #000000; stroke-width: 2; stroke-linejoin: miter"/>
   </g>
   <g id="patch_6">
    <path d="M 257.457799 31.202653 
C 257.457799 30.012587 256.984543 28.870045 256.143039 28.028541 
C 255.301535 27.187037 254.158993 26.71378 252.968926 26.71378 
C 251.77886 26.71378 250.636318 27.187037 249.794814 28.028541 
C 248.95331 28.870045 248.480054 30.012587 248.480054 31.202653 
" clip-path="url(#pbf379ef3a7)" style="fill: none; stroke: #000000; stroke-width: 2; stroke-linejoin: miter"/>
   </g>
   <g id="patch_7">
    <path d="M 266.435544 31.202653 
C 266.435544 30.012587 265.962288 28.870045 265.120784 28.028541 
C 264.27928 27.187037 263.136738 26.71378 261.946672 26.71378 
C 260.756605 26.71378 259.614063 27.187037 258.772559 28.028541 
C 257.931055 28.870045 257.457799 30.012587 257.457799 31.202653 
" clip-path="url(#pbf379ef3a7)" style="fill: none; stroke: #000000; stroke-width: 2; stroke-linejoin: miter"/>
   </g>
   <g id="line2d_1">
    <path d="M 86.880635 138.935599 
L 86.880635 103.024617 
L 86.880635 103.024617 
M 86.880635 67.113635 
L 86.880635 67.113635 
L 86.880635 31.202653 
" clip-path="url(#pbf379ef3a7)" style="fill: none; stroke: #000000; stroke-width: 2; stroke-linecap: round"/>
   </g>
   <g id="line2d_2">
    <path d="M 90.471734 94.046871 
L 83.289537 94.046871 
" clip-path="url(#pbf379ef3a7)" style="fill: none; stroke: #000000; stroke-width: 2; stroke-linecap: round"/>
   </g>
   <g id="line2d_3">
    <path d="M 86.880635 79.682479 
L 86.880635 72.500282 
" clip-path="url(#pbf379ef3a7)" style="fill: none; stroke: #000000; stroke-width: 2; stroke-linecap: round"/>
   </g>
   <g id="line2d_4">
    <path d="M 90.471734 76.09138 
L 83.289537 76.09138 
" clip-path="url(#pbf379ef3a7)" style="fill: none; stroke: #000000; stroke-width: 2; stroke-linecap: round"/>
   </g>
   <g id="line2d_5">
    <path d="M 86.880635 31.202653 
L 132.128472 31.202653 
M 144.697316 22.224908 
L 144.697316 40.180399 
M 149.365744 22.224908 
L 149.365744 40.180399 
M 149.365744 31.202653 
L 194.613581 31.202653 
" clip-path="url(#pbf379ef3a7)" style="fill: none; stroke: #000000; stroke-width: 2; stroke-linecap: round"/>
   </g>
   <g id="line2d_6">
    <path d="M 194.613581 31.202653 
L 230.524563 31.202653 
M 266.435544 31.202653 
L 302.346526 31.202653 
" clip-path="url(#pbf379ef3a7)" style="fill: none; stroke: #000000; stroke-width: 2; stroke-linecap: round"/>
   </g>
   <g id="line2d_7">
    <path d="M 302.346526 31.202653 
L 302.346526 81.837137 
M 311.324272 81.837137 
L 293.368781 81.837137 
M 311.324272 88.301114 
L 293.368781 88.301114 
M 302.346526 88.301114 
L 302.346526 138.935599 
" clip-path="url(#pbf379ef3a7)" style="fill: none; stroke: #000000; stroke-width: 2; stroke-linecap: round"/>
   </g>
   <g id="line2d_8">
    <path d="M 302.346526 138.935599 
L 302.346526 153.299991 
L 293.368781 153.299991 
L 311.324272 153.299991 
M 296.062104 157.609309 
L 308.630948 157.609309 
M 300.550977 161.918627 
L 304.142075 161.918627 
" clip-path="url(#pbf379ef3a7)" style="fill: none; stroke: #000000; stroke-width: 2; stroke-linecap: round"/>
   </g>
   <g id="line2d_9">
    <path d="M 302.346526 138.935599 
L 356.212999 138.935599 
L 410.079472 138.935599 
" clip-path="url(#pbf379ef3a7)" style="fill: none; stroke: #000000; stroke-width: 2; stroke-linecap: round"/>
   </g>
   <g id="line2d_10">
    <path d="M 410.079472 138.935599 
L 410.079472 174.84658 
L 419.057217 177.839162 
L 401.101726 183.824326 
L 419.057217 189.809489 
L 401.101726 195.794653 
L 419.057217 201.779817 
L 401.101726 207.76498 
L 410.079472 210.757562 
L 410.079472 246.668544 
" clip-path="url(#pbf379ef3a7)" style="fill: none; stroke: #000000; stroke-width: 2; stroke-linecap: round"/>
   </g>
   <g id="line2d_11">
    <path d="M 410.079472 246.668544 
L 410.079472 261.032937 
L 401.101726 261.032937 
L 419.057217 261.032937 
M 403.79505 265.342255 
L 416.363894 265.342255 
M 408.283923 269.651572 
L 411.875021 269.651572 
" clip-path="url(#pbf379ef3a7)" style="fill: none; stroke: #000000; stroke-width: 2; stroke-linecap: round"/>
   </g>
   <g id="text_1">
    <!-- V_control -->
    <g transform="translate(0.236234 88.737563) scale(0.14 -0.14)">
     <defs>
      <path id="DejaVuSans-56" d="M 1831 0 
L 50 4666 
L 709 4666 
L 2188 738 
L 3669 4666 
L 4325 4666 
L 2547 0 
L 1831 0 
z
" transform="scale(0.015625)"/>
      <path id="DejaVuSans-5f" d="M 3263 -1063 
L 3263 -1509 
L -63 -1509 
L -63 -1063 
L 3263 -1063 
z
" transform="scale(0.015625)"/>
      <path id="DejaVuSans-63" d="M 3122 3366 
L 3122 2828 
Q 2878 2963 2633 3030 
Q 2388 3097 2138 3097 
Q 1578 3097 1268 2742 
Q 959 2388 959 1747 
Q 959 1106 1268 751 
Q 1578 397 2138 397 
Q 2388 397 2633 464 
Q 2878 531 3122 666 
L 3122 134 
Q 2881 22 2623 -34 
Q 2366 -91 2075 -91 
Q 1284 -91 818 406 
Q 353 903 353 1747 
Q 353 2603 823 3093 
Q 1294 3584 2113 3584 
Q 2378 3584 2631 3529 
Q 2884 3475 3122 3366 
z
" transform="scale(0.015625)"/>
      <path id="DejaVuSans-6f" d="M 1959 3097 
Q 1497 3097 1228 2736 
Q 959 2375 959 1747 
Q 959 1119 1226 758 
Q 1494 397 1959 397 
Q 2419 397 2687 759 
Q 2956 1122 2956 1747 
Q 2956 2369 2687 2733 
Q 2419 3097 1959 3097 
z
M 1959 3584 
Q 2709 3584 3137 3096 
Q 3566 2609 3566 1747 
Q 3566 888 3137 398 
Q 2709 -91 1959 -91 
Q 1206 -91 779 398 
Q 353 888 353 1747 
Q 353 2609 779 3096 
Q 1206 3584 1959 3584 
z
" transform="scale(0.015625)"/>
      <path id="DejaVuSans-6e" d="M 3513 2113 
L 3513 0 
L 2938 0 
L 2938 2094 
Q 2938 2591 2744 2837 
Q 2550 3084 2163 3084 
Q 1697 3084 1428 2787 
Q 1159 2491 1159 1978 
L 1159 0 
L 581 0 
L 581 3500 
L 1159 3500 
L 1159 2956 
Q 1366 3272 1645 3428 
Q 1925 3584 2291 3584 
Q 2894 3584 3203 3211 
Q 3513 2838 3513 2113 
z
" transform="scale(0.015625)"/>
      <path id="DejaVuSans-74" d="M 1172 4494 
L 1172 3500 
L 2356 3500 
L 2356 3053 
L 1172 3053 
L 1172 1153 
Q 1172 725 1289 603 
Q 1406 481 1766 481 
L 2356 481 
L 2356 0 
L 1766 0 
Q 1100 0 847 248 
Q 594 497 594 1153 
L 594 3053 
L 172 3053 
L 172 3500 
L 594 3500 
L 594 4494 
L 1172 4494 
z
" transform="scale(0.015625)"/>
      <path id="DejaVuSans-72" d="M 2631 2963 
Q 2534 3019 2420 3045 
Q 2306 3072 2169 3072 
Q 1681 3072 1420 2755 
Q 1159 2438 1159 1844 
L 1159 0 
L 581 0 
L 581 3500 
L 1159 3500 
L 1159 2956 
Q 1341 3275 1631 3429 
Q 1922 3584 2338 3584 
Q 2397 3584 2469 3576 
Q 2541 3569 2628 3553 
L 2631 2963 
z
" transform="scale(0.015625)"/>
      <path id="DejaVuSans-6c" d="M 603 4863 
L 1178 4863 
L 1178 0 
L 603 0 
L 603 4863 
z
" transform="scale(0.015625)"/>
     </defs>
     <use xlink:href="#DejaVuSans-56"/>
     <use xlink:href="#DejaVuSans-5f" transform="translate(68.408203 0)"/>
     <use xlink:href="#DejaVuSans-63" transform="translate(118.408203 0)"/>
     <use xlink:href="#DejaVuSans-6f" transform="translate(173.388672 0)"/>
     <use xlink:href="#DejaVuSans-6e" transform="translate(234.570312 0)"/>
     <use xlink:href="#DejaVuSans-74" transform="translate(297.949219 0)"/>
     <use xlink:href="#DejaVuSans-72" transform="translate(337.158203 0)"/>
     <use xlink:href="#DejaVuSans-6f" transform="translate(376.021484 0)"/>
     <use xlink:href="#DejaVuSans-6c" transform="translate(437.203125 0)"/>
    </g>
   </g>
   <g id="text_2">
    <!-- D_v -->
    <g transform="translate(127.713983 15.332872) scale(0.14 -0.14)">
     <defs>
      <path id="DejaVuSans-44" d="M 1259 4147 
L 1259 519 
L 2022 519 
Q 2988 519 3436 956 
Q 3884 1394 3884 2338 
Q 3884 3275 3436 3711 
Q 2988 4147 2022 4147 
L 1259 4147 
z
M 628 4666 
L 1925 4666 
Q 3281 4666 3915 4102 
Q 4550 3538 4550 2338 
Q 4550 1131 3912 565 
Q 3275 0 1925 0 
L 628 0 
L 628 4666 
z
" transform="scale(0.015625)"/>
      <path id="DejaVuSans-76" d="M 191 3500 
L 800 3500 
L 1894 563 
L 2988 3500 
L 3597 3500 
L 2284 0 
L 1503 0 
L 191 3500 
z
" transform="scale(0.015625)"/>
     </defs>
     <use xlink:href="#DejaVuSans-44"/>
     <use xlink:href="#DejaVuSans-5f" transform="translate(77.001953 0)"/>
     <use xlink:href="#DejaVuSans-76" transform="translate(127.001953 0)"/>
    </g>
   </g>
   <g id="text_3">
    <!-- L -->
    <g transform="translate(244.579741 20.211142) scale(0.14 -0.14)">
     <defs>
      <path id="DejaVuSans-4c" d="M 628 4666 
L 1259 4666 
L 1259 531 
L 3531 531 
L 3531 0 
L 628 0 
L 628 4666 
z
" transform="scale(0.015625)"/>
     </defs>
     <use xlink:href="#DejaVuSans-4c"/>
    </g>
   </g>
   <g id="text_4">
    <!-- C -->
    <g transform="translate(280.001745 88.932251) scale(0.14 -0.14)">
     <defs>
      <path id="DejaVuSans-43" d="M 4122 4306 
L 4122 3641 
Q 3803 3938 3442 4084 
Q 3081 4231 2675 4231 
Q 1875 4231 1450 3742 
Q 1025 3253 1025 2328 
Q 1025 1406 1450 917 
Q 1875 428 2675 428 
Q 3081 428 3442 575 
Q 3803 722 4122 1019 
L 4122 359 
Q 3791 134 3420 21 
Q 3050 -91 2638 -91 
Q 1578 -91 968 557 
Q 359 1206 359 2328 
Q 359 3453 968 4101 
Q 1578 4750 2638 4750 
Q 3056 4750 3426 4639 
Q 3797 4528 4122 4306 
z
" transform="scale(0.015625)"/>
     </defs>
     <use xlink:href="#DejaVuSans-43"/>
    </g>
   </g>
   <g id="text_5">
    <!-- VCO Output -->
    <g transform="translate(371.944007 139.207625) scale(0.14 -0.14)">
     <defs>
      <path id="DejaVuSans-4f" d="M 2522 4238 
Q 1834 4238 1429 3725 
Q 1025 3213 1025 2328 
Q 1025 1447 1429 934 
Q 1834 422 2522 422 
Q 3209 422 3611 934 
Q 4013 1447 4013 2328 
Q 4013 3213 3611 3725 
Q 3209 4238 2522 4238 
z
M 2522 4750 
Q 3503 4750 4090 4092 
Q 4678 3434 4678 2328 
Q 4678 1225 4090 567 
Q 3503 -91 2522 -91 
Q 1538 -91 948 565 
Q 359 1222 359 2328 
Q 359 3434 948 4092 
Q 1538 4750 2522 4750 
z
" transform="scale(0.015625)"/>
      <path id="DejaVuSans-20" transform="scale(0.015625)"/>
      <path id="DejaVuSans-75" d="M 544 1381 
L 544 3500 
L 1119 3500 
L 1119 1403 
Q 1119 906 1312 657 
Q 1506 409 1894 409 
Q 2359 409 2629 706 
Q 2900 1003 2900 1516 
L 2900 3500 
L 3475 3500 
L 3475 0 
L 2900 0 
L 2900 538 
Q 2691 219 2414 64 
Q 2138 -91 1772 -91 
Q 1169 -91 856 284 
Q 544 659 544 1381 
z
M 1991 3584 
L 1991 3584 
z
" transform="scale(0.015625)"/>
      <path id="DejaVuSans-70" d="M 1159 525 
L 1159 -1331 
L 581 -1331 
L 581 3500 
L 1159 3500 
L 1159 2969 
Q 1341 3281 1617 3432 
Q 1894 3584 2278 3584 
Q 2916 3584 3314 3078 
Q 3713 2572 3713 1747 
Q 3713 922 3314 415 
Q 2916 -91 2278 -91 
Q 1894 -91 1617 61 
Q 1341 213 1159 525 
z
M 3116 1747 
Q 3116 2381 2855 2742 
Q 2594 3103 2138 3103 
Q 1681 3103 1420 2742 
Q 1159 2381 1159 1747 
Q 1159 1113 1420 752 
Q 1681 391 2138 391 
Q 2594 391 2855 752 
Q 3116 1113 3116 1747 
z
" transform="scale(0.015625)"/>
     </defs>
     <use xlink:href="#DejaVuSans-56"/>
     <use xlink:href="#DejaVuSans-43" transform="translate(68.408203 0)"/>
     <use xlink:href="#DejaVuSans-4f" transform="translate(138.232422 0)"/>
     <use xlink:href="#DejaVuSans-20" transform="translate(216.943359 0)"/>
     <use xlink:href="#DejaVuSans-4f" transform="translate(248.730469 0)"/>
     <use xlink:href="#DejaVuSans-75" transform="translate(327.441406 0)"/>
     <use xlink:href="#DejaVuSans-74" transform="translate(390.820312 0)"/>
     <use xlink:href="#DejaVuSans-70" transform="translate(430.029297 0)"/>
     <use xlink:href="#DejaVuSans-75" transform="translate(493.505859 0)"/>
     <use xlink:href="#DejaVuSans-74" transform="translate(556.884766 0)"/>
    </g>
   </g>
   <g id="text_6">
    <!-- R_L -->
    <g transform="translate(372.982191 196.275821) scale(0.14 -0.14)">
     <defs>
      <path id="DejaVuSans-52" d="M 2841 2188 
Q 3044 2119 3236 1894 
Q 3428 1669 3622 1275 
L 4263 0 
L 3584 0 
L 2988 1197 
Q 2756 1666 2539 1819 
Q 2322 1972 1947 1972 
L 1259 1972 
L 1259 0 
L 628 0 
L 628 4666 
L 2053 4666 
Q 2853 4666 3247 4331 
Q 3641 3997 3641 3322 
Q 3641 2881 3436 2590 
Q 3231 2300 2841 2188 
z
M 1259 4147 
L 1259 2491 
L 2053 2491 
Q 2509 2491 2742 2702 
Q 2975 2913 2975 3322 
Q 2975 3731 2742 3939 
Q 2509 4147 2053 4147 
L 1259 4147 
z
" transform="scale(0.015625)"/>
     </defs>
     <use xlink:href="#DejaVuSans-52"/>
     <use xlink:href="#DejaVuSans-5f" transform="translate(69.482422 0)"/>
     <use xlink:href="#DejaVuSans-4c" transform="translate(119.482422 0)"/>
    </g>
   </g>
  </g>
 </g>
 <defs>
  <clipPath id="pbf379ef3a7">
   <rect x="0" y="0" width="457.134828" height="274.32"/>
  </clipPath>
 </defs>
</svg>
