<?xml version="1.0" encoding="utf-8" standalone="no"?>
<!DOCTYPE svg PUBLIC "-//W3C//DTD SVG 1.1//EN"
  "http://www.w3.org/Graphics/SVG/1.1/DTD/svg11.dtd">
<svg xmlns:xlink="http://www.w3.org/1999/xlink" width="561.880289pt" height="539.265411pt" viewBox="0 0 561.880289 539.265411" xmlns="http://www.w3.org/2000/svg" version="1.1">
 <metadata>
  <rdf:RDF xmlns:dc="http://purl.org/dc/elements/1.1/" xmlns:cc="http://creativecommons.org/ns#" xmlns:rdf="http://www.w3.org/1999/02/22-rdf-syntax-ns#">
   <cc:Work>
    <dc:type rdf:resource="http://purl.org/dc/dcmitype/StillImage"/>
    <dc:date>2025-12-07T23:58:55.753763</dc:date>
    <dc:format>image/svg+xml</dc:format>
    <dc:creator>
     <cc:Agent>
      <dc:title>Matplotlib v3.10.7, https://matplotlib.org/</dc:title>
     </cc:Agent>
    </dc:creator>
   </cc:Work>
  </rdf:RDF>
 </metadata>
 <defs>
  <style type="text/css">*{stroke-linejoin: round; stroke-linecap: butt}</style>
 </defs>
 <g id="figure_1">
  <g id="patch_1">
   <path d="M 0 539.265411 
L 561.880289 539.265411 
L 561.880289 0 
L 0 0 
L 0 539.265411 
z
" style="fill: none"/>
  </g>
  <g id="axes_1">
   <g id="patch_2">
    <path d="M 80.067232 151.785824 
C 84.837927 151.785824 89.41387 149.890406 92.787261 146.517015 
C 96.160653 143.143624 98.05607 138.567681 98.05607 133.796985 
C 98.05607 129.026289 96.160653 124.450347 92.787261 121.076955 
C 89.41387 117.703564 84.837927 115.808146 80.067232 115.808146 
C 75.296536 115.808146 70.720593 117.703564 67.347202 121.076955 
C 63.97381 124.450347 62.078393 129.026289 62.078393 133.796985 
C 62.078393 138.567681 63.97381 143.143624 67.347202 146.517015 
C 70.720593 149.890406 75.296536 151.785824 80.067232 151.785824 
L 80.067232 151.785824 
z
" clip-path="url(#pbced9a5f71)" style="fill: none; stroke: #000000; stroke-width: 2; stroke-linejoin: miter"/>
   </g>
   <g id="patch_3">
    <path d="M 80.067232 36.657256 
C 81.974874 36.657256 83.806336 35.898639 85.155243 34.549732 
C 86.504151 33.200825 87.262767 31.369363 87.262767 29.46172 
C 87.262767 27.554078 86.504151 25.722616 85.155243 24.373708 
C 83.806336 23.024801 81.974874 22.266185 80.067232 22.266185 
" clip-path="url(#pbced9a5f71)" style="fill: none; stroke: #000000; stroke-width: 2; stroke-linejoin: miter"/>
   </g>
   <g id="patch_4">
    <path d="M 80.067232 51.048327 
C 81.974874 51.048327 83.806336 50.28971 85.155243 48.940803 
C 86.504151 47.591896 87.262767 45.760434 87.262767 43.852791 
C 87.262767 41.945149 86.504151 40.113687 85.155243 38.764779 
C 83.806336 37.415872 81.974874 36.657256 80.067232 36.657256 
" clip-path="url(#pbced9a5f71)" style="fill: none; stroke: #000000; stroke-width: 2; stroke-linejoin: miter"/>
   </g>
   <g id="patch_5">
    <path d="M 80.067232 65.439398 
C 81.974874 65.439398 83.806336 64.680781 85.155243 63.331874 
C 86.504151 61.982967 87.262767 60.151505 87.262767 58.243862 
C 87.262767 56.33622 86.504151 54.504758 85.155243 53.15585 
C 83.806336 51.806943 81.974874 51.048327 80.067232 51.048327 
" clip-path="url(#pbced9a5f71)" style="fill: none; stroke: #000000; stroke-width: 2; stroke-linejoin: miter"/>
   </g>
   <g id="patch_6">
    <path d="M 80.067232 79.830469 
C 81.974874 79.830469 83.806336 79.071852 85.155243 77.722945 
C 86.504151 76.374038 87.262767 74.542576 87.262767 72.634933 
C 87.262767 70.727291 86.504151 68.895829 85.155243 67.546921 
C 83.806336 66.198014 81.974874 65.439398 80.067232 65.439398 
" clip-path="url(#pbced9a5f71)" style="fill: none; stroke: #000000; stroke-width: 2; stroke-linejoin: miter"/>
   </g>
   <g id="patch_7">
    <path d="M 116.044909 22.266185 
C 114.137266 22.266185 112.305804 23.024801 110.956897 24.373708 
C 109.60799 25.722616 108.849374 27.554078 108.849374 29.46172 
C 108.849374 31.369363 109.60799 33.200825 110.956897 34.549732 
C 112.305804 35.898639 114.137266 36.657256 116.044909 36.657256 
" clip-path="url(#pbced9a5f71)" style="fill: none; stroke: #000000; stroke-width: 2; stroke-linejoin: miter"/>
   </g>
   <g id="patch_8">
    <path d="M 116.044909 36.657256 
C 114.137266 36.657256 112.305804 37.415872 110.956897 38.764779 
C 109.60799 40.113687 108.849374 41.945149 108.849374 43.852791 
C 108.849374 45.760434 109.60799 47.591896 110.956897 48.940803 
C 112.305804 50.28971 114.137266 51.048327 116.044909 51.048327 
" clip-path="url(#pbced9a5f71)" style="fill: none; stroke: #000000; stroke-width: 2; stroke-linejoin: miter"/>
   </g>
   <g id="patch_9">
    <path d="M 116.044909 51.048327 
C 114.137266 51.048327 112.305804 51.806943 110.956897 53.15585 
C 109.60799 54.504758 108.849374 56.33622 108.849374 58.243862 
C 108.849374 60.151505 109.60799 61.982967 110.956897 63.331874 
C 112.305804 64.680781 114.137266 65.439398 116.044909 65.439398 
" clip-path="url(#pbced9a5f71)" style="fill: none; stroke: #000000; stroke-width: 2; stroke-linejoin: miter"/>
   </g>
   <g id="patch_10">
    <path d="M 116.044909 65.439398 
C 114.137266 65.439398 112.305804 66.198014 110.956897 67.546921 
C 109.60799 68.895829 108.849374 70.727291 108.849374 72.634933 
C 108.849374 74.542576 109.60799 76.374038 110.956897 77.722945 
C 112.305804 79.071852 114.137266 79.830469 116.044909 79.830469 
" clip-path="url(#pbced9a5f71)" style="fill: none; stroke: #000000; stroke-width: 2; stroke-linejoin: miter"/>
   </g>
   <g id="patch_11">
    <path d="M 235.670687 178.769082 
L 248.262874 187.763501 
L 235.670687 196.757921 
L 235.670687 178.769082 
z
" clip-path="url(#pbced9a5f71)" style="fill: none; stroke: #000000; stroke-width: 2; stroke-linecap: round"/>
   </g>
   <g id="patch_12">
    <path d="M 304.927716 235.433924 
L 295.933297 248.026111 
L 286.938877 235.433924 
L 304.927716 235.433924 
z
" clip-path="url(#pbced9a5f71)" style="fill: none; stroke: #000000; stroke-width: 2; stroke-linecap: round"/>
   </g>
   <g id="line2d_1">
    <path d="M 80.067232 187.763501 
L 80.067232 151.785824 
L 80.067232 151.785824 
M 80.067232 115.808146 
L 80.067232 115.808146 
L 80.067232 79.830469 
" clip-path="url(#pbced9a5f71)" style="fill: none; stroke: #000000; stroke-width: 2; stroke-linecap: round"/>
   </g>
   <g id="line2d_2">
    <path d="M 89.061651 133.796985 
L 88.312116 131.934644 
L 87.562581 130.199217 
L 86.813046 128.708973 
L 86.063511 127.565469 
L 85.313976 126.846632 
L 84.564441 126.60145 
L 83.814906 126.846632 
L 83.065371 127.565469 
L 82.315836 128.708973 
L 81.566301 130.199217 
L 80.816766 131.934644 
L 80.067232 133.796985 
L 79.317697 135.659327 
L 78.568162 137.394753 
L 77.818627 138.884997 
L 77.069092 140.028502 
L 76.319557 140.747339 
L 75.570022 140.992521 
L 74.820487 140.747339 
L 74.070952 140.028502 
L 73.321417 138.884997 
L 72.571882 137.394753 
L 71.822347 135.659327 
L 71.072812 133.796985 
" clip-path="url(#pbced9a5f71)" style="fill: none; stroke: #000000; stroke-width: 2; stroke-linecap: round"/>
   </g>
   <g id="line2d_3">
    <path d="M 94.458303 22.266185 
L 94.458303 79.830469 
" clip-path="url(#pbced9a5f71)" style="fill: none; stroke: #000000; stroke-width: 2; stroke-linecap: round"/>
   </g>
   <g id="line2d_4">
    <path d="M 101.653838 22.266185 
L 101.653838 79.830469 
" clip-path="url(#pbced9a5f71)" style="fill: none; stroke: #000000; stroke-width: 2; stroke-linecap: round"/>
   </g>
   <g id="line2d_5">
    <path d="M 80.067232 79.830469 
L 80.067232 130.558994 
M 89.061651 130.558994 
L 71.072812 130.558994 
M 89.061651 137.034976 
L 71.072812 137.034976 
M 80.067232 137.034976 
L 80.067232 187.763501 
" clip-path="url(#pbced9a5f71)" style="fill: none; stroke: #000000; stroke-width: 2; stroke-linecap: round"/>
   </g>
   <g id="line2d_6">
    <path d="M 80.067232 187.763501 
L 80.067232 202.154572 
L 71.072812 202.154572 
L 89.061651 202.154572 
M 73.771138 206.471894 
L 86.363325 206.471894 
M 78.268348 210.789215 
L 81.866115 210.789215 
" clip-path="url(#pbced9a5f71)" style="fill: none; stroke: #000000; stroke-width: 2; stroke-linecap: round"/>
   </g>
   <g id="line2d_7">
    <path d="M 80.067232 187.763501 
L 130.795757 187.763501 
M 130.795757 178.769082 
L 130.795757 196.757921 
M 137.271739 178.769082 
L 137.271739 196.757921 
M 137.271739 187.763501 
L 188.000264 187.763501 
" clip-path="url(#pbced9a5f71)" style="fill: none; stroke: #000000; stroke-width: 2; stroke-linecap: round"/>
   </g>
   <g id="line2d_8">
    <path d="M 188.000264 187.763501 
L 188.000264 202.154572 
L 179.005845 202.154572 
L 196.994683 202.154572 
M 181.704171 206.471894 
L 194.296358 206.471894 
M 186.20138 210.789215 
L 189.799148 210.789215 
" clip-path="url(#pbced9a5f71)" style="fill: none; stroke: #000000; stroke-width: 2; stroke-linecap: round"/>
   </g>
   <g id="line2d_9">
    <path d="M 188.000264 187.763501 
L 235.670687 187.763501 
M 248.262874 178.769082 
L 248.262874 196.757921 
M 248.262874 187.763501 
L 295.933297 187.763501 
" clip-path="url(#pbced9a5f71)" style="fill: none; stroke: #000000; stroke-width: 2; stroke-linecap: round"/>
   </g>
   <g id="line2d_10">
    <path d="M 295.933297 187.763501 
L 295.933297 235.433924 
M 304.927716 248.026111 
L 286.938877 248.026111 
M 295.933297 248.026111 
L 295.933297 295.696534 
" clip-path="url(#pbced9a5f71)" style="fill: none; stroke: #000000; stroke-width: 2; stroke-linecap: round"/>
   </g>
   <g id="line2d_11">
    <path d="M 295.933297 295.696534 
L 295.933297 310.087605 
L 286.938877 310.087605 
L 304.927716 310.087605 
M 289.637203 314.404926 
L 302.22939 314.404926 
M 294.134413 318.722248 
L 297.732181 318.722248 
" clip-path="url(#pbced9a5f71)" style="fill: none; stroke: #000000; stroke-width: 2; stroke-linecap: round"/>
   </g>
   <g id="line2d_12">
    <path d="M 295.933297 295.696534 
L 331.910974 295.696534 
L 334.909114 286.702115 
L 340.905394 304.690953 
L 346.901673 286.702115 
L 352.897953 304.690953 
L 358.894232 286.702115 
L 364.890512 304.690953 
L 367.888652 295.696534 
L 403.866329 295.696534 
" clip-path="url(#pbced9a5f71)" style="fill: none; stroke: #000000; stroke-width: 2; stroke-linecap: round"/>
   </g>
   <g id="line2d_13">
    <path d="M 403.866329 295.696534 
L 403.866329 331.674212 
L 412.860749 334.672351 
L 394.87191 340.668631 
L 412.860749 346.664911 
L 394.87191 352.66119 
L 412.860749 358.65747 
L 394.87191 364.653749 
L 403.866329 367.651889 
L 403.866329 403.629567 
" clip-path="url(#pbced9a5f71)" style="fill: none; stroke: #000000; stroke-width: 2; stroke-linecap: round"/>
   </g>
   <g id="line2d_14">
    <path d="M 403.866329 403.629567 
L 403.866329 418.020638 
L 394.87191 418.020638 
L 412.860749 418.020638 
M 397.570236 422.337959 
L 410.162423 422.337959 
M 402.067445 426.65528 
L 405.665213 426.65528 
" clip-path="url(#pbced9a5f71)" style="fill: none; stroke: #000000; stroke-width: 2; stroke-linecap: round"/>
   </g>
   <g id="line2d_15">
    <path d="M 403.866329 403.629567 
L 457.832845 403.629567 
L 511.799362 403.629567 
" clip-path="url(#pbced9a5f71)" style="fill: none; stroke: #000000; stroke-width: 2; stroke-linecap: round"/>
   </g>
   <g id="line2d_16">
    <path d="M 511.799362 403.629567 
L 511.799362 454.358092 
M 520.793781 454.358092 
L 502.804942 454.358092 
M 520.793781 460.834074 
L 502.804942 460.834074 
M 511.799362 460.834074 
L 511.799362 511.562599 
" clip-path="url(#pbced9a5f71)" style="fill: none; stroke: #000000; stroke-width: 2; stroke-linecap: round"/>
   </g>
   <g id="line2d_17">
    <path d="M 511.799362 511.562599 
L 511.799362 525.95367 
L 502.804942 525.95367 
L 520.793781 525.95367 
M 505.503268 530.270991 
L 518.095455 530.270991 
M 510.000478 534.588313 
L 513.598246 534.588313 
" clip-path="url(#pbced9a5f71)" style="fill: none; stroke: #000000; stroke-width: 2; stroke-linecap: round"/>
   </g>
   <g id="text_1">
    <!-- RF Input -->
    <g transform="translate(0 137.66011) scale(0.14 -0.14)">
     <defs>
      <path id="DejaVuSans-52" d="M 2841 2188 
Q 3044 2119 3236 1894 
Q 3428 1669 3622 1275 
L 4263 0 
L 3584 0 
L 2988 1197 
Q 2756 1666 2539 1819 
Q 2322 1972 1947 1972 
L 1259 1972 
L 1259 0 
L 628 0 
L 628 4666 
L 2053 4666 
Q 2853 4666 3247 4331 
Q 3641 3997 3641 3322 
Q 3641 2881 3436 2590 
Q 3231 2300 2841 2188 
z
M 1259 4147 
L 1259 2491 
L 2053 2491 
Q 2509 2491 2742 2702 
Q 2975 2913 2975 3322 
Q 2975 3731 2742 3939 
Q 2509 4147 2053 4147 
L 1259 4147 
z
" transform="scale(0.015625)"/>
      <path id="DejaVuSans-46" d="M 628 4666 
L 3309 4666 
L 3309 4134 
L 1259 4134 
L 1259 2759 
L 3109 2759 
L 3109 2228 
L 1259 2228 
L 1259 0 
L 628 0 
L 628 4666 
z
" transform="scale(0.015625)"/>
      <path id="DejaVuSans-20" transform="scale(0.015625)"/>
      <path id="DejaVuSans-49" d="M 628 4666 
L 1259 4666 
L 1259 0 
L 628 0 
L 628 4666 
z
" transform="scale(0.015625)"/>
      <path id="DejaVuSans-6e" d="M 3513 2113 
L 3513 0 
L 2938 0 
L 2938 2094 
Q 2938 2591 2744 2837 
Q 2550 3084 2163 3084 
Q 1697 3084 1428 2787 
Q 1159 2491 1159 1978 
L 1159 0 
L 581 0 
L 581 3500 
L 1159 3500 
L 1159 2956 
Q 1366 3272 1645 3428 
Q 1925 3584 2291 3584 
Q 2894 3584 3203 3211 
Q 3513 2838 3513 2113 
z
" transform="scale(0.015625)"/>
      <path id="DejaVuSans-70" d="M 1159 525 
L 1159 -1331 
L 581 -1331 
L 581 3500 
L 1159 3500 
L 1159 2969 
Q 1341 3281 1617 3432 
Q 1894 3584 2278 3584 
Q 2916 3584 3314 3078 
Q 3713 2572 3713 1747 
Q 3713 922 3314 415 
Q 2916 -91 2278 -91 
Q 1894 -91 1617 61 
Q 1341 213 1159 525 
z
M 3116 1747 
Q 3116 2381 2855 2742 
Q 2594 3103 2138 3103 
Q 1681 3103 1420 2742 
Q 1159 2381 1159 1747 
Q 1159 1113 1420 752 
Q 1681 391 2138 391 
Q 2594 391 2855 752 
Q 3116 1113 3116 1747 
z
" transform="scale(0.015625)"/>
      <path id="DejaVuSans-75" d="M 544 1381 
L 544 3500 
L 1119 3500 
L 1119 1403 
Q 1119 906 1312 657 
Q 1506 409 1894 409 
Q 2359 409 2629 706 
Q 2900 1003 2900 1516 
L 2900 3500 
L 3475 3500 
L 3475 0 
L 2900 0 
L 2900 538 
Q 2691 219 2414 64 
Q 2138 -91 1772 -91 
Q 1169 -91 856 284 
Q 544 659 544 1381 
z
M 1991 3584 
L 1991 3584 
z
" transform="scale(0.015625)"/>
      <path id="DejaVuSans-74" d="M 1172 4494 
L 1172 3500 
L 2356 3500 
L 2356 3053 
L 1172 3053 
L 1172 1153 
Q 1172 725 1289 603 
Q 1406 481 1766 481 
L 2356 481 
L 2356 0 
L 1766 0 
Q 1100 0 847 248 
Q 594 497 594 1153 
L 594 3053 
L 172 3053 
L 172 3500 
L 594 3500 
L 594 4494 
L 1172 4494 
z
" transform="scale(0.015625)"/>
     </defs>
     <use xlink:href="#DejaVuSans-52"/>
     <use xlink:href="#DejaVuSans-46" transform="translate(69.482422 0)"/>
     <use xlink:href="#DejaVuSans-20" transform="translate(127.001953 0)"/>
     <use xlink:href="#DejaVuSans-49" transform="translate(158.789062 0)"/>
     <use xlink:href="#DejaVuSans-6e" transform="translate(188.28125 0)"/>
     <use xlink:href="#DejaVuSans-70" transform="translate(251.660156 0)"/>
     <use xlink:href="#DejaVuSans-75" transform="translate(315.136719 0)"/>
     <use xlink:href="#DejaVuSans-74" transform="translate(378.515625 0)"/>
    </g>
   </g>
   <g id="text_2">
    <!-- T1 -->
    <g transform="translate(89.326852 15.756855) scale(0.14 -0.14)">
     <defs>
      <path id="DejaVuSans-54" d="M -19 4666 
L 3928 4666 
L 3928 4134 
L 2272 4134 
L 2272 0 
L 1638 0 
L 1638 4134 
L -19 4134 
L -19 4666 
z
" transform="scale(0.015625)"/>
      <path id="DejaVuSans-31" d="M 794 531 
L 1825 531 
L 1825 4091 
L 703 3866 
L 703 4441 
L 1819 4666 
L 2450 4666 
L 2450 531 
L 3481 531 
L 3481 0 
L 794 0 
L 794 531 
z
" transform="scale(0.015625)"/>
     </defs>
     <use xlink:href="#DejaVuSans-54"/>
     <use xlink:href="#DejaVuSans-31" transform="translate(61.083984 0)"/>
    </g>
   </g>
   <g id="text_3">
    <!-- C1 -->
    <g transform="translate(48.791607 137.66011) scale(0.14 -0.14)">
     <defs>
      <path id="DejaVuSans-43" d="M 4122 4306 
L 4122 3641 
Q 3803 3938 3442 4084 
Q 3081 4231 2675 4231 
Q 1875 4231 1450 3742 
Q 1025 3253 1025 2328 
Q 1025 1406 1450 917 
Q 1875 428 2675 428 
Q 3081 428 3442 575 
Q 3803 722 4122 1019 
L 4122 359 
Q 3791 134 3420 21 
Q 3050 -91 2638 -91 
Q 1578 -91 968 557 
Q 359 1206 359 2328 
Q 359 3453 968 4101 
Q 1578 4750 2638 4750 
Q 3056 4750 3426 4639 
Q 3797 4528 4122 4306 
z
" transform="scale(0.015625)"/>
     </defs>
     <use xlink:href="#DejaVuSans-43"/>
     <use xlink:href="#DejaVuSans-31" transform="translate(69.824219 0)"/>
    </g>
   </g>
   <g id="text_4">
    <!-- C2 -->
    <g transform="translate(124.692029 172.259752) scale(0.14 -0.14)">
     <defs>
      <path id="DejaVuSans-32" d="M 1228 531 
L 3431 531 
L 3431 0 
L 469 0 
L 469 531 
Q 828 903 1448 1529 
Q 2069 2156 2228 2338 
Q 2531 2678 2651 2914 
Q 2772 3150 2772 3378 
Q 2772 3750 2511 3984 
Q 2250 4219 1831 4219 
Q 1534 4219 1204 4116 
Q 875 4013 500 3803 
L 500 4441 
Q 881 4594 1212 4672 
Q 1544 4750 1819 4750 
Q 2544 4750 2975 4387 
Q 3406 4025 3406 3419 
Q 3406 3131 3298 2873 
Q 3191 2616 2906 2266 
Q 2828 2175 2409 1742 
Q 1991 1309 1228 531 
z
" transform="scale(0.015625)"/>
     </defs>
     <use xlink:href="#DejaVuSans-43"/>
     <use xlink:href="#DejaVuSans-32" transform="translate(69.824219 0)"/>
    </g>
   </g>
   <g id="text_5">
    <!-- D1 -->
    <g transform="translate(232.12303 172.259752) scale(0.14 -0.14)">
     <defs>
      <path id="DejaVuSans-44" d="M 1259 4147 
L 1259 519 
L 2022 519 
Q 2988 519 3436 956 
Q 3884 1394 3884 2338 
Q 3884 3275 3436 3711 
Q 2988 4147 2022 4147 
L 1259 4147 
z
M 628 4666 
L 1925 4666 
Q 3281 4666 3915 4102 
Q 4550 3538 4550 2338 
Q 4550 1131 3912 565 
Q 3275 0 1925 0 
L 628 0 
L 628 4666 
z
" transform="scale(0.015625)"/>
     </defs>
     <use xlink:href="#DejaVuSans-44"/>
     <use xlink:href="#DejaVuSans-31" transform="translate(77.001953 0)"/>
    </g>
   </g>
   <g id="text_6">
    <!-- D2 -->
    <g transform="translate(263.65361 245.593143) scale(0.14 -0.14)">
     <use xlink:href="#DejaVuSans-44"/>
     <use xlink:href="#DejaVuSans-32" transform="translate(77.001953 0)"/>
    </g>
   </g>
   <g id="text_7">
    <!-- R1 -->
    <g transform="translate(340.582157 280.192784) scale(0.14 -0.14)">
     <use xlink:href="#DejaVuSans-52"/>
     <use xlink:href="#DejaVuSans-31" transform="translate(69.482422 0)"/>
    </g>
   </g>
   <g id="text_8">
    <!-- R2 -->
    <g transform="translate(372.63883 353.526175) scale(0.14 -0.14)">
     <use xlink:href="#DejaVuSans-52"/>
     <use xlink:href="#DejaVuSans-32" transform="translate(69.482422 0)"/>
    </g>
   </g>
   <g id="text_9">
    <!-- Audio Output -->
    <g transform="translate(468.96088 403.894924) scale(0.14 -0.14)">
     <defs>
      <path id="DejaVuSans-41" d="M 2188 4044 
L 1331 1722 
L 3047 1722 
L 2188 4044 
z
M 1831 4666 
L 2547 4666 
L 4325 0 
L 3669 0 
L 3244 1197 
L 1141 1197 
L 716 0 
L 50 0 
L 1831 4666 
z
" transform="scale(0.015625)"/>
      <path id="DejaVuSans-64" d="M 2906 2969 
L 2906 4863 
L 3481 4863 
L 3481 0 
L 2906 0 
L 2906 525 
Q 2725 213 2448 61 
Q 2172 -91 1784 -91 
Q 1150 -91 751 415 
Q 353 922 353 1747 
Q 353 2572 751 3078 
Q 1150 3584 1784 3584 
Q 2172 3584 2448 3432 
Q 2725 3281 2906 2969 
z
M 947 1747 
Q 947 1113 1208 752 
Q 1469 391 1925 391 
Q 2381 391 2643 752 
Q 2906 1113 2906 1747 
Q 2906 2381 2643 2742 
Q 2381 3103 1925 3103 
Q 1469 3103 1208 2742 
Q 947 2381 947 1747 
z
" transform="scale(0.015625)"/>
      <path id="DejaVuSans-69" d="M 603 3500 
L 1178 3500 
L 1178 0 
L 603 0 
L 603 3500 
z
M 603 4863 
L 1178 4863 
L 1178 4134 
L 603 4134 
L 603 4863 
z
" transform="scale(0.015625)"/>
      <path id="DejaVuSans-6f" d="M 1959 3097 
Q 1497 3097 1228 2736 
Q 959 2375 959 1747 
Q 959 1119 1226 758 
Q 1494 397 1959 397 
Q 2419 397 2687 759 
Q 2956 1122 2956 1747 
Q 2956 2369 2687 2733 
Q 2419 3097 1959 3097 
z
M 1959 3584 
Q 2709 3584 3137 3096 
Q 3566 2609 3566 1747 
Q 3566 888 3137 398 
Q 2709 -91 1959 -91 
Q 1206 -91 779 398 
Q 353 888 353 1747 
Q 353 2609 779 3096 
Q 1206 3584 1959 3584 
z
" transform="scale(0.015625)"/>
      <path id="DejaVuSans-4f" d="M 2522 4238 
Q 1834 4238 1429 3725 
Q 1025 3213 1025 2328 
Q 1025 1447 1429 934 
Q 1834 422 2522 422 
Q 3209 422 3611 934 
Q 4013 1447 4013 2328 
Q 4013 3213 3611 3725 
Q 3209 4238 2522 4238 
z
M 2522 4750 
Q 3503 4750 4090 4092 
Q 4678 3434 4678 2328 
Q 4678 1225 4090 567 
Q 3503 -91 2522 -91 
Q 1538 -91 948 565 
Q 359 1222 359 2328 
Q 359 3434 948 4092 
Q 1538 4750 2522 4750 
z
" transform="scale(0.015625)"/>
     </defs>
     <use xlink:href="#DejaVuSans-41"/>
     <use xlink:href="#DejaVuSans-75" transform="translate(68.408203 0)"/>
     <use xlink:href="#DejaVuSans-64" transform="translate(131.787109 0)"/>
     <use xlink:href="#DejaVuSans-69" transform="translate(195.263672 0)"/>
     <use xlink:href="#DejaVuSans-6f" transform="translate(223.046875 0)"/>
     <use xlink:href="#DejaVuSans-20" transform="translate(284.228516 0)"/>
     <use xlink:href="#DejaVuSans-4f" transform="translate(316.015625 0)"/>
     <use xlink:href="#DejaVuSans-75" transform="translate(394.726562 0)"/>
     <use xlink:href="#DejaVuSans-74" transform="translate(458.105469 0)"/>
     <use xlink:href="#DejaVuSans-70" transform="translate(497.314453 0)"/>
     <use xlink:href="#DejaVuSans-75" transform="translate(560.791016 0)"/>
     <use xlink:href="#DejaVuSans-74" transform="translate(624.169922 0)"/>
    </g>
   </g>
   <g id="text_10">
    <!-- C_out -->
    <g transform="translate(459.50405 461.140927) scale(0.14 -0.14)">
     <defs>
      <path id="DejaVuSans-5f" d="M 3263 -1063 
L 3263 -1509 
L -63 -1509 
L -63 -1063 
L 3263 -1063 
z
" transform="scale(0.015625)"/>
     </defs>
     <use xlink:href="#DejaVuSans-43"/>
     <use xlink:href="#DejaVuSans-5f" transform="translate(69.824219 0)"/>
     <use xlink:href="#DejaVuSans-6f" transform="translate(119.824219 0)"/>
     <use xlink:href="#DejaVuSans-75" transform="translate(181.005859 0)"/>
     <use xlink:href="#DejaVuSans-74" transform="translate(244.384766 0)"/>
    </g>
   </g>
  </g>
 </g>
 <defs>
  <clipPath id="pbced9a5f71">
   <rect x="1.000289" y="0" width="560.88" height="539.265411"/>
  </clipPath>
 </defs>
</svg>
