<?xml version="1.0" encoding="utf-8" standalone="no"?>
<!DOCTYPE svg PUBLIC "-//W3C//DTD SVG 1.1//EN"
  "http://www.w3.org/Graphics/SVG/1.1/DTD/svg11.dtd">
<svg xmlns:xlink="http://www.w3.org/1999/xlink" width="433.083282pt" height="310.32pt" viewBox="0 0 433.083282 310.32" xmlns="http://www.w3.org/2000/svg" version="1.1">
 <metadata>
  <rdf:RDF xmlns:dc="http://purl.org/dc/elements/1.1/" xmlns:cc="http://creativecommons.org/ns#" xmlns:rdf="http://www.w3.org/1999/02/22-rdf-syntax-ns#">
   <cc:Work>
    <dc:type rdf:resource="http://purl.org/dc/dcmitype/StillImage"/>
    <dc:date>2025-12-07T23:58:55.778854</dc:date>
    <dc:format>image/svg+xml</dc:format>
    <dc:creator>
     <cc:Agent>
      <dc:title>Matplotlib v3.10.7, https://matplotlib.org/</dc:title>
     </cc:Agent>
    </dc:creator>
   </cc:Work>
  </rdf:RDF>
 </metadata>
 <defs>
  <style type="text/css">*{stroke-linejoin: round; stroke-linecap: butt}</style>
 </defs>
 <g id="figure_1">
  <g id="patch_1">
   <path d="M 0 310.32 
L 433.083282 310.32 
L 433.083282 0 
L 0 0 
L 0 310.32 
z
" style="fill: none"/>
  </g>
  <g id="axes_1">
   <g id="patch_2">
    <path d="M 89.75532 138.975465 
C 94.518539 138.975465 99.087309 137.083018 102.455413 133.714914 
C 105.823517 130.34681 107.715963 125.77804 107.715963 121.014822 
C 107.715963 116.251604 105.823517 111.682833 102.455413 108.314729 
C 99.087309 104.946625 94.518539 103.054179 89.75532 103.054179 
C 84.992102 103.054179 80.423332 104.946625 77.055228 108.314729 
C 73.687124 111.682833 71.794677 116.251604 71.794677 121.014822 
C 71.794677 125.77804 73.687124 130.34681 77.055228 133.714914 
C 80.423332 137.083018 84.992102 138.975465 89.75532 138.975465 
L 89.75532 138.975465 
z
" clip-path="url(#p4510aff843)" style="fill: none; stroke: #000000; stroke-width: 2; stroke-linejoin: miter"/>
   </g>
   <g id="patch_3">
    <path d="M 275.291045 138.975465 
C 280.054263 138.975465 284.623033 137.083018 287.991137 133.714914 
C 291.359241 130.34681 293.251688 125.77804 293.251688 121.014822 
C 293.251688 116.251604 291.359241 111.682833 287.991137 108.314729 
C 284.623033 104.946625 280.054263 103.054179 275.291045 103.054179 
C 270.527827 103.054179 265.959056 104.946625 262.590952 108.314729 
C 259.222848 111.682833 257.330402 116.251604 257.330402 121.014822 
C 257.330402 125.77804 259.222848 130.34681 262.590952 133.714914 
C 265.959056 137.083018 270.527827 138.975465 275.291045 138.975465 
L 275.291045 138.975465 
z
" clip-path="url(#p4510aff843)" style="fill: none; stroke: #000000; stroke-width: 2; stroke-linejoin: miter"/>
   </g>
   <g id="line2d_1">
    <path d="M 89.75532 174.896751 
L 89.75532 138.975465 
L 89.75532 138.975465 
M 89.75532 103.054179 
L 89.75532 103.054179 
L 89.75532 67.132893 
" clip-path="url(#p4510aff843)" style="fill: none; stroke: #000000; stroke-width: 2; stroke-linecap: round"/>
   </g>
   <g id="line2d_2">
    <path d="M 98.735642 121.014822 
L 97.987282 119.155399 
L 97.238922 117.422693 
L 96.490562 115.934785 
L 95.742201 114.793073 
L 94.993841 114.075362 
L 94.245481 113.830565 
L 93.497121 114.075362 
L 92.748761 114.793073 
L 92.000401 115.934785 
L 91.252041 117.422693 
L 90.503681 119.155399 
L 89.75532 121.014822 
L 89.00696 122.874244 
L 88.2586 124.60695 
L 87.51024 126.094859 
L 86.76188 127.236571 
L 86.01352 127.954281 
L 85.26516 128.199079 
L 84.516799 127.954281 
L 83.768439 127.236571 
L 83.020079 126.094859 
L 82.271719 124.60695 
L 81.523359 122.874244 
L 80.774999 121.014822 
" clip-path="url(#p4510aff843)" style="fill: none; stroke: #000000; stroke-width: 2; stroke-linecap: round"/>
   </g>
   <g id="line2d_3">
    <path d="M 89.75532 67.132893 
L 140.404334 67.132893 
M 140.404334 58.152571 
L 140.404334 76.113214 
M 146.870165 58.152571 
L 146.870165 76.113214 
M 146.870165 67.132893 
L 197.519179 67.132893 
" clip-path="url(#p4510aff843)" style="fill: none; stroke: #000000; stroke-width: 2; stroke-linecap: round"/>
   </g>
   <g id="line2d_4">
    <path d="M 197.519179 67.132893 
L 197.519179 22.231285 
L 275.291045 67.132893 
L 197.519179 112.0345 
L 197.519179 67.132893 
M 275.291045 67.132893 
" clip-path="url(#p4510aff843)" style="fill: none; stroke: #000000; stroke-width: 2; stroke-linecap: round"/>
   </g>
   <g id="line2d_5">
    <path d="M 203.648534 44.682089 
L 210.832791 44.682089 
" clip-path="url(#p4510aff843)" style="fill: none; stroke: #000000; stroke-width: 2; stroke-linecap: round"/>
   </g>
   <g id="line2d_6">
    <path d="M 203.648534 89.583696 
L 210.832791 89.583696 
" clip-path="url(#p4510aff843)" style="fill: none; stroke: #000000; stroke-width: 2; stroke-linecap: round"/>
   </g>
   <g id="line2d_7">
    <path d="M 207.240662 93.175825 
L 207.240662 85.991568 
" clip-path="url(#p4510aff843)" style="fill: none; stroke: #000000; stroke-width: 2; stroke-linecap: round"/>
   </g>
   <g id="line2d_8">
    <path d="M 275.291045 67.132893 
L 275.291045 103.054179 
L 275.291045 103.054179 
M 275.291045 138.975465 
L 275.291045 138.975465 
L 275.291045 174.896751 
" clip-path="url(#p4510aff843)" style="fill: none; stroke: #000000; stroke-width: 2; stroke-linecap: round"/>
   </g>
   <g id="line2d_9">
    <path d="M 266.310723 121.014822 
L 267.059083 122.874244 
L 267.807444 124.60695 
L 268.555804 126.094859 
L 269.304164 127.236571 
L 270.052524 127.954281 
L 270.800884 128.199079 
L 271.549244 127.954281 
L 272.297604 127.236571 
L 273.045964 126.094859 
L 273.794325 124.60695 
L 274.542685 122.874244 
L 275.291045 121.014822 
L 276.039405 119.155399 
L 276.787765 117.422693 
L 277.536125 115.934785 
L 278.284485 114.793073 
L 279.032845 114.075362 
L 279.781206 113.830565 
L 280.529566 114.075362 
L 281.277926 114.793073 
L 282.026286 115.934785 
L 282.774646 117.422693 
L 283.523006 119.155399 
L 284.271366 121.014822 
" clip-path="url(#p4510aff843)" style="fill: none; stroke: #000000; stroke-width: 2; stroke-linecap: round"/>
   </g>
   <g id="line2d_10">
    <path d="M 275.291045 174.896751 
L 275.291045 189.265266 
L 266.310723 189.265266 
L 284.271366 189.265266 
M 269.00482 193.57582 
L 281.57727 193.57582 
M 273.494981 197.886374 
L 277.087109 197.886374 
" clip-path="url(#p4510aff843)" style="fill: none; stroke: #000000; stroke-width: 2; stroke-linecap: round"/>
   </g>
   <g id="line2d_11">
    <path d="M 275.291045 174.896751 
L 325.940058 174.896751 
M 325.940058 165.91643 
L 325.940058 183.877073 
M 332.40589 165.91643 
L 332.40589 183.877073 
M 332.40589 174.896751 
L 383.054903 174.896751 
" clip-path="url(#p4510aff843)" style="fill: none; stroke: #000000; stroke-width: 2; stroke-linecap: round"/>
   </g>
   <g id="line2d_12">
    <path d="M 383.054903 174.896751 
L 383.054903 210.818037 
L 392.035225 213.811478 
L 374.074582 219.798359 
L 392.035225 225.78524 
L 374.074582 231.772121 
L 392.035225 237.759002 
L 374.074582 243.745883 
L 383.054903 246.739323 
L 383.054903 282.66061 
" clip-path="url(#p4510aff843)" style="fill: none; stroke: #000000; stroke-width: 2; stroke-linecap: round"/>
   </g>
   <g id="line2d_13">
    <path d="M 383.054903 282.66061 
L 383.054903 297.029124 
L 374.074582 297.029124 
L 392.035225 297.029124 
M 376.768678 301.339678 
L 389.341128 301.339678 
M 381.258839 305.650233 
L 384.850968 305.650233 
" clip-path="url(#p4510aff843)" style="fill: none; stroke: #000000; stroke-width: 2; stroke-linecap: round"/>
   </g>
   <g id="text_1">
    <!-- SSB Input -->
    <g transform="translate(0.120986 124.877947) scale(0.14 -0.14)">
     <defs>
      <path id="DejaVuSans-53" d="M 3425 4513 
L 3425 3897 
Q 3066 4069 2747 4153 
Q 2428 4238 2131 4238 
Q 1616 4238 1336 4038 
Q 1056 3838 1056 3469 
Q 1056 3159 1242 3001 
Q 1428 2844 1947 2747 
L 2328 2669 
Q 3034 2534 3370 2195 
Q 3706 1856 3706 1288 
Q 3706 609 3251 259 
Q 2797 -91 1919 -91 
Q 1588 -91 1214 -16 
Q 841 59 441 206 
L 441 856 
Q 825 641 1194 531 
Q 1563 422 1919 422 
Q 2459 422 2753 634 
Q 3047 847 3047 1241 
Q 3047 1584 2836 1778 
Q 2625 1972 2144 2069 
L 1759 2144 
Q 1053 2284 737 2584 
Q 422 2884 422 3419 
Q 422 4038 858 4394 
Q 1294 4750 2059 4750 
Q 2388 4750 2728 4690 
Q 3069 4631 3425 4513 
z
" transform="scale(0.015625)"/>
      <path id="DejaVuSans-42" d="M 1259 2228 
L 1259 519 
L 2272 519 
Q 2781 519 3026 730 
Q 3272 941 3272 1375 
Q 3272 1813 3026 2020 
Q 2781 2228 2272 2228 
L 1259 2228 
z
M 1259 4147 
L 1259 2741 
L 2194 2741 
Q 2656 2741 2882 2914 
Q 3109 3088 3109 3444 
Q 3109 3797 2882 3972 
Q 2656 4147 2194 4147 
L 1259 4147 
z
M 628 4666 
L 2241 4666 
Q 2963 4666 3353 4366 
Q 3744 4066 3744 3513 
Q 3744 3084 3544 2831 
Q 3344 2578 2956 2516 
Q 3422 2416 3680 2098 
Q 3938 1781 3938 1306 
Q 3938 681 3513 340 
Q 3088 0 2303 0 
L 628 0 
L 628 4666 
z
" transform="scale(0.015625)"/>
      <path id="DejaVuSans-20" transform="scale(0.015625)"/>
      <path id="DejaVuSans-49" d="M 628 4666 
L 1259 4666 
L 1259 0 
L 628 0 
L 628 4666 
z
" transform="scale(0.015625)"/>
      <path id="DejaVuSans-6e" d="M 3513 2113 
L 3513 0 
L 2938 0 
L 2938 2094 
Q 2938 2591 2744 2837 
Q 2550 3084 2163 3084 
Q 1697 3084 1428 2787 
Q 1159 2491 1159 1978 
L 1159 0 
L 581 0 
L 581 3500 
L 1159 3500 
L 1159 2956 
Q 1366 3272 1645 3428 
Q 1925 3584 2291 3584 
Q 2894 3584 3203 3211 
Q 3513 2838 3513 2113 
z
" transform="scale(0.015625)"/>
      <path id="DejaVuSans-70" d="M 1159 525 
L 1159 -1331 
L 581 -1331 
L 581 3500 
L 1159 3500 
L 1159 2969 
Q 1341 3281 1617 3432 
Q 1894 3584 2278 3584 
Q 2916 3584 3314 3078 
Q 3713 2572 3713 1747 
Q 3713 922 3314 415 
Q 2916 -91 2278 -91 
Q 1894 -91 1617 61 
Q 1341 213 1159 525 
z
M 3116 1747 
Q 3116 2381 2855 2742 
Q 2594 3103 2138 3103 
Q 1681 3103 1420 2742 
Q 1159 2381 1159 1747 
Q 1159 1113 1420 752 
Q 1681 391 2138 391 
Q 2594 391 2855 752 
Q 3116 1113 3116 1747 
z
" transform="scale(0.015625)"/>
      <path id="DejaVuSans-75" d="M 544 1381 
L 544 3500 
L 1119 3500 
L 1119 1403 
Q 1119 906 1312 657 
Q 1506 409 1894 409 
Q 2359 409 2629 706 
Q 2900 1003 2900 1516 
L 2900 3500 
L 3475 3500 
L 3475 0 
L 2900 0 
L 2900 538 
Q 2691 219 2414 64 
Q 2138 -91 1772 -91 
Q 1169 -91 856 284 
Q 544 659 544 1381 
z
M 1991 3584 
L 1991 3584 
z
" transform="scale(0.015625)"/>
      <path id="DejaVuSans-74" d="M 1172 4494 
L 1172 3500 
L 2356 3500 
L 2356 3053 
L 1172 3053 
L 1172 1153 
Q 1172 725 1289 603 
Q 1406 481 1766 481 
L 2356 481 
L 2356 0 
L 1766 0 
Q 1100 0 847 248 
Q 594 497 594 1153 
L 594 3053 
L 172 3053 
L 172 3500 
L 594 3500 
L 594 4494 
L 1172 4494 
z
" transform="scale(0.015625)"/>
     </defs>
     <use xlink:href="#DejaVuSans-53"/>
     <use xlink:href="#DejaVuSans-53" transform="translate(63.476562 0)"/>
     <use xlink:href="#DejaVuSans-42" transform="translate(126.953125 0)"/>
     <use xlink:href="#DejaVuSans-20" transform="translate(195.556641 0)"/>
     <use xlink:href="#DejaVuSans-49" transform="translate(227.34375 0)"/>
     <use xlink:href="#DejaVuSans-6e" transform="translate(256.835938 0)"/>
     <use xlink:href="#DejaVuSans-70" transform="translate(320.214844 0)"/>
     <use xlink:href="#DejaVuSans-75" transform="translate(383.691406 0)"/>
     <use xlink:href="#DejaVuSans-74" transform="translate(447.070312 0)"/>
    </g>
   </g>
   <g id="text_2">
    <!-- C_in -->
    <g transform="translate(128.868343 51.259505) scale(0.14 -0.14)">
     <defs>
      <path id="DejaVuSans-43" d="M 4122 4306 
L 4122 3641 
Q 3803 3938 3442 4084 
Q 3081 4231 2675 4231 
Q 1875 4231 1450 3742 
Q 1025 3253 1025 2328 
Q 1025 1406 1450 917 
Q 1875 428 2675 428 
Q 3081 428 3442 575 
Q 3803 722 4122 1019 
L 4122 359 
Q 3791 134 3420 21 
Q 3050 -91 2638 -91 
Q 1578 -91 968 557 
Q 359 1206 359 2328 
Q 359 3453 968 4101 
Q 1578 4750 2638 4750 
Q 3056 4750 3426 4639 
Q 3797 4528 4122 4306 
z
" transform="scale(0.015625)"/>
      <path id="DejaVuSans-5f" d="M 3263 -1063 
L 3263 -1509 
L -63 -1509 
L -63 -1063 
L 3263 -1063 
z
" transform="scale(0.015625)"/>
      <path id="DejaVuSans-69" d="M 603 3500 
L 1178 3500 
L 1178 0 
L 603 0 
L 603 3500 
z
M 603 4863 
L 1178 4863 
L 1178 4134 
L 603 4134 
L 603 4863 
z
" transform="scale(0.015625)"/>
     </defs>
     <use xlink:href="#DejaVuSans-43"/>
     <use xlink:href="#DejaVuSans-5f" transform="translate(69.824219 0)"/>
     <use xlink:href="#DejaVuSans-69" transform="translate(119.824219 0)"/>
     <use xlink:href="#DejaVuSans-6e" transform="translate(147.607422 0)"/>
    </g>
   </g>
   <g id="text_3">
    <!-- Mixer -->
    <g transform="translate(217.311518 15.727594) scale(0.14 -0.14)">
     <defs>
      <path id="DejaVuSans-4d" d="M 628 4666 
L 1569 4666 
L 2759 1491 
L 3956 4666 
L 4897 4666 
L 4897 0 
L 4281 0 
L 4281 4097 
L 3078 897 
L 2444 897 
L 1241 4097 
L 1241 0 
L 628 0 
L 628 4666 
z
" transform="scale(0.015625)"/>
      <path id="DejaVuSans-78" d="M 3513 3500 
L 2247 1797 
L 3578 0 
L 2900 0 
L 1881 1375 
L 863 0 
L 184 0 
L 1544 1831 
L 300 3500 
L 978 3500 
L 1906 2253 
L 2834 3500 
L 3513 3500 
z
" transform="scale(0.015625)"/>
      <path id="DejaVuSans-65" d="M 3597 1894 
L 3597 1613 
L 953 1613 
Q 991 1019 1311 708 
Q 1631 397 2203 397 
Q 2534 397 2845 478 
Q 3156 559 3463 722 
L 3463 178 
Q 3153 47 2828 -22 
Q 2503 -91 2169 -91 
Q 1331 -91 842 396 
Q 353 884 353 1716 
Q 353 2575 817 3079 
Q 1281 3584 2069 3584 
Q 2775 3584 3186 3129 
Q 3597 2675 3597 1894 
z
M 3022 2063 
Q 3016 2534 2758 2815 
Q 2500 3097 2075 3097 
Q 1594 3097 1305 2825 
Q 1016 2553 972 2059 
L 3022 2063 
z
" transform="scale(0.015625)"/>
      <path id="DejaVuSans-72" d="M 2631 2963 
Q 2534 3019 2420 3045 
Q 2306 3072 2169 3072 
Q 1681 3072 1420 2755 
Q 1159 2438 1159 1844 
L 1159 0 
L 581 0 
L 581 3500 
L 1159 3500 
L 1159 2956 
Q 1341 3275 1631 3429 
Q 1922 3584 2338 3584 
Q 2397 3584 2469 3576 
Q 2541 3569 2628 3553 
L 2631 2963 
z
" transform="scale(0.015625)"/>
     </defs>
     <use xlink:href="#DejaVuSans-4d"/>
     <use xlink:href="#DejaVuSans-69" transform="translate(86.279297 0)"/>
     <use xlink:href="#DejaVuSans-78" transform="translate(114.0625 0)"/>
     <use xlink:href="#DejaVuSans-65" transform="translate(170.117188 0)"/>
     <use xlink:href="#DejaVuSans-72" transform="translate(231.640625 0)"/>
    </g>
   </g>
   <g id="text_4">
    <!-- BFO -->
    <g transform="translate(225.060148 124.877947) scale(0.14 -0.14)">
     <defs>
      <path id="DejaVuSans-46" d="M 628 4666 
L 3309 4666 
L 3309 4134 
L 1259 4134 
L 1259 2759 
L 3109 2759 
L 3109 2228 
L 1259 2228 
L 1259 0 
L 628 0 
L 628 4666 
z
" transform="scale(0.015625)"/>
      <path id="DejaVuSans-4f" d="M 2522 4238 
Q 1834 4238 1429 3725 
Q 1025 3213 1025 2328 
Q 1025 1447 1429 934 
Q 1834 422 2522 422 
Q 3209 422 3611 934 
Q 4013 1447 4013 2328 
Q 4013 3213 3611 3725 
Q 3209 4238 2522 4238 
z
M 2522 4750 
Q 3503 4750 4090 4092 
Q 4678 3434 4678 2328 
Q 4678 1225 4090 567 
Q 3503 -91 2522 -91 
Q 1538 -91 948 565 
Q 359 1222 359 2328 
Q 359 3434 948 4092 
Q 1538 4750 2522 4750 
z
" transform="scale(0.015625)"/>
     </defs>
     <use xlink:href="#DejaVuSans-42"/>
     <use xlink:href="#DejaVuSans-46" transform="translate(68.603516 0)"/>
     <use xlink:href="#DejaVuSans-4f" transform="translate(126.123047 0)"/>
    </g>
   </g>
   <g id="text_5">
    <!-- C_out -->
    <g transform="translate(309.321412 159.023363) scale(0.14 -0.14)">
     <defs>
      <path id="DejaVuSans-6f" d="M 1959 3097 
Q 1497 3097 1228 2736 
Q 959 2375 959 1747 
Q 959 1119 1226 758 
Q 1494 397 1959 397 
Q 2419 397 2687 759 
Q 2956 1122 2956 1747 
Q 2956 2369 2687 2733 
Q 2419 3097 1959 3097 
z
M 1959 3584 
Q 2709 3584 3137 3096 
Q 3566 2609 3566 1747 
Q 3566 888 3137 398 
Q 2709 -91 1959 -91 
Q 1206 -91 779 398 
Q 353 888 353 1747 
Q 353 2609 779 3096 
Q 1206 3584 1959 3584 
z
" transform="scale(0.015625)"/>
     </defs>
     <use xlink:href="#DejaVuSans-43"/>
     <use xlink:href="#DejaVuSans-5f" transform="translate(69.824219 0)"/>
     <use xlink:href="#DejaVuSans-6f" transform="translate(119.824219 0)"/>
     <use xlink:href="#DejaVuSans-75" transform="translate(181.005859 0)"/>
     <use xlink:href="#DejaVuSans-74" transform="translate(244.384766 0)"/>
    </g>
   </g>
   <g id="text_6">
    <!-- Audio Output -->
    <g transform="translate(340.210782 175.167748) scale(0.14 -0.14)">
     <defs>
      <path id="DejaVuSans-41" d="M 2188 4044 
L 1331 1722 
L 3047 1722 
L 2188 4044 
z
M 1831 4666 
L 2547 4666 
L 4325 0 
L 3669 0 
L 3244 1197 
L 1141 1197 
L 716 0 
L 50 0 
L 1831 4666 
z
" transform="scale(0.015625)"/>
      <path id="DejaVuSans-64" d="M 2906 2969 
L 2906 4863 
L 3481 4863 
L 3481 0 
L 2906 0 
L 2906 525 
Q 2725 213 2448 61 
Q 2172 -91 1784 -91 
Q 1150 -91 751 415 
Q 353 922 353 1747 
Q 353 2572 751 3078 
Q 1150 3584 1784 3584 
Q 2172 3584 2448 3432 
Q 2725 3281 2906 2969 
z
M 947 1747 
Q 947 1113 1208 752 
Q 1469 391 1925 391 
Q 2381 391 2643 752 
Q 2906 1113 2906 1747 
Q 2906 2381 2643 2742 
Q 2381 3103 1925 3103 
Q 1469 3103 1208 2742 
Q 947 2381 947 1747 
z
" transform="scale(0.015625)"/>
     </defs>
     <use xlink:href="#DejaVuSans-41"/>
     <use xlink:href="#DejaVuSans-75" transform="translate(68.408203 0)"/>
     <use xlink:href="#DejaVuSans-64" transform="translate(131.787109 0)"/>
     <use xlink:href="#DejaVuSans-69" transform="translate(195.263672 0)"/>
     <use xlink:href="#DejaVuSans-6f" transform="translate(223.046875 0)"/>
     <use xlink:href="#DejaVuSans-20" transform="translate(284.228516 0)"/>
     <use xlink:href="#DejaVuSans-4f" transform="translate(316.015625 0)"/>
     <use xlink:href="#DejaVuSans-75" transform="translate(394.726562 0)"/>
     <use xlink:href="#DejaVuSans-74" transform="translate(458.105469 0)"/>
     <use xlink:href="#DejaVuSans-70" transform="translate(497.314453 0)"/>
     <use xlink:href="#DejaVuSans-75" transform="translate(560.791016 0)"/>
     <use xlink:href="#DejaVuSans-74" transform="translate(624.169922 0)"/>
    </g>
   </g>
   <g id="text_7">
    <!-- R_L -->
    <g transform="translate(345.954016 232.25243) scale(0.14 -0.14)">
     <defs>
      <path id="DejaVuSans-52" d="M 2841 2188 
Q 3044 2119 3236 1894 
Q 3428 1669 3622 1275 
L 4263 0 
L 3584 0 
L 2988 1197 
Q 2756 1666 2539 1819 
Q 2322 1972 1947 1972 
L 1259 1972 
L 1259 0 
L 628 0 
L 628 4666 
L 2053 4666 
Q 2853 4666 3247 4331 
Q 3641 3997 3641 3322 
Q 3641 2881 3436 2590 
Q 3231 2300 2841 2188 
z
M 1259 4147 
L 1259 2491 
L 2053 2491 
Q 2509 2491 2742 2702 
Q 2975 2913 2975 3322 
Q 2975 3731 2742 3939 
Q 2509 4147 2053 4147 
L 1259 4147 
z
" transform="scale(0.015625)"/>
      <path id="DejaVuSans-4c" d="M 628 4666 
L 1259 4666 
L 1259 531 
L 3531 531 
L 3531 0 
L 628 0 
L 628 4666 
z
" transform="scale(0.015625)"/>
     </defs>
     <use xlink:href="#DejaVuSans-52"/>
     <use xlink:href="#DejaVuSans-5f" transform="translate(69.482422 0)"/>
     <use xlink:href="#DejaVuSans-4c" transform="translate(119.482422 0)"/>
    </g>
   </g>
  </g>
 </g>
 <defs>
  <clipPath id="p4510aff843">
   <rect x="0" y="0" width="433.057334" height="310.32"/>
  </clipPath>
 </defs>
</svg>
